<?xml version="1.0" encoding="UTF-8" standalone="no"?>
<!DOCTYPE svg PUBLIC "-//W3C//DTD SVG 1.1//EN"
 "http://www.w3.org/Graphics/SVG/1.1/DTD/svg11.dtd">
<!-- Generated by graphviz version 2.44.0 (20200408.0750)
 -->
<!-- Title: dependency&#45;cruiser output Pages: 1 -->
<svg width="618pt" height="684pt"
 viewBox="0.00 0.00 617.53 684.00" xmlns="http://www.w3.org/2000/svg" xmlns:xlink="http://www.w3.org/1999/xlink">
<g id="graph0" class="graph" transform="scale(1 1) rotate(0) translate(4 680)">
<title>dependency&#45;cruiser output</title>
<polygon fill="white" stroke="transparent" points="-4,4 -4,-680 613.53,-680 613.53,4 -4,4"/>
<g id="clust1" class="cluster">
<title>cluster_data&#45;access</title>
<path fill="#ffffff" stroke="black" stroke-width="2" d="M503.53,-8C503.53,-8 549.53,-8 549.53,-8 555.53,-8 561.53,-14 561.53,-20 561.53,-20 561.53,-111 561.53,-111 561.53,-117 555.53,-123 549.53,-123 549.53,-123 503.53,-123 503.53,-123 497.53,-123 491.53,-117 491.53,-111 491.53,-111 491.53,-20 491.53,-20 491.53,-14 497.53,-8 503.53,-8"/>
<text text-anchor="middle" x="526.53" y="-110.9" font-family="Helvetica,sans-Serif" font-weight="bold" font-size="9.00">data&#45;access</text>
</g>
<g id="clust2" class="cluster">
<title>cluster_separated</title>
<path fill="#ffffff" stroke="black" stroke-width="2" d="M20,-131C20,-131 591.53,-131 591.53,-131 597.53,-131 603.53,-137 603.53,-143 603.53,-143 603.53,-656 603.53,-656 603.53,-662 597.53,-668 591.53,-668 591.53,-668 20,-668 20,-668 14,-668 8,-662 8,-656 8,-656 8,-143 8,-143 8,-137 14,-131 20,-131"/>
<text text-anchor="middle" x="305.76" y="-655.9" font-family="Helvetica,sans-Serif" font-weight="bold" font-size="9.00">separated</text>
</g>
<g id="clust3" class="cluster">
<title>cluster_separated/welcome</title>
<path fill="#ffffff" stroke="black" stroke-width="2" d="M28,-139C28,-139 583.53,-139 583.53,-139 589.53,-139 595.53,-145 595.53,-151 595.53,-151 595.53,-629 595.53,-629 595.53,-635 589.53,-641 583.53,-641 583.53,-641 28,-641 28,-641 22,-641 16,-635 16,-629 16,-629 16,-151 16,-151 16,-145 22,-139 28,-139"/>
<text text-anchor="middle" x="305.76" y="-628.9" font-family="Helvetica,sans-Serif" font-weight="bold" font-size="9.00">welcome</text>
</g>
<g id="clust4" class="cluster">
<title>cluster_separated/welcome/business&#45;logic</title>
<path fill="#ffffff" stroke="black" stroke-width="2" d="M345.51,-147C345.51,-147 429.53,-147 429.53,-147 435.53,-147 441.53,-153 441.53,-159 441.53,-159 441.53,-343 441.53,-343 441.53,-349 435.53,-355 429.53,-355 429.53,-355 345.51,-355 345.51,-355 339.51,-355 333.51,-349 333.51,-343 333.51,-343 333.51,-159 333.51,-159 333.51,-153 339.51,-147 345.51,-147"/>
<text text-anchor="middle" x="387.52" y="-342.9" font-family="Helvetica,sans-Serif" font-weight="bold" font-size="9.00">business&#45;logic</text>
</g>
<g id="clust5" class="cluster">
<title>cluster_separated/welcome/presentations</title>
<path fill="#ffffff" stroke="black" stroke-width="2" d="M36,-363C36,-363 575.53,-363 575.53,-363 581.53,-363 587.53,-369 587.53,-375 587.53,-375 587.53,-602 587.53,-602 587.53,-608 581.53,-614 575.53,-614 575.53,-614 36,-614 36,-614 30,-614 24,-608 24,-602 24,-602 24,-375 24,-375 24,-369 30,-363 36,-363"/>
<text text-anchor="middle" x="305.76" y="-601.9" font-family="Helvetica,sans-Serif" font-weight="bold" font-size="9.00">presentations</text>
</g>
<g id="clust6" class="cluster">
<title>cluster_separated/welcome/presentations/integrate&#45;multi&#45;page</title>
<path fill="#ffffff" stroke="black" stroke-width="2" d="M44,-371C44,-371 567.53,-371 567.53,-371 573.53,-371 579.53,-377 579.53,-383 579.53,-383 579.53,-575 579.53,-575 579.53,-581 573.53,-587 567.53,-587 567.53,-587 44,-587 44,-587 38,-587 32,-581 32,-575 32,-575 32,-383 32,-383 32,-377 38,-371 44,-371"/>
<text text-anchor="middle" x="305.76" y="-574.9" font-family="Helvetica,sans-Serif" font-weight="bold" font-size="9.00">integrate&#45;multi&#45;page</text>
</g>
<g id="clust7" class="cluster">
<title>cluster_separated/welcome/presentations/integrate&#45;multi&#45;page/src</title>
<path fill="#ffffff" stroke="black" stroke-width="2" d="M52,-379C52,-379 559.53,-379 559.53,-379 565.53,-379 571.53,-385 571.53,-391 571.53,-391 571.53,-548 571.53,-548 571.53,-554 565.53,-560 559.53,-560 559.53,-560 52,-560 52,-560 46,-560 40,-554 40,-548 40,-548 40,-391 40,-391 40,-385 46,-379 52,-379"/>
<text text-anchor="middle" x="305.76" y="-547.9" font-family="Helvetica,sans-Serif" font-weight="bold" font-size="9.00">src</text>
</g>
<g id="clust8" class="cluster">
<title>cluster_separated/welcome/presentations/integrate&#45;multi&#45;page/src/components</title>
<path fill="#ffffff" stroke="black" stroke-width="2" d="M360.52,-418C360.52,-418 414.52,-418 414.52,-418 420.52,-418 426.52,-424 426.52,-430 426.52,-430 426.52,-521 426.52,-521 426.52,-527 420.52,-533 414.52,-533 414.52,-533 360.52,-533 360.52,-533 354.52,-533 348.52,-527 348.52,-521 348.52,-521 348.52,-430 348.52,-430 348.52,-424 354.52,-418 360.52,-418"/>
<text text-anchor="middle" x="387.52" y="-520.9" font-family="Helvetica,sans-Serif" font-weight="bold" font-size="9.00">components</text>
</g>
<g id="clust9" class="cluster">
<title>cluster_separated/welcome/presentations/integrate&#45;multi&#45;page/src/custom&#45;events</title>
<path fill="#ffffff" stroke="black" stroke-width="2" d="M501.53,-480C501.53,-480 551.53,-480 551.53,-480 557.53,-480 563.53,-486 563.53,-492 563.53,-492 563.53,-521 563.53,-521 563.53,-527 557.53,-533 551.53,-533 551.53,-533 501.53,-533 501.53,-533 495.53,-533 489.53,-527 489.53,-521 489.53,-521 489.53,-492 489.53,-492 489.53,-486 495.53,-480 501.53,-480"/>
<text text-anchor="middle" x="526.53" y="-520.9" font-family="Helvetica,sans-Serif" font-weight="bold" font-size="9.00">custom&#45;events</text>
</g>
<g id="clust10" class="cluster">
<title>cluster_separated/welcome/presentations/integrate&#45;multi&#45;page/src/handlers</title>
<path fill="#ffffff" stroke="black" stroke-width="2" d="M245.51,-387C245.51,-387 313.51,-387 313.51,-387 319.51,-387 325.51,-393 325.51,-399 325.51,-399 325.51,-521 325.51,-521 325.51,-527 319.51,-533 313.51,-533 313.51,-533 245.51,-533 245.51,-533 239.51,-533 233.51,-527 233.51,-521 233.51,-521 233.51,-399 233.51,-399 233.51,-393 239.51,-387 245.51,-387"/>
<text text-anchor="middle" x="279.51" y="-520.9" font-family="Helvetica,sans-Serif" font-weight="bold" font-size="9.00">handlers</text>
</g>
<g id="clust11" class="cluster">
<title>cluster_separated/welcome/presentations/integrate&#45;multi&#45;page/src/init</title>
<path fill="#ffffff" stroke="black" stroke-width="2" d="M60,-418C60,-418 113.51,-418 113.51,-418 119.51,-418 125.51,-424 125.51,-430 125.51,-430 125.51,-521 125.51,-521 125.51,-527 119.51,-533 113.51,-533 113.51,-533 60,-533 60,-533 54,-533 48,-527 48,-521 48,-521 48,-430 48,-430 48,-424 54,-418 60,-418"/>
<text text-anchor="middle" x="86.75" y="-520.9" font-family="Helvetica,sans-Serif" font-weight="bold" font-size="9.00">init</text>
</g>
<g id="clust12" class="cluster">
<title>cluster_separated/welcome/presentations/integrate&#45;multi&#45;page/src/listeners</title>
<path fill="#ffffff" stroke="black" stroke-width="2" d="M145.51,-418C145.51,-418 213.51,-418 213.51,-418 219.51,-418 225.51,-424 225.51,-430 225.51,-430 225.51,-521 225.51,-521 225.51,-527 219.51,-533 213.51,-533 213.51,-533 145.51,-533 145.51,-533 139.51,-533 133.51,-527 133.51,-521 133.51,-521 133.51,-430 133.51,-430 133.51,-424 139.51,-418 145.51,-418"/>
<text text-anchor="middle" x="179.51" y="-520.9" font-family="Helvetica,sans-Serif" font-weight="bold" font-size="9.00">listeners</text>
</g>
<!-- data&#45;access/find.js -->
<g id="node1" class="node">
<title>data&#45;access/find.js</title>
<g id="a_node1"><a xlink:href="data-access/find.js" xlink:title="find.js">
<polygon fill="#ffffcc" stroke="black" points="553.53,-96.3 551.98,-98.37 541.13,-98.37 539.58,-96.3 499.53,-96.3 499.53,-77.7 553.53,-77.7 553.53,-96.3"/>
<text text-anchor="middle" x="526.53" y="-84.3" font-family="Helvetica,sans-Serif" font-size="9.00">find.js</text>
</a>
</g>
</g>
<!-- data&#45;access/load.js -->
<g id="node2" class="node">
<title>data&#45;access/load.js</title>
<g id="a_node2"><a xlink:href="data-access/load.js" xlink:title="load.js">
<polygon fill="#ffffcc" stroke="black" points="553.53,-65.3 551.98,-67.37 541.13,-67.37 539.58,-65.3 499.53,-65.3 499.53,-46.7 553.53,-46.7 553.53,-65.3"/>
<text text-anchor="middle" x="526.53" y="-53.3" font-family="Helvetica,sans-Serif" font-size="9.00">load.js</text>
</a>
</g>
</g>
<!-- data&#45;access/save.js -->
<g id="node3" class="node">
<title>data&#45;access/save.js</title>
<g id="a_node3"><a xlink:href="data-access/save.js" xlink:title="save.js">
<polygon fill="#ffffcc" stroke="black" points="553.53,-34.3 551.98,-36.37 541.13,-36.37 539.58,-34.3 499.53,-34.3 499.53,-15.7 553.53,-15.7 553.53,-34.3"/>
<text text-anchor="middle" x="526.53" y="-22.3" font-family="Helvetica,sans-Serif" font-size="9.00">save.js</text>
</a>
</g>
</g>
<!-- separated/welcome/business&#45;logic/be&#45;welcoming.js -->
<g id="node4" class="node">
<title>separated/welcome/business&#45;logic/be&#45;welcoming.js</title>
<g id="a_node4"><a xlink:href="separated/welcome/business-logic/be-welcoming.js" xlink:title="be&#45;welcoming.js">
<path fill="#ffffcc" stroke="black" d="M421.32,-235.3C421.32,-235.3 353.72,-235.3 353.72,-235.3 350.62,-235.3 347.52,-232.2 347.52,-229.1 347.52,-229.1 347.52,-222.9 347.52,-222.9 347.52,-219.8 350.62,-216.7 353.72,-216.7 353.72,-216.7 421.32,-216.7 421.32,-216.7 424.42,-216.7 427.52,-219.8 427.52,-222.9 427.52,-222.9 427.52,-229.1 427.52,-229.1 427.52,-232.2 424.42,-235.3 421.32,-235.3"/>
<text text-anchor="middle" x="387.52" y="-223.3" font-family="Helvetica,sans-Serif" font-size="9.00">be&#45;welcoming.js</text>
</a>
</g>
</g>
<!-- separated/welcome/business&#45;logic/be&#45;welcoming.js&#45;&gt;data&#45;access/find.js -->
<g id="edge1" class="edge">
<title>separated/welcome/business&#45;logic/be&#45;welcoming.js&#45;&gt;data&#45;access/find.js</title>
<path fill="none" stroke="#000000" stroke-width="2" stroke-opacity="0.200000" d="M427.63,-217.57C432.56,-215.55 437.34,-213.07 441.53,-210 480.92,-181.13 507.91,-127.92 519.35,-101.99"/>
<polygon fill="#000000" fill-opacity="0.200000" stroke="#000000" stroke-width="2" stroke-opacity="0.200000" points="521.36,-102.64 521.81,-96.3 517.5,-100.98 521.36,-102.64"/>
</g>
<!-- separated/welcome/business&#45;logic/initialize&#45;state.js -->
<g id="node5" class="node">
<title>separated/welcome/business&#45;logic/initialize&#45;state.js</title>
<g id="a_node5"><a xlink:href="separated/welcome/business-logic/initialize-state.js" xlink:title="initialize&#45;state.js">
<path fill="#ffffcc" stroke="black" d="M421.32,-266.3C421.32,-266.3 353.72,-266.3 353.72,-266.3 350.62,-266.3 347.52,-263.2 347.52,-260.1 347.52,-260.1 347.52,-253.9 347.52,-253.9 347.52,-250.8 350.62,-247.7 353.72,-247.7 353.72,-247.7 421.32,-247.7 421.32,-247.7 424.42,-247.7 427.52,-250.8 427.52,-253.9 427.52,-253.9 427.52,-260.1 427.52,-260.1 427.52,-263.2 424.42,-266.3 421.32,-266.3"/>
<text text-anchor="middle" x="387.52" y="-254.3" font-family="Helvetica,sans-Serif" font-size="9.00">initialize&#45;state.js</text>
</a>
</g>
</g>
<!-- separated/welcome/business&#45;logic/initialize&#45;state.js&#45;&gt;data&#45;access/load.js -->
<g id="edge2" class="edge">
<title>separated/welcome/business&#45;logic/initialize&#45;state.js&#45;&gt;data&#45;access/load.js</title>
<path fill="none" stroke="#000000" stroke-width="2" stroke-opacity="0.200000" d="M427.31,-250.34C432.59,-248.07 437.55,-245.04 441.53,-241 496.29,-185.34 438.36,-130.98 489.53,-72 490.87,-70.45 492.4,-69.04 494.04,-67.77"/>
<polygon fill="#000000" fill-opacity="0.200000" stroke="#000000" stroke-width="2" stroke-opacity="0.200000" points="495.41,-69.38 499.26,-64.32 493.1,-65.87 495.41,-69.38"/>
</g>
<!-- separated/welcome/business&#45;logic/read&#45;greeting.js -->
<g id="node6" class="node">
<title>separated/welcome/business&#45;logic/read&#45;greeting.js</title>
<g id="a_node6"><a xlink:href="separated/welcome/business-logic/read-greeting.js" xlink:title="read&#45;greeting.js">
<path fill="#ffffcc" stroke="black" d="M420.33,-297.3C420.33,-297.3 354.71,-297.3 354.71,-297.3 351.61,-297.3 348.51,-294.2 348.51,-291.1 348.51,-291.1 348.51,-284.9 348.51,-284.9 348.51,-281.8 351.61,-278.7 354.71,-278.7 354.71,-278.7 420.33,-278.7 420.33,-278.7 423.43,-278.7 426.53,-281.8 426.53,-284.9 426.53,-284.9 426.53,-291.1 426.53,-291.1 426.53,-294.2 423.43,-297.3 420.33,-297.3"/>
<text text-anchor="middle" x="387.52" y="-285.3" font-family="Helvetica,sans-Serif" font-size="9.00">read&#45;greeting.js</text>
</a>
</g>
</g>
<!-- separated/welcome/business&#45;logic/read&#45;greeting.js&#45;&gt;data&#45;access/find.js -->
<g id="edge3" class="edge">
<title>separated/welcome/business&#45;logic/read&#45;greeting.js&#45;&gt;data&#45;access/find.js</title>
<path fill="none" stroke="#000000" stroke-width="2" stroke-opacity="0.200000" d="M426.8,-280.79C432.14,-278.6 437.26,-275.73 441.53,-272 494.76,-225.42 516.14,-138.31 522.9,-102.74"/>
<polygon fill="#000000" fill-opacity="0.200000" stroke="#000000" stroke-width="2" stroke-opacity="0.200000" points="524.99,-103 524,-96.72 520.86,-102.24 524.99,-103"/>
</g>
<!-- separated/welcome/business&#45;logic/read&#45;message.js -->
<g id="node7" class="node">
<title>separated/welcome/business&#45;logic/read&#45;message.js</title>
<g id="a_node7"><a xlink:href="separated/welcome/business-logic/read-message.js" xlink:title="read&#45;message.js">
<path fill="#ffffcc" stroke="black" d="M422.33,-328.3C422.33,-328.3 352.71,-328.3 352.71,-328.3 349.61,-328.3 346.51,-325.2 346.51,-322.1 346.51,-322.1 346.51,-315.9 346.51,-315.9 346.51,-312.8 349.61,-309.7 352.71,-309.7 352.71,-309.7 422.33,-309.7 422.33,-309.7 425.43,-309.7 428.53,-312.8 428.53,-315.9 428.53,-315.9 428.53,-322.1 428.53,-322.1 428.53,-325.2 425.43,-328.3 422.33,-328.3"/>
<text text-anchor="middle" x="387.52" y="-316.3" font-family="Helvetica,sans-Serif" font-size="9.00">read&#45;message.js</text>
</a>
</g>
</g>
<!-- separated/welcome/business&#45;logic/read&#45;message.js&#45;&gt;data&#45;access/find.js -->
<g id="edge4" class="edge">
<title>separated/welcome/business&#45;logic/read&#45;message.js&#45;&gt;data&#45;access/find.js</title>
<path fill="none" stroke="#000000" stroke-width="2" stroke-opacity="0.200000" d="M428.6,-311.3C433.33,-309.17 437.79,-306.46 441.53,-303 502.12,-246.95 519.54,-142.04 524.07,-102.56"/>
<polygon fill="#000000" fill-opacity="0.200000" stroke="#000000" stroke-width="2" stroke-opacity="0.200000" points="526.18,-102.57 524.74,-96.38 522.01,-102.12 526.18,-102.57"/>
</g>
<!-- separated/welcome/business&#45;logic/update&#45;greeting.js -->
<g id="node8" class="node">
<title>separated/welcome/business&#45;logic/update&#45;greeting.js</title>
<g id="a_node8"><a xlink:href="separated/welcome/business-logic/update-greeting.js" xlink:title="update&#45;greeting.js">
<path fill="#ffffcc" stroke="black" d="M425.34,-204.3C425.34,-204.3 349.7,-204.3 349.7,-204.3 346.6,-204.3 343.5,-201.2 343.5,-198.1 343.5,-198.1 343.5,-191.9 343.5,-191.9 343.5,-188.8 346.6,-185.7 349.7,-185.7 349.7,-185.7 425.34,-185.7 425.34,-185.7 428.44,-185.7 431.54,-188.8 431.54,-191.9 431.54,-191.9 431.54,-198.1 431.54,-198.1 431.54,-201.2 428.44,-204.3 425.34,-204.3"/>
<text text-anchor="middle" x="387.52" y="-192.3" font-family="Helvetica,sans-Serif" font-size="9.00">update&#45;greeting.js</text>
</a>
</g>
</g>
<!-- separated/welcome/business&#45;logic/update&#45;greeting.js&#45;&gt;data&#45;access/save.js -->
<g id="edge5" class="edge">
<title>separated/welcome/business&#45;logic/update&#45;greeting.js&#45;&gt;data&#45;access/save.js</title>
<path fill="none" stroke="#000000" stroke-width="2" stroke-opacity="0.200000" d="M431.61,-186.01C435.23,-184.1 438.61,-181.79 441.53,-179 488.39,-134.05 445.57,-88.79 489.53,-41 490.92,-39.49 492.48,-38.11 494.14,-36.86"/>
<polygon fill="#000000" fill-opacity="0.200000" stroke="#000000" stroke-width="2" stroke-opacity="0.200000" points="495.51,-38.48 499.42,-33.46 493.24,-34.95 495.51,-38.48"/>
</g>
<!-- separated/welcome/business&#45;logic/update&#45;message.js -->
<g id="node9" class="node">
<title>separated/welcome/business&#45;logic/update&#45;message.js</title>
<g id="a_node9"><a xlink:href="separated/welcome/business-logic/update-message.js" xlink:title="update&#45;message.js">
<path fill="#ffffcc" stroke="black" d="M427.34,-173.3C427.34,-173.3 347.7,-173.3 347.7,-173.3 344.6,-173.3 341.5,-170.2 341.5,-167.1 341.5,-167.1 341.5,-160.9 341.5,-160.9 341.5,-157.8 344.6,-154.7 347.7,-154.7 347.7,-154.7 427.34,-154.7 427.34,-154.7 430.44,-154.7 433.54,-157.8 433.54,-160.9 433.54,-160.9 433.54,-167.1 433.54,-167.1 433.54,-170.2 430.44,-173.3 427.34,-173.3"/>
<text text-anchor="middle" x="387.52" y="-161.3" font-family="Helvetica,sans-Serif" font-size="9.00">update&#45;message.js</text>
</a>
</g>
</g>
<!-- separated/welcome/business&#45;logic/update&#45;message.js&#45;&gt;data&#45;access/save.js -->
<g id="edge6" class="edge">
<title>separated/welcome/business&#45;logic/update&#45;message.js&#45;&gt;data&#45;access/save.js</title>
<path fill="none" stroke="#000000" stroke-width="2" stroke-opacity="0.200000" d="M394.18,-154.4C407.9,-131.85 445.12,-74.81 489.53,-41 491.16,-39.76 492.91,-38.59 494.71,-37.49"/>
<polygon fill="#000000" fill-opacity="0.200000" stroke="#000000" stroke-width="2" stroke-opacity="0.200000" points="496.05,-39.15 500.28,-34.4 494.01,-35.47 496.05,-39.15"/>
</g>
<!-- separated/welcome/presentations/integrate&#45;multi&#45;page/src/components/footer.js -->
<g id="node10" class="node">
<title>separated/welcome/presentations/integrate&#45;multi&#45;page/src/components/footer.js</title>
<g id="a_node10"><a xlink:href="separated/welcome/presentations/integrate-multi-page/src/components/footer.js" xlink:title="footer.js">
<path fill="#ffffcc" stroke="black" d="M408.32,-475.3C408.32,-475.3 366.72,-475.3 366.72,-475.3 363.62,-475.3 360.52,-472.2 360.52,-469.1 360.52,-469.1 360.52,-462.9 360.52,-462.9 360.52,-459.8 363.62,-456.7 366.72,-456.7 366.72,-456.7 408.32,-456.7 408.32,-456.7 411.42,-456.7 414.52,-459.8 414.52,-462.9 414.52,-462.9 414.52,-469.1 414.52,-469.1 414.52,-472.2 411.42,-475.3 408.32,-475.3"/>
<text text-anchor="middle" x="387.52" y="-463.3" font-family="Helvetica,sans-Serif" font-size="9.00">footer.js</text>
</a>
</g>
</g>
<!-- separated/welcome/presentations/integrate&#45;multi&#45;page/src/components/navbar.js -->
<g id="node11" class="node">
<title>separated/welcome/presentations/integrate&#45;multi&#45;page/src/components/navbar.js</title>
<g id="a_node11"><a xlink:href="separated/welcome/presentations/integrate-multi-page/src/components/navbar.js" xlink:title="navbar.js">
<path fill="#ffffcc" stroke="black" d="M408.32,-444.3C408.32,-444.3 366.72,-444.3 366.72,-444.3 363.62,-444.3 360.52,-441.2 360.52,-438.1 360.52,-438.1 360.52,-431.9 360.52,-431.9 360.52,-428.8 363.62,-425.7 366.72,-425.7 366.72,-425.7 408.32,-425.7 408.32,-425.7 411.42,-425.7 414.52,-428.8 414.52,-431.9 414.52,-431.9 414.52,-438.1 414.52,-438.1 414.52,-441.2 411.42,-444.3 408.32,-444.3"/>
<text text-anchor="middle" x="387.52" y="-432.3" font-family="Helvetica,sans-Serif" font-size="9.00">navbar.js</text>
</a>
</g>
</g>
<!-- separated/welcome/presentations/integrate&#45;multi&#45;page/src/components/text&#45;input.js -->
<g id="node12" class="node">
<title>separated/welcome/presentations/integrate&#45;multi&#45;page/src/components/text&#45;input.js</title>
<g id="a_node12"><a xlink:href="separated/welcome/presentations/integrate-multi-page/src/components/text-input.js" xlink:title="text&#45;input.js">
<path fill="#ffffcc" stroke="black" d="M412.33,-506.3C412.33,-506.3 362.71,-506.3 362.71,-506.3 359.61,-506.3 356.51,-503.2 356.51,-500.1 356.51,-500.1 356.51,-493.9 356.51,-493.9 356.51,-490.8 359.61,-487.7 362.71,-487.7 362.71,-487.7 412.33,-487.7 412.33,-487.7 415.43,-487.7 418.53,-490.8 418.53,-493.9 418.53,-493.9 418.53,-500.1 418.53,-500.1 418.53,-503.2 415.43,-506.3 412.33,-506.3"/>
<text text-anchor="middle" x="387.52" y="-494.3" font-family="Helvetica,sans-Serif" font-size="9.00">text&#45;input.js</text>
</a>
</g>
</g>
<!-- separated/welcome/presentations/integrate&#45;multi&#45;page/src/custom&#45;events/update.js -->
<g id="node13" class="node">
<title>separated/welcome/presentations/integrate&#45;multi&#45;page/src/custom&#45;events/update.js</title>
<g id="a_node13"><a xlink:href="separated/welcome/presentations/integrate-multi-page/src/custom-events/update.js" xlink:title="update.js">
<path fill="#ffffcc" stroke="black" d="M547.33,-506.3C547.33,-506.3 505.73,-506.3 505.73,-506.3 502.63,-506.3 499.53,-503.2 499.53,-500.1 499.53,-500.1 499.53,-493.9 499.53,-493.9 499.53,-490.8 502.63,-487.7 505.73,-487.7 505.73,-487.7 547.33,-487.7 547.33,-487.7 550.43,-487.7 553.53,-490.8 553.53,-493.9 553.53,-493.9 553.53,-500.1 553.53,-500.1 553.53,-503.2 550.43,-506.3 547.33,-506.3"/>
<text text-anchor="middle" x="526.53" y="-494.3" font-family="Helvetica,sans-Serif" font-size="9.00">update.js</text>
</a>
</g>
</g>
<!-- separated/welcome/presentations/integrate&#45;multi&#45;page/src/components/text&#45;input.js&#45;&gt;separated/welcome/presentations/integrate&#45;multi&#45;page/src/custom&#45;events/update.js -->
<g id="edge7" class="edge">
<title>separated/welcome/presentations/integrate&#45;multi&#45;page/src/components/text&#45;input.js&#45;&gt;separated/welcome/presentations/integrate&#45;multi&#45;page/src/custom&#45;events/update.js</title>
<path fill="none" stroke="#000000" stroke-width="2" stroke-opacity="0.200000" d="M418.59,-497C440.62,-497 470.49,-497 493.07,-497"/>
<polygon fill="#000000" fill-opacity="0.200000" stroke="#000000" stroke-width="2" stroke-opacity="0.200000" points="493.23,-499.1 499.23,-497 493.23,-494.9 493.23,-499.1"/>
</g>
<!-- separated/welcome/presentations/integrate&#45;multi&#45;page/src/handlers/init&#45;greeting.js -->
<g id="node14" class="node">
<title>separated/welcome/presentations/integrate&#45;multi&#45;page/src/handlers/init&#45;greeting.js</title>
<g id="a_node14"><a xlink:href="separated/welcome/presentations/integrate-multi-page/src/handlers/init-greeting.js" xlink:title="init&#45;greeting.js">
<path fill="#ffffcc" stroke="black" d="M309.31,-475.3C309.31,-475.3 249.71,-475.3 249.71,-475.3 246.61,-475.3 243.51,-472.2 243.51,-469.1 243.51,-469.1 243.51,-462.9 243.51,-462.9 243.51,-459.8 246.61,-456.7 249.71,-456.7 249.71,-456.7 309.31,-456.7 309.31,-456.7 312.41,-456.7 315.51,-459.8 315.51,-462.9 315.51,-462.9 315.51,-469.1 315.51,-469.1 315.51,-472.2 312.41,-475.3 309.31,-475.3"/>
<text text-anchor="middle" x="279.51" y="-463.3" font-family="Helvetica,sans-Serif" font-size="9.00">init&#45;greeting.js</text>
</a>
</g>
</g>
<!-- separated/welcome/presentations/integrate&#45;multi&#45;page/src/handlers/init&#45;greeting.js&#45;&gt;separated/welcome/business&#45;logic/initialize&#45;state.js -->
<g id="edge8" class="edge">
<title>separated/welcome/presentations/integrate&#45;multi&#45;page/src/handlers/init&#45;greeting.js&#45;&gt;separated/welcome/business&#45;logic/initialize&#45;state.js</title>
<path fill="none" stroke="#000000" stroke-width="2" stroke-opacity="0.200000" d="M315.81,-458.31C319.56,-456.18 322.94,-453.47 325.51,-450 337.22,-434.18 321.42,-288.54 333.51,-273 335.91,-269.91 338.89,-267.4 342.2,-265.37"/>
<polygon fill="#000000" fill-opacity="0.200000" stroke="#000000" stroke-width="2" stroke-opacity="0.200000" points="343.28,-267.17 347.64,-262.54 341.35,-263.44 343.28,-267.17"/>
</g>
<!-- separated/welcome/presentations/integrate&#45;multi&#45;page/src/handlers/init&#45;greeting.js&#45;&gt;separated/welcome/business&#45;logic/read&#45;greeting.js -->
<g id="edge9" class="edge">
<title>separated/welcome/presentations/integrate&#45;multi&#45;page/src/handlers/init&#45;greeting.js&#45;&gt;separated/welcome/business&#45;logic/read&#45;greeting.js</title>
<path fill="none" stroke="#000000" stroke-width="2" stroke-opacity="0.200000" d="M315.78,-458.29C319.54,-456.16 322.93,-453.45 325.51,-450 344.96,-423.98 313.43,-329.55 333.51,-304 336.1,-300.7 339.36,-298.06 342.97,-295.95"/>
<polygon fill="#000000" fill-opacity="0.200000" stroke="#000000" stroke-width="2" stroke-opacity="0.200000" points="344.03,-297.77 348.47,-293.23 342.17,-294 344.03,-297.77"/>
</g>
<!-- separated/welcome/presentations/integrate&#45;multi&#45;page/src/handlers/init&#45;greeting.js&#45;&gt;separated/welcome/presentations/integrate&#45;multi&#45;page/src/components/footer.js -->
<g id="edge10" class="edge">
<title>separated/welcome/presentations/integrate&#45;multi&#45;page/src/handlers/init&#45;greeting.js&#45;&gt;separated/welcome/presentations/integrate&#45;multi&#45;page/src/components/footer.js</title>
<path fill="none" stroke="#000000" stroke-width="2" stroke-opacity="0.200000" d="M315.51,-466C327.94,-466 341.87,-466 354.07,-466"/>
<polygon fill="#000000" fill-opacity="0.200000" stroke="#000000" stroke-width="2" stroke-opacity="0.200000" points="354.28,-468.1 360.28,-466 354.28,-463.9 354.28,-468.1"/>
</g>
<!-- separated/welcome/presentations/integrate&#45;multi&#45;page/src/handlers/init&#45;greeting.js&#45;&gt;separated/welcome/presentations/integrate&#45;multi&#45;page/src/components/navbar.js -->
<g id="edge11" class="edge">
<title>separated/welcome/presentations/integrate&#45;multi&#45;page/src/handlers/init&#45;greeting.js&#45;&gt;separated/welcome/presentations/integrate&#45;multi&#45;page/src/components/navbar.js</title>
<path fill="none" stroke="#000000" stroke-width="2" stroke-opacity="0.200000" d="M312.6,-456.61C325.81,-452.75 341.09,-448.28 354.31,-444.42"/>
<polygon fill="#000000" fill-opacity="0.200000" stroke="#000000" stroke-width="2" stroke-opacity="0.200000" points="355.06,-446.39 360.23,-442.69 353.88,-442.36 355.06,-446.39"/>
</g>
<!-- separated/welcome/presentations/integrate&#45;multi&#45;page/src/handlers/init&#45;greeting.js&#45;&gt;separated/welcome/presentations/integrate&#45;multi&#45;page/src/components/text&#45;input.js -->
<g id="edge12" class="edge">
<title>separated/welcome/presentations/integrate&#45;multi&#45;page/src/handlers/init&#45;greeting.js&#45;&gt;separated/welcome/presentations/integrate&#45;multi&#45;page/src/components/text&#45;input.js</title>
<path fill="none" stroke="#000000" stroke-width="2" stroke-opacity="0.200000" d="M312.6,-475.39C324.54,-478.88 338.17,-482.86 350.44,-486.45"/>
<polygon fill="#000000" fill-opacity="0.200000" stroke="#000000" stroke-width="2" stroke-opacity="0.200000" points="350,-488.51 356.35,-488.18 351.18,-484.48 350,-488.51"/>
</g>
<!-- separated/welcome/presentations/integrate&#45;multi&#45;page/src/handlers/init&#45;index.js -->
<g id="node15" class="node">
<title>separated/welcome/presentations/integrate&#45;multi&#45;page/src/handlers/init&#45;index.js</title>
<g id="a_node15"><a xlink:href="separated/welcome/presentations/integrate-multi-page/src/handlers/init-index.js" xlink:title="init&#45;index.js">
<path fill="#ffffcc" stroke="black" d="M303.81,-444.3C303.81,-444.3 255.21,-444.3 255.21,-444.3 252.11,-444.3 249.01,-441.2 249.01,-438.1 249.01,-438.1 249.01,-431.9 249.01,-431.9 249.01,-428.8 252.11,-425.7 255.21,-425.7 255.21,-425.7 303.81,-425.7 303.81,-425.7 306.91,-425.7 310.01,-428.8 310.01,-431.9 310.01,-431.9 310.01,-438.1 310.01,-438.1 310.01,-441.2 306.91,-444.3 303.81,-444.3"/>
<text text-anchor="middle" x="279.51" y="-432.3" font-family="Helvetica,sans-Serif" font-size="9.00">init&#45;index.js</text>
</a>
</g>
</g>
<!-- separated/welcome/presentations/integrate&#45;multi&#45;page/src/handlers/init&#45;index.js&#45;&gt;separated/welcome/business&#45;logic/be&#45;welcoming.js -->
<g id="edge13" class="edge">
<title>separated/welcome/presentations/integrate&#45;multi&#45;page/src/handlers/init&#45;index.js&#45;&gt;separated/welcome/business&#45;logic/be&#45;welcoming.js</title>
<path fill="none" stroke="#000000" stroke-width="2" stroke-opacity="0.200000" d="M310.41,-429.91C316.27,-427.53 321.76,-424.07 325.51,-419 337.22,-403.18 321.42,-257.54 333.51,-242 335.87,-238.96 338.79,-236.48 342.04,-234.46"/>
<polygon fill="#000000" fill-opacity="0.200000" stroke="#000000" stroke-width="2" stroke-opacity="0.200000" points="343.05,-236.31 347.37,-231.65 341.09,-232.59 343.05,-236.31"/>
</g>
<!-- separated/welcome/presentations/integrate&#45;multi&#45;page/src/handlers/init&#45;index.js&#45;&gt;separated/welcome/business&#45;logic/initialize&#45;state.js -->
<g id="edge14" class="edge">
<title>separated/welcome/presentations/integrate&#45;multi&#45;page/src/handlers/init&#45;index.js&#45;&gt;separated/welcome/business&#45;logic/initialize&#45;state.js</title>
<path fill="none" stroke="#000000" stroke-width="2" stroke-opacity="0.200000" d="M310.37,-429.88C316.24,-427.51 321.74,-424.05 325.51,-419 344.96,-392.98 313.43,-298.55 333.51,-273 335.93,-269.92 338.91,-267.42 342.23,-265.39"/>
<polygon fill="#000000" fill-opacity="0.200000" stroke="#000000" stroke-width="2" stroke-opacity="0.200000" points="343.32,-267.19 347.68,-262.57 341.38,-263.46 343.32,-267.19"/>
</g>
<!-- separated/welcome/presentations/integrate&#45;multi&#45;page/src/handlers/init&#45;index.js&#45;&gt;separated/welcome/presentations/integrate&#45;multi&#45;page/src/components/footer.js -->
<g id="edge15" class="edge">
<title>separated/welcome/presentations/integrate&#45;multi&#45;page/src/handlers/init&#45;index.js&#45;&gt;separated/welcome/presentations/integrate&#45;multi&#45;page/src/components/footer.js</title>
<path fill="none" stroke="#000000" stroke-width="2" stroke-opacity="0.200000" d="M310.04,-443.64C323.87,-447.68 340.37,-452.51 354.5,-456.64"/>
<polygon fill="#000000" fill-opacity="0.200000" stroke="#000000" stroke-width="2" stroke-opacity="0.200000" points="354.05,-458.69 360.4,-458.36 355.23,-454.66 354.05,-458.69"/>
</g>
<!-- separated/welcome/presentations/integrate&#45;multi&#45;page/src/handlers/init&#45;index.js&#45;&gt;separated/welcome/presentations/integrate&#45;multi&#45;page/src/components/navbar.js -->
<g id="edge16" class="edge">
<title>separated/welcome/presentations/integrate&#45;multi&#45;page/src/handlers/init&#45;index.js&#45;&gt;separated/welcome/presentations/integrate&#45;multi&#45;page/src/components/navbar.js</title>
<path fill="none" stroke="#000000" stroke-width="2" stroke-opacity="0.200000" d="M310.04,-435C323.75,-435 340.08,-435 354.12,-435"/>
<polygon fill="#000000" fill-opacity="0.200000" stroke="#000000" stroke-width="2" stroke-opacity="0.200000" points="354.4,-437.1 360.4,-435 354.4,-432.9 354.4,-437.1"/>
</g>
<!-- separated/welcome/presentations/integrate&#45;multi&#45;page/src/handlers/init&#45;message.js -->
<g id="node16" class="node">
<title>separated/welcome/presentations/integrate&#45;multi&#45;page/src/handlers/init&#45;message.js</title>
<g id="a_node16"><a xlink:href="separated/welcome/presentations/integrate-multi-page/src/handlers/init-message.js" xlink:title="init&#45;message.js">
<path fill="#ffffcc" stroke="black" d="M311.31,-506.3C311.31,-506.3 247.71,-506.3 247.71,-506.3 244.61,-506.3 241.51,-503.2 241.51,-500.1 241.51,-500.1 241.51,-493.9 241.51,-493.9 241.51,-490.8 244.61,-487.7 247.71,-487.7 247.71,-487.7 311.31,-487.7 311.31,-487.7 314.41,-487.7 317.51,-490.8 317.51,-493.9 317.51,-493.9 317.51,-500.1 317.51,-500.1 317.51,-503.2 314.41,-506.3 311.31,-506.3"/>
<text text-anchor="middle" x="279.51" y="-494.3" font-family="Helvetica,sans-Serif" font-size="9.00">init&#45;message.js</text>
</a>
</g>
</g>
<!-- separated/welcome/presentations/integrate&#45;multi&#45;page/src/handlers/init&#45;message.js&#45;&gt;separated/welcome/business&#45;logic/initialize&#45;state.js -->
<g id="edge17" class="edge">
<title>separated/welcome/presentations/integrate&#45;multi&#45;page/src/handlers/init&#45;message.js&#45;&gt;separated/welcome/business&#45;logic/initialize&#45;state.js</title>
<path fill="none" stroke="#000000" stroke-width="2" stroke-opacity="0.200000" d="M317.53,-488.3C320.6,-486.34 323.35,-483.94 325.51,-481 339.21,-462.36 319.36,-291.3 333.51,-273 335.9,-269.91 338.87,-267.39 342.18,-265.35"/>
<polygon fill="#000000" fill-opacity="0.200000" stroke="#000000" stroke-width="2" stroke-opacity="0.200000" points="343.26,-267.15 347.61,-262.51 341.32,-263.43 343.26,-267.15"/>
</g>
<!-- separated/welcome/presentations/integrate&#45;multi&#45;page/src/handlers/init&#45;message.js&#45;&gt;separated/welcome/business&#45;logic/read&#45;message.js -->
<g id="edge18" class="edge">
<title>separated/welcome/presentations/integrate&#45;multi&#45;page/src/handlers/init&#45;message.js&#45;&gt;separated/welcome/business&#45;logic/read&#45;message.js</title>
<path fill="none" stroke="#000000" stroke-width="2" stroke-opacity="0.200000" d="M317.71,-487.85C320.66,-485.98 323.33,-483.72 325.51,-481 334.74,-469.46 328.97,-429.06 333.51,-415 343.48,-384.13 363.66,-351.83 376.04,-333.68"/>
<polygon fill="#000000" fill-opacity="0.200000" stroke="#000000" stroke-width="2" stroke-opacity="0.200000" points="377.93,-334.64 379.61,-328.51 374.47,-332.25 377.93,-334.64"/>
</g>
<!-- separated/welcome/presentations/integrate&#45;multi&#45;page/src/handlers/init&#45;message.js&#45;&gt;separated/welcome/presentations/integrate&#45;multi&#45;page/src/components/footer.js -->
<g id="edge19" class="edge">
<title>separated/welcome/presentations/integrate&#45;multi&#45;page/src/handlers/init&#45;message.js&#45;&gt;separated/welcome/presentations/integrate&#45;multi&#45;page/src/components/footer.js</title>
<path fill="none" stroke="#000000" stroke-width="2" stroke-opacity="0.200000" d="M312.6,-487.61C325.81,-483.75 341.09,-479.28 354.31,-475.42"/>
<polygon fill="#000000" fill-opacity="0.200000" stroke="#000000" stroke-width="2" stroke-opacity="0.200000" points="355.06,-477.39 360.23,-473.69 353.88,-473.36 355.06,-477.39"/>
</g>
<!-- separated/welcome/presentations/integrate&#45;multi&#45;page/src/handlers/init&#45;message.js&#45;&gt;separated/welcome/presentations/integrate&#45;multi&#45;page/src/components/navbar.js -->
<g id="edge20" class="edge">
<title>separated/welcome/presentations/integrate&#45;multi&#45;page/src/handlers/init&#45;message.js&#45;&gt;separated/welcome/presentations/integrate&#45;multi&#45;page/src/components/navbar.js</title>
<path fill="none" stroke="#000000" stroke-width="2" stroke-opacity="0.200000" d="M317.32,-487.52C320.35,-485.71 323.15,-483.56 325.51,-481 334.86,-470.86 323.91,-460.91 333.51,-451 339.1,-445.22 346.7,-441.51 354.4,-439.13"/>
<polygon fill="#000000" fill-opacity="0.200000" stroke="#000000" stroke-width="2" stroke-opacity="0.200000" points="355.02,-441.14 360.27,-437.56 353.94,-437.08 355.02,-441.14"/>
</g>
<!-- separated/welcome/presentations/integrate&#45;multi&#45;page/src/handlers/init&#45;message.js&#45;&gt;separated/welcome/presentations/integrate&#45;multi&#45;page/src/components/text&#45;input.js -->
<g id="edge21" class="edge">
<title>separated/welcome/presentations/integrate&#45;multi&#45;page/src/handlers/init&#45;message.js&#45;&gt;separated/welcome/presentations/integrate&#45;multi&#45;page/src/components/text&#45;input.js</title>
<path fill="none" stroke="#000000" stroke-width="2" stroke-opacity="0.200000" d="M317.59,-497C328.17,-497 339.68,-497 350.22,-497"/>
<polygon fill="#000000" fill-opacity="0.200000" stroke="#000000" stroke-width="2" stroke-opacity="0.200000" points="350.29,-499.1 356.29,-497 350.29,-494.9 350.29,-499.1"/>
</g>
<!-- separated/welcome/presentations/integrate&#45;multi&#45;page/src/handlers/update&#45;state.js -->
<g id="node17" class="node">
<title>separated/welcome/presentations/integrate&#45;multi&#45;page/src/handlers/update&#45;state.js</title>
<g id="a_node17"><a xlink:href="separated/welcome/presentations/integrate-multi-page/src/handlers/update-state.js" xlink:title="update&#45;state.js">
<path fill="#ffffcc" stroke="black" d="M310.83,-413.3C310.83,-413.3 248.19,-413.3 248.19,-413.3 245.09,-413.3 241.99,-410.2 241.99,-407.1 241.99,-407.1 241.99,-400.9 241.99,-400.9 241.99,-397.8 245.09,-394.7 248.19,-394.7 248.19,-394.7 310.83,-394.7 310.83,-394.7 313.93,-394.7 317.03,-397.8 317.03,-400.9 317.03,-400.9 317.03,-407.1 317.03,-407.1 317.03,-410.2 313.93,-413.3 310.83,-413.3"/>
<text text-anchor="middle" x="279.51" y="-401.3" font-family="Helvetica,sans-Serif" font-size="9.00">update&#45;state.js</text>
</a>
</g>
</g>
<!-- separated/welcome/presentations/integrate&#45;multi&#45;page/src/handlers/update&#45;state.js&#45;&gt;separated/welcome/business&#45;logic/update&#45;greeting.js -->
<g id="edge22" class="edge">
<title>separated/welcome/presentations/integrate&#45;multi&#45;page/src/handlers/update&#45;state.js&#45;&gt;separated/welcome/business&#45;logic/update&#45;greeting.js</title>
<path fill="none" stroke="#000000" stroke-width="2" stroke-opacity="0.200000" d="M280.13,-394.42C279.44,-363.34 281.59,-264.24 333.51,-211 334.95,-209.52 336.53,-208.18 338.2,-206.96"/>
<polygon fill="#000000" fill-opacity="0.200000" stroke="#000000" stroke-width="2" stroke-opacity="0.200000" points="339.51,-208.61 343.49,-203.65 337.29,-205.05 339.51,-208.61"/>
</g>
<!-- separated/welcome/presentations/integrate&#45;multi&#45;page/src/handlers/update&#45;state.js&#45;&gt;separated/welcome/business&#45;logic/update&#45;message.js -->
<g id="edge23" class="edge">
<title>separated/welcome/presentations/integrate&#45;multi&#45;page/src/handlers/update&#45;state.js&#45;&gt;separated/welcome/business&#45;logic/update&#45;message.js</title>
<path fill="none" stroke="#000000" stroke-width="2" stroke-opacity="0.200000" d="M281.48,-394.65C285.66,-356.38 303.18,-212.23 333.51,-180 334.4,-179.05 335.34,-178.16 336.33,-177.33"/>
<polygon fill="#000000" fill-opacity="0.200000" stroke="#000000" stroke-width="2" stroke-opacity="0.200000" points="337.95,-178.75 341.61,-173.56 335.51,-175.33 337.95,-178.75"/>
</g>
<!-- separated/welcome/presentations/integrate&#45;multi&#45;page/src/init/greeting.js -->
<g id="node18" class="node">
<title>separated/welcome/presentations/integrate&#45;multi&#45;page/src/init/greeting.js</title>
<g id="a_node18"><a xlink:href="separated/welcome/presentations/integrate-multi-page/src/init/greeting.js" xlink:title="greeting.js">
<path fill="#ffffcc" stroke="black" d="M109.06,-475.3C109.06,-475.3 64.44,-475.3 64.44,-475.3 61.34,-475.3 58.24,-472.2 58.24,-469.1 58.24,-469.1 58.24,-462.9 58.24,-462.9 58.24,-459.8 61.34,-456.7 64.44,-456.7 64.44,-456.7 109.06,-456.7 109.06,-456.7 112.16,-456.7 115.26,-459.8 115.26,-462.9 115.26,-462.9 115.26,-469.1 115.26,-469.1 115.26,-472.2 112.16,-475.3 109.06,-475.3"/>
<text text-anchor="middle" x="86.75" y="-463.3" font-family="Helvetica,sans-Serif" font-size="9.00">greeting.js</text>
</a>
</g>
</g>
<!-- separated/welcome/presentations/integrate&#45;multi&#45;page/src/listeners/init&#45;greeting.js -->
<g id="node19" class="node">
<title>separated/welcome/presentations/integrate&#45;multi&#45;page/src/listeners/init&#45;greeting.js</title>
<g id="a_node19"><a xlink:href="separated/welcome/presentations/integrate-multi-page/src/listeners/init-greeting.js" xlink:title="init&#45;greeting.js">
<path fill="#ffffcc" stroke="black" d="M209.31,-475.3C209.31,-475.3 149.71,-475.3 149.71,-475.3 146.61,-475.3 143.5,-472.2 143.5,-469.1 143.5,-469.1 143.5,-462.9 143.5,-462.9 143.5,-459.8 146.61,-456.7 149.71,-456.7 149.71,-456.7 209.31,-456.7 209.31,-456.7 212.41,-456.7 215.51,-459.8 215.51,-462.9 215.51,-462.9 215.51,-469.1 215.51,-469.1 215.51,-472.2 212.41,-475.3 209.31,-475.3"/>
<text text-anchor="middle" x="179.51" y="-463.3" font-family="Helvetica,sans-Serif" font-size="9.00">init&#45;greeting.js</text>
</a>
</g>
</g>
<!-- separated/welcome/presentations/integrate&#45;multi&#45;page/src/init/greeting.js&#45;&gt;separated/welcome/presentations/integrate&#45;multi&#45;page/src/listeners/init&#45;greeting.js -->
<g id="edge24" class="edge">
<title>separated/welcome/presentations/integrate&#45;multi&#45;page/src/init/greeting.js&#45;&gt;separated/welcome/presentations/integrate&#45;multi&#45;page/src/listeners/init&#45;greeting.js</title>
<path fill="none" stroke="#000000" stroke-width="2" stroke-opacity="0.200000" d="M115.48,-466C122.32,-466 129.79,-466 137.13,-466"/>
<polygon fill="#000000" fill-opacity="0.200000" stroke="#000000" stroke-width="2" stroke-opacity="0.200000" points="137.24,-468.1 143.24,-466 137.24,-463.9 137.24,-468.1"/>
</g>
<!-- separated/welcome/presentations/integrate&#45;multi&#45;page/src/listeners/init&#45;greeting.js&#45;&gt;separated/welcome/presentations/integrate&#45;multi&#45;page/src/handlers/init&#45;greeting.js -->
<g id="edge27" class="edge">
<title>separated/welcome/presentations/integrate&#45;multi&#45;page/src/listeners/init&#45;greeting.js&#45;&gt;separated/welcome/presentations/integrate&#45;multi&#45;page/src/handlers/init&#45;greeting.js</title>
<path fill="none" stroke="#000000" stroke-width="2" stroke-opacity="0.200000" d="M215.61,-466C222.51,-466 229.8,-466 236.89,-466"/>
<polygon fill="#000000" fill-opacity="0.200000" stroke="#000000" stroke-width="2" stroke-opacity="0.200000" points="237.32,-468.1 243.32,-466 237.32,-463.9 237.32,-468.1"/>
</g>
<!-- separated/welcome/presentations/integrate&#45;multi&#45;page/src/listeners/init&#45;greeting.js&#45;&gt;separated/welcome/presentations/integrate&#45;multi&#45;page/src/handlers/update&#45;state.js -->
<g id="edge28" class="edge">
<title>separated/welcome/presentations/integrate&#45;multi&#45;page/src/listeners/init&#45;greeting.js&#45;&gt;separated/welcome/presentations/integrate&#45;multi&#45;page/src/handlers/update&#45;state.js</title>
<path fill="none" stroke="#000000" stroke-width="2" stroke-opacity="0.200000" d="M215.57,-457.51C219.27,-455.52 222.7,-453.05 225.51,-450 234.86,-439.86 224.15,-430.14 233.51,-420 234.47,-418.96 235.5,-417.99 236.59,-417.08"/>
<polygon fill="#000000" fill-opacity="0.200000" stroke="#000000" stroke-width="2" stroke-opacity="0.200000" points="238,-418.65 241.69,-413.48 235.58,-415.22 238,-418.65"/>
</g>
<!-- separated/welcome/presentations/integrate&#45;multi&#45;page/src/init/index.js -->
<g id="node20" class="node">
<title>separated/welcome/presentations/integrate&#45;multi&#45;page/src/init/index.js</title>
<g id="a_node20"><a xlink:href="separated/welcome/presentations/integrate-multi-page/src/init/index.js" xlink:title="index.js">
<path fill="#ffffcc" stroke="black" d="M107.55,-444.3C107.55,-444.3 65.95,-444.3 65.95,-444.3 62.85,-444.3 59.75,-441.2 59.75,-438.1 59.75,-438.1 59.75,-431.9 59.75,-431.9 59.75,-428.8 62.85,-425.7 65.95,-425.7 65.95,-425.7 107.55,-425.7 107.55,-425.7 110.65,-425.7 113.75,-428.8 113.75,-431.9 113.75,-431.9 113.75,-438.1 113.75,-438.1 113.75,-441.2 110.65,-444.3 107.55,-444.3"/>
<text text-anchor="middle" x="86.75" y="-432.3" font-family="Helvetica,sans-Serif" font-size="9.00">index.js</text>
</a>
</g>
</g>
<!-- separated/welcome/presentations/integrate&#45;multi&#45;page/src/listeners/init&#45;index.js -->
<g id="node21" class="node">
<title>separated/welcome/presentations/integrate&#45;multi&#45;page/src/listeners/init&#45;index.js</title>
<g id="a_node21"><a xlink:href="separated/welcome/presentations/integrate-multi-page/src/listeners/init-index.js" xlink:title="init&#45;index.js">
<path fill="#ffffcc" stroke="black" d="M203.81,-444.3C203.81,-444.3 155.21,-444.3 155.21,-444.3 152.11,-444.3 149.01,-441.2 149.01,-438.1 149.01,-438.1 149.01,-431.9 149.01,-431.9 149.01,-428.8 152.11,-425.7 155.21,-425.7 155.21,-425.7 203.81,-425.7 203.81,-425.7 206.91,-425.7 210.01,-428.8 210.01,-431.9 210.01,-431.9 210.01,-438.1 210.01,-438.1 210.01,-441.2 206.91,-444.3 203.81,-444.3"/>
<text text-anchor="middle" x="179.51" y="-432.3" font-family="Helvetica,sans-Serif" font-size="9.00">init&#45;index.js</text>
</a>
</g>
</g>
<!-- separated/welcome/presentations/integrate&#45;multi&#45;page/src/init/index.js&#45;&gt;separated/welcome/presentations/integrate&#45;multi&#45;page/src/listeners/init&#45;index.js -->
<g id="edge25" class="edge">
<title>separated/welcome/presentations/integrate&#45;multi&#45;page/src/init/index.js&#45;&gt;separated/welcome/presentations/integrate&#45;multi&#45;page/src/listeners/init&#45;index.js</title>
<path fill="none" stroke="#000000" stroke-width="2" stroke-opacity="0.200000" d="M114,-435C122.94,-435 133.08,-435 142.63,-435"/>
<polygon fill="#000000" fill-opacity="0.200000" stroke="#000000" stroke-width="2" stroke-opacity="0.200000" points="142.81,-437.1 148.81,-435 142.81,-432.9 142.81,-437.1"/>
</g>
<!-- separated/welcome/presentations/integrate&#45;multi&#45;page/src/listeners/init&#45;index.js&#45;&gt;separated/welcome/presentations/integrate&#45;multi&#45;page/src/handlers/init&#45;index.js -->
<g id="edge29" class="edge">
<title>separated/welcome/presentations/integrate&#45;multi&#45;page/src/listeners/init&#45;index.js&#45;&gt;separated/welcome/presentations/integrate&#45;multi&#45;page/src/handlers/init&#45;index.js</title>
<path fill="none" stroke="#000000" stroke-width="2" stroke-opacity="0.200000" d="M210.18,-435C220.44,-435 232.06,-435 242.76,-435"/>
<polygon fill="#000000" fill-opacity="0.200000" stroke="#000000" stroke-width="2" stroke-opacity="0.200000" points="242.94,-437.1 248.94,-435 242.94,-432.9 242.94,-437.1"/>
</g>
<!-- separated/welcome/presentations/integrate&#45;multi&#45;page/src/init/message.js -->
<g id="node22" class="node">
<title>separated/welcome/presentations/integrate&#45;multi&#45;page/src/init/message.js</title>
<g id="a_node22"><a xlink:href="separated/welcome/presentations/integrate-multi-page/src/init/message.js" xlink:title="message.js">
<path fill="#ffffcc" stroke="black" d="M111.06,-506.3C111.06,-506.3 62.45,-506.3 62.45,-506.3 59.35,-506.3 56.24,-503.2 56.24,-500.1 56.24,-500.1 56.24,-493.9 56.24,-493.9 56.24,-490.8 59.35,-487.7 62.45,-487.7 62.45,-487.7 111.06,-487.7 111.06,-487.7 114.16,-487.7 117.26,-490.8 117.26,-493.9 117.26,-493.9 117.26,-500.1 117.26,-500.1 117.26,-503.2 114.16,-506.3 111.06,-506.3"/>
<text text-anchor="middle" x="86.75" y="-494.3" font-family="Helvetica,sans-Serif" font-size="9.00">message.js</text>
</a>
</g>
</g>
<!-- separated/welcome/presentations/integrate&#45;multi&#45;page/src/listeners/init&#45;message.js -->
<g id="node23" class="node">
<title>separated/welcome/presentations/integrate&#45;multi&#45;page/src/listeners/init&#45;message.js</title>
<g id="a_node23"><a xlink:href="separated/welcome/presentations/integrate-multi-page/src/listeners/init-message.js" xlink:title="init&#45;message.js">
<path fill="#ffffcc" stroke="black" d="M211.31,-506.3C211.31,-506.3 147.71,-506.3 147.71,-506.3 144.61,-506.3 141.51,-503.2 141.51,-500.1 141.51,-500.1 141.51,-493.9 141.51,-493.9 141.51,-490.8 144.61,-487.7 147.71,-487.7 147.71,-487.7 211.31,-487.7 211.31,-487.7 214.41,-487.7 217.51,-490.8 217.51,-493.9 217.51,-493.9 217.51,-500.1 217.51,-500.1 217.51,-503.2 214.41,-506.3 211.31,-506.3"/>
<text text-anchor="middle" x="179.51" y="-494.3" font-family="Helvetica,sans-Serif" font-size="9.00">init&#45;message.js</text>
</a>
</g>
</g>
<!-- separated/welcome/presentations/integrate&#45;multi&#45;page/src/init/message.js&#45;&gt;separated/welcome/presentations/integrate&#45;multi&#45;page/src/listeners/init&#45;message.js -->
<g id="edge26" class="edge">
<title>separated/welcome/presentations/integrate&#45;multi&#45;page/src/init/message.js&#45;&gt;separated/welcome/presentations/integrate&#45;multi&#45;page/src/listeners/init&#45;message.js</title>
<path fill="none" stroke="#000000" stroke-width="2" stroke-opacity="0.200000" d="M117.47,-497C123.21,-497 129.33,-497 135.39,-497"/>
<polygon fill="#000000" fill-opacity="0.200000" stroke="#000000" stroke-width="2" stroke-opacity="0.200000" points="135.42,-499.1 141.42,-497 135.42,-494.9 135.42,-499.1"/>
</g>
<!-- separated/welcome/presentations/integrate&#45;multi&#45;page/src/listeners/init&#45;message.js&#45;&gt;separated/welcome/presentations/integrate&#45;multi&#45;page/src/handlers/init&#45;message.js -->
<g id="edge30" class="edge">
<title>separated/welcome/presentations/integrate&#45;multi&#45;page/src/listeners/init&#45;message.js&#45;&gt;separated/welcome/presentations/integrate&#45;multi&#45;page/src/handlers/init&#45;message.js</title>
<path fill="none" stroke="#000000" stroke-width="2" stroke-opacity="0.200000" d="M217.56,-497C223.29,-497 229.25,-497 235.11,-497"/>
<polygon fill="#000000" fill-opacity="0.200000" stroke="#000000" stroke-width="2" stroke-opacity="0.200000" points="235.41,-499.1 241.41,-497 235.41,-494.9 235.41,-499.1"/>
</g>
<!-- separated/welcome/presentations/integrate&#45;multi&#45;page/src/listeners/init&#45;message.js&#45;&gt;separated/welcome/presentations/integrate&#45;multi&#45;page/src/handlers/update&#45;state.js -->
<g id="edge31" class="edge">
<title>separated/welcome/presentations/integrate&#45;multi&#45;page/src/listeners/init&#45;message.js&#45;&gt;separated/welcome/presentations/integrate&#45;multi&#45;page/src/handlers/update&#45;state.js</title>
<path fill="none" stroke="#000000" stroke-width="2" stroke-opacity="0.200000" d="M217.68,-487.83C220.64,-485.96 223.32,-483.71 225.51,-481 242.7,-459.74 216.32,-441.26 233.51,-420 234.51,-418.76 235.62,-417.61 236.81,-416.56"/>
<polygon fill="#000000" fill-opacity="0.200000" stroke="#000000" stroke-width="2" stroke-opacity="0.200000" points="238.17,-418.16 241.76,-412.91 235.68,-414.78 238.17,-418.16"/>
</g>
</g>
</svg>
