<?xml version="1.0" encoding="UTF-8" standalone="no"?>
<!DOCTYPE svg PUBLIC "-//W3C//DTD SVG 1.1//EN"
 "http://www.w3.org/Graphics/SVG/1.1/DTD/svg11.dtd">
<!-- Generated by graphviz version 2.44.0 (20200408.0750)
 -->
<!-- Title: dependency&#45;cruiser output Pages: 1 -->
<svg width="532pt" height="283pt"
 viewBox="0.00 0.00 532.50 283.00" xmlns="http://www.w3.org/2000/svg" xmlns:xlink="http://www.w3.org/1999/xlink">
<g id="graph0" class="graph" transform="scale(1 1) rotate(0) translate(4 279)">
<title>dependency&#45;cruiser output</title>
<polygon fill="white" stroke="transparent" points="-4,4 -4,-279 528.5,-279 528.5,4 -4,4"/>
<g id="clust1" class="cluster">
<title>cluster_separated</title>
<path fill="#ffffff" stroke="black" stroke-width="2" d="M20,-8C20,-8 504.5,-8 504.5,-8 510.5,-8 516.5,-14 516.5,-20 516.5,-20 516.5,-255 516.5,-255 516.5,-261 510.5,-267 504.5,-267 504.5,-267 20,-267 20,-267 14,-267 8,-261 8,-255 8,-255 8,-20 8,-20 8,-14 14,-8 20,-8"/>
<text text-anchor="middle" x="262.25" y="-254.9" font-family="Helvetica,sans-Serif" font-weight="bold" font-size="9.00">separated</text>
</g>
<g id="clust2" class="cluster">
<title>cluster_separated/1&#45;counter</title>
<path fill="#ffffff" stroke="black" stroke-width="2" d="M28,-16C28,-16 496.5,-16 496.5,-16 502.5,-16 508.5,-22 508.5,-28 508.5,-28 508.5,-228 508.5,-228 508.5,-234 502.5,-240 496.5,-240 496.5,-240 28,-240 28,-240 22,-240 16,-234 16,-228 16,-228 16,-28 16,-28 16,-22 22,-16 28,-16"/>
<text text-anchor="middle" x="262.25" y="-227.9" font-family="Helvetica,sans-Serif" font-weight="bold" font-size="9.00">1&#45;counter</text>
</g>
<g id="clust3" class="cluster">
<title>cluster_separated/1&#45;counter/business&#45;logic</title>
<path fill="#ffffff" stroke="black" stroke-width="2" d="M339,-42C339,-42 410.5,-42 410.5,-42 416.5,-42 422.5,-48 422.5,-54 422.5,-54 422.5,-145 422.5,-145 422.5,-151 416.5,-157 410.5,-157 410.5,-157 339,-157 339,-157 333,-157 327,-151 327,-145 327,-145 327,-54 327,-54 327,-48 333,-42 339,-42"/>
<text text-anchor="middle" x="374.75" y="-144.9" font-family="Helvetica,sans-Serif" font-weight="bold" font-size="9.00">business&#45;logic</text>
</g>
<g id="clust4" class="cluster">
<title>cluster_separated/1&#45;counter/data&#45;access</title>
<path fill="#ffffff" stroke="black" stroke-width="2" d="M442.5,-37C442.5,-37 488.5,-37 488.5,-37 494.5,-37 500.5,-43 500.5,-49 500.5,-49 500.5,-140 500.5,-140 500.5,-146 494.5,-152 488.5,-152 488.5,-152 442.5,-152 442.5,-152 436.5,-152 430.5,-146 430.5,-140 430.5,-140 430.5,-49 430.5,-49 430.5,-43 436.5,-37 442.5,-37"/>
<text text-anchor="middle" x="465.5" y="-139.9" font-family="Helvetica,sans-Serif" font-weight="bold" font-size="9.00">data&#45;access</text>
</g>
<g id="clust5" class="cluster">
<title>cluster_separated/1&#45;counter/data</title>
<path fill="#ffffff" stroke="black" stroke-width="2" d="M442.5,-160C442.5,-160 488.5,-160 488.5,-160 494.5,-160 500.5,-166 500.5,-172 500.5,-172 500.5,-201 500.5,-201 500.5,-207 494.5,-213 488.5,-213 488.5,-213 442.5,-213 442.5,-213 436.5,-213 430.5,-207 430.5,-201 430.5,-201 430.5,-172 430.5,-172 430.5,-166 436.5,-160 442.5,-160"/>
<text text-anchor="middle" x="465.5" y="-200.9" font-family="Helvetica,sans-Serif" font-weight="bold" font-size="9.00">data</text>
</g>
<g id="clust6" class="cluster">
<title>cluster_separated/1&#45;counter/presentations</title>
<path fill="#ffffff" stroke="black" stroke-width="2" d="M36,-24C36,-24 307,-24 307,-24 313,-24 319,-30 319,-36 319,-36 319,-201 319,-201 319,-207 313,-213 307,-213 307,-213 36,-213 36,-213 30,-213 24,-207 24,-201 24,-201 24,-36 24,-36 24,-30 30,-24 36,-24"/>
<text text-anchor="middle" x="171.5" y="-200.9" font-family="Helvetica,sans-Serif" font-weight="bold" font-size="9.00">presentations</text>
</g>
<g id="clust7" class="cluster">
<title>cluster_separated/1&#45;counter/presentations/integrate&#45;fixed</title>
<path fill="#ffffff" stroke="black" stroke-width="2" d="M44,-32C44,-32 299,-32 299,-32 305,-32 311,-38 311,-44 311,-44 311,-174 311,-174 311,-180 305,-186 299,-186 299,-186 44,-186 44,-186 38,-186 32,-180 32,-174 32,-174 32,-44 32,-44 32,-38 38,-32 44,-32"/>
<text text-anchor="middle" x="171.5" y="-173.9" font-family="Helvetica,sans-Serif" font-weight="bold" font-size="9.00">integrate&#45;fixed</text>
</g>
<g id="clust8" class="cluster">
<title>cluster_separated/1&#45;counter/presentations/integrate&#45;fixed/src</title>
<path fill="#ffffff" stroke="black" stroke-width="2" d="M52,-40C52,-40 291,-40 291,-40 297,-40 303,-46 303,-52 303,-52 303,-147 303,-147 303,-153 297,-159 291,-159 291,-159 52,-159 52,-159 46,-159 40,-153 40,-147 40,-147 40,-52 40,-52 40,-46 46,-40 52,-40"/>
<text text-anchor="middle" x="171.5" y="-146.9" font-family="Helvetica,sans-Serif" font-weight="bold" font-size="9.00">src</text>
</g>
<g id="clust9" class="cluster">
<title>cluster_separated/1&#45;counter/presentations/integrate&#45;fixed/src/handlers</title>
<path fill="#ffffff" stroke="black" stroke-width="2" d="M216,-48C216,-48 283,-48 283,-48 289,-48 295,-54 295,-60 295,-60 295,-120 295,-120 295,-126 289,-132 283,-132 283,-132 216,-132 216,-132 210,-132 204,-126 204,-120 204,-120 204,-60 204,-60 204,-54 210,-48 216,-48"/>
<text text-anchor="middle" x="249.5" y="-119.9" font-family="Helvetica,sans-Serif" font-weight="bold" font-size="9.00">handlers</text>
</g>
<g id="clust10" class="cluster">
<title>cluster_separated/1&#45;counter/presentations/integrate&#45;fixed/src/init</title>
<path fill="#ffffff" stroke="black" stroke-width="2" d="M60,-63C60,-63 106,-63 106,-63 112,-63 118,-69 118,-75 118,-75 118,-104 118,-104 118,-110 112,-116 106,-116 106,-116 60,-116 60,-116 54,-116 48,-110 48,-104 48,-104 48,-75 48,-75 48,-69 54,-63 60,-63"/>
<text text-anchor="middle" x="83" y="-103.9" font-family="Helvetica,sans-Serif" font-weight="bold" font-size="9.00">init</text>
</g>
<g id="clust11" class="cluster">
<title>cluster_separated/1&#45;counter/presentations/integrate&#45;fixed/src/listeners</title>
<path fill="#ffffff" stroke="black" stroke-width="2" d="M138,-48C138,-48 184,-48 184,-48 190,-48 196,-54 196,-60 196,-60 196,-120 196,-120 196,-126 190,-132 184,-132 184,-132 138,-132 138,-132 132,-132 126,-126 126,-120 126,-120 126,-60 126,-60 126,-54 132,-48 138,-48"/>
<text text-anchor="middle" x="161" y="-119.9" font-family="Helvetica,sans-Serif" font-weight="bold" font-size="9.00">listeners</text>
</g>
<!-- separated/1&#45;counter/business&#45;logic/get.js -->
<g id="node1" class="node">
<title>separated/1&#45;counter/business&#45;logic/get.js</title>
<g id="a_node1"><a xlink:href="separated/1-counter/business-logic/get.js" xlink:title="get.js">
<path fill="#ffffcc" stroke="black" d="M395.55,-99.3C395.55,-99.3 353.95,-99.3 353.95,-99.3 350.85,-99.3 347.75,-96.2 347.75,-93.1 347.75,-93.1 347.75,-86.9 347.75,-86.9 347.75,-83.8 350.85,-80.7 353.95,-80.7 353.95,-80.7 395.55,-80.7 395.55,-80.7 398.65,-80.7 401.75,-83.8 401.75,-86.9 401.75,-86.9 401.75,-93.1 401.75,-93.1 401.75,-96.2 398.65,-99.3 395.55,-99.3"/>
<text text-anchor="middle" x="374.75" y="-87.3" font-family="Helvetica,sans-Serif" font-size="9.00">get.js</text>
</a>
</g>
</g>
<!-- separated/1&#45;counter/data&#45;access/find.js -->
<g id="node2" class="node">
<title>separated/1&#45;counter/data&#45;access/find.js</title>
<g id="a_node2"><a xlink:href="separated/1-counter/data-access/find.js" xlink:title="find.js">
<polygon fill="#ffffcc" stroke="black" points="492.5,-94.3 490.95,-96.37 480.1,-96.37 478.55,-94.3 438.5,-94.3 438.5,-75.7 492.5,-75.7 492.5,-94.3"/>
<text text-anchor="middle" x="465.5" y="-82.3" font-family="Helvetica,sans-Serif" font-size="9.00">find.js</text>
</a>
</g>
</g>
<!-- separated/1&#45;counter/business&#45;logic/get.js&#45;&gt;separated/1&#45;counter/data&#45;access/find.js -->
<g id="edge1" class="edge">
<title>separated/1&#45;counter/business&#45;logic/get.js&#45;&gt;separated/1&#45;counter/data&#45;access/find.js</title>
<path fill="none" stroke="#000000" stroke-width="2" stroke-opacity="0.200000" d="M401.9,-88.53C411.38,-87.99 422.21,-87.38 432.17,-86.82"/>
<polygon fill="#000000" fill-opacity="0.200000" stroke="#000000" stroke-width="2" stroke-opacity="0.200000" points="432.36,-88.91 438.23,-86.48 432.12,-84.72 432.36,-88.91"/>
</g>
<!-- separated/1&#45;counter/business&#45;logic/initialize&#45;state.js -->
<g id="node3" class="node">
<title>separated/1&#45;counter/business&#45;logic/initialize&#45;state.js</title>
<g id="a_node3"><a xlink:href="separated/1-counter/business-logic/initialize-state.js" xlink:title="initialize&#45;state.js">
<path fill="#ffffcc" stroke="black" d="M408.55,-130.3C408.55,-130.3 340.95,-130.3 340.95,-130.3 337.85,-130.3 334.75,-127.2 334.75,-124.1 334.75,-124.1 334.75,-117.9 334.75,-117.9 334.75,-114.8 337.85,-111.7 340.95,-111.7 340.95,-111.7 408.55,-111.7 408.55,-111.7 411.65,-111.7 414.75,-114.8 414.75,-117.9 414.75,-117.9 414.75,-124.1 414.75,-124.1 414.75,-127.2 411.65,-130.3 408.55,-130.3"/>
<text text-anchor="middle" x="374.75" y="-118.3" font-family="Helvetica,sans-Serif" font-size="9.00">initialize&#45;state.js</text>
</a>
</g>
</g>
<!-- separated/1&#45;counter/data&#45;access/load.js -->
<g id="node4" class="node">
<title>separated/1&#45;counter/data&#45;access/load.js</title>
<g id="a_node4"><a xlink:href="separated/1-counter/data-access/load.js" xlink:title="load.js">
<polygon fill="#ffffcc" stroke="black" points="492.5,-125.3 490.95,-127.37 480.1,-127.37 478.55,-125.3 438.5,-125.3 438.5,-106.7 492.5,-106.7 492.5,-125.3"/>
<text text-anchor="middle" x="465.5" y="-113.3" font-family="Helvetica,sans-Serif" font-size="9.00">load.js</text>
</a>
</g>
</g>
<!-- separated/1&#45;counter/business&#45;logic/initialize&#45;state.js&#45;&gt;separated/1&#45;counter/data&#45;access/load.js -->
<g id="edge2" class="edge">
<title>separated/1&#45;counter/business&#45;logic/initialize&#45;state.js&#45;&gt;separated/1&#45;counter/data&#45;access/load.js</title>
<path fill="none" stroke="#000000" stroke-width="2" stroke-opacity="0.200000" d="M414.68,-118.81C420.56,-118.48 426.57,-118.14 432.29,-117.81"/>
<polygon fill="#000000" fill-opacity="0.200000" stroke="#000000" stroke-width="2" stroke-opacity="0.200000" points="432.49,-119.91 438.36,-117.47 432.25,-115.71 432.49,-119.91"/>
</g>
<!-- separated/1&#45;counter/data/count.js -->
<g id="node5" class="node">
<title>separated/1&#45;counter/data/count.js</title>
<g id="a_node5"><a xlink:href="separated/1-counter/data/count.js" xlink:title="count.js">
<path fill="#ffffcc" stroke="black" d="M486.3,-186.3C486.3,-186.3 444.7,-186.3 444.7,-186.3 441.6,-186.3 438.5,-183.2 438.5,-180.1 438.5,-180.1 438.5,-173.9 438.5,-173.9 438.5,-170.8 441.6,-167.7 444.7,-167.7 444.7,-167.7 486.3,-167.7 486.3,-167.7 489.4,-167.7 492.5,-170.8 492.5,-173.9 492.5,-173.9 492.5,-180.1 492.5,-180.1 492.5,-183.2 489.4,-186.3 486.3,-186.3"/>
<text text-anchor="middle" x="465.5" y="-174.3" font-family="Helvetica,sans-Serif" font-size="9.00">count.js</text>
</a>
</g>
</g>
<!-- separated/1&#45;counter/business&#45;logic/initialize&#45;state.js&#45;&gt;separated/1&#45;counter/data/count.js -->
<g id="edge3" class="edge">
<title>separated/1&#45;counter/business&#45;logic/initialize&#45;state.js&#45;&gt;separated/1&#45;counter/data/count.js</title>
<path fill="none" stroke="#000000" stroke-width="2" stroke-opacity="0.200000" d="M390.8,-130.5C405.56,-139.81 428.13,-154.05 444.41,-164.32"/>
<polygon fill="#000000" fill-opacity="0.200000" stroke="#000000" stroke-width="2" stroke-opacity="0.200000" points="443.47,-166.21 449.67,-167.64 445.71,-162.66 443.47,-166.21"/>
</g>
<!-- separated/1&#45;counter/business&#45;logic/step.js -->
<g id="node6" class="node">
<title>separated/1&#45;counter/business&#45;logic/step.js</title>
<g id="a_node6"><a xlink:href="separated/1-counter/business-logic/step.js" xlink:title="step.js">
<path fill="#ffffcc" stroke="black" d="M395.55,-68.3C395.55,-68.3 353.95,-68.3 353.95,-68.3 350.85,-68.3 347.75,-65.2 347.75,-62.1 347.75,-62.1 347.75,-55.9 347.75,-55.9 347.75,-52.8 350.85,-49.7 353.95,-49.7 353.95,-49.7 395.55,-49.7 395.55,-49.7 398.65,-49.7 401.75,-52.8 401.75,-55.9 401.75,-55.9 401.75,-62.1 401.75,-62.1 401.75,-65.2 398.65,-68.3 395.55,-68.3"/>
<text text-anchor="middle" x="374.75" y="-56.3" font-family="Helvetica,sans-Serif" font-size="9.00">step.js</text>
</a>
</g>
</g>
<!-- separated/1&#45;counter/business&#45;logic/step.js&#45;&gt;separated/1&#45;counter/data&#45;access/find.js -->
<g id="edge4" class="edge">
<title>separated/1&#45;counter/business&#45;logic/step.js&#45;&gt;separated/1&#45;counter/data&#45;access/find.js</title>
<path fill="none" stroke="#000000" stroke-width="2" stroke-opacity="0.200000" d="M401.9,-66.66C411.47,-69.47 422.42,-72.67 432.45,-75.61"/>
<polygon fill="#000000" fill-opacity="0.200000" stroke="#000000" stroke-width="2" stroke-opacity="0.200000" points="431.88,-77.63 438.23,-77.3 433.06,-73.6 431.88,-77.63"/>
</g>
<!-- separated/1&#45;counter/data&#45;access/save.js -->
<g id="node7" class="node">
<title>separated/1&#45;counter/data&#45;access/save.js</title>
<g id="a_node7"><a xlink:href="separated/1-counter/data-access/save.js" xlink:title="save.js">
<polygon fill="#ffffcc" stroke="black" points="492.5,-63.3 490.95,-65.37 480.1,-65.37 478.55,-63.3 438.5,-63.3 438.5,-44.7 492.5,-44.7 492.5,-63.3"/>
<text text-anchor="middle" x="465.5" y="-51.3" font-family="Helvetica,sans-Serif" font-size="9.00">save.js</text>
</a>
</g>
</g>
<!-- separated/1&#45;counter/business&#45;logic/step.js&#45;&gt;separated/1&#45;counter/data&#45;access/save.js -->
<g id="edge5" class="edge">
<title>separated/1&#45;counter/business&#45;logic/step.js&#45;&gt;separated/1&#45;counter/data&#45;access/save.js</title>
<path fill="none" stroke="#000000" stroke-width="2" stroke-opacity="0.200000" d="M401.9,-57.53C411.38,-56.99 422.21,-56.38 432.17,-55.82"/>
<polygon fill="#000000" fill-opacity="0.200000" stroke="#000000" stroke-width="2" stroke-opacity="0.200000" points="432.36,-57.91 438.23,-55.48 432.12,-53.72 432.36,-57.91"/>
</g>
<!-- separated/1&#45;counter/presentations/integrate&#45;fixed/src/handlers/initialize&#45;app.js -->
<g id="node8" class="node">
<title>separated/1&#45;counter/presentations/integrate&#45;fixed/src/handlers/initialize&#45;app.js</title>
<g id="a_node8"><a xlink:href="separated/1-counter/presentations/integrate-fixed/src/handlers/initialize-app.js" xlink:title="initialize&#45;app.js">
<path fill="#ffffcc" stroke="black" d="M280.8,-105.3C280.8,-105.3 218.2,-105.3 218.2,-105.3 215.1,-105.3 212,-102.2 212,-99.1 212,-99.1 212,-92.9 212,-92.9 212,-89.8 215.1,-86.7 218.2,-86.7 218.2,-86.7 280.8,-86.7 280.8,-86.7 283.9,-86.7 287,-89.8 287,-92.9 287,-92.9 287,-99.1 287,-99.1 287,-102.2 283.9,-105.3 280.8,-105.3"/>
<text text-anchor="middle" x="249.5" y="-93.3" font-family="Helvetica,sans-Serif" font-size="9.00">initialize&#45;app.js</text>
</a>
</g>
</g>
<!-- separated/1&#45;counter/presentations/integrate&#45;fixed/src/handlers/initialize&#45;app.js&#45;&gt;separated/1&#45;counter/business&#45;logic/get.js -->
<g id="edge6" class="edge">
<title>separated/1&#45;counter/presentations/integrate&#45;fixed/src/handlers/initialize&#45;app.js&#45;&gt;separated/1&#45;counter/business&#45;logic/get.js</title>
<path fill="none" stroke="#000000" stroke-width="2" stroke-opacity="0.200000" d="M287.14,-94.22C304.31,-93.38 324.59,-92.39 341.2,-91.58"/>
<polygon fill="#000000" fill-opacity="0.200000" stroke="#000000" stroke-width="2" stroke-opacity="0.200000" points="341.72,-93.66 347.61,-91.27 341.51,-89.47 341.72,-93.66"/>
</g>
<!-- separated/1&#45;counter/presentations/integrate&#45;fixed/src/handlers/initialize&#45;app.js&#45;&gt;separated/1&#45;counter/business&#45;logic/initialize&#45;state.js -->
<g id="edge7" class="edge">
<title>separated/1&#45;counter/presentations/integrate&#45;fixed/src/handlers/initialize&#45;app.js&#45;&gt;separated/1&#45;counter/business&#45;logic/initialize&#45;state.js</title>
<path fill="none" stroke="#000000" stroke-width="2" stroke-opacity="0.200000" d="M287.14,-103.43C300.19,-106.08 315.03,-109.09 328.7,-111.86"/>
<polygon fill="#000000" fill-opacity="0.200000" stroke="#000000" stroke-width="2" stroke-opacity="0.200000" points="328.59,-113.98 334.89,-113.12 329.42,-109.87 328.59,-113.98"/>
</g>
<!-- separated/1&#45;counter/presentations/integrate&#45;fixed/src/handlers/step.js -->
<g id="node9" class="node">
<title>separated/1&#45;counter/presentations/integrate&#45;fixed/src/handlers/step.js</title>
<g id="a_node9"><a xlink:href="separated/1-counter/presentations/integrate-fixed/src/handlers/step.js" xlink:title="step.js">
<path fill="#ffffcc" stroke="black" d="M270.3,-74.3C270.3,-74.3 228.7,-74.3 228.7,-74.3 225.6,-74.3 222.5,-71.2 222.5,-68.1 222.5,-68.1 222.5,-61.9 222.5,-61.9 222.5,-58.8 225.6,-55.7 228.7,-55.7 228.7,-55.7 270.3,-55.7 270.3,-55.7 273.4,-55.7 276.5,-58.8 276.5,-61.9 276.5,-61.9 276.5,-68.1 276.5,-68.1 276.5,-71.2 273.4,-74.3 270.3,-74.3"/>
<text text-anchor="middle" x="249.5" y="-62.3" font-family="Helvetica,sans-Serif" font-size="9.00">step.js</text>
</a>
</g>
</g>
<!-- separated/1&#45;counter/presentations/integrate&#45;fixed/src/handlers/step.js&#45;&gt;separated/1&#45;counter/business&#45;logic/step.js -->
<g id="edge8" class="edge">
<title>separated/1&#45;counter/presentations/integrate&#45;fixed/src/handlers/step.js&#45;&gt;separated/1&#45;counter/business&#45;logic/step.js</title>
<path fill="none" stroke="#000000" stroke-width="2" stroke-opacity="0.200000" d="M276.64,-63.73C295.59,-62.8 321.34,-61.55 341.56,-60.57"/>
<polygon fill="#000000" fill-opacity="0.200000" stroke="#000000" stroke-width="2" stroke-opacity="0.200000" points="341.76,-62.66 347.65,-60.27 341.55,-58.46 341.76,-62.66"/>
</g>
<!-- separated/1&#45;counter/presentations/integrate&#45;fixed/src/init/index.js -->
<g id="node10" class="node">
<title>separated/1&#45;counter/presentations/integrate&#45;fixed/src/init/index.js</title>
<g id="a_node10"><a xlink:href="separated/1-counter/presentations/integrate-fixed/src/init/index.js" xlink:title="index.js">
<path fill="#ffffcc" stroke="black" d="M103.8,-89.3C103.8,-89.3 62.2,-89.3 62.2,-89.3 59.1,-89.3 56,-86.2 56,-83.1 56,-83.1 56,-76.9 56,-76.9 56,-73.8 59.1,-70.7 62.2,-70.7 62.2,-70.7 103.8,-70.7 103.8,-70.7 106.9,-70.7 110,-73.8 110,-76.9 110,-76.9 110,-83.1 110,-83.1 110,-86.2 106.9,-89.3 103.8,-89.3"/>
<text text-anchor="middle" x="83" y="-77.3" font-family="Helvetica,sans-Serif" font-size="9.00">index.js</text>
</a>
</g>
</g>
<!-- separated/1&#45;counter/presentations/integrate&#45;fixed/src/listeners/load.js -->
<g id="node11" class="node">
<title>separated/1&#45;counter/presentations/integrate&#45;fixed/src/listeners/load.js</title>
<g id="a_node11"><a xlink:href="separated/1-counter/presentations/integrate-fixed/src/listeners/load.js" xlink:title="load.js">
<path fill="#ffffcc" stroke="black" d="M181.8,-105.3C181.8,-105.3 140.2,-105.3 140.2,-105.3 137.1,-105.3 134,-102.2 134,-99.1 134,-99.1 134,-92.9 134,-92.9 134,-89.8 137.1,-86.7 140.2,-86.7 140.2,-86.7 181.8,-86.7 181.8,-86.7 184.9,-86.7 188,-89.8 188,-92.9 188,-92.9 188,-99.1 188,-99.1 188,-102.2 184.9,-105.3 181.8,-105.3"/>
<text text-anchor="middle" x="161" y="-93.3" font-family="Helvetica,sans-Serif" font-size="9.00">load.js</text>
</a>
</g>
</g>
<!-- separated/1&#45;counter/presentations/integrate&#45;fixed/src/init/index.js&#45;&gt;separated/1&#45;counter/presentations/integrate&#45;fixed/src/listeners/load.js -->
<g id="edge9" class="edge">
<title>separated/1&#45;counter/presentations/integrate&#45;fixed/src/init/index.js&#45;&gt;separated/1&#45;counter/presentations/integrate&#45;fixed/src/listeners/load.js</title>
<path fill="none" stroke="#000000" stroke-width="2" stroke-opacity="0.200000" d="M110.15,-85.51C115.77,-86.69 121.76,-87.95 127.58,-89.17"/>
<polygon fill="#000000" fill-opacity="0.200000" stroke="#000000" stroke-width="2" stroke-opacity="0.200000" points="127.49,-91.3 133.8,-90.48 128.36,-87.19 127.49,-91.3"/>
</g>
<!-- separated/1&#45;counter/presentations/integrate&#45;fixed/src/listeners/step.js -->
<g id="node12" class="node">
<title>separated/1&#45;counter/presentations/integrate&#45;fixed/src/listeners/step.js</title>
<g id="a_node12"><a xlink:href="separated/1-counter/presentations/integrate-fixed/src/listeners/step.js" xlink:title="step.js">
<path fill="#ffffcc" stroke="black" d="M181.8,-74.3C181.8,-74.3 140.2,-74.3 140.2,-74.3 137.1,-74.3 134,-71.2 134,-68.1 134,-68.1 134,-61.9 134,-61.9 134,-58.8 137.1,-55.7 140.2,-55.7 140.2,-55.7 181.8,-55.7 181.8,-55.7 184.9,-55.7 188,-58.8 188,-61.9 188,-61.9 188,-68.1 188,-68.1 188,-71.2 184.9,-74.3 181.8,-74.3"/>
<text text-anchor="middle" x="161" y="-62.3" font-family="Helvetica,sans-Serif" font-size="9.00">step.js</text>
</a>
</g>
</g>
<!-- separated/1&#45;counter/presentations/integrate&#45;fixed/src/init/index.js&#45;&gt;separated/1&#45;counter/presentations/integrate&#45;fixed/src/listeners/step.js -->
<g id="edge10" class="edge">
<title>separated/1&#45;counter/presentations/integrate&#45;fixed/src/init/index.js&#45;&gt;separated/1&#45;counter/presentations/integrate&#45;fixed/src/listeners/step.js</title>
<path fill="none" stroke="#000000" stroke-width="2" stroke-opacity="0.200000" d="M110.15,-74.84C115.77,-73.73 121.76,-72.55 127.58,-71.4"/>
<polygon fill="#000000" fill-opacity="0.200000" stroke="#000000" stroke-width="2" stroke-opacity="0.200000" points="128.32,-73.39 133.8,-70.17 127.5,-69.27 128.32,-73.39"/>
</g>
<!-- separated/1&#45;counter/presentations/integrate&#45;fixed/src/listeners/load.js&#45;&gt;separated/1&#45;counter/presentations/integrate&#45;fixed/src/handlers/initialize&#45;app.js -->
<g id="edge11" class="edge">
<title>separated/1&#45;counter/presentations/integrate&#45;fixed/src/listeners/load.js&#45;&gt;separated/1&#45;counter/presentations/integrate&#45;fixed/src/handlers/initialize&#45;app.js</title>
<path fill="none" stroke="#000000" stroke-width="2" stroke-opacity="0.200000" d="M188.42,-96C193.82,-96 199.64,-96 205.45,-96"/>
<polygon fill="#000000" fill-opacity="0.200000" stroke="#000000" stroke-width="2" stroke-opacity="0.200000" points="205.73,-98.1 211.73,-96 205.73,-93.9 205.73,-98.1"/>
</g>
<!-- separated/1&#45;counter/presentations/integrate&#45;fixed/src/listeners/step.js&#45;&gt;separated/1&#45;counter/presentations/integrate&#45;fixed/src/handlers/step.js -->
<g id="edge12" class="edge">
<title>separated/1&#45;counter/presentations/integrate&#45;fixed/src/listeners/step.js&#45;&gt;separated/1&#45;counter/presentations/integrate&#45;fixed/src/handlers/step.js</title>
<path fill="none" stroke="#000000" stroke-width="2" stroke-opacity="0.200000" d="M188.42,-65C197.14,-65 206.94,-65 216.06,-65"/>
<polygon fill="#000000" fill-opacity="0.200000" stroke="#000000" stroke-width="2" stroke-opacity="0.200000" points="216.24,-67.1 222.24,-65 216.24,-62.9 216.24,-67.1"/>
</g>
</g>
</svg>
