<?xml version="1.0" encoding="UTF-8" standalone="no"?>
<!DOCTYPE svg PUBLIC "-//W3C//DTD SVG 1.1//EN"
 "http://www.w3.org/Graphics/SVG/1.1/DTD/svg11.dtd">
<!-- Generated by graphviz version 2.44.0 (20200408.0750)
 -->
<!-- Title: dependency&#45;cruiser output Pages: 1 -->
<svg width="366pt" height="386pt"
 viewBox="0.00 0.00 365.99 386.00" xmlns="http://www.w3.org/2000/svg" xmlns:xlink="http://www.w3.org/1999/xlink">
<g id="graph0" class="graph" transform="scale(1 1) rotate(0) translate(4 382)">
<title>dependency&#45;cruiser output</title>
<polygon fill="white" stroke="transparent" points="-4,4 -4,-382 361.99,-382 361.99,4 -4,4"/>
<g id="clust1" class="cluster">
<title>cluster_data&#45;access</title>
<path fill="#ffffff" stroke="black" stroke-width="2" d="M20,-69C20,-69 337.99,-69 337.99,-69 343.99,-69 349.99,-75 349.99,-81 349.99,-81 349.99,-358 349.99,-358 349.99,-364 343.99,-370 337.99,-370 337.99,-370 20,-370 20,-370 14,-370 8,-364 8,-358 8,-358 8,-81 8,-81 8,-75 14,-69 20,-69"/>
<text text-anchor="middle" x="179" y="-357.9" font-family="Helvetica,sans-Serif" font-weight="bold" font-size="9.00">data&#45;access</text>
</g>
<g id="clust2" class="cluster">
<title>cluster_data&#45;access/local&#45;storage</title>
<path fill="#ffffff" stroke="black" stroke-width="2" d="M111.74,-167C111.74,-167 329.99,-167 329.99,-167 335.99,-167 341.99,-173 341.99,-179 341.99,-179 341.99,-314 341.99,-314 341.99,-320 335.99,-326 329.99,-326 329.99,-326 111.74,-326 111.74,-326 105.74,-326 99.74,-320 99.74,-314 99.74,-314 99.74,-179 99.74,-179 99.74,-173 105.74,-167 111.74,-167"/>
<text text-anchor="middle" x="220.87" y="-313.9" font-family="Helvetica,sans-Serif" font-weight="bold" font-size="9.00">local&#45;storage</text>
</g>
<g id="clust3" class="cluster">
<title>cluster_data&#45;access/utils</title>
<path fill="#ffffff" stroke="black" stroke-width="2" d="M102.99,-83C102.99,-83 259.99,-83 259.99,-83 265.99,-83 271.99,-89 271.99,-95 271.99,-95 271.99,-124 271.99,-124 271.99,-130 265.99,-136 259.99,-136 259.99,-136 102.99,-136 102.99,-136 96.99,-136 90.99,-130 90.99,-124 90.99,-124 90.99,-95 90.99,-95 90.99,-89 96.99,-83 102.99,-83"/>
<text text-anchor="middle" x="181.49" y="-123.9" font-family="Helvetica,sans-Serif" font-weight="bold" font-size="9.00">utils</text>
</g>
<g id="clust4" class="cluster">
<title>cluster_lib</title>
<path fill="#ffffff" stroke="black" stroke-width="2" d="M110.74,-8C110.74,-8 158.75,-8 158.75,-8 164.75,-8 170.75,-14 170.75,-20 170.75,-20 170.75,-49 170.75,-49 170.75,-55 164.75,-61 158.75,-61 158.75,-61 110.74,-61 110.74,-61 104.74,-61 98.74,-55 98.74,-49 98.74,-49 98.74,-20 98.74,-20 98.74,-14 104.74,-8 110.74,-8"/>
<text text-anchor="middle" x="134.74" y="-48.9" font-family="Helvetica,sans-Serif" font-weight="bold" font-size="9.00">lib</text>
</g>
<!-- data&#45;access/all&#45;keys.js -->
<g id="node1" class="node">
<title>data&#45;access/all&#45;keys.js</title>
<g id="a_node1"><a xlink:href="data-access/all-keys.js" xlink:title="all&#45;keys.js">
<path fill="#ffffcc" stroke="black" d="M71.29,-250.3C71.29,-250.3 27.7,-250.3 27.7,-250.3 24.6,-250.3 21.5,-247.2 21.5,-244.1 21.5,-244.1 21.5,-237.9 21.5,-237.9 21.5,-234.8 24.6,-231.7 27.7,-231.7 27.7,-231.7 71.29,-231.7 71.29,-231.7 74.39,-231.7 77.49,-234.8 77.49,-237.9 77.49,-237.9 77.49,-244.1 77.49,-244.1 77.49,-247.2 74.39,-250.3 71.29,-250.3"/>
<text text-anchor="middle" x="49.5" y="-238.3" font-family="Helvetica,sans-Serif" font-size="9.00">all&#45;keys.js</text>
</a>
</g>
</g>
<!-- data&#45;access/local&#45;storage/state.js -->
<g id="node2" class="node">
<title>data&#45;access/local&#45;storage/state.js</title>
<g id="a_node2"><a xlink:href="data-access/local-storage/state.js" xlink:title="state.js">
<path fill="#ffffcc" stroke="black" d="M155.54,-246.3C155.54,-246.3 113.94,-246.3 113.94,-246.3 110.84,-246.3 107.74,-243.2 107.74,-240.1 107.74,-240.1 107.74,-233.9 107.74,-233.9 107.74,-230.8 110.84,-227.7 113.94,-227.7 113.94,-227.7 155.54,-227.7 155.54,-227.7 158.64,-227.7 161.74,-230.8 161.74,-233.9 161.74,-233.9 161.74,-240.1 161.74,-240.1 161.74,-243.2 158.64,-246.3 155.54,-246.3"/>
<text text-anchor="middle" x="134.74" y="-234.3" font-family="Helvetica,sans-Serif" font-size="9.00">state.js</text>
</a>
</g>
</g>
<!-- data&#45;access/all&#45;keys.js&#45;&gt;data&#45;access/local&#45;storage/state.js -->
<g id="edge1" class="edge">
<title>data&#45;access/all&#45;keys.js&#45;&gt;data&#45;access/local&#45;storage/state.js</title>
<path fill="none" stroke="#000000" stroke-width="2" stroke-opacity="0.200000" d="M77.29,-239.71C85.02,-239.34 93.53,-238.93 101.55,-238.55"/>
<polygon fill="#000000" fill-opacity="0.200000" stroke="#000000" stroke-width="2" stroke-opacity="0.200000" points="101.67,-240.64 107.56,-238.26 101.47,-236.45 101.67,-240.64"/>
</g>
<!-- data&#45;access/local&#45;storage/get&#45;item.js -->
<g id="node4" class="node">
<title>data&#45;access/local&#45;storage/get&#45;item.js</title>
<g id="a_node4"><a xlink:href="data-access/local-storage/get-item.js" xlink:title="get&#45;item.js">
<path fill="#ffffcc" stroke="black" d="M246.54,-268.3C246.54,-268.3 200.94,-268.3 200.94,-268.3 197.84,-268.3 194.74,-265.2 194.74,-262.1 194.74,-262.1 194.74,-255.9 194.74,-255.9 194.74,-252.8 197.84,-249.7 200.94,-249.7 200.94,-249.7 246.54,-249.7 246.54,-249.7 249.64,-249.7 252.74,-252.8 252.74,-255.9 252.74,-255.9 252.74,-262.1 252.74,-262.1 252.74,-265.2 249.64,-268.3 246.54,-268.3"/>
<text text-anchor="middle" x="223.74" y="-256.3" font-family="Helvetica,sans-Serif" font-size="9.00">get&#45;item.js</text>
</a>
</g>
</g>
<!-- data&#45;access/local&#45;storage/state.js&#45;&gt;data&#45;access/local&#45;storage/get&#45;item.js -->
<g id="edge20" class="edge">
<title>data&#45;access/local&#45;storage/state.js&#45;&gt;data&#45;access/local&#45;storage/get&#45;item.js</title>
<path fill="none" stroke="#000000" stroke-width="2" stroke-opacity="0.200000" d="M161.85,-243.6C170.39,-245.76 180,-248.19 189.02,-250.47"/>
<polygon fill="#000000" fill-opacity="0.200000" stroke="#000000" stroke-width="2" stroke-opacity="0.200000" points="188.51,-252.51 194.84,-251.94 189.54,-248.44 188.51,-252.51"/>
</g>
<!-- data&#45;access/local&#45;storage/store.js -->
<g id="node15" class="node">
<title>data&#45;access/local&#45;storage/store.js</title>
<g id="a_node15"><a xlink:href="data-access/local-storage/store.js" xlink:title="store.js">
<path fill="#ffffcc" stroke="black" d="M327.79,-246.3C327.79,-246.3 286.19,-246.3 286.19,-246.3 283.09,-246.3 279.99,-243.2 279.99,-240.1 279.99,-240.1 279.99,-233.9 279.99,-233.9 279.99,-230.8 283.09,-227.7 286.19,-227.7 286.19,-227.7 327.79,-227.7 327.79,-227.7 330.89,-227.7 333.99,-230.8 333.99,-233.9 333.99,-233.9 333.99,-240.1 333.99,-240.1 333.99,-243.2 330.89,-246.3 327.79,-246.3"/>
<text text-anchor="middle" x="306.99" y="-234.3" font-family="Helvetica,sans-Serif" font-size="9.00">store.js</text>
</a>
</g>
</g>
<!-- data&#45;access/local&#45;storage/state.js&#45;&gt;data&#45;access/local&#45;storage/store.js -->
<g id="edge21" class="edge">
<title>data&#45;access/local&#45;storage/state.js&#45;&gt;data&#45;access/local&#45;storage/store.js</title>
<path fill="none" stroke="#000000" stroke-width="2" stroke-opacity="0.200000" d="M161.97,-237C191.97,-237 241.09,-237 273.49,-237"/>
<polygon fill="#000000" fill-opacity="0.200000" stroke="#000000" stroke-width="2" stroke-opacity="0.200000" points="273.73,-239.1 279.73,-237 273.73,-234.9 273.73,-239.1"/>
</g>
<!-- data&#45;access/find&#45;all.js -->
<g id="node3" class="node">
<title>data&#45;access/find&#45;all.js</title>
<g id="a_node3"><a xlink:href="data-access/find-all.js" xlink:title="find&#45;all.js">
<path fill="#ffffcc" stroke="black" d="M70.3,-281.3C70.3,-281.3 28.7,-281.3 28.7,-281.3 25.6,-281.3 22.5,-278.2 22.5,-275.1 22.5,-275.1 22.5,-268.9 22.5,-268.9 22.5,-265.8 25.6,-262.7 28.7,-262.7 28.7,-262.7 70.3,-262.7 70.3,-262.7 73.4,-262.7 76.5,-265.8 76.5,-268.9 76.5,-268.9 76.5,-275.1 76.5,-275.1 76.5,-278.2 73.4,-281.3 70.3,-281.3"/>
<text text-anchor="middle" x="49.5" y="-269.3" font-family="Helvetica,sans-Serif" font-size="9.00">find&#45;all.js</text>
</a>
</g>
</g>
<!-- data&#45;access/find&#45;all.js&#45;&gt;data&#45;access/local&#45;storage/state.js -->
<g id="edge3" class="edge">
<title>data&#45;access/find&#45;all.js&#45;&gt;data&#45;access/local&#45;storage/state.js</title>
<path fill="none" stroke="#000000" stroke-width="2" stroke-opacity="0.200000" d="M71.09,-262.58C75.11,-260.54 79.24,-258.3 82.99,-256 86.78,-253.68 87.03,-252.01 90.99,-250 94.35,-248.3 97.98,-246.77 101.64,-245.42"/>
<polygon fill="#000000" fill-opacity="0.200000" stroke="#000000" stroke-width="2" stroke-opacity="0.200000" points="102.42,-247.37 107.41,-243.43 101.05,-243.4 102.42,-247.37"/>
</g>
<!-- data&#45;access/find&#45;all.js&#45;&gt;data&#45;access/local&#45;storage/get&#45;item.js -->
<g id="edge2" class="edge">
<title>data&#45;access/find&#45;all.js&#45;&gt;data&#45;access/local&#45;storage/get&#45;item.js</title>
<path fill="none" stroke="#000000" stroke-width="2" stroke-opacity="0.200000" d="M76.66,-270.03C106.57,-267.77 155.63,-264.07 188.55,-261.58"/>
<polygon fill="#000000" fill-opacity="0.200000" stroke="#000000" stroke-width="2" stroke-opacity="0.200000" points="189.08,-263.65 194.91,-261.1 188.77,-259.46 189.08,-263.65"/>
</g>
<!-- data&#45;access/local&#45;storage/get&#45;item.js&#45;&gt;data&#45;access/local&#45;storage/store.js -->
<g id="edge17" class="edge">
<title>data&#45;access/local&#45;storage/get&#45;item.js&#45;&gt;data&#45;access/local&#45;storage/store.js</title>
<path fill="none" stroke="#000000" stroke-width="2" stroke-opacity="0.200000" d="M252.7,-251.43C259.59,-249.56 267.02,-247.55 274.07,-245.64"/>
<polygon fill="#000000" fill-opacity="0.200000" stroke="#000000" stroke-width="2" stroke-opacity="0.200000" points="274.65,-247.66 279.89,-244.07 273.55,-243.61 274.65,-247.66"/>
</g>
<!-- data&#45;access/find.js -->
<g id="node5" class="node">
<title>data&#45;access/find.js</title>
<g id="a_node5"><a xlink:href="data-access/find.js" xlink:title="find.js">
<path fill="#ffffcc" stroke="black" d="M70.3,-312.3C70.3,-312.3 28.7,-312.3 28.7,-312.3 25.6,-312.3 22.5,-309.2 22.5,-306.1 22.5,-306.1 22.5,-299.9 22.5,-299.9 22.5,-296.8 25.6,-293.7 28.7,-293.7 28.7,-293.7 70.3,-293.7 70.3,-293.7 73.4,-293.7 76.5,-296.8 76.5,-299.9 76.5,-299.9 76.5,-306.1 76.5,-306.1 76.5,-309.2 73.4,-312.3 70.3,-312.3"/>
<text text-anchor="middle" x="49.5" y="-300.3" font-family="Helvetica,sans-Serif" font-size="9.00">find.js</text>
</a>
</g>
</g>
<!-- data&#45;access/find.js&#45;&gt;data&#45;access/local&#45;storage/state.js -->
<g id="edge5" class="edge">
<title>data&#45;access/find.js&#45;&gt;data&#45;access/local&#45;storage/state.js</title>
<path fill="none" stroke="#000000" stroke-width="2" stroke-opacity="0.200000" d="M75.68,-293.62C78.44,-291.77 80.98,-289.58 82.99,-287 93.35,-273.74 79.6,-262.38 90.99,-250 93.96,-246.78 97.69,-244.35 101.7,-242.52"/>
<polygon fill="#000000" fill-opacity="0.200000" stroke="#000000" stroke-width="2" stroke-opacity="0.200000" points="102.46,-244.48 107.31,-240.37 100.96,-240.55 102.46,-244.48"/>
</g>
<!-- data&#45;access/find.js&#45;&gt;data&#45;access/local&#45;storage/get&#45;item.js -->
<g id="edge4" class="edge">
<title>data&#45;access/find.js&#45;&gt;data&#45;access/local&#45;storage/get&#45;item.js</title>
<path fill="none" stroke="#000000" stroke-width="2" stroke-opacity="0.200000" d="M76.62,-295.82C81.4,-294.53 86.34,-293.21 90.99,-292 124.29,-283.31 162.45,-273.8 189.1,-267.23"/>
<polygon fill="#000000" fill-opacity="0.200000" stroke="#000000" stroke-width="2" stroke-opacity="0.200000" points="189.62,-269.27 194.94,-265.79 188.62,-265.19 189.62,-269.27"/>
</g>
<!-- data&#45;access/has&#45;key.js -->
<g id="node6" class="node">
<title>data&#45;access/has&#45;key.js</title>
<g id="a_node6"><a xlink:href="data-access/has-key.js" xlink:title="has&#45;key.js">
<path fill="#ffffcc" stroke="black" d="M71.3,-219.3C71.3,-219.3 27.69,-219.3 27.69,-219.3 24.59,-219.3 21.49,-216.2 21.49,-213.1 21.49,-213.1 21.49,-206.9 21.49,-206.9 21.49,-203.8 24.59,-200.7 27.69,-200.7 27.69,-200.7 71.3,-200.7 71.3,-200.7 74.4,-200.7 77.5,-203.8 77.5,-206.9 77.5,-206.9 77.5,-213.1 77.5,-213.1 77.5,-216.2 74.4,-219.3 71.3,-219.3"/>
<text text-anchor="middle" x="49.5" y="-207.3" font-family="Helvetica,sans-Serif" font-size="9.00">has&#45;key.js</text>
</a>
</g>
</g>
<!-- data&#45;access/has&#45;key.js&#45;&gt;data&#45;access/local&#45;storage/state.js -->
<g id="edge6" class="edge">
<title>data&#45;access/has&#45;key.js&#45;&gt;data&#45;access/local&#45;storage/state.js</title>
<path fill="none" stroke="#000000" stroke-width="2" stroke-opacity="0.200000" d="M77.02,-219.33C81.67,-220.92 86.47,-222.53 90.99,-224 94.4,-225.11 97.96,-226.23 101.52,-227.34"/>
<polygon fill="#000000" fill-opacity="0.200000" stroke="#000000" stroke-width="2" stroke-opacity="0.200000" points="101.12,-229.42 107.47,-229.18 102.36,-225.4 101.12,-229.42"/>
</g>
<!-- data&#45;access/insert.js -->
<g id="node7" class="node">
<title>data&#45;access/insert.js</title>
<g id="a_node7"><a xlink:href="data-access/insert.js" xlink:title="insert.js">
<path fill="#ffffcc" stroke="black" d="M70.3,-157.3C70.3,-157.3 28.7,-157.3 28.7,-157.3 25.6,-157.3 22.5,-154.2 22.5,-151.1 22.5,-151.1 22.5,-144.9 22.5,-144.9 22.5,-141.8 25.6,-138.7 28.7,-138.7 28.7,-138.7 70.3,-138.7 70.3,-138.7 73.4,-138.7 76.5,-141.8 76.5,-144.9 76.5,-144.9 76.5,-151.1 76.5,-151.1 76.5,-154.2 73.4,-157.3 70.3,-157.3"/>
<text text-anchor="middle" x="49.5" y="-145.3" font-family="Helvetica,sans-Serif" font-size="9.00">insert.js</text>
</a>
</g>
</g>
<!-- data&#45;access/insert.js&#45;&gt;data&#45;access/local&#45;storage/state.js -->
<g id="edge8" class="edge">
<title>data&#45;access/insert.js&#45;&gt;data&#45;access/local&#45;storage/state.js</title>
<path fill="none" stroke="#000000" stroke-width="2" stroke-opacity="0.200000" d="M76.19,-157.45C78.8,-159.28 81.16,-161.45 82.99,-164 98.69,-185.85 73.58,-203.49 90.99,-224 93.89,-227.41 97.66,-229.95 101.76,-231.83"/>
<polygon fill="#000000" fill-opacity="0.200000" stroke="#000000" stroke-width="2" stroke-opacity="0.200000" points="101.14,-233.84 107.49,-234.01 102.63,-229.91 101.14,-233.84"/>
</g>
<!-- data&#45;access/local&#45;storage/set&#45;item.js -->
<g id="node8" class="node">
<title>data&#45;access/local&#45;storage/set&#45;item.js</title>
<g id="a_node8"><a xlink:href="data-access/local-storage/set-item.js" xlink:title="set&#45;item.js">
<path fill="#ffffcc" stroke="black" d="M246.04,-193.3C246.04,-193.3 201.45,-193.3 201.45,-193.3 198.35,-193.3 195.25,-190.2 195.25,-187.1 195.25,-187.1 195.25,-180.9 195.25,-180.9 195.25,-177.8 198.35,-174.7 201.45,-174.7 201.45,-174.7 246.04,-174.7 246.04,-174.7 249.14,-174.7 252.24,-177.8 252.24,-180.9 252.24,-180.9 252.24,-187.1 252.24,-187.1 252.24,-190.2 249.14,-193.3 246.04,-193.3"/>
<text text-anchor="middle" x="223.74" y="-181.3" font-family="Helvetica,sans-Serif" font-size="9.00">set&#45;item.js</text>
</a>
</g>
</g>
<!-- data&#45;access/insert.js&#45;&gt;data&#45;access/local&#45;storage/set&#45;item.js -->
<g id="edge7" class="edge">
<title>data&#45;access/insert.js&#45;&gt;data&#45;access/local&#45;storage/set&#45;item.js</title>
<path fill="none" stroke="#000000" stroke-width="2" stroke-opacity="0.200000" d="M73.57,-157.31C76.93,-159.23 80.2,-161.46 82.99,-164 88.01,-168.57 85.16,-173.53 90.99,-177 120.56,-194.57 160.76,-193.94 188.96,-190.41"/>
<polygon fill="#000000" fill-opacity="0.200000" stroke="#000000" stroke-width="2" stroke-opacity="0.200000" points="189.48,-192.46 195.14,-189.57 188.91,-188.3 189.48,-192.46"/>
</g>
<!-- data&#45;access/utils/is&#45;json&#45;data.js -->
<g id="node9" class="node">
<title>data&#45;access/utils/is&#45;json&#45;data.js</title>
<g id="a_node9"><a xlink:href="data-access/utils/is-json-data.js" xlink:title="is&#45;json&#45;data.js">
<path fill="#ffffcc" stroke="black" d="M164.05,-109.3C164.05,-109.3 105.44,-109.3 105.44,-109.3 102.34,-109.3 99.24,-106.2 99.24,-103.1 99.24,-103.1 99.24,-96.9 99.24,-96.9 99.24,-93.8 102.34,-90.7 105.44,-90.7 105.44,-90.7 164.05,-90.7 164.05,-90.7 167.15,-90.7 170.25,-93.8 170.25,-96.9 170.25,-96.9 170.25,-103.1 170.25,-103.1 170.25,-106.2 167.15,-109.3 164.05,-109.3"/>
<text text-anchor="middle" x="134.74" y="-97.3" font-family="Helvetica,sans-Serif" font-size="9.00">is&#45;json&#45;data.js</text>
</a>
</g>
</g>
<!-- data&#45;access/insert.js&#45;&gt;data&#45;access/utils/is&#45;json&#45;data.js -->
<g id="edge9" class="edge">
<title>data&#45;access/insert.js&#45;&gt;data&#45;access/utils/is&#45;json&#45;data.js</title>
<path fill="none" stroke="#000000" stroke-width="2" stroke-opacity="0.200000" d="M74.59,-138.65C77.66,-136.77 80.58,-134.56 82.99,-132 89.28,-125.33 84.19,-119.14 90.99,-113 91.9,-112.18 92.86,-111.42 93.86,-110.7"/>
<polygon fill="#000000" fill-opacity="0.200000" stroke="#000000" stroke-width="2" stroke-opacity="0.200000" points="95.1,-112.4 99.14,-107.49 92.92,-108.81 95.1,-112.4"/>
</g>
<!-- data&#45;access/local&#45;storage/set&#45;item.js&#45;&gt;data&#45;access/local&#45;storage/store.js -->
<g id="edge19" class="edge">
<title>data&#45;access/local&#45;storage/set&#45;item.js&#45;&gt;data&#45;access/local&#45;storage/store.js</title>
<path fill="none" stroke="#000000" stroke-width="2" stroke-opacity="0.200000" d="M252.31,-190.76C259.05,-193.09 266.04,-196.13 271.99,-200 281.14,-205.96 289.47,-214.93 295.59,-222.55"/>
<polygon fill="#000000" fill-opacity="0.200000" stroke="#000000" stroke-width="2" stroke-opacity="0.200000" points="294.13,-224.09 299.46,-227.55 297.45,-221.52 294.13,-224.09"/>
</g>
<!-- data&#45;access/utils/is&#45;plain&#45;object.js -->
<g id="node13" class="node">
<title>data&#45;access/utils/is&#45;plain&#45;object.js</title>
<g id="a_node13"><a xlink:href="data-access/utils/is-plain-object.js" xlink:title="is&#45;plain&#45;object.js">
<path fill="#ffffcc" stroke="black" d="M258.04,-109.3C258.04,-109.3 189.44,-109.3 189.44,-109.3 186.34,-109.3 183.24,-106.2 183.24,-103.1 183.24,-103.1 183.24,-96.9 183.24,-96.9 183.24,-93.8 186.34,-90.7 189.44,-90.7 189.44,-90.7 258.04,-90.7 258.04,-90.7 261.14,-90.7 264.24,-93.8 264.24,-96.9 264.24,-96.9 264.24,-103.1 264.24,-103.1 264.24,-106.2 261.14,-109.3 258.04,-109.3"/>
<text text-anchor="middle" x="223.74" y="-97.3" font-family="Helvetica,sans-Serif" font-size="9.00">is&#45;plain&#45;object.js</text>
</a>
</g>
</g>
<!-- data&#45;access/utils/is&#45;json&#45;data.js&#45;&gt;data&#45;access/utils/is&#45;plain&#45;object.js -->
<g id="edge29" class="edge">
<title>data&#45;access/utils/is&#45;json&#45;data.js&#45;&gt;data&#45;access/utils/is&#45;plain&#45;object.js</title>
<path fill="none" stroke="#000000" stroke-width="2" stroke-opacity="0.200000" d="M170.38,-100C172.64,-100 174.94,-100 177.25,-100"/>
<polygon fill="#000000" fill-opacity="0.200000" stroke="#000000" stroke-width="2" stroke-opacity="0.200000" points="177.36,-102.1 183.36,-100 177.36,-97.9 177.36,-102.1"/>
</g>
<!-- data&#45;access/load.js -->
<g id="node10" class="node">
<title>data&#45;access/load.js</title>
<g id="a_node10"><a xlink:href="data-access/load.js" xlink:title="load.js">
<path fill="#ffffcc" stroke="black" d="M70.3,-95.3C70.3,-95.3 28.7,-95.3 28.7,-95.3 25.6,-95.3 22.5,-92.2 22.5,-89.1 22.5,-89.1 22.5,-82.9 22.5,-82.9 22.5,-79.8 25.6,-76.7 28.7,-76.7 28.7,-76.7 70.3,-76.7 70.3,-76.7 73.4,-76.7 76.5,-79.8 76.5,-82.9 76.5,-82.9 76.5,-89.1 76.5,-89.1 76.5,-92.2 73.4,-95.3 70.3,-95.3"/>
<text text-anchor="middle" x="49.5" y="-83.3" font-family="Helvetica,sans-Serif" font-size="9.00">load.js</text>
</a>
</g>
</g>
<!-- data&#45;access/load.js&#45;&gt;data&#45;access/local&#45;storage/state.js -->
<g id="edge14" class="edge">
<title>data&#45;access/load.js&#45;&gt;data&#45;access/local&#45;storage/state.js</title>
<path fill="none" stroke="#000000" stroke-width="2" stroke-opacity="0.200000" d="M76.36,-95.33C78.94,-97.18 81.25,-99.39 82.99,-102 98.1,-124.59 74.11,-202.71 90.99,-224 93.84,-227.59 97.66,-230.22 101.84,-232.14"/>
<polygon fill="#000000" fill-opacity="0.200000" stroke="#000000" stroke-width="2" stroke-opacity="0.200000" points="101.35,-234.2 107.71,-234.33 102.82,-230.26 101.35,-234.2"/>
</g>
<!-- data&#45;access/load.js&#45;&gt;data&#45;access/local&#45;storage/get&#45;item.js -->
<g id="edge11" class="edge">
<title>data&#45;access/load.js&#45;&gt;data&#45;access/local&#45;storage/get&#45;item.js</title>
<path fill="none" stroke="#000000" stroke-width="2" stroke-opacity="0.200000" d="M76.24,-95.42C78.84,-97.25 81.18,-99.43 82.99,-102 100.79,-127.23 74.63,-144.82 90.99,-171 113.29,-206.68 135.87,-198.46 170.75,-222 182.32,-229.81 195.1,-238.9 205.09,-246.11"/>
<polygon fill="#000000" fill-opacity="0.200000" stroke="#000000" stroke-width="2" stroke-opacity="0.200000" points="203.95,-247.88 210.05,-249.7 206.42,-244.48 203.95,-247.88"/>
</g>
<!-- data&#45;access/load.js&#45;&gt;data&#45;access/local&#45;storage/set&#45;item.js -->
<g id="edge13" class="edge">
<title>data&#45;access/load.js&#45;&gt;data&#45;access/local&#45;storage/set&#45;item.js</title>
<path fill="none" stroke="#000000" stroke-width="2" stroke-opacity="0.200000" d="M75.68,-95.38C78.44,-97.23 80.98,-99.42 82.99,-102 93.35,-115.26 79.01,-127.19 90.99,-139 116.75,-164.37 136.83,-142.49 170.75,-155 182.1,-159.19 193.94,-165.61 203.44,-171.34"/>
<polygon fill="#000000" fill-opacity="0.200000" stroke="#000000" stroke-width="2" stroke-opacity="0.200000" points="202.54,-173.25 208.75,-174.62 204.75,-169.68 202.54,-173.25"/>
</g>
<!-- lib/validate.js -->
<g id="node11" class="node">
<title>lib/validate.js</title>
<g id="a_node11"><a xlink:href="lib/validate.js" xlink:title="validate.js">
<polygon fill="#ffffcc" stroke="black" points="162.75,-34.3 161.2,-36.37 150.35,-36.37 148.8,-34.3 106.74,-34.3 106.74,-15.7 162.75,-15.7 162.75,-34.3"/>
<text text-anchor="middle" x="134.74" y="-22.3" font-family="Helvetica,sans-Serif" font-size="9.00">validate.js</text>
</a>
</g>
</g>
<!-- data&#45;access/load.js&#45;&gt;lib/validate.js -->
<g id="edge10" class="edge">
<title>data&#45;access/load.js&#45;&gt;lib/validate.js</title>
<path fill="none" stroke="#000000" stroke-width="2" stroke-opacity="0.200000" d="M63.5,-76.47C77.55,-66.17 100.04,-49.7 115.77,-38.17"/>
<polygon fill="#000000" fill-opacity="0.200000" stroke="#000000" stroke-width="2" stroke-opacity="0.200000" points="117.23,-39.7 120.83,-34.46 114.75,-36.32 117.23,-39.7"/>
</g>
<!-- data&#45;access/local&#45;storage/remove&#45;item.js -->
<g id="node12" class="node">
<title>data&#45;access/local&#45;storage/remove&#45;item.js</title>
<g id="a_node12"><a xlink:href="data-access/local-storage/remove-item.js" xlink:title="remove&#45;item.js">
<path fill="#ffffcc" stroke="black" d="M255.04,-224.3C255.04,-224.3 192.45,-224.3 192.45,-224.3 189.35,-224.3 186.25,-221.2 186.25,-218.1 186.25,-218.1 186.25,-211.9 186.25,-211.9 186.25,-208.8 189.35,-205.7 192.45,-205.7 192.45,-205.7 255.04,-205.7 255.04,-205.7 258.14,-205.7 261.24,-208.8 261.24,-211.9 261.24,-211.9 261.24,-218.1 261.24,-218.1 261.24,-221.2 258.14,-224.3 255.04,-224.3"/>
<text text-anchor="middle" x="223.74" y="-212.3" font-family="Helvetica,sans-Serif" font-size="9.00">remove&#45;item.js</text>
</a>
</g>
</g>
<!-- data&#45;access/load.js&#45;&gt;data&#45;access/local&#45;storage/remove&#45;item.js -->
<g id="edge12" class="edge">
<title>data&#45;access/load.js&#45;&gt;data&#45;access/local&#45;storage/remove&#45;item.js</title>
<path fill="none" stroke="#000000" stroke-width="2" stroke-opacity="0.200000" d="M76.12,-95.5C78.74,-97.32 81.12,-99.47 82.99,-102 96.13,-119.73 77.19,-133.78 90.99,-151 114.88,-180.8 140.11,-160.2 170.75,-183 178.04,-188.43 176.22,-193.55 183.49,-199 185.31,-200.36 187.26,-201.62 189.28,-202.79"/>
<polygon fill="#000000" fill-opacity="0.200000" stroke="#000000" stroke-width="2" stroke-opacity="0.200000" points="188.47,-204.74 194.76,-205.68 190.43,-201.03 188.47,-204.74"/>
</g>
<!-- data&#45;access/load.js&#45;&gt;data&#45;access/utils/is&#45;plain&#45;object.js -->
<g id="edge15" class="edge">
<title>data&#45;access/load.js&#45;&gt;data&#45;access/utils/is&#45;plain&#45;object.js</title>
<path fill="none" stroke="#000000" stroke-width="2" stroke-opacity="0.200000" d="M76.92,-83.54C101.38,-81.79 138.71,-80.47 170.75,-85 176.96,-85.88 183.46,-87.32 189.69,-88.97"/>
<polygon fill="#000000" fill-opacity="0.200000" stroke="#000000" stroke-width="2" stroke-opacity="0.200000" points="189.46,-91.08 195.8,-90.67 190.59,-87.04 189.46,-91.08"/>
</g>
<!-- data&#45;access/local&#45;storage/remove&#45;item.js&#45;&gt;data&#45;access/local&#45;storage/store.js -->
<g id="edge18" class="edge">
<title>data&#45;access/local&#45;storage/remove&#45;item.js&#45;&gt;data&#45;access/local&#45;storage/store.js</title>
<path fill="none" stroke="#000000" stroke-width="2" stroke-opacity="0.200000" d="M259.2,-224.33C264.07,-225.65 269.05,-227 273.87,-228.3"/>
<polygon fill="#000000" fill-opacity="0.200000" stroke="#000000" stroke-width="2" stroke-opacity="0.200000" points="273.53,-230.38 279.87,-229.93 274.62,-226.33 273.53,-230.38"/>
</g>
<!-- data&#45;access/local&#45;storage/clear.js -->
<g id="node14" class="node">
<title>data&#45;access/local&#45;storage/clear.js</title>
<g id="a_node14"><a xlink:href="data-access/local-storage/clear.js" xlink:title="clear.js">
<path fill="#ffffcc" stroke="black" d="M244.54,-299.3C244.54,-299.3 202.94,-299.3 202.94,-299.3 199.84,-299.3 196.74,-296.2 196.74,-293.1 196.74,-293.1 196.74,-286.9 196.74,-286.9 196.74,-283.8 199.84,-280.7 202.94,-280.7 202.94,-280.7 244.54,-280.7 244.54,-280.7 247.64,-280.7 250.74,-283.8 250.74,-286.9 250.74,-286.9 250.74,-293.1 250.74,-293.1 250.74,-296.2 247.64,-299.3 244.54,-299.3"/>
<text text-anchor="middle" x="223.74" y="-287.3" font-family="Helvetica,sans-Serif" font-size="9.00">clear.js</text>
</a>
</g>
</g>
<!-- data&#45;access/local&#45;storage/clear.js&#45;&gt;data&#45;access/local&#45;storage/store.js -->
<g id="edge16" class="edge">
<title>data&#45;access/local&#45;storage/clear.js&#45;&gt;data&#45;access/local&#45;storage/store.js</title>
<path fill="none" stroke="#000000" stroke-width="2" stroke-opacity="0.200000" d="M250.83,-283.74C258.03,-281.35 265.61,-278.16 271.99,-274 281.14,-268.04 289.47,-259.07 295.59,-251.45"/>
<polygon fill="#000000" fill-opacity="0.200000" stroke="#000000" stroke-width="2" stroke-opacity="0.200000" points="297.45,-252.48 299.46,-246.45 294.13,-249.91 297.45,-252.48"/>
</g>
<!-- data&#45;access/remove&#45;all.js -->
<g id="node16" class="node">
<title>data&#45;access/remove&#45;all.js</title>
<g id="a_node16"><a xlink:href="data-access/remove-all.js" xlink:title="remove&#45;all.js">
<path fill="#ffffcc" stroke="black" d="M76.79,-343.3C76.79,-343.3 22.2,-343.3 22.2,-343.3 19.1,-343.3 16,-340.2 16,-337.1 16,-337.1 16,-330.9 16,-330.9 16,-327.8 19.1,-324.7 22.2,-324.7 22.2,-324.7 76.79,-324.7 76.79,-324.7 79.89,-324.7 82.99,-327.8 82.99,-330.9 82.99,-330.9 82.99,-337.1 82.99,-337.1 82.99,-340.2 79.89,-343.3 76.79,-343.3"/>
<text text-anchor="middle" x="49.5" y="-331.3" font-family="Helvetica,sans-Serif" font-size="9.00">remove&#45;all.js</text>
</a>
</g>
</g>
<!-- data&#45;access/remove&#45;all.js&#45;&gt;data&#45;access/local&#45;storage/state.js -->
<g id="edge23" class="edge">
<title>data&#45;access/remove&#45;all.js&#45;&gt;data&#45;access/local&#45;storage/state.js</title>
<path fill="none" stroke="#000000" stroke-width="2" stroke-opacity="0.200000" d="M76.23,-324.58C78.83,-322.74 81.18,-320.57 82.99,-318 100.56,-293.15 71.47,-273.35 90.99,-250 93.87,-246.56 97.62,-244.02 101.71,-242.13"/>
<polygon fill="#000000" fill-opacity="0.200000" stroke="#000000" stroke-width="2" stroke-opacity="0.200000" points="102.58,-244.05 107.44,-239.95 101.09,-240.12 102.58,-244.05"/>
</g>
<!-- data&#45;access/remove&#45;all.js&#45;&gt;data&#45;access/local&#45;storage/clear.js -->
<g id="edge22" class="edge">
<title>data&#45;access/remove&#45;all.js&#45;&gt;data&#45;access/local&#45;storage/clear.js</title>
<path fill="none" stroke="#000000" stroke-width="2" stroke-opacity="0.200000" d="M83.3,-325.62C114.14,-317.74 160.01,-306.02 190.63,-298.2"/>
<polygon fill="#000000" fill-opacity="0.200000" stroke="#000000" stroke-width="2" stroke-opacity="0.200000" points="191.24,-300.21 196.54,-296.69 190.2,-296.14 191.24,-300.21"/>
</g>
<!-- data&#45;access/remove.js -->
<g id="node17" class="node">
<title>data&#45;access/remove.js</title>
<g id="a_node17"><a xlink:href="data-access/remove.js" xlink:title="remove.js">
<path fill="#ffffcc" stroke="black" d="M70.8,-188.3C70.8,-188.3 28.2,-188.3 28.2,-188.3 25.1,-188.3 22,-185.2 22,-182.1 22,-182.1 22,-175.9 22,-175.9 22,-172.8 25.1,-169.7 28.2,-169.7 28.2,-169.7 70.8,-169.7 70.8,-169.7 73.9,-169.7 77,-172.8 77,-175.9 77,-175.9 77,-182.1 77,-182.1 77,-185.2 73.9,-188.3 70.8,-188.3"/>
<text text-anchor="middle" x="49.5" y="-176.3" font-family="Helvetica,sans-Serif" font-size="9.00">remove.js</text>
</a>
</g>
</g>
<!-- data&#45;access/remove.js&#45;&gt;data&#45;access/local&#45;storage/state.js -->
<g id="edge25" class="edge">
<title>data&#45;access/remove.js&#45;&gt;data&#45;access/local&#45;storage/state.js</title>
<path fill="none" stroke="#000000" stroke-width="2" stroke-opacity="0.200000" d="M75.54,-188.49C78.33,-190.32 80.91,-192.48 82.99,-195 91.52,-205.3 81.66,-214.42 90.99,-224 94.04,-227.13 97.83,-229.52 101.87,-231.33"/>
<polygon fill="#000000" fill-opacity="0.200000" stroke="#000000" stroke-width="2" stroke-opacity="0.200000" points="101.14,-233.3 107.49,-233.46 102.63,-229.37 101.14,-233.3"/>
</g>
<!-- data&#45;access/remove.js&#45;&gt;data&#45;access/local&#45;storage/remove&#45;item.js -->
<g id="edge24" class="edge">
<title>data&#45;access/remove.js&#45;&gt;data&#45;access/local&#45;storage/remove&#45;item.js</title>
<path fill="none" stroke="#000000" stroke-width="2" stroke-opacity="0.200000" d="M77.06,-184.97C81.7,-185.99 86.49,-187.04 90.99,-188 120.69,-194.34 154.23,-201.21 180.03,-206.43"/>
<polygon fill="#000000" fill-opacity="0.200000" stroke="#000000" stroke-width="2" stroke-opacity="0.200000" points="179.78,-208.52 186.08,-207.66 180.61,-204.41 179.78,-208.52"/>
</g>
<!-- data&#45;access/save.js -->
<g id="node18" class="node">
<title>data&#45;access/save.js</title>
<g id="a_node18"><a xlink:href="data-access/save.js" xlink:title="save.js">
<path fill="#ffffcc" stroke="black" d="M70.3,-126.3C70.3,-126.3 28.7,-126.3 28.7,-126.3 25.6,-126.3 22.5,-123.2 22.5,-120.1 22.5,-120.1 22.5,-113.9 22.5,-113.9 22.5,-110.8 25.6,-107.7 28.7,-107.7 28.7,-107.7 70.3,-107.7 70.3,-107.7 73.4,-107.7 76.5,-110.8 76.5,-113.9 76.5,-113.9 76.5,-120.1 76.5,-120.1 76.5,-123.2 73.4,-126.3 70.3,-126.3"/>
<text text-anchor="middle" x="49.5" y="-114.3" font-family="Helvetica,sans-Serif" font-size="9.00">save.js</text>
</a>
</g>
</g>
<!-- data&#45;access/save.js&#45;&gt;data&#45;access/local&#45;storage/state.js -->
<g id="edge27" class="edge">
<title>data&#45;access/save.js&#45;&gt;data&#45;access/local&#45;storage/state.js</title>
<path fill="none" stroke="#000000" stroke-width="2" stroke-opacity="0.200000" d="M76.31,-126.37C78.89,-128.21 81.22,-130.41 82.99,-133 94.46,-149.75 78.2,-208.24 90.99,-224 93.82,-227.48 97.54,-230.05 101.62,-231.95"/>
<polygon fill="#000000" fill-opacity="0.200000" stroke="#000000" stroke-width="2" stroke-opacity="0.200000" points="100.99,-233.95 107.34,-234.13 102.49,-230.03 100.99,-233.95"/>
</g>
<!-- data&#45;access/save.js&#45;&gt;data&#45;access/local&#45;storage/set&#45;item.js -->
<g id="edge26" class="edge">
<title>data&#45;access/save.js&#45;&gt;data&#45;access/local&#45;storage/set&#45;item.js</title>
<path fill="none" stroke="#000000" stroke-width="2" stroke-opacity="0.200000" d="M74.43,-126.49C77.54,-128.36 80.5,-130.52 82.99,-133 88.63,-138.6 84.83,-143.98 90.99,-149 105.94,-161.17 155.19,-172.02 189.05,-178.31"/>
<polygon fill="#000000" fill-opacity="0.200000" stroke="#000000" stroke-width="2" stroke-opacity="0.200000" points="188.9,-180.41 195.18,-179.42 189.66,-176.28 188.9,-180.41"/>
</g>
<!-- data&#45;access/save.js&#45;&gt;data&#45;access/utils/is&#45;json&#45;data.js -->
<g id="edge28" class="edge">
<title>data&#45;access/save.js&#45;&gt;data&#45;access/utils/is&#45;json&#45;data.js</title>
<path fill="none" stroke="#000000" stroke-width="2" stroke-opacity="0.200000" d="M76.84,-111.62C82.01,-110.56 87.56,-109.43 93.08,-108.3"/>
<polygon fill="#000000" fill-opacity="0.200000" stroke="#000000" stroke-width="2" stroke-opacity="0.200000" points="93.58,-110.34 99.04,-107.09 92.74,-106.23 93.58,-110.34"/>
</g>
</g>
</svg>
