<?xml version="1.0" encoding="UTF-8" standalone="no"?>
<!DOCTYPE svg PUBLIC "-//W3C//DTD SVG 1.1//EN"
 "http://www.w3.org/Graphics/SVG/1.1/DTD/svg11.dtd">
<!-- Generated by graphviz version 2.44.0 (20200408.0750)
 -->
<!-- Title: dependency&#45;cruiser output Pages: 1 -->
<svg width="509pt" height="747pt"
 viewBox="0.00 0.00 509.24 747.41" xmlns="http://www.w3.org/2000/svg" xmlns:xlink="http://www.w3.org/1999/xlink">
<g id="graph0" class="graph" transform="scale(1 1) rotate(0) translate(4 743.41)">
<title>dependency&#45;cruiser output</title>
<polygon fill="white" stroke="transparent" points="-4,4 -4,-743.41 505.24,-743.41 505.24,4 -4,4"/>
<g id="clust1" class="cluster">
<title>cluster_data&#45;access</title>
<path fill="#ffffff" stroke="black" stroke-width="2" d="M435.24,-38.41C435.24,-38.41 481.24,-38.41 481.24,-38.41 487.24,-38.41 493.24,-44.41 493.24,-50.41 493.24,-50.41 493.24,-141.41 493.24,-141.41 493.24,-147.41 487.24,-153.41 481.24,-153.41 481.24,-153.41 435.24,-153.41 435.24,-153.41 429.24,-153.41 423.24,-147.41 423.24,-141.41 423.24,-141.41 423.24,-50.41 423.24,-50.41 423.24,-44.41 429.24,-38.41 435.24,-38.41"/>
<text text-anchor="middle" x="458.24" y="-141.31" font-family="Helvetica,sans-Serif" font-weight="bold" font-size="9.00">data&#45;access</text>
</g>
<g id="clust2" class="cluster">
<title>cluster_separated</title>
<path fill="#ffffff" stroke="black" stroke-width="2" d="M20,-163.41C20,-163.41 403.24,-163.41 403.24,-163.41 409.24,-163.41 415.24,-169.41 415.24,-175.41 415.24,-175.41 415.24,-719.41 415.24,-719.41 415.24,-725.41 409.24,-731.41 403.24,-731.41 403.24,-731.41 20,-731.41 20,-731.41 14,-731.41 8,-725.41 8,-719.41 8,-719.41 8,-175.41 8,-175.41 8,-169.41 14,-163.41 20,-163.41"/>
<text text-anchor="middle" x="211.62" y="-719.31" font-family="Helvetica,sans-Serif" font-weight="bold" font-size="9.00">separated</text>
</g>
<g id="clust3" class="cluster">
<title>cluster_separated/3&#45;todos</title>
<path fill="#ffffff" stroke="black" stroke-width="2" d="M28,-171.41C28,-171.41 395.24,-171.41 395.24,-171.41 401.24,-171.41 407.24,-177.41 407.24,-183.41 407.24,-183.41 407.24,-692.41 407.24,-692.41 407.24,-698.41 401.24,-704.41 395.24,-704.41 395.24,-704.41 28,-704.41 28,-704.41 22,-704.41 16,-698.41 16,-692.41 16,-692.41 16,-183.41 16,-183.41 16,-177.41 22,-171.41 28,-171.41"/>
<text text-anchor="middle" x="211.62" y="-692.31" font-family="Helvetica,sans-Serif" font-weight="bold" font-size="9.00">3&#45;todos</text>
</g>
<g id="clust4" class="cluster">
<title>cluster_separated/3&#45;todos/business&#45;logic</title>
<path fill="#ffffff" stroke="black" stroke-width="2" d="M205.99,-500.41C205.99,-500.41 378.99,-500.41 378.99,-500.41 384.99,-500.41 390.99,-506.41 390.99,-512.41 390.99,-512.41 390.99,-665.41 390.99,-665.41 390.99,-671.41 384.99,-677.41 378.99,-677.41 378.99,-677.41 205.99,-677.41 205.99,-677.41 199.99,-677.41 193.99,-671.41 193.99,-665.41 193.99,-665.41 193.99,-512.41 193.99,-512.41 193.99,-506.41 199.99,-500.41 205.99,-500.41"/>
<text text-anchor="middle" x="292.49" y="-665.31" font-family="Helvetica,sans-Serif" font-weight="bold" font-size="9.00">business&#45;logic</text>
</g>
<g id="clust5" class="cluster">
<title>cluster_separated/3&#45;todos/presentations</title>
<path fill="#ffffff" stroke="black" stroke-width="2" d="M36,-179.41C36,-179.41 387.24,-179.41 387.24,-179.41 393.24,-179.41 399.24,-185.41 399.24,-191.41 399.24,-191.41 399.24,-480.41 399.24,-480.41 399.24,-486.41 393.24,-492.41 387.24,-492.41 387.24,-492.41 36,-492.41 36,-492.41 30,-492.41 24,-486.41 24,-480.41 24,-480.41 24,-191.41 24,-191.41 24,-185.41 30,-179.41 36,-179.41"/>
<text text-anchor="middle" x="211.62" y="-480.31" font-family="Helvetica,sans-Serif" font-weight="bold" font-size="9.00">presentations</text>
</g>
<g id="clust6" class="cluster">
<title>cluster_separated/3&#45;todos/presentations/isolate</title>
<path fill="#ffffff" stroke="black" stroke-width="2" d="M44,-187.41C44,-187.41 379.24,-187.41 379.24,-187.41 385.24,-187.41 391.24,-193.41 391.24,-199.41 391.24,-199.41 391.24,-453.41 391.24,-453.41 391.24,-459.41 385.24,-465.41 379.24,-465.41 379.24,-465.41 44,-465.41 44,-465.41 38,-465.41 32,-459.41 32,-453.41 32,-453.41 32,-199.41 32,-199.41 32,-193.41 38,-187.41 44,-187.41"/>
<text text-anchor="middle" x="211.62" y="-453.31" font-family="Helvetica,sans-Serif" font-weight="bold" font-size="9.00">isolate</text>
</g>
<g id="clust7" class="cluster">
<title>cluster_separated/3&#45;todos/presentations/isolate/src</title>
<path fill="#ffffff" stroke="black" stroke-width="2" d="M52,-195.41C52,-195.41 371.24,-195.41 371.24,-195.41 377.24,-195.41 383.24,-201.41 383.24,-207.41 383.24,-207.41 383.24,-426.41 383.24,-426.41 383.24,-432.41 377.24,-438.41 371.24,-438.41 371.24,-438.41 52,-438.41 52,-438.41 46,-438.41 40,-432.41 40,-426.41 40,-426.41 40,-207.41 40,-207.41 40,-201.41 46,-195.41 52,-195.41"/>
<text text-anchor="middle" x="211.62" y="-426.31" font-family="Helvetica,sans-Serif" font-weight="bold" font-size="9.00">src</text>
</g>
<g id="clust8" class="cluster">
<title>cluster_separated/3&#45;todos/presentations/isolate/src/controllers</title>
<path fill="#ffffff" stroke="black" stroke-width="2" d="M122,-203.41C122,-203.41 173.99,-203.41 173.99,-203.41 179.99,-203.41 185.99,-209.41 185.99,-215.41 185.99,-215.41 185.99,-399.41 185.99,-399.41 185.99,-405.41 179.99,-411.41 173.99,-411.41 173.99,-411.41 122,-411.41 122,-411.41 116,-411.41 110,-405.41 110,-399.41 110,-399.41 110,-215.41 110,-215.41 110,-209.41 116,-203.41 122,-203.41"/>
<text text-anchor="middle" x="148" y="-399.31" font-family="Helvetica,sans-Serif" font-weight="bold" font-size="9.00">controllers</text>
</g>
<g id="clust9" class="cluster">
<title>cluster_separated/3&#45;todos/presentations/isolate/src/views</title>
<path fill="#ffffff" stroke="black" stroke-width="2" d="M217.49,-234.41C217.49,-234.41 363.24,-234.41 363.24,-234.41 369.24,-234.41 375.24,-240.41 375.24,-246.41 375.24,-246.41 375.24,-306.41 375.24,-306.41 375.24,-312.41 369.24,-318.41 363.24,-318.41 363.24,-318.41 217.49,-318.41 217.49,-318.41 211.49,-318.41 205.49,-312.41 205.49,-306.41 205.49,-306.41 205.49,-246.41 205.49,-246.41 205.49,-240.41 211.49,-234.41 217.49,-234.41"/>
<text text-anchor="middle" x="290.37" y="-306.31" font-family="Helvetica,sans-Serif" font-weight="bold" font-size="9.00">views</text>
</g>
<!-- data&#45;access/find.js -->
<g id="node1" class="node">
<title>data&#45;access/find.js</title>
<g id="a_node1"><a xlink:href="data-access/find.js" xlink:title="find.js">
<polygon fill="#ffffcc" stroke="black" points="485.24,-95.71 483.69,-97.77 472.84,-97.77 471.29,-95.71 431.24,-95.71 431.24,-77.1 485.24,-77.1 485.24,-95.71"/>
<text text-anchor="middle" x="458.24" y="-83.71" font-family="Helvetica,sans-Serif" font-size="9.00">find.js</text>
</a>
</g>
</g>
<!-- data&#45;access/load.js -->
<g id="node2" class="node">
<title>data&#45;access/load.js</title>
<g id="a_node2"><a xlink:href="data-access/load.js" xlink:title="load.js">
<polygon fill="#ffffcc" stroke="black" points="485.24,-126.71 483.69,-128.77 472.84,-128.77 471.29,-126.71 431.24,-126.71 431.24,-108.1 485.24,-108.1 485.24,-126.71"/>
<text text-anchor="middle" x="458.24" y="-114.71" font-family="Helvetica,sans-Serif" font-size="9.00">load.js</text>
</a>
</g>
</g>
<!-- data&#45;access/save.js -->
<g id="node3" class="node">
<title>data&#45;access/save.js</title>
<g id="a_node3"><a xlink:href="data-access/save.js" xlink:title="save.js">
<polygon fill="#ffffcc" stroke="black" points="485.24,-64.71 483.69,-66.77 472.84,-66.77 471.29,-64.71 431.24,-64.71 431.24,-46.1 485.24,-46.1 485.24,-64.71"/>
<text text-anchor="middle" x="458.24" y="-52.71" font-family="Helvetica,sans-Serif" font-size="9.00">save.js</text>
</a>
</g>
</g>
<!-- separated/3&#45;todos/business&#45;logic/create&#45;item.js -->
<g id="node4" class="node">
<title>separated/3&#45;todos/business&#45;logic/create&#45;item.js</title>
<g id="a_node4"><a xlink:href="separated/3-todos/business-logic/create-item.js" xlink:title="create&#45;item.js">
<path fill="#ffffcc" stroke="black" d="M270.54,-526.71C270.54,-526.71 212.94,-526.71 212.94,-526.71 209.84,-526.71 206.74,-523.61 206.74,-520.51 206.74,-520.51 206.74,-514.31 206.74,-514.31 206.74,-511.2 209.84,-508.1 212.94,-508.1 212.94,-508.1 270.54,-508.1 270.54,-508.1 273.64,-508.1 276.74,-511.2 276.74,-514.31 276.74,-514.31 276.74,-520.51 276.74,-520.51 276.74,-523.61 273.64,-526.71 270.54,-526.71"/>
<text text-anchor="middle" x="241.74" y="-514.71" font-family="Helvetica,sans-Serif" font-size="9.00">create&#45;item.js</text>
</a>
</g>
</g>
<!-- separated/3&#45;todos/business&#45;logic/create&#45;item.js&#45;&gt;data&#45;access/find.js -->
<g id="edge1" class="edge">
<title>separated/3&#45;todos/business&#45;logic/create&#45;item.js&#45;&gt;data&#45;access/find.js</title>
<path fill="none" stroke="#000000" stroke-width="2" stroke-opacity="0.200000" d="M245.09,-508.1C252.05,-480.1 272.62,-394.05 281.49,-321.41 283.32,-306.44 283.58,-60.81 294.49,-50.41 333.34,-13.38 370.8,-20.32 415.24,-50.41 423.17,-55.77 416.67,-63.44 423.24,-70.41 424.3,-71.53 425.45,-72.58 426.67,-73.56"/>
<polygon fill="#000000" fill-opacity="0.200000" stroke="#000000" stroke-width="2" stroke-opacity="0.200000" points="425.53,-75.33 431.65,-77.03 427.93,-71.88 425.53,-75.33"/>
</g>
<!-- separated/3&#45;todos/business&#45;logic/create&#45;item.js&#45;&gt;data&#45;access/save.js -->
<g id="edge2" class="edge">
<title>separated/3&#45;todos/business&#45;logic/create&#45;item.js&#45;&gt;data&#45;access/save.js</title>
<path fill="none" stroke="#000000" stroke-width="2" stroke-opacity="0.200000" d="M245.11,-508.1C252.11,-480.1 272.78,-394.07 281.49,-321.41 283.48,-304.84 282.44,-32.94 294.49,-21.41 333.25,15.71 364.65,-3.5 415.24,-21.41 426.52,-25.4 436.98,-33.85 444.64,-41.33"/>
<polygon fill="#000000" fill-opacity="0.200000" stroke="#000000" stroke-width="2" stroke-opacity="0.200000" points="443.34,-42.99 449.04,-45.81 446.34,-40.05 443.34,-42.99"/>
</g>
<!-- separated/3&#45;todos/business&#45;logic/get&#45;active&#45;items.js -->
<g id="node5" class="node">
<title>separated/3&#45;todos/business&#45;logic/get&#45;active&#45;items.js</title>
<g id="a_node5"><a xlink:href="separated/3-todos/business-logic/get-active-items.js" xlink:title="get&#45;active&#45;items.js">
<path fill="#ffffcc" stroke="black" d="M377.04,-541.71C377.04,-541.71 300.44,-541.71 300.44,-541.71 297.34,-541.71 294.24,-538.61 294.24,-535.51 294.24,-535.51 294.24,-529.31 294.24,-529.31 294.24,-526.2 297.34,-523.1 300.44,-523.1 300.44,-523.1 377.04,-523.1 377.04,-523.1 380.14,-523.1 383.24,-526.2 383.24,-529.31 383.24,-529.31 383.24,-535.51 383.24,-535.51 383.24,-538.61 380.14,-541.71 377.04,-541.71"/>
<text text-anchor="middle" x="338.74" y="-529.71" font-family="Helvetica,sans-Serif" font-size="9.00">get&#45;active&#45;items.js</text>
</a>
</g>
</g>
<!-- separated/3&#45;todos/business&#45;logic/create&#45;item.js&#45;&gt;separated/3&#45;todos/business&#45;logic/get&#45;active&#45;items.js -->
<g id="edge3" class="edge">
<title>separated/3&#45;todos/business&#45;logic/create&#45;item.js&#45;&gt;separated/3&#45;todos/business&#45;logic/get&#45;active&#45;items.js</title>
<path fill="none" stroke="#000000" stroke-width="2" stroke-opacity="0.200000" d="M276.77,-522.78C280.47,-523.36 284.3,-523.97 288.14,-524.57"/>
<polygon fill="#000000" fill-opacity="0.200000" stroke="#000000" stroke-width="2" stroke-opacity="0.200000" points="287.92,-526.66 294.17,-525.53 288.58,-522.52 287.92,-526.66"/>
</g>
<!-- separated/3&#45;todos/business&#45;logic/get&#45;active&#45;items.js&#45;&gt;data&#45;access/find.js -->
<g id="edge4" class="edge">
<title>separated/3&#45;todos/business&#45;logic/get&#45;active&#45;items.js&#45;&gt;data&#45;access/find.js</title>
<path fill="none" stroke="#000000" stroke-width="2" stroke-opacity="0.200000" d="M344.28,-523.03C358.11,-493.95 399.66,-402.4 415.24,-321.41 419.84,-297.49 409.82,-122.72 423.24,-102.41 424.12,-101.07 425.14,-99.85 426.27,-98.72"/>
<polygon fill="#000000" fill-opacity="0.200000" stroke="#000000" stroke-width="2" stroke-opacity="0.200000" points="427.72,-100.25 431.09,-94.86 425.1,-96.97 427.72,-100.25"/>
</g>
<!-- separated/3&#45;todos/business&#45;logic/get.js -->
<g id="node6" class="node">
<title>separated/3&#45;todos/business&#45;logic/get.js</title>
<g id="a_node6"><a xlink:href="separated/3-todos/business-logic/get.js" xlink:title="get.js">
<path fill="#ffffcc" stroke="black" d="M262.54,-588.71C262.54,-588.71 220.94,-588.71 220.94,-588.71 217.84,-588.71 214.74,-585.61 214.74,-582.51 214.74,-582.51 214.74,-576.31 214.74,-576.31 214.74,-573.2 217.84,-570.1 220.94,-570.1 220.94,-570.1 262.54,-570.1 262.54,-570.1 265.64,-570.1 268.74,-573.2 268.74,-576.31 268.74,-576.31 268.74,-582.51 268.74,-582.51 268.74,-585.61 265.64,-588.71 262.54,-588.71"/>
<text text-anchor="middle" x="241.74" y="-576.71" font-family="Helvetica,sans-Serif" font-size="9.00">get.js</text>
</a>
</g>
</g>
<!-- separated/3&#45;todos/business&#45;logic/get.js&#45;&gt;data&#45;access/find.js -->
<g id="edge5" class="edge">
<title>separated/3&#45;todos/business&#45;logic/get.js&#45;&gt;data&#45;access/find.js</title>
<path fill="none" stroke="#000000" stroke-width="2" stroke-opacity="0.200000" d="M269.01,-573.36C273.9,-571.04 278.43,-567.84 281.49,-563.41 308.98,-523.62 264.31,-166.18 294.49,-128.41 325.4,-89.72 386.83,-83.87 424.75,-84.32"/>
<polygon fill="#000000" fill-opacity="0.200000" stroke="#000000" stroke-width="2" stroke-opacity="0.200000" points="425.04,-86.42 431.08,-84.45 425.13,-82.22 425.04,-86.42"/>
</g>
<!-- separated/3&#45;todos/business&#45;logic/initialize&#45;state.js -->
<g id="node7" class="node">
<title>separated/3&#45;todos/business&#45;logic/initialize&#45;state.js</title>
<g id="a_node7"><a xlink:href="separated/3-todos/business-logic/initialize-state.js" xlink:title="initialize&#45;state.js">
<path fill="#ffffcc" stroke="black" d="M275.54,-650.71C275.54,-650.71 207.94,-650.71 207.94,-650.71 204.84,-650.71 201.74,-647.61 201.74,-644.51 201.74,-644.51 201.74,-638.31 201.74,-638.31 201.74,-635.2 204.84,-632.1 207.94,-632.1 207.94,-632.1 275.54,-632.1 275.54,-632.1 278.64,-632.1 281.74,-635.2 281.74,-638.31 281.74,-638.31 281.74,-644.51 281.74,-644.51 281.74,-647.61 278.64,-650.71 275.54,-650.71"/>
<text text-anchor="middle" x="241.74" y="-638.71" font-family="Helvetica,sans-Serif" font-size="9.00">initialize&#45;state.js</text>
</a>
</g>
</g>
<!-- separated/3&#45;todos/business&#45;logic/initialize&#45;state.js&#45;&gt;data&#45;access/load.js -->
<g id="edge6" class="edge">
<title>separated/3&#45;todos/business&#45;logic/initialize&#45;state.js&#45;&gt;data&#45;access/load.js</title>
<path fill="none" stroke="#000000" stroke-width="2" stroke-opacity="0.200000" d="M274.7,-632.08C277.33,-630.24 279.67,-628.04 281.49,-625.41 306.44,-589.41 273.46,-269.83 294.49,-231.41 325.76,-174.28 362.2,-186.19 415.24,-148.41 423.39,-142.59 432.34,-136.02 439.86,-130.43"/>
<polygon fill="#000000" fill-opacity="0.200000" stroke="#000000" stroke-width="2" stroke-opacity="0.200000" points="441.26,-132.01 444.82,-126.74 438.76,-128.64 441.26,-132.01"/>
</g>
<!-- separated/3&#45;todos/business&#45;logic/remove&#45;item.js -->
<g id="node8" class="node">
<title>separated/3&#45;todos/business&#45;logic/remove&#45;item.js</title>
<g id="a_node8"><a xlink:href="separated/3-todos/business-logic/remove-item.js" xlink:title="remove&#45;item.js">
<path fill="#ffffcc" stroke="black" d="M273.03,-557.71C273.03,-557.71 210.45,-557.71 210.45,-557.71 207.35,-557.71 204.25,-554.61 204.25,-551.51 204.25,-551.51 204.25,-545.31 204.25,-545.31 204.25,-542.2 207.35,-539.1 210.45,-539.1 210.45,-539.1 273.03,-539.1 273.03,-539.1 276.14,-539.1 279.24,-542.2 279.24,-545.31 279.24,-545.31 279.24,-551.51 279.24,-551.51 279.24,-554.61 276.14,-557.71 273.03,-557.71"/>
<text text-anchor="middle" x="241.74" y="-545.71" font-family="Helvetica,sans-Serif" font-size="9.00">remove&#45;item.js</text>
</a>
</g>
</g>
<!-- separated/3&#45;todos/business&#45;logic/remove&#45;item.js&#45;&gt;data&#45;access/find.js -->
<g id="edge7" class="edge">
<title>separated/3&#45;todos/business&#45;logic/remove&#45;item.js&#45;&gt;data&#45;access/find.js</title>
<path fill="none" stroke="#000000" stroke-width="2" stroke-opacity="0.200000" d="M274.71,-539.08C277.34,-537.24 279.67,-535.04 281.49,-532.41 295.88,-511.54 276.32,-94.07 294.49,-76.41 330.76,-41.16 395.67,-59.98 431.58,-74.57"/>
<polygon fill="#000000" fill-opacity="0.200000" stroke="#000000" stroke-width="2" stroke-opacity="0.200000" points="431.17,-76.67 437.51,-77.05 432.79,-72.8 431.17,-76.67"/>
</g>
<!-- separated/3&#45;todos/business&#45;logic/remove&#45;item.js&#45;&gt;data&#45;access/save.js -->
<g id="edge8" class="edge">
<title>separated/3&#45;todos/business&#45;logic/remove&#45;item.js&#45;&gt;data&#45;access/save.js</title>
<path fill="none" stroke="#000000" stroke-width="2" stroke-opacity="0.200000" d="M274.71,-539.09C277.34,-537.25 279.67,-535.04 281.49,-532.41 296.62,-510.44 275.37,-71.01 294.49,-52.41 329.52,-18.31 391.53,-31.66 428.05,-43.91"/>
<polygon fill="#000000" fill-opacity="0.200000" stroke="#000000" stroke-width="2" stroke-opacity="0.200000" points="427.77,-46.03 434.13,-46.01 429.14,-42.06 427.77,-46.03"/>
</g>
<!-- separated/3&#45;todos/business&#45;logic/remove&#45;item.js&#45;&gt;separated/3&#45;todos/business&#45;logic/get&#45;active&#45;items.js -->
<g id="edge9" class="edge">
<title>separated/3&#45;todos/business&#45;logic/remove&#45;item.js&#45;&gt;separated/3&#45;todos/business&#45;logic/get&#45;active&#45;items.js</title>
<path fill="none" stroke="#000000" stroke-width="2" stroke-opacity="0.200000" d="M279.47,-542.22C282.39,-541.73 285.36,-541.23 288.34,-540.73"/>
<polygon fill="#000000" fill-opacity="0.200000" stroke="#000000" stroke-width="2" stroke-opacity="0.200000" points="288.89,-542.76 294.46,-539.7 288.19,-538.62 288.89,-542.76"/>
</g>
<!-- separated/3&#45;todos/business&#45;logic/update&#45;item.js -->
<g id="node9" class="node">
<title>separated/3&#45;todos/business&#45;logic/update&#45;item.js</title>
<g id="a_node9"><a xlink:href="separated/3-todos/business-logic/update-item.js" xlink:title="update&#45;item.js">
<path fill="#ffffcc" stroke="black" d="M271.55,-619.71C271.55,-619.71 211.93,-619.71 211.93,-619.71 208.83,-619.71 205.73,-616.61 205.73,-613.51 205.73,-613.51 205.73,-607.31 205.73,-607.31 205.73,-604.2 208.83,-601.1 211.93,-601.1 211.93,-601.1 271.55,-601.1 271.55,-601.1 274.65,-601.1 277.75,-604.2 277.75,-607.31 277.75,-607.31 277.75,-613.51 277.75,-613.51 277.75,-616.61 274.65,-619.71 271.55,-619.71"/>
<text text-anchor="middle" x="241.74" y="-607.71" font-family="Helvetica,sans-Serif" font-size="9.00">update&#45;item.js</text>
</a>
</g>
</g>
<!-- separated/3&#45;todos/business&#45;logic/update&#45;item.js&#45;&gt;data&#45;access/find.js -->
<g id="edge10" class="edge">
<title>separated/3&#45;todos/business&#45;logic/update&#45;item.js&#45;&gt;data&#45;access/find.js</title>
<path fill="none" stroke="#000000" stroke-width="2" stroke-opacity="0.200000" d="M274.71,-601.08C277.33,-599.24 279.67,-597.04 281.49,-594.41 309.59,-553.7 263,-187.56 294.49,-149.41 329.5,-106.99 373.36,-158.05 415.24,-122.41 422.53,-116.2 416.67,-109.37 423.24,-102.41 424.3,-101.28 425.45,-100.23 426.67,-99.25"/>
<polygon fill="#000000" fill-opacity="0.200000" stroke="#000000" stroke-width="2" stroke-opacity="0.200000" points="427.93,-100.93 431.65,-95.78 425.53,-97.48 427.93,-100.93"/>
</g>
<!-- separated/3&#45;todos/business&#45;logic/update&#45;item.js&#45;&gt;data&#45;access/save.js -->
<g id="edge11" class="edge">
<title>separated/3&#45;todos/business&#45;logic/update&#45;item.js&#45;&gt;data&#45;access/save.js</title>
<path fill="none" stroke="#000000" stroke-width="2" stroke-opacity="0.200000" d="M274.71,-601.09C277.34,-599.25 279.67,-597.04 281.49,-594.41 311.2,-551.3 264.87,-166.58 294.49,-123.41 323.97,-80.44 386.16,-64.55 424.56,-58.72"/>
<polygon fill="#000000" fill-opacity="0.200000" stroke="#000000" stroke-width="2" stroke-opacity="0.200000" points="425.32,-60.73 430.97,-57.81 424.73,-56.58 425.32,-60.73"/>
</g>
<!-- separated/3&#45;todos/business&#45;logic/update&#45;item.js&#45;&gt;separated/3&#45;todos/business&#45;logic/get&#45;active&#45;items.js -->
<g id="edge12" class="edge">
<title>separated/3&#45;todos/business&#45;logic/update&#45;item.js&#45;&gt;separated/3&#45;todos/business&#45;logic/get&#45;active&#45;items.js</title>
<path fill="none" stroke="#000000" stroke-width="2" stroke-opacity="0.200000" d="M269.82,-601.05C273.89,-599.13 277.92,-596.92 281.49,-594.41 300.17,-581.27 317.12,-560.9 327.41,-547.13"/>
<polygon fill="#000000" fill-opacity="0.200000" stroke="#000000" stroke-width="2" stroke-opacity="0.200000" points="329.3,-548.1 331.15,-542.02 325.91,-545.62 329.3,-548.1"/>
</g>
<!-- separated/3&#45;todos/presentations/isolate/src/controllers/add.js -->
<g id="node10" class="node">
<title>separated/3&#45;todos/presentations/isolate/src/controllers/add.js</title>
<g id="a_node10"><a xlink:href="separated/3-todos/presentations/isolate/src/controllers/add.js" xlink:title="add.js">
<path fill="#ffffcc" stroke="black" d="M168.8,-229.71C168.8,-229.71 127.2,-229.71 127.2,-229.71 124.1,-229.71 121,-226.61 121,-223.51 121,-223.51 121,-217.31 121,-217.31 121,-214.2 124.1,-211.1 127.2,-211.1 127.2,-211.1 168.8,-211.1 168.8,-211.1 171.9,-211.1 175,-214.2 175,-217.31 175,-217.31 175,-223.51 175,-223.51 175,-226.61 171.9,-229.71 168.8,-229.71"/>
<text text-anchor="middle" x="148" y="-217.71" font-family="Helvetica,sans-Serif" font-size="9.00">add.js</text>
</a>
</g>
</g>
<!-- separated/3&#45;todos/presentations/isolate/src/controllers/add.js&#45;&gt;separated/3&#45;todos/business&#45;logic/create&#45;item.js -->
<g id="edge13" class="edge">
<title>separated/3&#45;todos/presentations/isolate/src/controllers/add.js&#45;&gt;separated/3&#45;todos/business&#45;logic/create&#45;item.js</title>
<path fill="none" stroke="#000000" stroke-width="2" stroke-opacity="0.200000" d="M175.02,-227.39C179.27,-229.62 183.2,-232.56 185.99,-236.41 197.14,-251.76 190.9,-302.69 193.99,-321.41 205.24,-389.35 226.84,-468.71 236.21,-501.74"/>
<polygon fill="#000000" fill-opacity="0.200000" stroke="#000000" stroke-width="2" stroke-opacity="0.200000" points="234.25,-502.52 237.92,-507.72 238.29,-501.37 234.25,-502.52"/>
</g>
<!-- separated/3&#45;todos/presentations/isolate/src/controllers/add.js&#45;&gt;separated/3&#45;todos/business&#45;logic/get.js -->
<g id="edge14" class="edge">
<title>separated/3&#45;todos/presentations/isolate/src/controllers/add.js&#45;&gt;separated/3&#45;todos/business&#45;logic/get.js</title>
<path fill="none" stroke="#000000" stroke-width="2" stroke-opacity="0.200000" d="M175.24,-227.24C179.47,-229.48 183.33,-232.46 185.99,-236.41 206.32,-266.53 172.5,-534.1 193.99,-563.41 197.65,-568.39 202.94,-571.83 208.67,-574.21"/>
<polygon fill="#000000" fill-opacity="0.200000" stroke="#000000" stroke-width="2" stroke-opacity="0.200000" points="208.13,-576.25 214.49,-576.25 209.52,-572.28 208.13,-576.25"/>
</g>
<!-- separated/3&#45;todos/presentations/isolate/src/views/log&#45;list.js -->
<g id="node11" class="node">
<title>separated/3&#45;todos/presentations/isolate/src/views/log&#45;list.js</title>
<g id="a_node11"><a xlink:href="separated/3-todos/presentations/isolate/src/views/log-list.js" xlink:title="log&#45;list.js">
<path fill="#ffffcc" stroke="black" d="M262.54,-291.71C262.54,-291.71 220.94,-291.71 220.94,-291.71 217.84,-291.71 214.74,-288.61 214.74,-285.51 214.74,-285.51 214.74,-279.31 214.74,-279.31 214.74,-276.2 217.84,-273.1 220.94,-273.1 220.94,-273.1 262.54,-273.1 262.54,-273.1 265.64,-273.1 268.74,-276.2 268.74,-279.31 268.74,-279.31 268.74,-285.51 268.74,-285.51 268.74,-288.61 265.64,-291.71 262.54,-291.71"/>
<text text-anchor="middle" x="241.74" y="-279.71" font-family="Helvetica,sans-Serif" font-size="9.00">log&#45;list.js</text>
</a>
</g>
</g>
<!-- separated/3&#45;todos/presentations/isolate/src/controllers/add.js&#45;&gt;separated/3&#45;todos/presentations/isolate/src/views/log&#45;list.js -->
<g id="edge15" class="edge">
<title>separated/3&#45;todos/presentations/isolate/src/controllers/add.js&#45;&gt;separated/3&#45;todos/presentations/isolate/src/views/log&#45;list.js</title>
<path fill="none" stroke="#000000" stroke-width="2" stroke-opacity="0.200000" d="M175.28,-228.18C179.29,-230.32 183.07,-233.01 185.99,-236.41 195,-246.86 184.58,-256.32 193.99,-266.41 197.95,-270.64 203.07,-273.76 208.47,-276.05"/>
<polygon fill="#000000" fill-opacity="0.200000" stroke="#000000" stroke-width="2" stroke-opacity="0.200000" points="208.04,-278.13 214.4,-278.22 209.49,-274.18 208.04,-278.13"/>
</g>
<!-- separated/3&#45;todos/presentations/isolate/src/views/warning.js -->
<g id="node12" class="node">
<title>separated/3&#45;todos/presentations/isolate/src/views/warning.js</title>
<g id="a_node12"><a xlink:href="separated/3-todos/presentations/isolate/src/views/warning.js" xlink:title="warning.js">
<path fill="#ffffcc" stroke="black" d="M263.54,-260.71C263.54,-260.71 219.94,-260.71 219.94,-260.71 216.84,-260.71 213.74,-257.61 213.74,-254.51 213.74,-254.51 213.74,-248.31 213.74,-248.31 213.74,-245.2 216.84,-242.1 219.94,-242.1 219.94,-242.1 263.54,-242.1 263.54,-242.1 266.64,-242.1 269.75,-245.2 269.75,-248.31 269.75,-248.31 269.75,-254.51 269.75,-254.51 269.75,-257.61 266.64,-260.71 263.54,-260.71"/>
<text text-anchor="middle" x="241.74" y="-248.71" font-family="Helvetica,sans-Serif" font-size="9.00">warning.js</text>
</a>
</g>
</g>
<!-- separated/3&#45;todos/presentations/isolate/src/controllers/add.js&#45;&gt;separated/3&#45;todos/presentations/isolate/src/views/warning.js -->
<g id="edge16" class="edge">
<title>separated/3&#45;todos/presentations/isolate/src/controllers/add.js&#45;&gt;separated/3&#45;todos/presentations/isolate/src/views/warning.js</title>
<path fill="none" stroke="#000000" stroke-width="2" stroke-opacity="0.200000" d="M175.04,-229.21C185.23,-232.65 197.04,-236.64 207.81,-240.28"/>
<polygon fill="#000000" fill-opacity="0.200000" stroke="#000000" stroke-width="2" stroke-opacity="0.200000" points="207.32,-242.33 213.67,-242.26 208.66,-238.35 207.32,-242.33"/>
</g>
<!-- separated/3&#45;todos/presentations/isolate/src/views/log&#45;item.js -->
<g id="node19" class="node">
<title>separated/3&#45;todos/presentations/isolate/src/views/log&#45;item.js</title>
<g id="a_node19"><a xlink:href="separated/3-todos/presentations/isolate/src/views/log-item.js" xlink:title="log&#45;item.js">
<path fill="#ffffcc" stroke="black" d="M361.04,-291.71C361.04,-291.71 316.45,-291.71 316.45,-291.71 313.35,-291.71 310.25,-288.61 310.25,-285.51 310.25,-285.51 310.25,-279.31 310.25,-279.31 310.25,-276.2 313.35,-273.1 316.45,-273.1 316.45,-273.1 361.04,-273.1 361.04,-273.1 364.14,-273.1 367.24,-276.2 367.24,-279.31 367.24,-279.31 367.24,-285.51 367.24,-285.51 367.24,-288.61 364.14,-291.71 361.04,-291.71"/>
<text text-anchor="middle" x="338.74" y="-279.71" font-family="Helvetica,sans-Serif" font-size="9.00">log&#45;item.js</text>
</a>
</g>
</g>
<!-- separated/3&#45;todos/presentations/isolate/src/views/log&#45;list.js&#45;&gt;separated/3&#45;todos/presentations/isolate/src/views/log&#45;item.js -->
<g id="edge38" class="edge">
<title>separated/3&#45;todos/presentations/isolate/src/views/log&#45;list.js&#45;&gt;separated/3&#45;todos/presentations/isolate/src/views/log&#45;item.js</title>
<path fill="none" stroke="#000000" stroke-width="2" stroke-opacity="0.200000" d="M268.95,-282.41C279.7,-282.41 292.29,-282.41 303.73,-282.41"/>
<polygon fill="#000000" fill-opacity="0.200000" stroke="#000000" stroke-width="2" stroke-opacity="0.200000" points="303.96,-284.51 309.96,-282.41 303.96,-280.31 303.96,-284.51"/>
</g>
<!-- separated/3&#45;todos/presentations/isolate/src/controllers/change.js -->
<g id="node13" class="node">
<title>separated/3&#45;todos/presentations/isolate/src/controllers/change.js</title>
<g id="a_node13"><a xlink:href="separated/3-todos/presentations/isolate/src/controllers/change.js" xlink:title="change.js">
<path fill="#ffffcc" stroke="black" d="M168.81,-353.71C168.81,-353.71 127.18,-353.71 127.18,-353.71 124.08,-353.71 120.98,-350.61 120.98,-347.51 120.98,-347.51 120.98,-341.31 120.98,-341.31 120.98,-338.2 124.08,-335.1 127.18,-335.1 127.18,-335.1 168.81,-335.1 168.81,-335.1 171.91,-335.1 175.01,-338.2 175.01,-341.31 175.01,-341.31 175.01,-347.51 175.01,-347.51 175.01,-350.61 171.91,-353.71 168.81,-353.71"/>
<text text-anchor="middle" x="148" y="-341.71" font-family="Helvetica,sans-Serif" font-size="9.00">change.js</text>
</a>
</g>
</g>
<!-- separated/3&#45;todos/presentations/isolate/src/controllers/change.js&#45;&gt;separated/3&#45;todos/business&#45;logic/get.js -->
<g id="edge17" class="edge">
<title>separated/3&#45;todos/presentations/isolate/src/controllers/change.js&#45;&gt;separated/3&#45;todos/business&#45;logic/get.js</title>
<path fill="none" stroke="#000000" stroke-width="2" stroke-opacity="0.200000" d="M175.2,-351.27C179.43,-353.51 183.3,-356.48 185.99,-360.41 198.76,-379.02 180.51,-545.3 193.99,-563.41 197.68,-568.36 202.99,-571.79 208.72,-574.17"/>
<polygon fill="#000000" fill-opacity="0.200000" stroke="#000000" stroke-width="2" stroke-opacity="0.200000" points="208.19,-576.21 214.55,-576.21 209.58,-572.24 208.19,-576.21"/>
</g>
<!-- separated/3&#45;todos/presentations/isolate/src/controllers/change.js&#45;&gt;separated/3&#45;todos/business&#45;logic/update&#45;item.js -->
<g id="edge18" class="edge">
<title>separated/3&#45;todos/presentations/isolate/src/controllers/change.js&#45;&gt;separated/3&#45;todos/business&#45;logic/update&#45;item.js</title>
<path fill="none" stroke="#000000" stroke-width="2" stroke-opacity="0.200000" d="M175.21,-351.26C179.45,-353.5 183.31,-356.47 185.99,-360.41 200.65,-381.9 178.51,-573.5 193.99,-594.41 195.75,-596.78 197.88,-598.8 200.25,-600.53"/>
<polygon fill="#000000" fill-opacity="0.200000" stroke="#000000" stroke-width="2" stroke-opacity="0.200000" points="199.2,-602.35 205.42,-603.67 201.38,-598.76 199.2,-602.35"/>
</g>
<!-- separated/3&#45;todos/presentations/isolate/src/controllers/change.js&#45;&gt;separated/3&#45;todos/presentations/isolate/src/views/log&#45;list.js -->
<g id="edge19" class="edge">
<title>separated/3&#45;todos/presentations/isolate/src/controllers/change.js&#45;&gt;separated/3&#45;todos/presentations/isolate/src/views/log&#45;list.js</title>
<path fill="none" stroke="#000000" stroke-width="2" stroke-opacity="0.200000" d="M173.39,-335.06C177.7,-333.07 182.06,-330.83 185.99,-328.41 201.01,-319.12 216.24,-305.96 226.81,-296.09"/>
<polygon fill="#000000" fill-opacity="0.200000" stroke="#000000" stroke-width="2" stroke-opacity="0.200000" points="228.41,-297.46 231.32,-291.81 225.52,-294.42 228.41,-297.46"/>
</g>
<!-- separated/3&#45;todos/presentations/isolate/src/controllers/change.js&#45;&gt;separated/3&#45;todos/presentations/isolate/src/views/warning.js -->
<g id="edge20" class="edge">
<title>separated/3&#45;todos/presentations/isolate/src/controllers/change.js&#45;&gt;separated/3&#45;todos/presentations/isolate/src/views/warning.js</title>
<path fill="none" stroke="#000000" stroke-width="2" stroke-opacity="0.200000" d="M175.29,-337.14C179.4,-334.94 183.21,-332.09 185.99,-328.41 202.46,-306.58 176.68,-288.57 193.99,-267.41 197.58,-263.02 202.44,-259.83 207.66,-257.51"/>
<polygon fill="#000000" fill-opacity="0.200000" stroke="#000000" stroke-width="2" stroke-opacity="0.200000" points="208.56,-259.42 213.43,-255.33 207.08,-255.49 208.56,-259.42"/>
</g>
<!-- separated/3&#45;todos/presentations/isolate/src/controllers/initialize.js -->
<g id="node14" class="node">
<title>separated/3&#45;todos/presentations/isolate/src/controllers/initialize.js</title>
<g id="a_node14"><a xlink:href="separated/3-todos/presentations/isolate/src/controllers/initialize.js" xlink:title="initialize.js">
<path fill="#ffffcc" stroke="black" d="M170.29,-384.71C170.29,-384.71 125.7,-384.71 125.7,-384.71 122.6,-384.71 119.5,-381.61 119.5,-378.51 119.5,-378.51 119.5,-372.31 119.5,-372.31 119.5,-369.2 122.6,-366.1 125.7,-366.1 125.7,-366.1 170.29,-366.1 170.29,-366.1 173.39,-366.1 176.49,-369.2 176.49,-372.31 176.49,-372.31 176.49,-378.51 176.49,-378.51 176.49,-381.61 173.39,-384.71 170.29,-384.71"/>
<text text-anchor="middle" x="148" y="-372.71" font-family="Helvetica,sans-Serif" font-size="9.00">initialize.js</text>
</a>
</g>
</g>
<!-- separated/3&#45;todos/presentations/isolate/src/controllers/initialize.js&#45;&gt;separated/3&#45;todos/business&#45;logic/initialize&#45;state.js -->
<g id="edge21" class="edge">
<title>separated/3&#45;todos/presentations/isolate/src/controllers/initialize.js&#45;&gt;separated/3&#45;todos/business&#45;logic/initialize&#45;state.js</title>
<path fill="none" stroke="#000000" stroke-width="2" stroke-opacity="0.200000" d="M149.45,-384.94C151.59,-426.09 161.96,-588.1 193.99,-625.41 194.83,-626.38 195.73,-627.3 196.68,-628.16"/>
<polygon fill="#000000" fill-opacity="0.200000" stroke="#000000" stroke-width="2" stroke-opacity="0.200000" points="195.77,-630.1 201.83,-632.02 198.29,-626.74 195.77,-630.1"/>
</g>
<!-- separated/3&#45;todos/presentations/isolate/src/controllers/remove.js -->
<g id="node15" class="node">
<title>separated/3&#45;todos/presentations/isolate/src/controllers/remove.js</title>
<g id="a_node15"><a xlink:href="separated/3-todos/presentations/isolate/src/controllers/remove.js" xlink:title="remove.js">
<path fill="#ffffcc" stroke="black" d="M169.3,-260.71C169.3,-260.71 126.7,-260.71 126.7,-260.71 123.6,-260.71 120.5,-257.61 120.5,-254.51 120.5,-254.51 120.5,-248.31 120.5,-248.31 120.5,-245.2 123.6,-242.1 126.7,-242.1 126.7,-242.1 169.3,-242.1 169.3,-242.1 172.4,-242.1 175.5,-245.2 175.5,-248.31 175.5,-248.31 175.5,-254.51 175.5,-254.51 175.5,-257.61 172.4,-260.71 169.3,-260.71"/>
<text text-anchor="middle" x="148" y="-248.71" font-family="Helvetica,sans-Serif" font-size="9.00">remove.js</text>
</a>
</g>
</g>
<!-- separated/3&#45;todos/presentations/isolate/src/controllers/remove.js&#45;&gt;separated/3&#45;todos/business&#45;logic/get.js -->
<g id="edge22" class="edge">
<title>separated/3&#45;todos/presentations/isolate/src/controllers/remove.js&#45;&gt;separated/3&#45;todos/business&#45;logic/get.js</title>
<path fill="none" stroke="#000000" stroke-width="2" stroke-opacity="0.200000" d="M175.61,-258.44C179.69,-260.66 183.4,-263.58 185.99,-267.41 204.43,-294.66 174.5,-536.9 193.99,-563.41 197.65,-568.38 202.95,-571.82 208.68,-574.2"/>
<polygon fill="#000000" fill-opacity="0.200000" stroke="#000000" stroke-width="2" stroke-opacity="0.200000" points="208.14,-576.24 214.5,-576.24 209.53,-572.28 208.14,-576.24"/>
</g>
<!-- separated/3&#45;todos/presentations/isolate/src/controllers/remove.js&#45;&gt;separated/3&#45;todos/business&#45;logic/remove&#45;item.js -->
<g id="edge23" class="edge">
<title>separated/3&#45;todos/presentations/isolate/src/controllers/remove.js&#45;&gt;separated/3&#45;todos/business&#45;logic/remove&#45;item.js</title>
<path fill="none" stroke="#000000" stroke-width="2" stroke-opacity="0.200000" d="M175.6,-258.45C179.68,-260.67 183.4,-263.58 185.99,-267.41 202.54,-291.78 176.5,-508.7 193.99,-532.41 195.4,-534.31 197.05,-535.99 198.87,-537.48"/>
<polygon fill="#000000" fill-opacity="0.200000" stroke="#000000" stroke-width="2" stroke-opacity="0.200000" points="197.89,-539.35 204.04,-540.96 200.23,-535.87 197.89,-539.35"/>
</g>
<!-- separated/3&#45;todos/presentations/isolate/src/controllers/remove.js&#45;&gt;separated/3&#45;todos/presentations/isolate/src/views/log&#45;list.js -->
<g id="edge24" class="edge">
<title>separated/3&#45;todos/presentations/isolate/src/controllers/remove.js&#45;&gt;separated/3&#45;todos/presentations/isolate/src/views/log&#45;list.js</title>
<path fill="none" stroke="#000000" stroke-width="2" stroke-opacity="0.200000" d="M175.53,-260.37C185.89,-263.87 197.86,-267.92 208.7,-271.58"/>
<polygon fill="#000000" fill-opacity="0.200000" stroke="#000000" stroke-width="2" stroke-opacity="0.200000" points="208.23,-273.63 214.58,-273.57 209.57,-269.66 208.23,-273.63"/>
</g>
<!-- separated/3&#45;todos/presentations/isolate/src/controllers/remove.js&#45;&gt;separated/3&#45;todos/presentations/isolate/src/views/warning.js -->
<g id="edge25" class="edge">
<title>separated/3&#45;todos/presentations/isolate/src/controllers/remove.js&#45;&gt;separated/3&#45;todos/presentations/isolate/src/views/warning.js</title>
<path fill="none" stroke="#000000" stroke-width="2" stroke-opacity="0.200000" d="M175.53,-251.41C185.53,-251.41 197.03,-251.41 207.56,-251.41"/>
<polygon fill="#000000" fill-opacity="0.200000" stroke="#000000" stroke-width="2" stroke-opacity="0.200000" points="207.63,-253.51 213.63,-251.41 207.63,-249.31 207.63,-253.51"/>
</g>
<!-- separated/3&#45;todos/presentations/isolate/src/controllers/show&#45;list.js -->
<g id="node16" class="node">
<title>separated/3&#45;todos/presentations/isolate/src/controllers/show&#45;list.js</title>
<g id="a_node16"><a xlink:href="separated/3-todos/presentations/isolate/src/controllers/show-list.js" xlink:title="show&#45;list.js">
<path fill="#ffffcc" stroke="black" d="M171.79,-291.71C171.79,-291.71 124.2,-291.71 124.2,-291.71 121.1,-291.71 118,-288.61 118,-285.51 118,-285.51 118,-279.31 118,-279.31 118,-276.2 121.1,-273.1 124.2,-273.1 124.2,-273.1 171.79,-273.1 171.79,-273.1 174.89,-273.1 177.99,-276.2 177.99,-279.31 177.99,-279.31 177.99,-285.51 177.99,-285.51 177.99,-288.61 174.89,-291.71 171.79,-291.71"/>
<text text-anchor="middle" x="148" y="-279.71" font-family="Helvetica,sans-Serif" font-size="9.00">show&#45;list.js</text>
</a>
</g>
</g>
<!-- separated/3&#45;todos/presentations/isolate/src/controllers/show&#45;list.js&#45;&gt;separated/3&#45;todos/business&#45;logic/get.js -->
<g id="edge26" class="edge">
<title>separated/3&#45;todos/presentations/isolate/src/controllers/show&#45;list.js&#45;&gt;separated/3&#45;todos/business&#45;logic/get.js</title>
<path fill="none" stroke="#000000" stroke-width="2" stroke-opacity="0.200000" d="M178.14,-290.96C181.21,-292.95 183.95,-295.39 185.99,-298.41 202.54,-322.78 176.5,-539.7 193.99,-563.41 197.66,-568.38 202.96,-571.82 208.69,-574.19"/>
<polygon fill="#000000" fill-opacity="0.200000" stroke="#000000" stroke-width="2" stroke-opacity="0.200000" points="208.16,-576.23 214.51,-576.23 209.55,-572.27 208.16,-576.23"/>
</g>
<!-- separated/3&#45;todos/presentations/isolate/src/controllers/show&#45;list.js&#45;&gt;separated/3&#45;todos/presentations/isolate/src/views/log&#45;list.js -->
<g id="edge27" class="edge">
<title>separated/3&#45;todos/presentations/isolate/src/controllers/show&#45;list.js&#45;&gt;separated/3&#45;todos/presentations/isolate/src/views/log&#45;list.js</title>
<path fill="none" stroke="#000000" stroke-width="2" stroke-opacity="0.200000" d="M178.03,-282.41C187.76,-282.41 198.68,-282.41 208.64,-282.41"/>
<polygon fill="#000000" fill-opacity="0.200000" stroke="#000000" stroke-width="2" stroke-opacity="0.200000" points="208.7,-284.51 214.7,-282.41 208.7,-280.31 208.7,-284.51"/>
</g>
<!-- separated/3&#45;todos/presentations/isolate/src/controllers/toggle.js -->
<g id="node17" class="node">
<title>separated/3&#45;todos/presentations/isolate/src/controllers/toggle.js</title>
<g id="a_node17"><a xlink:href="separated/3-todos/presentations/isolate/src/controllers/toggle.js" xlink:title="toggle.js">
<path fill="#ffffcc" stroke="black" d="M168.8,-322.71C168.8,-322.71 127.2,-322.71 127.2,-322.71 124.1,-322.71 121,-319.61 121,-316.51 121,-316.51 121,-310.31 121,-310.31 121,-307.2 124.1,-304.1 127.2,-304.1 127.2,-304.1 168.8,-304.1 168.8,-304.1 171.9,-304.1 175,-307.2 175,-310.31 175,-310.31 175,-316.51 175,-316.51 175,-319.61 171.9,-322.71 168.8,-322.71"/>
<text text-anchor="middle" x="148" y="-310.71" font-family="Helvetica,sans-Serif" font-size="9.00">toggle.js</text>
</a>
</g>
</g>
<!-- separated/3&#45;todos/presentations/isolate/src/controllers/toggle.js&#45;&gt;separated/3&#45;todos/business&#45;logic/get.js -->
<g id="edge28" class="edge">
<title>separated/3&#45;todos/presentations/isolate/src/controllers/toggle.js&#45;&gt;separated/3&#45;todos/business&#45;logic/get.js</title>
<path fill="none" stroke="#000000" stroke-width="2" stroke-opacity="0.200000" d="M175.21,-320.26C179.45,-322.5 183.31,-325.47 185.99,-329.41 200.65,-350.9 178.51,-542.5 193.99,-563.41 197.67,-568.37 202.98,-571.81 208.7,-574.18"/>
<polygon fill="#000000" fill-opacity="0.200000" stroke="#000000" stroke-width="2" stroke-opacity="0.200000" points="208.17,-576.22 214.53,-576.22 209.56,-572.26 208.17,-576.22"/>
</g>
<!-- separated/3&#45;todos/presentations/isolate/src/controllers/toggle.js&#45;&gt;separated/3&#45;todos/business&#45;logic/update&#45;item.js -->
<g id="edge29" class="edge">
<title>separated/3&#45;todos/presentations/isolate/src/controllers/toggle.js&#45;&gt;separated/3&#45;todos/business&#45;logic/update&#45;item.js</title>
<path fill="none" stroke="#000000" stroke-width="2" stroke-opacity="0.200000" d="M175.22,-320.25C179.46,-322.49 183.32,-325.47 185.99,-329.41 202.54,-353.78 176.5,-570.7 193.99,-594.41 195.75,-596.78 197.87,-598.81 200.24,-600.54"/>
<polygon fill="#000000" fill-opacity="0.200000" stroke="#000000" stroke-width="2" stroke-opacity="0.200000" points="199.19,-602.35 205.41,-603.68 201.37,-598.77 199.19,-602.35"/>
</g>
<!-- separated/3&#45;todos/presentations/isolate/src/controllers/toggle.js&#45;&gt;separated/3&#45;todos/presentations/isolate/src/views/log&#45;list.js -->
<g id="edge30" class="edge">
<title>separated/3&#45;todos/presentations/isolate/src/controllers/toggle.js&#45;&gt;separated/3&#45;todos/presentations/isolate/src/views/log&#45;list.js</title>
<path fill="none" stroke="#000000" stroke-width="2" stroke-opacity="0.200000" d="M175.04,-304.61C185.5,-301.07 197.66,-296.96 208.66,-293.25"/>
<polygon fill="#000000" fill-opacity="0.200000" stroke="#000000" stroke-width="2" stroke-opacity="0.200000" points="209.62,-295.14 214.63,-291.23 208.28,-291.16 209.62,-295.14"/>
</g>
<!-- separated/3&#45;todos/presentations/isolate/src/controllers/toggle.js&#45;&gt;separated/3&#45;todos/presentations/isolate/src/views/warning.js -->
<g id="edge31" class="edge">
<title>separated/3&#45;todos/presentations/isolate/src/controllers/toggle.js&#45;&gt;separated/3&#45;todos/presentations/isolate/src/views/warning.js</title>
<path fill="none" stroke="#000000" stroke-width="2" stroke-opacity="0.200000" d="M175.28,-305.63C179.29,-303.49 183.07,-300.8 185.99,-297.41 195,-286.96 184.58,-277.49 193.99,-267.41 197.78,-263.35 202.63,-260.33 207.77,-258.07"/>
<polygon fill="#000000" fill-opacity="0.200000" stroke="#000000" stroke-width="2" stroke-opacity="0.200000" points="208.57,-260.01 213.42,-255.9 207.07,-256.09 208.57,-260.01"/>
</g>
<!-- separated/3&#45;todos/presentations/isolate/src/init.js -->
<g id="node18" class="node">
<title>separated/3&#45;todos/presentations/isolate/src/init.js</title>
<g id="a_node18"><a xlink:href="separated/3-todos/presentations/isolate/src/init.js" xlink:title="init.js">
<path fill="#ffffcc" stroke="black" d="M95.8,-306.71C95.8,-306.71 54.2,-306.71 54.2,-306.71 51.1,-306.71 48,-303.61 48,-300.51 48,-300.51 48,-294.31 48,-294.31 48,-291.2 51.1,-288.1 54.2,-288.1 54.2,-288.1 95.8,-288.1 95.8,-288.1 98.9,-288.1 102,-291.2 102,-294.31 102,-294.31 102,-300.51 102,-300.51 102,-303.61 98.9,-306.71 95.8,-306.71"/>
<text text-anchor="middle" x="75" y="-294.71" font-family="Helvetica,sans-Serif" font-size="9.00">init.js</text>
</a>
</g>
</g>
<!-- separated/3&#45;todos/presentations/isolate/src/init.js&#45;&gt;separated/3&#45;todos/presentations/isolate/src/controllers/add.js -->
<g id="edge32" class="edge">
<title>separated/3&#45;todos/presentations/isolate/src/init.js&#45;&gt;separated/3&#45;todos/presentations/isolate/src/controllers/add.js</title>
<path fill="none" stroke="#000000" stroke-width="2" stroke-opacity="0.200000" d="M79.09,-287.9C83.81,-274.72 93.99,-250.88 110,-236.41 111.65,-234.91 113.47,-233.54 115.38,-232.28"/>
<polygon fill="#000000" fill-opacity="0.200000" stroke="#000000" stroke-width="2" stroke-opacity="0.200000" points="116.5,-234.06 120.62,-229.23 114.38,-230.44 116.5,-234.06"/>
</g>
<!-- separated/3&#45;todos/presentations/isolate/src/init.js&#45;&gt;separated/3&#45;todos/presentations/isolate/src/controllers/change.js -->
<g id="edge33" class="edge">
<title>separated/3&#45;todos/presentations/isolate/src/init.js&#45;&gt;separated/3&#45;todos/presentations/isolate/src/controllers/change.js</title>
<path fill="none" stroke="#000000" stroke-width="2" stroke-opacity="0.200000" d="M84.55,-306.71C91.05,-313.38 100.47,-322.25 110,-328.41 112.12,-329.77 114.37,-331.07 116.68,-332.3"/>
<polygon fill="#000000" fill-opacity="0.200000" stroke="#000000" stroke-width="2" stroke-opacity="0.200000" points="115.82,-334.21 122.13,-335.01 117.69,-330.45 115.82,-334.21"/>
</g>
<!-- separated/3&#45;todos/presentations/isolate/src/init.js&#45;&gt;separated/3&#45;todos/presentations/isolate/src/controllers/initialize.js -->
<g id="edge34" class="edge">
<title>separated/3&#45;todos/presentations/isolate/src/init.js&#45;&gt;separated/3&#45;todos/presentations/isolate/src/controllers/initialize.js</title>
<path fill="none" stroke="#000000" stroke-width="2" stroke-opacity="0.200000" d="M79.05,-307.07C83.72,-320.47 93.84,-344.69 110,-359.41 111.31,-360.6 112.72,-361.71 114.2,-362.75"/>
<polygon fill="#000000" fill-opacity="0.200000" stroke="#000000" stroke-width="2" stroke-opacity="0.200000" points="113.25,-364.63 119.46,-365.99 115.46,-361.06 113.25,-364.63"/>
</g>
<!-- separated/3&#45;todos/presentations/isolate/src/init.js&#45;&gt;separated/3&#45;todos/presentations/isolate/src/controllers/remove.js -->
<g id="edge35" class="edge">
<title>separated/3&#45;todos/presentations/isolate/src/init.js&#45;&gt;separated/3&#45;todos/presentations/isolate/src/controllers/remove.js</title>
<path fill="none" stroke="#000000" stroke-width="2" stroke-opacity="0.200000" d="M85.17,-287.87C91.66,-281.49 100.83,-273.23 110,-267.41 112.13,-266.06 114.39,-264.77 116.7,-263.55"/>
<polygon fill="#000000" fill-opacity="0.200000" stroke="#000000" stroke-width="2" stroke-opacity="0.200000" points="117.71,-265.4 122.16,-260.86 115.85,-261.63 117.71,-265.4"/>
</g>
<!-- separated/3&#45;todos/presentations/isolate/src/init.js&#45;&gt;separated/3&#45;todos/presentations/isolate/src/controllers/show&#45;list.js -->
<g id="edge36" class="edge">
<title>separated/3&#45;todos/presentations/isolate/src/init.js&#45;&gt;separated/3&#45;todos/presentations/isolate/src/controllers/show&#45;list.js</title>
<path fill="none" stroke="#000000" stroke-width="2" stroke-opacity="0.200000" d="M102.03,-291.91C105.04,-291.27 108.15,-290.61 111.25,-289.96"/>
<polygon fill="#000000" fill-opacity="0.200000" stroke="#000000" stroke-width="2" stroke-opacity="0.200000" points="112.17,-291.91 117.61,-288.61 111.3,-287.8 112.17,-291.91"/>
</g>
<!-- separated/3&#45;todos/presentations/isolate/src/init.js&#45;&gt;separated/3&#45;todos/presentations/isolate/src/controllers/toggle.js -->
<g id="edge37" class="edge">
<title>separated/3&#45;todos/presentations/isolate/src/init.js&#45;&gt;separated/3&#45;todos/presentations/isolate/src/controllers/toggle.js</title>
<path fill="none" stroke="#000000" stroke-width="2" stroke-opacity="0.200000" d="M102.03,-303.27C106.28,-304.23 110.72,-305.23 115.08,-306.21"/>
<polygon fill="#000000" fill-opacity="0.200000" stroke="#000000" stroke-width="2" stroke-opacity="0.200000" points="114.65,-308.27 120.97,-307.54 115.57,-304.17 114.65,-308.27"/>
</g>
</g>
</svg>
