<?xml version="1.0" encoding="UTF-8" standalone="no"?>
<!DOCTYPE svg PUBLIC "-//W3C//DTD SVG 1.1//EN"
 "http://www.w3.org/Graphics/SVG/1.1/DTD/svg11.dtd">
<!-- Generated by graphviz version 2.44.0 (20200408.0750)
 -->
<!-- Title: dependency&#45;cruiser output Pages: 1 -->
<svg width="702pt" height="499pt"
 viewBox="0.00 0.00 702.02 499.00" xmlns="http://www.w3.org/2000/svg" xmlns:xlink="http://www.w3.org/1999/xlink">
<g id="graph0" class="graph" transform="scale(1 1) rotate(0) translate(4 495)">
<title>dependency&#45;cruiser output</title>
<polygon fill="white" stroke="transparent" points="-4,4 -4,-495 698.02,-495 698.02,4 -4,4"/>
<g id="clust1" class="cluster">
<title>cluster_data&#45;access</title>
<path fill="#ffffff" stroke="black" stroke-width="2" d="M369.02,-198C369.02,-198 674.02,-198 674.02,-198 680.02,-198 686.02,-204 686.02,-210 686.02,-210 686.02,-416 686.02,-416 686.02,-422 680.02,-428 674.02,-428 674.02,-428 369.02,-428 369.02,-428 363.02,-428 357.02,-422 357.02,-416 357.02,-416 357.02,-210 357.02,-210 357.02,-204 363.02,-198 369.02,-198"/>
<text text-anchor="middle" x="521.52" y="-415.9" font-family="Helvetica,sans-Serif" font-weight="bold" font-size="9.00">data&#45;access</text>
</g>
<g id="clust2" class="cluster">
<title>cluster_data&#45;access/local&#45;storage</title>
<path fill="#ffffff" stroke="black" stroke-width="2" d="M447.77,-273C447.77,-273 666.02,-273 666.02,-273 672.02,-273 678.02,-279 678.02,-285 678.02,-285 678.02,-389 678.02,-389 678.02,-395 672.02,-401 666.02,-401 666.02,-401 447.77,-401 447.77,-401 441.77,-401 435.77,-395 435.77,-389 435.77,-389 435.77,-285 435.77,-285 435.77,-279 441.77,-273 447.77,-273"/>
<text text-anchor="middle" x="556.89" y="-388.9" font-family="Helvetica,sans-Serif" font-weight="bold" font-size="9.00">local&#45;storage</text>
</g>
<g id="clust3" class="cluster">
<title>cluster_data&#45;access/utils</title>
<path fill="#ffffff" stroke="black" stroke-width="2" d="M439.02,-212C439.02,-212 596.02,-212 596.02,-212 602.02,-212 608.02,-218 608.02,-224 608.02,-224 608.02,-253 608.02,-253 608.02,-259 602.02,-265 596.02,-265 596.02,-265 439.02,-265 439.02,-265 433.02,-265 427.02,-259 427.02,-253 427.02,-253 427.02,-224 427.02,-224 427.02,-218 433.02,-212 439.02,-212"/>
<text text-anchor="middle" x="517.52" y="-252.9" font-family="Helvetica,sans-Serif" font-weight="bold" font-size="9.00">utils</text>
</g>
<g id="clust4" class="cluster">
<title>cluster_lib</title>
<path fill="#ffffff" stroke="black" stroke-width="2" d="M446.76,-137C446.76,-137 494.77,-137 494.77,-137 500.77,-137 506.77,-143 506.77,-149 506.77,-149 506.77,-178 506.77,-178 506.77,-184 500.77,-190 494.77,-190 494.77,-190 446.76,-190 446.76,-190 440.76,-190 434.76,-184 434.76,-178 434.76,-178 434.76,-149 434.76,-149 434.76,-143 440.76,-137 446.76,-137"/>
<text text-anchor="middle" x="470.77" y="-177.9" font-family="Helvetica,sans-Serif" font-weight="bold" font-size="9.00">lib</text>
</g>
<g id="clust5" class="cluster">
<title>cluster_separated</title>
<path fill="#ffffff" stroke="black" stroke-width="2" d="M20,-8C20,-8 337.02,-8 337.02,-8 343.02,-8 349.02,-14 349.02,-20 349.02,-20 349.02,-471 349.02,-471 349.02,-477 343.02,-483 337.02,-483 337.02,-483 20,-483 20,-483 14,-483 8,-477 8,-471 8,-471 8,-20 8,-20 8,-14 14,-8 20,-8"/>
<text text-anchor="middle" x="178.51" y="-470.9" font-family="Helvetica,sans-Serif" font-weight="bold" font-size="9.00">separated</text>
</g>
<g id="clust6" class="cluster">
<title>cluster_separated/welcome</title>
<path fill="#ffffff" stroke="black" stroke-width="2" d="M28,-16C28,-16 329.02,-16 329.02,-16 335.02,-16 341.02,-22 341.02,-28 341.02,-28 341.02,-444 341.02,-444 341.02,-450 335.02,-456 329.02,-456 329.02,-456 28,-456 28,-456 22,-456 16,-450 16,-444 16,-444 16,-28 16,-28 16,-22 22,-16 28,-16"/>
<text text-anchor="middle" x="178.51" y="-443.9" font-family="Helvetica,sans-Serif" font-weight="bold" font-size="9.00">welcome</text>
</g>
<g id="clust7" class="cluster">
<title>cluster_separated/welcome/business&#45;logic</title>
<path fill="#ffffff" stroke="black" stroke-width="2" d="M225.01,-283C225.01,-283 309.03,-283 309.03,-283 315.03,-283 321.03,-289 321.03,-295 321.03,-295 321.03,-417 321.03,-417 321.03,-423 315.03,-429 309.03,-429 309.03,-429 225.01,-429 225.01,-429 219.01,-429 213.01,-423 213.01,-417 213.01,-417 213.01,-295 213.01,-295 213.01,-289 219.01,-283 225.01,-283"/>
<text text-anchor="middle" x="267.02" y="-416.9" font-family="Helvetica,sans-Serif" font-weight="bold" font-size="9.00">business&#45;logic</text>
</g>
<g id="clust8" class="cluster">
<title>cluster_separated/welcome/presentations</title>
<path fill="#ffffff" stroke="black" stroke-width="2" d="M36,-24C36,-24 321.02,-24 321.02,-24 327.02,-24 333.02,-30 333.02,-36 333.02,-36 333.02,-263 333.02,-263 333.02,-269 327.02,-275 321.02,-275 321.02,-275 36,-275 36,-275 30,-275 24,-269 24,-263 24,-263 24,-36 24,-36 24,-30 30,-24 36,-24"/>
<text text-anchor="middle" x="178.51" y="-262.9" font-family="Helvetica,sans-Serif" font-weight="bold" font-size="9.00">presentations</text>
</g>
<g id="clust9" class="cluster">
<title>cluster_separated/welcome/presentations/isolate</title>
<path fill="#ffffff" stroke="black" stroke-width="2" d="M44,-32C44,-32 313.02,-32 313.02,-32 319.02,-32 325.02,-38 325.02,-44 325.02,-44 325.02,-236 325.02,-236 325.02,-242 319.02,-248 313.02,-248 313.02,-248 44,-248 44,-248 38,-248 32,-242 32,-236 32,-236 32,-44 32,-44 32,-38 38,-32 44,-32"/>
<text text-anchor="middle" x="178.51" y="-235.9" font-family="Helvetica,sans-Serif" font-weight="bold" font-size="9.00">isolate</text>
</g>
<g id="clust10" class="cluster">
<title>cluster_separated/welcome/presentations/isolate/src</title>
<path fill="#ffffff" stroke="black" stroke-width="2" d="M52,-40C52,-40 305.02,-40 305.02,-40 311.02,-40 317.02,-46 317.02,-52 317.02,-52 317.02,-209 317.02,-209 317.02,-215 311.02,-221 305.02,-221 305.02,-221 52,-221 52,-221 46,-221 40,-215 40,-209 40,-209 40,-52 40,-52 40,-46 46,-40 52,-40"/>
<text text-anchor="middle" x="178.51" y="-208.9" font-family="Helvetica,sans-Serif" font-weight="bold" font-size="9.00">src</text>
</g>
<g id="clust11" class="cluster">
<title>cluster_separated/welcome/presentations/isolate/src/controllers</title>
<path fill="#ffffff" stroke="black" stroke-width="2" d="M122,-48C122,-48 193.01,-48 193.01,-48 199.01,-48 205.01,-54 205.01,-60 205.01,-60 205.01,-182 205.01,-182 205.01,-188 199.01,-194 193.01,-194 193.01,-194 122,-194 122,-194 116,-194 110,-188 110,-182 110,-182 110,-60 110,-60 110,-54 116,-48 122,-48"/>
<text text-anchor="middle" x="157.5" y="-181.9" font-family="Helvetica,sans-Serif" font-weight="bold" font-size="9.00">controllers</text>
</g>
<g id="clust12" class="cluster">
<title>cluster_separated/welcome/presentations/isolate/src/views</title>
<path fill="#ffffff" stroke="black" stroke-width="2" d="M237.02,-48C237.02,-48 297.02,-48 297.02,-48 303.02,-48 309.02,-54 309.02,-60 309.02,-60 309.02,-151 309.02,-151 309.02,-157 303.02,-163 297.02,-163 297.02,-163 237.02,-163 237.02,-163 231.02,-163 225.02,-157 225.02,-151 225.02,-151 225.02,-60 225.02,-60 225.02,-54 231.02,-48 237.02,-48"/>
<text text-anchor="middle" x="267.02" y="-150.9" font-family="Helvetica,sans-Serif" font-weight="bold" font-size="9.00">views</text>
</g>
<!-- data&#45;access/find.js -->
<g id="node1" class="node">
<title>data&#45;access/find.js</title>
<g id="a_node1"><a xlink:href="data-access/find.js" xlink:title="find.js">
<path fill="#ffffcc" stroke="black" d="M412.82,-371.3C412.82,-371.3 371.22,-371.3 371.22,-371.3 368.12,-371.3 365.02,-368.2 365.02,-365.1 365.02,-365.1 365.02,-358.9 365.02,-358.9 365.02,-355.8 368.12,-352.7 371.22,-352.7 371.22,-352.7 412.82,-352.7 412.82,-352.7 415.92,-352.7 419.02,-355.8 419.02,-358.9 419.02,-358.9 419.02,-365.1 419.02,-365.1 419.02,-368.2 415.92,-371.3 412.82,-371.3"/>
<text text-anchor="middle" x="392.02" y="-359.3" font-family="Helvetica,sans-Serif" font-size="9.00">find.js</text>
</a>
</g>
</g>
<!-- data&#45;access/local&#45;storage/get&#45;item.js -->
<g id="node2" class="node">
<title>data&#45;access/local&#45;storage/get&#45;item.js</title>
<g id="a_node2"><a xlink:href="data-access/local-storage/get-item.js" xlink:title="get&#45;item.js">
<path fill="#ffffcc" stroke="black" d="M582.57,-374.3C582.57,-374.3 536.97,-374.3 536.97,-374.3 533.87,-374.3 530.77,-371.2 530.77,-368.1 530.77,-368.1 530.77,-361.9 530.77,-361.9 530.77,-358.8 533.87,-355.7 536.97,-355.7 536.97,-355.7 582.57,-355.7 582.57,-355.7 585.67,-355.7 588.77,-358.8 588.77,-361.9 588.77,-361.9 588.77,-368.1 588.77,-368.1 588.77,-371.2 585.67,-374.3 582.57,-374.3"/>
<text text-anchor="middle" x="559.77" y="-362.3" font-family="Helvetica,sans-Serif" font-size="9.00">get&#45;item.js</text>
</a>
</g>
</g>
<!-- data&#45;access/find.js&#45;&gt;data&#45;access/local&#45;storage/get&#45;item.js -->
<g id="edge1" class="edge">
<title>data&#45;access/find.js&#45;&gt;data&#45;access/local&#45;storage/get&#45;item.js</title>
<path fill="none" stroke="#000000" stroke-width="2" stroke-opacity="0.200000" d="M419.28,-362.48C447.86,-362.99 493.66,-363.82 524.92,-364.39"/>
<polygon fill="#000000" fill-opacity="0.200000" stroke="#000000" stroke-width="2" stroke-opacity="0.200000" points="524.93,-366.49 530.97,-364.5 525.01,-362.29 524.93,-366.49"/>
</g>
<!-- data&#45;access/local&#45;storage/state.js -->
<g id="node3" class="node">
<title>data&#45;access/local&#45;storage/state.js</title>
<g id="a_node3"><a xlink:href="data-access/local-storage/state.js" xlink:title="state.js">
<path fill="#ffffcc" stroke="black" d="M491.57,-343.3C491.57,-343.3 449.97,-343.3 449.97,-343.3 446.87,-343.3 443.77,-340.2 443.77,-337.1 443.77,-337.1 443.77,-330.9 443.77,-330.9 443.77,-327.8 446.87,-324.7 449.97,-324.7 449.97,-324.7 491.57,-324.7 491.57,-324.7 494.67,-324.7 497.77,-327.8 497.77,-330.9 497.77,-330.9 497.77,-337.1 497.77,-337.1 497.77,-340.2 494.67,-343.3 491.57,-343.3"/>
<text text-anchor="middle" x="470.77" y="-331.3" font-family="Helvetica,sans-Serif" font-size="9.00">state.js</text>
</a>
</g>
</g>
<!-- data&#45;access/find.js&#45;&gt;data&#45;access/local&#45;storage/state.js -->
<g id="edge2" class="edge">
<title>data&#45;access/find.js&#45;&gt;data&#45;access/local&#45;storage/state.js</title>
<path fill="none" stroke="#000000" stroke-width="2" stroke-opacity="0.200000" d="M413.35,-352.55C417.81,-350.62 422.54,-348.66 427.02,-347 430.37,-345.76 433.9,-344.54 437.44,-343.38"/>
<polygon fill="#000000" fill-opacity="0.200000" stroke="#000000" stroke-width="2" stroke-opacity="0.200000" points="438.3,-345.31 443.37,-341.48 437.02,-341.31 438.3,-345.31"/>
</g>
<!-- data&#45;access/local&#45;storage/store.js -->
<g id="node9" class="node">
<title>data&#45;access/local&#45;storage/store.js</title>
<g id="a_node9"><a xlink:href="data-access/local-storage/store.js" xlink:title="store.js">
<path fill="#ffffcc" stroke="black" d="M663.82,-341.3C663.82,-341.3 622.22,-341.3 622.22,-341.3 619.12,-341.3 616.02,-338.2 616.02,-335.1 616.02,-335.1 616.02,-328.9 616.02,-328.9 616.02,-325.8 619.12,-322.7 622.22,-322.7 622.22,-322.7 663.82,-322.7 663.82,-322.7 666.92,-322.7 670.02,-325.8 670.02,-328.9 670.02,-328.9 670.02,-335.1 670.02,-335.1 670.02,-338.2 666.92,-341.3 663.82,-341.3"/>
<text text-anchor="middle" x="643.02" y="-329.3" font-family="Helvetica,sans-Serif" font-size="9.00">store.js</text>
</a>
</g>
</g>
<!-- data&#45;access/local&#45;storage/get&#45;item.js&#45;&gt;data&#45;access/local&#45;storage/store.js -->
<g id="edge9" class="edge">
<title>data&#45;access/local&#45;storage/get&#45;item.js&#45;&gt;data&#45;access/local&#45;storage/store.js</title>
<path fill="none" stroke="#000000" stroke-width="2" stroke-opacity="0.200000" d="M586.36,-355.52C593.41,-352.84 601.03,-349.87 608.02,-347 610.43,-346.01 612.94,-344.95 615.44,-343.88"/>
<polygon fill="#000000" fill-opacity="0.200000" stroke="#000000" stroke-width="2" stroke-opacity="0.200000" points="616.56,-345.68 621.23,-341.37 614.89,-341.83 616.56,-345.68"/>
</g>
<!-- data&#45;access/local&#45;storage/state.js&#45;&gt;data&#45;access/local&#45;storage/get&#45;item.js -->
<g id="edge12" class="edge">
<title>data&#45;access/local&#45;storage/state.js&#45;&gt;data&#45;access/local&#45;storage/get&#45;item.js</title>
<path fill="none" stroke="#000000" stroke-width="2" stroke-opacity="0.200000" d="M497.87,-343.3C506.91,-346.52 517.14,-350.17 526.61,-353.54"/>
<polygon fill="#000000" fill-opacity="0.200000" stroke="#000000" stroke-width="2" stroke-opacity="0.200000" points="526.03,-355.56 532.38,-355.6 527.43,-351.61 526.03,-355.56"/>
</g>
<!-- data&#45;access/local&#45;storage/state.js&#45;&gt;data&#45;access/local&#45;storage/store.js -->
<g id="edge13" class="edge">
<title>data&#45;access/local&#45;storage/state.js&#45;&gt;data&#45;access/local&#45;storage/store.js</title>
<path fill="none" stroke="#000000" stroke-width="2" stroke-opacity="0.200000" d="M497.91,-335.52C525.36,-336.85 569.76,-338.24 608.02,-336 608.48,-335.97 608.95,-335.94 609.43,-335.91"/>
<polygon fill="#000000" fill-opacity="0.200000" stroke="#000000" stroke-width="2" stroke-opacity="0.200000" points="609.87,-337.98 615.69,-335.41 609.54,-333.8 609.87,-337.98"/>
</g>
<!-- data&#45;access/load.js -->
<g id="node4" class="node">
<title>data&#45;access/load.js</title>
<g id="a_node4"><a xlink:href="data-access/load.js" xlink:title="load.js">
<path fill="#ffffcc" stroke="black" d="M412.82,-307.3C412.82,-307.3 371.22,-307.3 371.22,-307.3 368.12,-307.3 365.02,-304.2 365.02,-301.1 365.02,-301.1 365.02,-294.9 365.02,-294.9 365.02,-291.8 368.12,-288.7 371.22,-288.7 371.22,-288.7 412.82,-288.7 412.82,-288.7 415.92,-288.7 419.02,-291.8 419.02,-294.9 419.02,-294.9 419.02,-301.1 419.02,-301.1 419.02,-304.2 415.92,-307.3 412.82,-307.3"/>
<text text-anchor="middle" x="392.02" y="-295.3" font-family="Helvetica,sans-Serif" font-size="9.00">load.js</text>
</a>
</g>
</g>
<!-- data&#45;access/load.js&#45;&gt;data&#45;access/local&#45;storage/get&#45;item.js -->
<g id="edge4" class="edge">
<title>data&#45;access/load.js&#45;&gt;data&#45;access/local&#45;storage/get&#45;item.js</title>
<path fill="none" stroke="#000000" stroke-width="2" stroke-opacity="0.200000" d="M419.31,-305.26C421.9,-305.89 424.51,-306.48 427.02,-307 462.12,-314.26 476,-300.62 506.77,-319 514.88,-323.84 512.82,-329.35 519.52,-336 525.25,-341.69 532.15,-347.16 538.56,-351.79"/>
<polygon fill="#000000" fill-opacity="0.200000" stroke="#000000" stroke-width="2" stroke-opacity="0.200000" points="537.68,-353.74 543.79,-355.47 540.09,-350.3 537.68,-353.74"/>
</g>
<!-- data&#45;access/load.js&#45;&gt;data&#45;access/local&#45;storage/state.js -->
<g id="edge7" class="edge">
<title>data&#45;access/load.js&#45;&gt;data&#45;access/local&#45;storage/state.js</title>
<path fill="none" stroke="#000000" stroke-width="2" stroke-opacity="0.200000" d="M406.61,-307.48C415.09,-313.34 424.8,-319.94 427.02,-321 430.42,-322.62 434.07,-324.1 437.75,-325.42"/>
<polygon fill="#000000" fill-opacity="0.200000" stroke="#000000" stroke-width="2" stroke-opacity="0.200000" points="437.17,-327.44 443.52,-327.38 438.52,-323.46 437.17,-327.44"/>
</g>
<!-- lib/validate.js -->
<g id="node5" class="node">
<title>lib/validate.js</title>
<g id="a_node5"><a xlink:href="lib/validate.js" xlink:title="validate.js">
<polygon fill="#ffffcc" stroke="black" points="498.77,-163.3 497.22,-165.37 486.37,-165.37 484.82,-163.3 442.76,-163.3 442.76,-144.7 498.77,-144.7 498.77,-163.3"/>
<text text-anchor="middle" x="470.77" y="-151.3" font-family="Helvetica,sans-Serif" font-size="9.00">validate.js</text>
</a>
</g>
</g>
<!-- data&#45;access/load.js&#45;&gt;lib/validate.js -->
<g id="edge3" class="edge">
<title>data&#45;access/load.js&#45;&gt;lib/validate.js</title>
<path fill="none" stroke="#000000" stroke-width="2" stroke-opacity="0.200000" d="M394.55,-288.53C397.96,-269.56 407.43,-226.06 427.02,-195 433.68,-184.43 443.65,-174.66 452.28,-167.31"/>
<polygon fill="#000000" fill-opacity="0.200000" stroke="#000000" stroke-width="2" stroke-opacity="0.200000" points="453.63,-168.92 456.91,-163.48 450.95,-165.69 453.63,-168.92"/>
</g>
<!-- data&#45;access/local&#45;storage/remove&#45;item.js -->
<g id="node6" class="node">
<title>data&#45;access/local&#45;storage/remove&#45;item.js</title>
<g id="a_node6"><a xlink:href="data-access/local-storage/remove-item.js" xlink:title="remove&#45;item.js">
<path fill="#ffffcc" stroke="black" d="M591.06,-299.3C591.06,-299.3 528.47,-299.3 528.47,-299.3 525.37,-299.3 522.27,-296.2 522.27,-293.1 522.27,-293.1 522.27,-286.9 522.27,-286.9 522.27,-283.8 525.37,-280.7 528.47,-280.7 528.47,-280.7 591.06,-280.7 591.06,-280.7 594.16,-280.7 597.26,-283.8 597.26,-286.9 597.26,-286.9 597.26,-293.1 597.26,-293.1 597.26,-296.2 594.16,-299.3 591.06,-299.3"/>
<text text-anchor="middle" x="559.77" y="-287.3" font-family="Helvetica,sans-Serif" font-size="9.00">remove&#45;item.js</text>
</a>
</g>
</g>
<!-- data&#45;access/load.js&#45;&gt;data&#45;access/local&#45;storage/remove&#45;item.js -->
<g id="edge5" class="edge">
<title>data&#45;access/load.js&#45;&gt;data&#45;access/local&#45;storage/remove&#45;item.js</title>
<path fill="none" stroke="#000000" stroke-width="2" stroke-opacity="0.200000" d="M419.35,-294.67C421.94,-294.42 424.53,-294.18 427.02,-294 456.7,-291.81 490.23,-290.81 516.04,-290.36"/>
<polygon fill="#000000" fill-opacity="0.200000" stroke="#000000" stroke-width="2" stroke-opacity="0.200000" points="516.13,-292.46 522.09,-290.26 516.06,-288.26 516.13,-292.46"/>
</g>
<!-- data&#45;access/local&#45;storage/set&#45;item.js -->
<g id="node7" class="node">
<title>data&#45;access/local&#45;storage/set&#45;item.js</title>
<g id="a_node7"><a xlink:href="data-access/local-storage/set-item.js" xlink:title="set&#45;item.js">
<path fill="#ffffcc" stroke="black" d="M582.06,-330.3C582.06,-330.3 537.47,-330.3 537.47,-330.3 534.37,-330.3 531.27,-327.2 531.27,-324.1 531.27,-324.1 531.27,-317.9 531.27,-317.9 531.27,-314.8 534.37,-311.7 537.47,-311.7 537.47,-311.7 582.06,-311.7 582.06,-311.7 585.16,-311.7 588.26,-314.8 588.26,-317.9 588.26,-317.9 588.26,-324.1 588.26,-324.1 588.26,-327.2 585.16,-330.3 582.06,-330.3"/>
<text text-anchor="middle" x="559.77" y="-318.3" font-family="Helvetica,sans-Serif" font-size="9.00">set&#45;item.js</text>
</a>
</g>
</g>
<!-- data&#45;access/load.js&#45;&gt;data&#45;access/local&#45;storage/set&#45;item.js -->
<g id="edge6" class="edge">
<title>data&#45;access/load.js&#45;&gt;data&#45;access/local&#45;storage/set&#45;item.js</title>
<path fill="none" stroke="#000000" stroke-width="2" stroke-opacity="0.200000" d="M419.37,-299.14C442.52,-300.42 477.05,-303.01 506.77,-308 512.76,-309.01 519.07,-310.34 525.16,-311.78"/>
<polygon fill="#000000" fill-opacity="0.200000" stroke="#000000" stroke-width="2" stroke-opacity="0.200000" points="524.82,-313.86 531.14,-313.24 525.81,-309.78 524.82,-313.86"/>
</g>
<!-- data&#45;access/utils/is&#45;plain&#45;object.js -->
<g id="node8" class="node">
<title>data&#45;access/utils/is&#45;plain&#45;object.js</title>
<g id="a_node8"><a xlink:href="data-access/utils/is-plain-object.js" xlink:title="is&#45;plain&#45;object.js">
<path fill="#ffffcc" stroke="black" d="M594.07,-238.3C594.07,-238.3 525.47,-238.3 525.47,-238.3 522.37,-238.3 519.27,-235.2 519.27,-232.1 519.27,-232.1 519.27,-225.9 519.27,-225.9 519.27,-222.8 522.37,-219.7 525.47,-219.7 525.47,-219.7 594.07,-219.7 594.07,-219.7 597.17,-219.7 600.27,-222.8 600.27,-225.9 600.27,-225.9 600.27,-232.1 600.27,-232.1 600.27,-235.2 597.17,-238.3 594.07,-238.3"/>
<text text-anchor="middle" x="559.77" y="-226.3" font-family="Helvetica,sans-Serif" font-size="9.00">is&#45;plain&#45;object.js</text>
</a>
</g>
</g>
<!-- data&#45;access/load.js&#45;&gt;data&#45;access/utils/is&#45;plain&#45;object.js -->
<g id="edge8" class="edge">
<title>data&#45;access/load.js&#45;&gt;data&#45;access/utils/is&#45;plain&#45;object.js</title>
<path fill="none" stroke="#000000" stroke-width="2" stroke-opacity="0.200000" d="M393.58,-288.61C395.23,-270.5 401.71,-231.06 427.02,-214 459.1,-192.38 505.83,-205.61 534.16,-217.25"/>
<polygon fill="#000000" fill-opacity="0.200000" stroke="#000000" stroke-width="2" stroke-opacity="0.200000" points="533.57,-219.28 539.91,-219.7 535.21,-215.41 533.57,-219.28"/>
</g>
<!-- data&#45;access/local&#45;storage/remove&#45;item.js&#45;&gt;data&#45;access/local&#45;storage/store.js -->
<g id="edge10" class="edge">
<title>data&#45;access/local&#45;storage/remove&#45;item.js&#45;&gt;data&#45;access/local&#45;storage/store.js</title>
<path fill="none" stroke="#000000" stroke-width="2" stroke-opacity="0.200000" d="M593.13,-299.38C598.23,-301.31 603.35,-303.52 608.02,-306 614.54,-309.48 621.13,-314.18 626.75,-318.63"/>
<polygon fill="#000000" fill-opacity="0.200000" stroke="#000000" stroke-width="2" stroke-opacity="0.200000" points="625.64,-320.43 631.61,-322.61 628.3,-317.18 625.64,-320.43"/>
</g>
<!-- data&#45;access/local&#45;storage/set&#45;item.js&#45;&gt;data&#45;access/local&#45;storage/store.js -->
<g id="edge11" class="edge">
<title>data&#45;access/local&#45;storage/set&#45;item.js&#45;&gt;data&#45;access/local&#45;storage/store.js</title>
<path fill="none" stroke="#000000" stroke-width="2" stroke-opacity="0.200000" d="M588.27,-324.72C595.11,-325.65 602.51,-326.65 609.56,-327.61"/>
<polygon fill="#000000" fill-opacity="0.200000" stroke="#000000" stroke-width="2" stroke-opacity="0.200000" points="609.68,-329.74 615.91,-328.47 610.25,-325.58 609.68,-329.74"/>
</g>
<!-- data&#45;access/save.js -->
<g id="node10" class="node">
<title>data&#45;access/save.js</title>
<g id="a_node10"><a xlink:href="data-access/save.js" xlink:title="save.js">
<path fill="#ffffcc" stroke="black" d="M412.82,-340.3C412.82,-340.3 371.22,-340.3 371.22,-340.3 368.12,-340.3 365.02,-337.2 365.02,-334.1 365.02,-334.1 365.02,-327.9 365.02,-327.9 365.02,-324.8 368.12,-321.7 371.22,-321.7 371.22,-321.7 412.82,-321.7 412.82,-321.7 415.92,-321.7 419.02,-324.8 419.02,-327.9 419.02,-327.9 419.02,-334.1 419.02,-334.1 419.02,-337.2 415.92,-340.3 412.82,-340.3"/>
<text text-anchor="middle" x="392.02" y="-328.3" font-family="Helvetica,sans-Serif" font-size="9.00">save.js</text>
</a>
</g>
</g>
<!-- data&#45;access/save.js&#45;&gt;data&#45;access/local&#45;storage/state.js -->
<g id="edge15" class="edge">
<title>data&#45;access/save.js&#45;&gt;data&#45;access/local&#45;storage/state.js</title>
<path fill="none" stroke="#000000" stroke-width="2" stroke-opacity="0.200000" d="M419.43,-332.03C425.16,-332.26 431.29,-332.5 437.23,-332.73"/>
<polygon fill="#000000" fill-opacity="0.200000" stroke="#000000" stroke-width="2" stroke-opacity="0.200000" points="437.49,-334.84 443.57,-332.98 437.65,-330.64 437.49,-334.84"/>
</g>
<!-- data&#45;access/save.js&#45;&gt;data&#45;access/local&#45;storage/set&#45;item.js -->
<g id="edge14" class="edge">
<title>data&#45;access/save.js&#45;&gt;data&#45;access/local&#45;storage/set&#45;item.js</title>
<path fill="none" stroke="#000000" stroke-width="2" stroke-opacity="0.200000" d="M406.95,-340.35C412.87,-343.79 420.02,-347.26 427.02,-349 461.42,-357.54 472.4,-357.67 506.77,-349 518.74,-345.98 530.95,-339.61 540.52,-333.71"/>
<polygon fill="#000000" fill-opacity="0.200000" stroke="#000000" stroke-width="2" stroke-opacity="0.200000" points="541.91,-335.32 545.84,-330.32 539.65,-331.78 541.91,-335.32"/>
</g>
<!-- data&#45;access/utils/is&#45;json&#45;data.js -->
<g id="node11" class="node">
<title>data&#45;access/utils/is&#45;json&#45;data.js</title>
<g id="a_node11"><a xlink:href="data-access/utils/is-json-data.js" xlink:title="is&#45;json&#45;data.js">
<path fill="#ffffcc" stroke="black" d="M500.07,-238.3C500.07,-238.3 441.46,-238.3 441.46,-238.3 438.36,-238.3 435.26,-235.2 435.26,-232.1 435.26,-232.1 435.26,-225.9 435.26,-225.9 435.26,-222.8 438.36,-219.7 441.46,-219.7 441.46,-219.7 500.07,-219.7 500.07,-219.7 503.17,-219.7 506.27,-222.8 506.27,-225.9 506.27,-225.9 506.27,-232.1 506.27,-232.1 506.27,-235.2 503.17,-238.3 500.07,-238.3"/>
<text text-anchor="middle" x="470.77" y="-226.3" font-family="Helvetica,sans-Serif" font-size="9.00">is&#45;json&#45;data.js</text>
</a>
</g>
</g>
<!-- data&#45;access/save.js&#45;&gt;data&#45;access/utils/is&#45;json&#45;data.js -->
<g id="edge16" class="edge">
<title>data&#45;access/save.js&#45;&gt;data&#45;access/utils/is&#45;json&#45;data.js</title>
<path fill="none" stroke="#000000" stroke-width="2" stroke-opacity="0.200000" d="M410.67,-321.61C413.87,-319.19 416.87,-316.32 419.02,-313 429.58,-296.68 417.78,-287.1 427.02,-270 432.87,-259.16 442.61,-249.48 451.31,-242.26"/>
<polygon fill="#000000" fill-opacity="0.200000" stroke="#000000" stroke-width="2" stroke-opacity="0.200000" points="452.64,-243.89 456.01,-238.51 450.01,-240.61 452.64,-243.89"/>
</g>
<!-- data&#45;access/utils/is&#45;json&#45;data.js&#45;&gt;data&#45;access/utils/is&#45;plain&#45;object.js -->
<g id="edge17" class="edge">
<title>data&#45;access/utils/is&#45;json&#45;data.js&#45;&gt;data&#45;access/utils/is&#45;plain&#45;object.js</title>
<path fill="none" stroke="#000000" stroke-width="2" stroke-opacity="0.200000" d="M506.4,-229C508.67,-229 510.97,-229 513.27,-229"/>
<polygon fill="#000000" fill-opacity="0.200000" stroke="#000000" stroke-width="2" stroke-opacity="0.200000" points="513.38,-231.1 519.38,-229 513.38,-226.9 513.38,-231.1"/>
</g>
<!-- separated/welcome/business&#45;logic/be&#45;welcoming.js -->
<g id="node12" class="node">
<title>separated/welcome/business&#45;logic/be&#45;welcoming.js</title>
<g id="a_node12"><a xlink:href="separated/welcome/business-logic/be-welcoming.js" xlink:title="be&#45;welcoming.js">
<path fill="#ffffcc" stroke="black" d="M300.82,-371.3C300.82,-371.3 233.22,-371.3 233.22,-371.3 230.12,-371.3 227.02,-368.2 227.02,-365.1 227.02,-365.1 227.02,-358.9 227.02,-358.9 227.02,-355.8 230.12,-352.7 233.22,-352.7 233.22,-352.7 300.82,-352.7 300.82,-352.7 303.92,-352.7 307.02,-355.8 307.02,-358.9 307.02,-358.9 307.02,-365.1 307.02,-365.1 307.02,-368.2 303.92,-371.3 300.82,-371.3"/>
<text text-anchor="middle" x="267.02" y="-359.3" font-family="Helvetica,sans-Serif" font-size="9.00">be&#45;welcoming.js</text>
</a>
</g>
</g>
<!-- separated/welcome/business&#45;logic/be&#45;welcoming.js&#45;&gt;data&#45;access/find.js -->
<g id="edge18" class="edge">
<title>separated/welcome/business&#45;logic/be&#45;welcoming.js&#45;&gt;data&#45;access/find.js</title>
<path fill="none" stroke="#000000" stroke-width="2" stroke-opacity="0.200000" d="M307.27,-362C323.91,-362 343.05,-362 358.83,-362"/>
<polygon fill="#000000" fill-opacity="0.200000" stroke="#000000" stroke-width="2" stroke-opacity="0.200000" points="358.92,-364.1 364.92,-362 358.92,-359.9 358.92,-364.1"/>
</g>
<!-- separated/welcome/business&#45;logic/initialize&#45;state.js -->
<g id="node13" class="node">
<title>separated/welcome/business&#45;logic/initialize&#45;state.js</title>
<g id="a_node13"><a xlink:href="separated/welcome/business-logic/initialize-state.js" xlink:title="initialize&#45;state.js">
<path fill="#ffffcc" stroke="black" d="M300.82,-402.3C300.82,-402.3 233.22,-402.3 233.22,-402.3 230.12,-402.3 227.02,-399.2 227.02,-396.1 227.02,-396.1 227.02,-389.9 227.02,-389.9 227.02,-386.8 230.12,-383.7 233.22,-383.7 233.22,-383.7 300.82,-383.7 300.82,-383.7 303.92,-383.7 307.02,-386.8 307.02,-389.9 307.02,-389.9 307.02,-396.1 307.02,-396.1 307.02,-399.2 303.92,-402.3 300.82,-402.3"/>
<text text-anchor="middle" x="267.02" y="-390.3" font-family="Helvetica,sans-Serif" font-size="9.00">initialize&#45;state.js</text>
</a>
</g>
</g>
<!-- separated/welcome/business&#45;logic/initialize&#45;state.js&#45;&gt;data&#45;access/load.js -->
<g id="edge19" class="edge">
<title>separated/welcome/business&#45;logic/initialize&#45;state.js&#45;&gt;data&#45;access/load.js</title>
<path fill="none" stroke="#000000" stroke-width="2" stroke-opacity="0.200000" d="M306.9,-394.51C322.06,-392.99 338.33,-388.4 349.02,-377 367.72,-357.05 341.42,-338.46 357.02,-316 358.2,-314.3 359.59,-312.75 361.13,-311.33"/>
<polygon fill="#000000" fill-opacity="0.200000" stroke="#000000" stroke-width="2" stroke-opacity="0.200000" points="362.64,-312.82 366.1,-307.48 360.07,-309.49 362.64,-312.82"/>
</g>
<!-- separated/welcome/business&#45;logic/update&#45;greeting.js -->
<g id="node14" class="node">
<title>separated/welcome/business&#45;logic/update&#45;greeting.js</title>
<g id="a_node14"><a xlink:href="separated/welcome/business-logic/update-greeting.js" xlink:title="update&#45;greeting.js">
<path fill="#ffffcc" stroke="black" d="M304.84,-340.3C304.84,-340.3 229.2,-340.3 229.2,-340.3 226.1,-340.3 223,-337.2 223,-334.1 223,-334.1 223,-327.9 223,-327.9 223,-324.8 226.1,-321.7 229.2,-321.7 229.2,-321.7 304.84,-321.7 304.84,-321.7 307.94,-321.7 311.04,-324.8 311.04,-327.9 311.04,-327.9 311.04,-334.1 311.04,-334.1 311.04,-337.2 307.94,-340.3 304.84,-340.3"/>
<text text-anchor="middle" x="267.02" y="-328.3" font-family="Helvetica,sans-Serif" font-size="9.00">update&#45;greeting.js</text>
</a>
</g>
</g>
<!-- separated/welcome/business&#45;logic/update&#45;greeting.js&#45;&gt;data&#45;access/save.js -->
<g id="edge20" class="edge">
<title>separated/welcome/business&#45;logic/update&#45;greeting.js&#45;&gt;data&#45;access/save.js</title>
<path fill="none" stroke="#000000" stroke-width="2" stroke-opacity="0.200000" d="M311.04,-331C326.68,-331 344.07,-331 358.64,-331"/>
<polygon fill="#000000" fill-opacity="0.200000" stroke="#000000" stroke-width="2" stroke-opacity="0.200000" points="358.69,-333.1 364.69,-331 358.69,-328.9 358.69,-333.1"/>
</g>
<!-- separated/welcome/business&#45;logic/update&#45;message.js -->
<g id="node15" class="node">
<title>separated/welcome/business&#45;logic/update&#45;message.js</title>
<g id="a_node15"><a xlink:href="separated/welcome/business-logic/update-message.js" xlink:title="update&#45;message.js">
<path fill="#ffffcc" stroke="black" d="M306.84,-309.3C306.84,-309.3 227.2,-309.3 227.2,-309.3 224.1,-309.3 221,-306.2 221,-303.1 221,-303.1 221,-296.9 221,-296.9 221,-293.8 224.1,-290.7 227.2,-290.7 227.2,-290.7 306.84,-290.7 306.84,-290.7 309.94,-290.7 313.04,-293.8 313.04,-296.9 313.04,-296.9 313.04,-303.1 313.04,-303.1 313.04,-306.2 309.94,-309.3 306.84,-309.3"/>
<text text-anchor="middle" x="267.02" y="-297.3" font-family="Helvetica,sans-Serif" font-size="9.00">update&#45;message.js</text>
</a>
</g>
</g>
<!-- separated/welcome/business&#45;logic/update&#45;message.js&#45;&gt;data&#45;access/save.js -->
<g id="edge21" class="edge">
<title>separated/welcome/business&#45;logic/update&#45;message.js&#45;&gt;data&#45;access/save.js</title>
<path fill="none" stroke="#000000" stroke-width="2" stroke-opacity="0.200000" d="M313.28,-307.71C325,-310.04 337.55,-312.84 349.02,-316 352.93,-317.08 357,-318.34 361,-319.67"/>
<polygon fill="#000000" fill-opacity="0.200000" stroke="#000000" stroke-width="2" stroke-opacity="0.200000" points="360.43,-321.7 366.78,-321.66 361.79,-317.73 360.43,-321.7"/>
</g>
<!-- separated/welcome/presentations/isolate/src/controllers/edit&#45;greeting.js -->
<g id="node16" class="node">
<title>separated/welcome/presentations/isolate/src/controllers/edit&#45;greeting.js</title>
<g id="a_node16"><a xlink:href="separated/welcome/presentations/isolate/src/controllers/edit-greeting.js" xlink:title="edit&#45;greeting.js">
<path fill="#ffffcc" stroke="black" d="M188.81,-105.3C188.81,-105.3 126.2,-105.3 126.2,-105.3 123.1,-105.3 120,-102.2 120,-99.1 120,-99.1 120,-92.9 120,-92.9 120,-89.8 123.1,-86.7 126.2,-86.7 126.2,-86.7 188.81,-86.7 188.81,-86.7 191.91,-86.7 195.01,-89.8 195.01,-92.9 195.01,-92.9 195.01,-99.1 195.01,-99.1 195.01,-102.2 191.91,-105.3 188.81,-105.3"/>
<text text-anchor="middle" x="157.5" y="-93.3" font-family="Helvetica,sans-Serif" font-size="9.00">edit&#45;greeting.js</text>
</a>
</g>
</g>
<!-- separated/welcome/presentations/isolate/src/controllers/edit&#45;greeting.js&#45;&gt;separated/welcome/business&#45;logic/update&#45;greeting.js -->
<g id="edge22" class="edge">
<title>separated/welcome/presentations/isolate/src/controllers/edit&#45;greeting.js&#45;&gt;separated/welcome/business&#45;logic/update&#45;greeting.js</title>
<path fill="none" stroke="#000000" stroke-width="2" stroke-opacity="0.200000" d="M195.43,-103.75C199.13,-105.88 202.46,-108.57 205.01,-112 218.48,-130.11 199.19,-297.15 213.01,-315 214.44,-316.86 216.09,-318.51 217.89,-319.97"/>
<polygon fill="#000000" fill-opacity="0.200000" stroke="#000000" stroke-width="2" stroke-opacity="0.200000" points="216.84,-321.8 222.99,-323.42 219.2,-318.32 216.84,-321.8"/>
</g>
<!-- separated/welcome/presentations/isolate/src/views/info.js -->
<g id="node17" class="node">
<title>separated/welcome/presentations/isolate/src/views/info.js</title>
<g id="a_node17"><a xlink:href="separated/welcome/presentations/isolate/src/views/info.js" xlink:title="info.js">
<path fill="#ffffcc" stroke="black" d="M287.82,-74.3C287.82,-74.3 246.22,-74.3 246.22,-74.3 243.12,-74.3 240.02,-71.2 240.02,-68.1 240.02,-68.1 240.02,-61.9 240.02,-61.9 240.02,-58.8 243.12,-55.7 246.22,-55.7 246.22,-55.7 287.82,-55.7 287.82,-55.7 290.92,-55.7 294.02,-58.8 294.02,-61.9 294.02,-61.9 294.02,-68.1 294.02,-68.1 294.02,-71.2 290.92,-74.3 287.82,-74.3"/>
<text text-anchor="middle" x="267.02" y="-62.3" font-family="Helvetica,sans-Serif" font-size="9.00">info.js</text>
</a>
</g>
</g>
<!-- separated/welcome/presentations/isolate/src/controllers/edit&#45;greeting.js&#45;&gt;separated/welcome/presentations/isolate/src/views/info.js -->
<g id="edge23" class="edge">
<title>separated/welcome/presentations/isolate/src/controllers/edit&#45;greeting.js&#45;&gt;separated/welcome/presentations/isolate/src/views/info.js</title>
<path fill="none" stroke="#000000" stroke-width="2" stroke-opacity="0.200000" d="M191.05,-86.61C204.56,-82.72 220.19,-78.21 233.68,-74.32"/>
<polygon fill="#000000" fill-opacity="0.200000" stroke="#000000" stroke-width="2" stroke-opacity="0.200000" points="234.52,-76.27 239.71,-72.59 233.36,-72.23 234.52,-76.27"/>
</g>
<!-- separated/welcome/presentations/isolate/src/views/warning.js -->
<g id="node18" class="node">
<title>separated/welcome/presentations/isolate/src/views/warning.js</title>
<g id="a_node18"><a xlink:href="separated/welcome/presentations/isolate/src/views/warning.js" xlink:title="warning.js">
<path fill="#ffffcc" stroke="black" d="M288.82,-105.3C288.82,-105.3 245.21,-105.3 245.21,-105.3 242.11,-105.3 239.01,-102.2 239.01,-99.1 239.01,-99.1 239.01,-92.9 239.01,-92.9 239.01,-89.8 242.11,-86.7 245.21,-86.7 245.21,-86.7 288.82,-86.7 288.82,-86.7 291.92,-86.7 295.02,-89.8 295.02,-92.9 295.02,-92.9 295.02,-99.1 295.02,-99.1 295.02,-102.2 291.92,-105.3 288.82,-105.3"/>
<text text-anchor="middle" x="267.02" y="-93.3" font-family="Helvetica,sans-Serif" font-size="9.00">warning.js</text>
</a>
</g>
</g>
<!-- separated/welcome/presentations/isolate/src/controllers/edit&#45;greeting.js&#45;&gt;separated/welcome/presentations/isolate/src/views/warning.js -->
<g id="edge24" class="edge">
<title>separated/welcome/presentations/isolate/src/controllers/edit&#45;greeting.js&#45;&gt;separated/welcome/presentations/isolate/src/views/warning.js</title>
<path fill="none" stroke="#000000" stroke-width="2" stroke-opacity="0.200000" d="M195.2,-96C207.43,-96 220.97,-96 232.9,-96"/>
<polygon fill="#000000" fill-opacity="0.200000" stroke="#000000" stroke-width="2" stroke-opacity="0.200000" points="232.98,-98.1 238.98,-96 232.98,-93.9 232.98,-98.1"/>
</g>
<!-- separated/welcome/presentations/isolate/src/controllers/edit&#45;message.js -->
<g id="node19" class="node">
<title>separated/welcome/presentations/isolate/src/controllers/edit&#45;message.js</title>
<g id="a_node19"><a xlink:href="separated/welcome/presentations/isolate/src/controllers/edit-message.js" xlink:title="edit&#45;message.js">
<path fill="#ffffcc" stroke="black" d="M190.81,-74.3C190.81,-74.3 124.2,-74.3 124.2,-74.3 121.1,-74.3 118,-71.2 118,-68.1 118,-68.1 118,-61.9 118,-61.9 118,-58.8 121.1,-55.7 124.2,-55.7 124.2,-55.7 190.81,-55.7 190.81,-55.7 193.91,-55.7 197.01,-58.8 197.01,-61.9 197.01,-61.9 197.01,-68.1 197.01,-68.1 197.01,-71.2 193.91,-74.3 190.81,-74.3"/>
<text text-anchor="middle" x="157.5" y="-62.3" font-family="Helvetica,sans-Serif" font-size="9.00">edit&#45;message.js</text>
</a>
</g>
</g>
<!-- separated/welcome/presentations/isolate/src/controllers/edit&#45;message.js&#45;&gt;separated/welcome/business&#45;logic/update&#45;message.js -->
<g id="edge25" class="edge">
<title>separated/welcome/presentations/isolate/src/controllers/edit&#45;message.js&#45;&gt;separated/welcome/business&#45;logic/update&#45;message.js</title>
<path fill="none" stroke="#000000" stroke-width="2" stroke-opacity="0.200000" d="M197.01,-73.94C200.05,-75.86 202.79,-78.18 205.01,-81 216.74,-95.91 208.58,-147.55 213.01,-166 223.76,-210.86 246.52,-260.61 258.42,-284.94"/>
<polygon fill="#000000" fill-opacity="0.200000" stroke="#000000" stroke-width="2" stroke-opacity="0.200000" points="256.65,-286.1 261.19,-290.55 260.42,-284.24 256.65,-286.1"/>
</g>
<!-- separated/welcome/presentations/isolate/src/controllers/edit&#45;message.js&#45;&gt;separated/welcome/presentations/isolate/src/views/info.js -->
<g id="edge26" class="edge">
<title>separated/welcome/presentations/isolate/src/controllers/edit&#45;message.js&#45;&gt;separated/welcome/presentations/isolate/src/views/info.js</title>
<path fill="none" stroke="#000000" stroke-width="2" stroke-opacity="0.200000" d="M197.01,-65C209.01,-65 222.12,-65 233.65,-65"/>
<polygon fill="#000000" fill-opacity="0.200000" stroke="#000000" stroke-width="2" stroke-opacity="0.200000" points="233.88,-67.1 239.88,-65 233.88,-62.9 233.88,-67.1"/>
</g>
<!-- separated/welcome/presentations/isolate/src/controllers/edit&#45;message.js&#45;&gt;separated/welcome/presentations/isolate/src/views/warning.js -->
<g id="edge27" class="edge">
<title>separated/welcome/presentations/isolate/src/controllers/edit&#45;message.js&#45;&gt;separated/welcome/presentations/isolate/src/views/warning.js</title>
<path fill="none" stroke="#000000" stroke-width="2" stroke-opacity="0.200000" d="M191.05,-74.39C204.34,-78.22 219.7,-82.64 233.03,-86.49"/>
<polygon fill="#000000" fill-opacity="0.200000" stroke="#000000" stroke-width="2" stroke-opacity="0.200000" points="232.66,-88.57 239,-88.21 233.82,-84.53 232.66,-88.57"/>
</g>
<!-- separated/welcome/presentations/isolate/src/controllers/initialize.js -->
<g id="node20" class="node">
<title>separated/welcome/presentations/isolate/src/controllers/initialize.js</title>
<g id="a_node20"><a xlink:href="separated/welcome/presentations/isolate/src/controllers/initialize.js" xlink:title="initialize.js">
<path fill="#ffffcc" stroke="black" d="M179.8,-167.3C179.8,-167.3 135.21,-167.3 135.21,-167.3 132.11,-167.3 129.01,-164.2 129.01,-161.1 129.01,-161.1 129.01,-154.9 129.01,-154.9 129.01,-151.8 132.11,-148.7 135.21,-148.7 135.21,-148.7 179.8,-148.7 179.8,-148.7 182.9,-148.7 186,-151.8 186,-154.9 186,-154.9 186,-161.1 186,-161.1 186,-164.2 182.9,-167.3 179.8,-167.3"/>
<text text-anchor="middle" x="157.5" y="-155.3" font-family="Helvetica,sans-Serif" font-size="9.00">initialize.js</text>
</a>
</g>
</g>
<!-- separated/welcome/presentations/isolate/src/controllers/initialize.js&#45;&gt;separated/welcome/business&#45;logic/initialize&#45;state.js -->
<g id="edge28" class="edge">
<title>separated/welcome/presentations/isolate/src/controllers/initialize.js&#45;&gt;separated/welcome/business&#45;logic/initialize&#45;state.js</title>
<path fill="none" stroke="#000000" stroke-width="2" stroke-opacity="0.200000" d="M159.61,-167.4C164.23,-205.21 183.16,-345.64 213.01,-377 215.45,-379.57 218.29,-381.73 221.36,-383.54"/>
<polygon fill="#000000" fill-opacity="0.200000" stroke="#000000" stroke-width="2" stroke-opacity="0.200000" points="220.8,-385.61 227.1,-386.46 222.7,-381.87 220.8,-385.61"/>
</g>
<!-- separated/welcome/presentations/isolate/src/controllers/welcome.js -->
<g id="node21" class="node">
<title>separated/welcome/presentations/isolate/src/controllers/welcome.js</title>
<g id="a_node21"><a xlink:href="separated/welcome/presentations/isolate/src/controllers/welcome.js" xlink:title="welcome.js">
<path fill="#ffffcc" stroke="black" d="M181.8,-136.3C181.8,-136.3 133.2,-136.3 133.2,-136.3 130.1,-136.3 127,-133.2 127,-130.1 127,-130.1 127,-123.9 127,-123.9 127,-120.8 130.1,-117.7 133.2,-117.7 133.2,-117.7 181.8,-117.7 181.8,-117.7 184.9,-117.7 188,-120.8 188,-123.9 188,-123.9 188,-130.1 188,-130.1 188,-133.2 184.9,-136.3 181.8,-136.3"/>
<text text-anchor="middle" x="157.5" y="-124.3" font-family="Helvetica,sans-Serif" font-size="9.00">welcome.js</text>
</a>
</g>
</g>
<!-- separated/welcome/presentations/isolate/src/controllers/welcome.js&#45;&gt;separated/welcome/business&#45;logic/be&#45;welcoming.js -->
<g id="edge29" class="edge">
<title>separated/welcome/presentations/isolate/src/controllers/welcome.js&#45;&gt;separated/welcome/business&#45;logic/be&#45;welcoming.js</title>
<path fill="none" stroke="#000000" stroke-width="2" stroke-opacity="0.200000" d="M187.96,-131.34C194.56,-133.72 200.83,-137.38 205.01,-143 218.48,-161.11 199.19,-328.15 213.01,-346 215.36,-349.04 218.28,-351.53 221.52,-353.55"/>
<polygon fill="#000000" fill-opacity="0.200000" stroke="#000000" stroke-width="2" stroke-opacity="0.200000" points="220.56,-355.42 226.85,-356.37 222.52,-351.71 220.56,-355.42"/>
</g>
<!-- separated/welcome/presentations/isolate/src/views/pretty&#45;print.js -->
<g id="node22" class="node">
<title>separated/welcome/presentations/isolate/src/views/pretty&#45;print.js</title>
<g id="a_node22"><a xlink:href="separated/welcome/presentations/isolate/src/views/pretty-print.js" xlink:title="pretty&#45;print.js">
<path fill="#ffffcc" stroke="black" d="M294.82,-136.3C294.82,-136.3 239.22,-136.3 239.22,-136.3 236.12,-136.3 233.02,-133.2 233.02,-130.1 233.02,-130.1 233.02,-123.9 233.02,-123.9 233.02,-120.8 236.12,-117.7 239.22,-117.7 239.22,-117.7 294.82,-117.7 294.82,-117.7 297.92,-117.7 301.02,-120.8 301.02,-123.9 301.02,-123.9 301.02,-130.1 301.02,-130.1 301.02,-133.2 297.92,-136.3 294.82,-136.3"/>
<text text-anchor="middle" x="267.02" y="-124.3" font-family="Helvetica,sans-Serif" font-size="9.00">pretty&#45;print.js</text>
</a>
</g>
</g>
<!-- separated/welcome/presentations/isolate/src/controllers/welcome.js&#45;&gt;separated/welcome/presentations/isolate/src/views/pretty&#45;print.js -->
<g id="edge30" class="edge">
<title>separated/welcome/presentations/isolate/src/controllers/welcome.js&#45;&gt;separated/welcome/presentations/isolate/src/views/pretty&#45;print.js</title>
<path fill="none" stroke="#000000" stroke-width="2" stroke-opacity="0.200000" d="M187.88,-127C199.85,-127 213.86,-127 226.69,-127"/>
<polygon fill="#000000" fill-opacity="0.200000" stroke="#000000" stroke-width="2" stroke-opacity="0.200000" points="226.88,-129.1 232.88,-127 226.88,-124.9 226.88,-129.1"/>
</g>
<!-- separated/welcome/presentations/isolate/src/init.js -->
<g id="node23" class="node">
<title>separated/welcome/presentations/isolate/src/init.js</title>
<g id="a_node23"><a xlink:href="separated/welcome/presentations/isolate/src/init.js" xlink:title="init.js">
<path fill="#ffffcc" stroke="black" d="M95.8,-120.3C95.8,-120.3 54.2,-120.3 54.2,-120.3 51.1,-120.3 48,-117.2 48,-114.1 48,-114.1 48,-107.9 48,-107.9 48,-104.8 51.1,-101.7 54.2,-101.7 54.2,-101.7 95.8,-101.7 95.8,-101.7 98.9,-101.7 102,-104.8 102,-107.9 102,-107.9 102,-114.1 102,-114.1 102,-117.2 98.9,-120.3 95.8,-120.3"/>
<text text-anchor="middle" x="75" y="-108.3" font-family="Helvetica,sans-Serif" font-size="9.00">init.js</text>
</a>
</g>
</g>
<!-- separated/welcome/presentations/isolate/src/init.js&#45;&gt;separated/welcome/presentations/isolate/src/controllers/edit&#45;greeting.js -->
<g id="edge31" class="edge">
<title>separated/welcome/presentations/isolate/src/init.js&#45;&gt;separated/welcome/presentations/isolate/src/controllers/edit&#45;greeting.js</title>
<path fill="none" stroke="#000000" stroke-width="2" stroke-opacity="0.200000" d="M102.36,-106.09C106.03,-105.4 109.88,-104.69 113.76,-103.96"/>
<polygon fill="#000000" fill-opacity="0.200000" stroke="#000000" stroke-width="2" stroke-opacity="0.200000" points="114.34,-105.99 119.86,-102.83 113.57,-101.86 114.34,-105.99"/>
</g>
<!-- separated/welcome/presentations/isolate/src/init.js&#45;&gt;separated/welcome/presentations/isolate/src/controllers/edit&#45;message.js -->
<g id="edge32" class="edge">
<title>separated/welcome/presentations/isolate/src/init.js&#45;&gt;separated/welcome/presentations/isolate/src/controllers/edit&#45;message.js</title>
<path fill="none" stroke="#000000" stroke-width="2" stroke-opacity="0.200000" d="M84.75,-101.52C91.2,-95 100.48,-86.54 110,-81 112.54,-79.52 115.24,-78.15 118.01,-76.89"/>
<polygon fill="#000000" fill-opacity="0.200000" stroke="#000000" stroke-width="2" stroke-opacity="0.200000" points="119.06,-78.72 123.76,-74.44 117.42,-74.85 119.06,-78.72"/>
</g>
<!-- separated/welcome/presentations/isolate/src/init.js&#45;&gt;separated/welcome/presentations/isolate/src/controllers/initialize.js -->
<g id="edge33" class="edge">
<title>separated/welcome/presentations/isolate/src/init.js&#45;&gt;separated/welcome/presentations/isolate/src/controllers/initialize.js</title>
<path fill="none" stroke="#000000" stroke-width="2" stroke-opacity="0.200000" d="M84.42,-120.52C90.85,-127.31 100.24,-136.21 110,-142 114.03,-144.39 118.46,-146.49 122.95,-148.31"/>
<polygon fill="#000000" fill-opacity="0.200000" stroke="#000000" stroke-width="2" stroke-opacity="0.200000" points="122.27,-150.3 128.63,-150.48 123.77,-146.38 122.27,-150.3"/>
</g>
<!-- separated/welcome/presentations/isolate/src/init.js&#45;&gt;separated/welcome/presentations/isolate/src/controllers/welcome.js -->
<g id="edge34" class="edge">
<title>separated/welcome/presentations/isolate/src/init.js&#45;&gt;separated/welcome/presentations/isolate/src/controllers/welcome.js</title>
<path fill="none" stroke="#000000" stroke-width="2" stroke-opacity="0.200000" d="M102.36,-116.24C108.28,-117.41 114.65,-118.68 120.87,-119.92"/>
<polygon fill="#000000" fill-opacity="0.200000" stroke="#000000" stroke-width="2" stroke-opacity="0.200000" points="120.73,-122.03 127.02,-121.14 121.54,-117.91 120.73,-122.03"/>
</g>
</g>
</svg>
