<?xml version="1.0" encoding="UTF-8" standalone="no"?>
<!DOCTYPE svg PUBLIC "-//W3C//DTD SVG 1.1//EN"
 "http://www.w3.org/Graphics/SVG/1.1/DTD/svg11.dtd">
<!-- Generated by graphviz version 2.44.0 (20200408.0750)
 -->
<!-- Title: dependency&#45;cruiser output Pages: 1 -->
<svg width="450pt" height="437pt"
 viewBox="0.00 0.00 450.03 437.00" xmlns="http://www.w3.org/2000/svg" xmlns:xlink="http://www.w3.org/1999/xlink">
<g id="graph0" class="graph" transform="scale(1 1) rotate(0) translate(4 433)">
<title>dependency&#45;cruiser output</title>
<polygon fill="white" stroke="transparent" points="-4,4 -4,-433 446.03,-433 446.03,4 -4,4"/>
<g id="clust1" class="cluster">
<title>cluster_data&#45;access</title>
<path fill="#ffffff" stroke="black" stroke-width="2" d="M369.02,-236C369.02,-236 422.03,-236 422.03,-236 428.03,-236 434.03,-242 434.03,-248 434.03,-248 434.03,-339 434.03,-339 434.03,-345 428.03,-351 422.03,-351 422.03,-351 369.02,-351 369.02,-351 363.02,-351 357.02,-345 357.02,-339 357.02,-339 357.02,-248 357.02,-248 357.02,-242 363.02,-236 369.02,-236"/>
<text text-anchor="middle" x="395.52" y="-338.9" font-family="Helvetica,sans-Serif" font-weight="bold" font-size="9.00">data&#45;access</text>
</g>
<g id="clust2" class="cluster">
<title>cluster_separated</title>
<path fill="#ffffff" stroke="black" stroke-width="2" d="M20,-8C20,-8 337.02,-8 337.02,-8 343.02,-8 349.02,-14 349.02,-20 349.02,-20 349.02,-409 349.02,-409 349.02,-415 343.02,-421 337.02,-421 337.02,-421 20,-421 20,-421 14,-421 8,-415 8,-409 8,-409 8,-20 8,-20 8,-14 14,-8 20,-8"/>
<text text-anchor="middle" x="178.51" y="-408.9" font-family="Helvetica,sans-Serif" font-weight="bold" font-size="9.00">separated</text>
</g>
<g id="clust3" class="cluster">
<title>cluster_separated/welcome</title>
<path fill="#ffffff" stroke="black" stroke-width="2" d="M28,-16C28,-16 329.02,-16 329.02,-16 335.02,-16 341.02,-22 341.02,-28 341.02,-28 341.02,-382 341.02,-382 341.02,-388 335.02,-394 329.02,-394 329.02,-394 28,-394 28,-394 22,-394 16,-388 16,-382 16,-382 16,-28 16,-28 16,-22 22,-16 28,-16"/>
<text text-anchor="middle" x="178.51" y="-381.9" font-family="Helvetica,sans-Serif" font-weight="bold" font-size="9.00">welcome</text>
</g>
<g id="clust4" class="cluster">
<title>cluster_separated/welcome/business&#45;logic</title>
<path fill="#ffffff" stroke="black" stroke-width="2" d="M225.01,-252C225.01,-252 309.03,-252 309.03,-252 315.03,-252 321.03,-258 321.03,-264 321.03,-264 321.03,-355 321.03,-355 321.03,-361 315.03,-367 309.03,-367 309.03,-367 225.01,-367 225.01,-367 219.01,-367 213.01,-361 213.01,-355 213.01,-355 213.01,-264 213.01,-264 213.01,-258 219.01,-252 225.01,-252"/>
<text text-anchor="middle" x="267.02" y="-354.9" font-family="Helvetica,sans-Serif" font-weight="bold" font-size="9.00">business&#45;logic</text>
</g>
<g id="clust5" class="cluster">
<title>cluster_separated/welcome/data</title>
<path fill="#ffffff" stroke="black" stroke-width="2" d="M134.5,-252C134.5,-252 180.5,-252 180.5,-252 186.5,-252 192.5,-258 192.5,-264 192.5,-264 192.5,-293 192.5,-293 192.5,-299 186.5,-305 180.5,-305 180.5,-305 134.5,-305 134.5,-305 128.5,-305 122.5,-299 122.5,-293 122.5,-293 122.5,-264 122.5,-264 122.5,-258 128.5,-252 134.5,-252"/>
<text text-anchor="middle" x="157.5" y="-292.9" font-family="Helvetica,sans-Serif" font-weight="bold" font-size="9.00">data</text>
</g>
<g id="clust6" class="cluster">
<title>cluster_separated/welcome/presentations</title>
<path fill="#ffffff" stroke="black" stroke-width="2" d="M36,-24C36,-24 321.02,-24 321.02,-24 327.02,-24 333.02,-30 333.02,-36 333.02,-36 333.02,-232 333.02,-232 333.02,-238 327.02,-244 321.02,-244 321.02,-244 36,-244 36,-244 30,-244 24,-238 24,-232 24,-232 24,-36 24,-36 24,-30 30,-24 36,-24"/>
<text text-anchor="middle" x="178.51" y="-231.9" font-family="Helvetica,sans-Serif" font-weight="bold" font-size="9.00">presentations</text>
</g>
<g id="clust7" class="cluster">
<title>cluster_separated/welcome/presentations/isolate</title>
<path fill="#ffffff" stroke="black" stroke-width="2" d="M44,-32C44,-32 313.02,-32 313.02,-32 319.02,-32 325.02,-38 325.02,-44 325.02,-44 325.02,-205 325.02,-205 325.02,-211 319.02,-217 313.02,-217 313.02,-217 44,-217 44,-217 38,-217 32,-211 32,-205 32,-205 32,-44 32,-44 32,-38 38,-32 44,-32"/>
<text text-anchor="middle" x="178.51" y="-204.9" font-family="Helvetica,sans-Serif" font-weight="bold" font-size="9.00">isolate</text>
</g>
<g id="clust8" class="cluster">
<title>cluster_separated/welcome/presentations/isolate/src</title>
<path fill="#ffffff" stroke="black" stroke-width="2" d="M52,-40C52,-40 305.02,-40 305.02,-40 311.02,-40 317.02,-46 317.02,-52 317.02,-52 317.02,-178 317.02,-178 317.02,-184 311.02,-190 305.02,-190 305.02,-190 52,-190 52,-190 46,-190 40,-184 40,-178 40,-178 40,-52 40,-52 40,-46 46,-40 52,-40"/>
<text text-anchor="middle" x="178.51" y="-177.9" font-family="Helvetica,sans-Serif" font-weight="bold" font-size="9.00">src</text>
</g>
<g id="clust9" class="cluster">
<title>cluster_separated/welcome/presentations/isolate/src/controllers</title>
<path fill="#ffffff" stroke="black" stroke-width="2" d="M122,-48C122,-48 193.01,-48 193.01,-48 199.01,-48 205.01,-54 205.01,-60 205.01,-60 205.01,-151 205.01,-151 205.01,-157 199.01,-163 193.01,-163 193.01,-163 122,-163 122,-163 116,-163 110,-157 110,-151 110,-151 110,-60 110,-60 110,-54 116,-48 122,-48"/>
<text text-anchor="middle" x="157.5" y="-150.9" font-family="Helvetica,sans-Serif" font-weight="bold" font-size="9.00">controllers</text>
</g>
<g id="clust10" class="cluster">
<title>cluster_separated/welcome/presentations/isolate/src/views</title>
<path fill="#ffffff" stroke="black" stroke-width="2" d="M237.02,-48C237.02,-48 297.02,-48 297.02,-48 303.02,-48 309.02,-54 309.02,-60 309.02,-60 309.02,-151 309.02,-151 309.02,-157 303.02,-163 297.02,-163 297.02,-163 237.02,-163 237.02,-163 231.02,-163 225.02,-157 225.02,-151 225.02,-151 225.02,-60 225.02,-60 225.02,-54 231.02,-48 237.02,-48"/>
<text text-anchor="middle" x="267.02" y="-150.9" font-family="Helvetica,sans-Serif" font-weight="bold" font-size="9.00">views</text>
</g>
<!-- data&#45;access/initialize.js -->
<g id="node1" class="node">
<title>data&#45;access/initialize.js</title>
<g id="a_node1"><a xlink:href="data-access/initialize.js" xlink:title="initialize.js">
<polygon fill="#ffffcc" stroke="black" points="424.02,-262.3 422.46,-264.37 411.61,-264.37 410.06,-262.3 367.03,-262.3 367.03,-243.7 424.02,-243.7 424.02,-262.3"/>
<text text-anchor="middle" x="395.52" y="-250.3" font-family="Helvetica,sans-Serif" font-size="9.00">initialize.js</text>
</a>
</g>
</g>
<!-- data&#45;access/read&#45;one.js -->
<g id="node2" class="node">
<title>data&#45;access/read&#45;one.js</title>
<g id="a_node2"><a xlink:href="data-access/find.js" xlink:title="read&#45;one.js">
<polygon fill="#ffffcc" stroke="black" points="426.03,-324.3 424.48,-326.37 413.63,-326.37 412.08,-324.3 365.01,-324.3 365.01,-305.7 426.03,-305.7 426.03,-324.3"/>
<text text-anchor="middle" x="395.52" y="-312.3" font-family="Helvetica,sans-Serif" font-size="9.00">read&#45;one.js</text>
</a>
</g>
</g>
<!-- data&#45;access/update.js -->
<g id="node3" class="node">
<title>data&#45;access/update.js</title>
<g id="a_node3"><a xlink:href="data-access/save.js" xlink:title="update.js">
<polygon fill="#ffffcc" stroke="black" points="422.52,-293.3 420.97,-295.37 410.12,-295.37 408.57,-293.3 368.52,-293.3 368.52,-274.7 422.52,-274.7 422.52,-293.3"/>
<text text-anchor="middle" x="395.52" y="-281.3" font-family="Helvetica,sans-Serif" font-size="9.00">update.js</text>
</a>
</g>
</g>
<!-- separated/welcome/business&#45;logic/be&#45;welcoming.js -->
<g id="node4" class="node">
<title>separated/welcome/business&#45;logic/be&#45;welcoming.js</title>
<g id="a_node4"><a xlink:href="separated/welcome/business-logic/be-welcoming.js" xlink:title="be&#45;welcoming.js">
<path fill="#ffffcc" stroke="black" d="M300.82,-340.3C300.82,-340.3 233.22,-340.3 233.22,-340.3 230.12,-340.3 227.02,-337.2 227.02,-334.1 227.02,-334.1 227.02,-327.9 227.02,-327.9 227.02,-324.8 230.12,-321.7 233.22,-321.7 233.22,-321.7 300.82,-321.7 300.82,-321.7 303.92,-321.7 307.02,-324.8 307.02,-327.9 307.02,-327.9 307.02,-334.1 307.02,-334.1 307.02,-337.2 303.92,-340.3 300.82,-340.3"/>
<text text-anchor="middle" x="267.02" y="-328.3" font-family="Helvetica,sans-Serif" font-size="9.00">be&#45;welcoming.js</text>
</a>
</g>
</g>
<!-- separated/welcome/business&#45;logic/be&#45;welcoming.js&#45;&gt;data&#45;access/read&#45;one.js -->
<g id="edge1" class="edge">
<title>separated/welcome/business&#45;logic/be&#45;welcoming.js&#45;&gt;data&#45;access/read&#45;one.js</title>
<path fill="none" stroke="#000000" stroke-width="2" stroke-opacity="0.200000" d="M307.35,-326.03C323.74,-323.95 342.65,-321.56 358.65,-319.54"/>
<polygon fill="#000000" fill-opacity="0.200000" stroke="#000000" stroke-width="2" stroke-opacity="0.200000" points="359.17,-321.59 364.86,-318.75 358.65,-317.42 359.17,-321.59"/>
</g>
<!-- separated/welcome/business&#45;logic/update&#45;greeting.js -->
<g id="node5" class="node">
<title>separated/welcome/business&#45;logic/update&#45;greeting.js</title>
<g id="a_node5"><a xlink:href="separated/welcome/business-logic/update-greeting.js" xlink:title="update&#45;greeting.js">
<path fill="#ffffcc" stroke="black" d="M304.84,-278.3C304.84,-278.3 229.2,-278.3 229.2,-278.3 226.1,-278.3 223,-275.2 223,-272.1 223,-272.1 223,-265.9 223,-265.9 223,-262.8 226.1,-259.7 229.2,-259.7 229.2,-259.7 304.84,-259.7 304.84,-259.7 307.94,-259.7 311.04,-262.8 311.04,-265.9 311.04,-265.9 311.04,-272.1 311.04,-272.1 311.04,-275.2 307.94,-278.3 304.84,-278.3"/>
<text text-anchor="middle" x="267.02" y="-266.3" font-family="Helvetica,sans-Serif" font-size="9.00">update&#45;greeting.js</text>
</a>
</g>
</g>
<!-- separated/welcome/business&#45;logic/update&#45;greeting.js&#45;&gt;data&#45;access/update.js -->
<g id="edge2" class="edge">
<title>separated/welcome/business&#45;logic/update&#45;greeting.js&#45;&gt;data&#45;access/update.js</title>
<path fill="none" stroke="#000000" stroke-width="2" stroke-opacity="0.200000" d="M311.2,-274.12C328.01,-276.11 346.92,-278.36 362.48,-280.2"/>
<polygon fill="#000000" fill-opacity="0.200000" stroke="#000000" stroke-width="2" stroke-opacity="0.200000" points="362.28,-282.29 368.49,-280.91 362.77,-278.12 362.28,-282.29"/>
</g>
<!-- separated/welcome/business&#45;logic/update&#45;message.js -->
<g id="node6" class="node">
<title>separated/welcome/business&#45;logic/update&#45;message.js</title>
<g id="a_node6"><a xlink:href="separated/welcome/business-logic/update-message.js" xlink:title="update&#45;message.js">
<path fill="#ffffcc" stroke="black" d="M306.84,-309.3C306.84,-309.3 227.2,-309.3 227.2,-309.3 224.1,-309.3 221,-306.2 221,-303.1 221,-303.1 221,-296.9 221,-296.9 221,-293.8 224.1,-290.7 227.2,-290.7 227.2,-290.7 306.84,-290.7 306.84,-290.7 309.94,-290.7 313.04,-293.8 313.04,-296.9 313.04,-296.9 313.04,-303.1 313.04,-303.1 313.04,-306.2 309.94,-309.3 306.84,-309.3"/>
<text text-anchor="middle" x="267.02" y="-297.3" font-family="Helvetica,sans-Serif" font-size="9.00">update&#45;message.js</text>
</a>
</g>
</g>
<!-- separated/welcome/business&#45;logic/update&#45;message.js&#45;&gt;data&#45;access/update.js -->
<g id="edge3" class="edge">
<title>separated/welcome/business&#45;logic/update&#45;message.js&#45;&gt;data&#45;access/update.js</title>
<path fill="none" stroke="#000000" stroke-width="2" stroke-opacity="0.200000" d="M313.33,-294.27C329.46,-292.23 347.28,-289.97 362.11,-288.1"/>
<polygon fill="#000000" fill-opacity="0.200000" stroke="#000000" stroke-width="2" stroke-opacity="0.200000" points="362.58,-290.16 368.27,-287.32 362.06,-285.99 362.58,-290.16"/>
</g>
<!-- separated/welcome/data/friendly.js -->
<g id="node7" class="node">
<title>separated/welcome/data/friendly.js</title>
<g id="a_node7"><a xlink:href="separated/welcome/data/friendly.js" xlink:title="friendly.js">
<path fill="#ffffcc" stroke="black" d="M178.3,-278.3C178.3,-278.3 136.7,-278.3 136.7,-278.3 133.6,-278.3 130.5,-275.2 130.5,-272.1 130.5,-272.1 130.5,-265.9 130.5,-265.9 130.5,-262.8 133.6,-259.7 136.7,-259.7 136.7,-259.7 178.3,-259.7 178.3,-259.7 181.4,-259.7 184.5,-262.8 184.5,-265.9 184.5,-265.9 184.5,-272.1 184.5,-272.1 184.5,-275.2 181.4,-278.3 178.3,-278.3"/>
<text text-anchor="middle" x="157.5" y="-266.3" font-family="Helvetica,sans-Serif" font-size="9.00">friendly.js</text>
</a>
</g>
</g>
<!-- separated/welcome/presentations/isolate/src/controllers/edit&#45;greeting.js -->
<g id="node8" class="node">
<title>separated/welcome/presentations/isolate/src/controllers/edit&#45;greeting.js</title>
<g id="a_node8"><a xlink:href="separated/welcome/presentations/isolate/src/controllers/edit-greeting.js" xlink:title="edit&#45;greeting.js">
<path fill="#ffffcc" stroke="black" d="M188.81,-74.3C188.81,-74.3 126.2,-74.3 126.2,-74.3 123.1,-74.3 120,-71.2 120,-68.1 120,-68.1 120,-61.9 120,-61.9 120,-58.8 123.1,-55.7 126.2,-55.7 126.2,-55.7 188.81,-55.7 188.81,-55.7 191.91,-55.7 195.01,-58.8 195.01,-61.9 195.01,-61.9 195.01,-68.1 195.01,-68.1 195.01,-71.2 191.91,-74.3 188.81,-74.3"/>
<text text-anchor="middle" x="157.5" y="-62.3" font-family="Helvetica,sans-Serif" font-size="9.00">edit&#45;greeting.js</text>
</a>
</g>
</g>
<!-- separated/welcome/presentations/isolate/src/controllers/edit&#45;greeting.js&#45;&gt;separated/welcome/business&#45;logic/update&#45;greeting.js -->
<g id="edge4" class="edge">
<title>separated/welcome/presentations/isolate/src/controllers/edit&#45;greeting.js&#45;&gt;separated/welcome/business&#45;logic/update&#45;greeting.js</title>
<path fill="none" stroke="#000000" stroke-width="2" stroke-opacity="0.200000" d="M195.25,-72.89C198.98,-74.99 202.37,-77.64 205.01,-81 216.74,-95.91 207.68,-147.79 213.01,-166 222.78,-199.41 243.57,-234.73 256.01,-254.1"/>
<polygon fill="#000000" fill-opacity="0.200000" stroke="#000000" stroke-width="2" stroke-opacity="0.200000" points="254.55,-255.7 259.59,-259.58 258.07,-253.41 254.55,-255.7"/>
</g>
<!-- separated/welcome/presentations/isolate/src/views/info.js -->
<g id="node9" class="node">
<title>separated/welcome/presentations/isolate/src/views/info.js</title>
<g id="a_node9"><a xlink:href="separated/welcome/presentations/isolate/src/views/info.js" xlink:title="info.js">
<path fill="#ffffcc" stroke="black" d="M287.82,-74.3C287.82,-74.3 246.22,-74.3 246.22,-74.3 243.12,-74.3 240.02,-71.2 240.02,-68.1 240.02,-68.1 240.02,-61.9 240.02,-61.9 240.02,-58.8 243.12,-55.7 246.22,-55.7 246.22,-55.7 287.82,-55.7 287.82,-55.7 290.92,-55.7 294.02,-58.8 294.02,-61.9 294.02,-61.9 294.02,-68.1 294.02,-68.1 294.02,-71.2 290.92,-74.3 287.82,-74.3"/>
<text text-anchor="middle" x="267.02" y="-62.3" font-family="Helvetica,sans-Serif" font-size="9.00">info.js</text>
</a>
</g>
</g>
<!-- separated/welcome/presentations/isolate/src/controllers/edit&#45;greeting.js&#45;&gt;separated/welcome/presentations/isolate/src/views/info.js -->
<g id="edge5" class="edge">
<title>separated/welcome/presentations/isolate/src/controllers/edit&#45;greeting.js&#45;&gt;separated/welcome/presentations/isolate/src/views/info.js</title>
<path fill="none" stroke="#000000" stroke-width="2" stroke-opacity="0.200000" d="M195.2,-65C207.74,-65 221.66,-65 233.81,-65"/>
<polygon fill="#000000" fill-opacity="0.200000" stroke="#000000" stroke-width="2" stroke-opacity="0.200000" points="233.99,-67.1 239.99,-65 233.99,-62.9 233.99,-67.1"/>
</g>
<!-- separated/welcome/presentations/isolate/src/views/warning.js -->
<g id="node10" class="node">
<title>separated/welcome/presentations/isolate/src/views/warning.js</title>
<g id="a_node10"><a xlink:href="separated/welcome/presentations/isolate/src/views/warning.js" xlink:title="warning.js">
<path fill="#ffffcc" stroke="black" d="M288.82,-105.3C288.82,-105.3 245.21,-105.3 245.21,-105.3 242.11,-105.3 239.01,-102.2 239.01,-99.1 239.01,-99.1 239.01,-92.9 239.01,-92.9 239.01,-89.8 242.11,-86.7 245.21,-86.7 245.21,-86.7 288.82,-86.7 288.82,-86.7 291.92,-86.7 295.02,-89.8 295.02,-92.9 295.02,-92.9 295.02,-99.1 295.02,-99.1 295.02,-102.2 291.92,-105.3 288.82,-105.3"/>
<text text-anchor="middle" x="267.02" y="-93.3" font-family="Helvetica,sans-Serif" font-size="9.00">warning.js</text>
</a>
</g>
</g>
<!-- separated/welcome/presentations/isolate/src/controllers/edit&#45;greeting.js&#45;&gt;separated/welcome/presentations/isolate/src/views/warning.js -->
<g id="edge6" class="edge">
<title>separated/welcome/presentations/isolate/src/controllers/edit&#45;greeting.js&#45;&gt;separated/welcome/presentations/isolate/src/views/warning.js</title>
<path fill="none" stroke="#000000" stroke-width="2" stroke-opacity="0.200000" d="M191.05,-74.39C204.34,-78.22 219.7,-82.64 233.03,-86.49"/>
<polygon fill="#000000" fill-opacity="0.200000" stroke="#000000" stroke-width="2" stroke-opacity="0.200000" points="232.66,-88.57 239,-88.21 233.82,-84.53 232.66,-88.57"/>
</g>
<!-- separated/welcome/presentations/isolate/src/controllers/edit&#45;message.js -->
<g id="node11" class="node">
<title>separated/welcome/presentations/isolate/src/controllers/edit&#45;message.js</title>
<g id="a_node11"><a xlink:href="separated/welcome/presentations/isolate/src/controllers/edit-message.js" xlink:title="edit&#45;message.js">
<path fill="#ffffcc" stroke="black" d="M190.81,-105.3C190.81,-105.3 124.2,-105.3 124.2,-105.3 121.1,-105.3 118,-102.2 118,-99.1 118,-99.1 118,-92.9 118,-92.9 118,-89.8 121.1,-86.7 124.2,-86.7 124.2,-86.7 190.81,-86.7 190.81,-86.7 193.91,-86.7 197.01,-89.8 197.01,-92.9 197.01,-92.9 197.01,-99.1 197.01,-99.1 197.01,-102.2 193.91,-105.3 190.81,-105.3"/>
<text text-anchor="middle" x="157.5" y="-93.3" font-family="Helvetica,sans-Serif" font-size="9.00">edit&#45;message.js</text>
</a>
</g>
</g>
<!-- separated/welcome/presentations/isolate/src/controllers/edit&#45;message.js&#45;&gt;separated/welcome/business&#45;logic/update&#45;message.js -->
<g id="edge7" class="edge">
<title>separated/welcome/presentations/isolate/src/controllers/edit&#45;message.js&#45;&gt;separated/welcome/business&#45;logic/update&#45;message.js</title>
<path fill="none" stroke="#000000" stroke-width="2" stroke-opacity="0.200000" d="M197.16,-104.83C200.16,-106.77 202.86,-109.13 205.01,-112 227.95,-142.62 189.48,-253.82 213.01,-284 213.81,-285.02 214.67,-285.98 215.58,-286.88"/>
<polygon fill="#000000" fill-opacity="0.200000" stroke="#000000" stroke-width="2" stroke-opacity="0.200000" points="214.58,-288.78 220.57,-290.91 217.22,-285.51 214.58,-288.78"/>
</g>
<!-- separated/welcome/presentations/isolate/src/controllers/edit&#45;message.js&#45;&gt;separated/welcome/presentations/isolate/src/views/info.js -->
<g id="edge8" class="edge">
<title>separated/welcome/presentations/isolate/src/controllers/edit&#45;message.js&#45;&gt;separated/welcome/presentations/isolate/src/views/info.js</title>
<path fill="none" stroke="#000000" stroke-width="2" stroke-opacity="0.200000" d="M191.05,-86.61C204.56,-82.72 220.19,-78.21 233.68,-74.32"/>
<polygon fill="#000000" fill-opacity="0.200000" stroke="#000000" stroke-width="2" stroke-opacity="0.200000" points="234.52,-76.27 239.71,-72.59 233.36,-72.23 234.52,-76.27"/>
</g>
<!-- separated/welcome/presentations/isolate/src/controllers/edit&#45;message.js&#45;&gt;separated/welcome/presentations/isolate/src/views/warning.js -->
<g id="edge9" class="edge">
<title>separated/welcome/presentations/isolate/src/controllers/edit&#45;message.js&#45;&gt;separated/welcome/presentations/isolate/src/views/warning.js</title>
<path fill="none" stroke="#000000" stroke-width="2" stroke-opacity="0.200000" d="M197.01,-96C208.71,-96 221.45,-96 232.77,-96"/>
<polygon fill="#000000" fill-opacity="0.200000" stroke="#000000" stroke-width="2" stroke-opacity="0.200000" points="232.89,-98.1 238.89,-96 232.89,-93.9 232.89,-98.1"/>
</g>
<!-- separated/welcome/presentations/isolate/src/controllers/welcome.js -->
<g id="node12" class="node">
<title>separated/welcome/presentations/isolate/src/controllers/welcome.js</title>
<g id="a_node12"><a xlink:href="separated/welcome/presentations/isolate/src/controllers/welcome.js" xlink:title="welcome.js">
<path fill="#ffffcc" stroke="black" d="M181.8,-136.3C181.8,-136.3 133.2,-136.3 133.2,-136.3 130.1,-136.3 127,-133.2 127,-130.1 127,-130.1 127,-123.9 127,-123.9 127,-120.8 130.1,-117.7 133.2,-117.7 133.2,-117.7 181.8,-117.7 181.8,-117.7 184.9,-117.7 188,-120.8 188,-123.9 188,-123.9 188,-130.1 188,-130.1 188,-133.2 184.9,-136.3 181.8,-136.3"/>
<text text-anchor="middle" x="157.5" y="-124.3" font-family="Helvetica,sans-Serif" font-size="9.00">welcome.js</text>
</a>
</g>
</g>
<!-- separated/welcome/presentations/isolate/src/controllers/welcome.js&#45;&gt;separated/welcome/business&#45;logic/be&#45;welcoming.js -->
<g id="edge10" class="edge">
<title>separated/welcome/presentations/isolate/src/controllers/welcome.js&#45;&gt;separated/welcome/business&#45;logic/be&#45;welcoming.js</title>
<path fill="none" stroke="#000000" stroke-width="2" stroke-opacity="0.200000" d="M163.07,-136.55C172.53,-156.77 194.29,-205.65 205.01,-249 208.55,-263.34 203.5,-303.69 213.01,-315 215.33,-317.76 218.1,-320.05 221.16,-321.96"/>
<polygon fill="#000000" fill-opacity="0.200000" stroke="#000000" stroke-width="2" stroke-opacity="0.200000" points="220.62,-324.05 226.91,-324.99 222.58,-320.33 220.62,-324.05"/>
</g>
<!-- separated/welcome/presentations/isolate/src/views/pretty&#45;print.js -->
<g id="node13" class="node">
<title>separated/welcome/presentations/isolate/src/views/pretty&#45;print.js</title>
<g id="a_node13"><a xlink:href="separated/welcome/presentations/isolate/src/views/pretty-print.js" xlink:title="pretty&#45;print.js">
<path fill="#ffffcc" stroke="black" d="M294.82,-136.3C294.82,-136.3 239.22,-136.3 239.22,-136.3 236.12,-136.3 233.02,-133.2 233.02,-130.1 233.02,-130.1 233.02,-123.9 233.02,-123.9 233.02,-120.8 236.12,-117.7 239.22,-117.7 239.22,-117.7 294.82,-117.7 294.82,-117.7 297.92,-117.7 301.02,-120.8 301.02,-123.9 301.02,-123.9 301.02,-130.1 301.02,-130.1 301.02,-133.2 297.92,-136.3 294.82,-136.3"/>
<text text-anchor="middle" x="267.02" y="-124.3" font-family="Helvetica,sans-Serif" font-size="9.00">pretty&#45;print.js</text>
</a>
</g>
</g>
<!-- separated/welcome/presentations/isolate/src/controllers/welcome.js&#45;&gt;separated/welcome/presentations/isolate/src/views/pretty&#45;print.js -->
<g id="edge11" class="edge">
<title>separated/welcome/presentations/isolate/src/controllers/welcome.js&#45;&gt;separated/welcome/presentations/isolate/src/views/pretty&#45;print.js</title>
<path fill="none" stroke="#000000" stroke-width="2" stroke-opacity="0.200000" d="M187.88,-127C199.85,-127 213.86,-127 226.69,-127"/>
<polygon fill="#000000" fill-opacity="0.200000" stroke="#000000" stroke-width="2" stroke-opacity="0.200000" points="226.88,-129.1 232.88,-127 226.88,-124.9 226.88,-129.1"/>
</g>
<!-- separated/welcome/presentations/isolate/src/init.js -->
<g id="node14" class="node">
<title>separated/welcome/presentations/isolate/src/init.js</title>
<g id="a_node14"><a xlink:href="separated/welcome/presentations/isolate/src/init.js" xlink:title="init.js">
<path fill="#ffffcc" stroke="black" d="M95.8,-105.3C95.8,-105.3 54.2,-105.3 54.2,-105.3 51.1,-105.3 48,-102.2 48,-99.1 48,-99.1 48,-92.9 48,-92.9 48,-89.8 51.1,-86.7 54.2,-86.7 54.2,-86.7 95.8,-86.7 95.8,-86.7 98.9,-86.7 102,-89.8 102,-92.9 102,-92.9 102,-99.1 102,-99.1 102,-102.2 98.9,-105.3 95.8,-105.3"/>
<text text-anchor="middle" x="75" y="-93.3" font-family="Helvetica,sans-Serif" font-size="9.00">init.js</text>
</a>
</g>
</g>
<!-- separated/welcome/presentations/isolate/src/init.js&#45;&gt;data&#45;access/initialize.js -->
<g id="edge12" class="edge">
<title>separated/welcome/presentations/isolate/src/init.js&#45;&gt;data&#45;access/initialize.js</title>
<path fill="none" stroke="#000000" stroke-width="2" stroke-opacity="0.200000" d="M79.21,-86.34C83.83,-74.16 93.67,-53.74 110,-45 203.66,5.13 266.26,21.61 349.02,-45 379.15,-69.25 390.42,-192.83 393.54,-237.15"/>
<polygon fill="#000000" fill-opacity="0.200000" stroke="#000000" stroke-width="2" stroke-opacity="0.200000" points="391.45,-237.48 393.95,-243.33 395.65,-237.2 391.45,-237.48"/>
</g>
<!-- separated/welcome/presentations/isolate/src/init.js&#45;&gt;separated/welcome/data/friendly.js -->
<g id="edge13" class="edge">
<title>separated/welcome/presentations/isolate/src/init.js&#45;&gt;separated/welcome/data/friendly.js</title>
<path fill="none" stroke="#000000" stroke-width="2" stroke-opacity="0.200000" d="M80.33,-105.3C93.54,-133.7 133.44,-219.44 149.6,-254.16"/>
<polygon fill="#000000" fill-opacity="0.200000" stroke="#000000" stroke-width="2" stroke-opacity="0.200000" points="147.72,-255.1 152.15,-259.65 151.53,-253.33 147.72,-255.1"/>
</g>
<!-- separated/welcome/presentations/isolate/src/init.js&#45;&gt;separated/welcome/presentations/isolate/src/controllers/edit&#45;greeting.js -->
<g id="edge14" class="edge">
<title>separated/welcome/presentations/isolate/src/init.js&#45;&gt;separated/welcome/presentations/isolate/src/controllers/edit&#45;greeting.js</title>
<path fill="none" stroke="#000000" stroke-width="2" stroke-opacity="0.200000" d="M96.38,-86.68C100.84,-84.73 105.55,-82.74 110,-81 113.85,-79.49 117.9,-77.98 121.94,-76.53"/>
<polygon fill="#000000" fill-opacity="0.200000" stroke="#000000" stroke-width="2" stroke-opacity="0.200000" points="122.88,-78.42 127.84,-74.44 121.48,-74.46 122.88,-78.42"/>
</g>
<!-- separated/welcome/presentations/isolate/src/init.js&#45;&gt;separated/welcome/presentations/isolate/src/controllers/edit&#45;message.js -->
<g id="edge15" class="edge">
<title>separated/welcome/presentations/isolate/src/init.js&#45;&gt;separated/welcome/presentations/isolate/src/controllers/edit&#45;message.js</title>
<path fill="none" stroke="#000000" stroke-width="2" stroke-opacity="0.200000" d="M102.36,-96C105.3,-96 108.35,-96 111.45,-96"/>
<polygon fill="#000000" fill-opacity="0.200000" stroke="#000000" stroke-width="2" stroke-opacity="0.200000" points="111.82,-98.1 117.82,-96 111.82,-93.9 111.82,-98.1"/>
</g>
<!-- separated/welcome/presentations/isolate/src/init.js&#45;&gt;separated/welcome/presentations/isolate/src/controllers/welcome.js -->
<g id="edge16" class="edge">
<title>separated/welcome/presentations/isolate/src/init.js&#45;&gt;separated/welcome/presentations/isolate/src/controllers/welcome.js</title>
<path fill="none" stroke="#000000" stroke-width="2" stroke-opacity="0.200000" d="M96.38,-105.32C100.84,-107.27 105.55,-109.26 110,-111 113.85,-112.51 117.9,-114.02 121.94,-115.47"/>
<polygon fill="#000000" fill-opacity="0.200000" stroke="#000000" stroke-width="2" stroke-opacity="0.200000" points="121.48,-117.54 127.84,-117.56 122.88,-113.58 121.48,-117.54"/>
</g>
</g>
</svg>
