<?xml version="1.0" encoding="UTF-8" standalone="no"?>
<!DOCTYPE svg PUBLIC "-//W3C//DTD SVG 1.1//EN"
 "http://www.w3.org/Graphics/SVG/1.1/DTD/svg11.dtd">
<!-- Generated by graphviz version 2.44.0 (20200408.0750)
 -->
<!-- Title: dependency&#45;cruiser output Pages: 1 -->
<svg width="594pt" height="622pt"
 viewBox="0.00 0.00 594.04 622.00" xmlns="http://www.w3.org/2000/svg" xmlns:xlink="http://www.w3.org/1999/xlink">
<g id="graph0" class="graph" transform="scale(1 1) rotate(0) translate(4 618)">
<title>dependency&#45;cruiser output</title>
<polygon fill="white" stroke="transparent" points="-4,4 -4,-618 590.04,-618 590.04,4 -4,4"/>
<g id="clust1" class="cluster">
<title>cluster_data&#45;access</title>
<path fill="#ffffff" stroke="black" stroke-width="2" d="M480.04,-8C480.04,-8 526.04,-8 526.04,-8 532.04,-8 538.04,-14 538.04,-20 538.04,-20 538.04,-111 538.04,-111 538.04,-117 532.04,-123 526.04,-123 526.04,-123 480.04,-123 480.04,-123 474.04,-123 468.04,-117 468.04,-111 468.04,-111 468.04,-20 468.04,-20 468.04,-14 474.04,-8 480.04,-8"/>
<text text-anchor="middle" x="503.04" y="-110.9" font-family="Helvetica,sans-Serif" font-weight="bold" font-size="9.00">data&#45;access</text>
</g>
<g id="clust2" class="cluster">
<title>cluster_separated</title>
<path fill="#ffffff" stroke="black" stroke-width="2" d="M20,-131C20,-131 568.04,-131 568.04,-131 574.04,-131 580.04,-137 580.04,-143 580.04,-143 580.04,-594 580.04,-594 580.04,-600 574.04,-606 568.04,-606 568.04,-606 20,-606 20,-606 14,-606 8,-600 8,-594 8,-594 8,-143 8,-143 8,-137 14,-131 20,-131"/>
<text text-anchor="middle" x="294.02" y="-593.9" font-family="Helvetica,sans-Serif" font-weight="bold" font-size="9.00">separated</text>
</g>
<g id="clust3" class="cluster">
<title>cluster_separated/2&#45;welcome</title>
<path fill="#ffffff" stroke="black" stroke-width="2" d="M28,-139C28,-139 560.04,-139 560.04,-139 566.04,-139 572.04,-145 572.04,-151 572.04,-151 572.04,-567 572.04,-567 572.04,-573 566.04,-579 560.04,-579 560.04,-579 28,-579 28,-579 22,-579 16,-573 16,-567 16,-567 16,-151 16,-151 16,-145 22,-139 28,-139"/>
<text text-anchor="middle" x="294.02" y="-566.9" font-family="Helvetica,sans-Serif" font-weight="bold" font-size="9.00">2&#45;welcome</text>
</g>
<g id="clust4" class="cluster">
<title>cluster_separated/2&#45;welcome/business&#45;logic</title>
<path fill="#ffffff" stroke="black" stroke-width="2" d="M322.02,-147C322.02,-147 406.04,-147 406.04,-147 412.04,-147 418.04,-153 418.04,-159 418.04,-159 418.04,-343 418.04,-343 418.04,-349 412.04,-355 406.04,-355 406.04,-355 322.02,-355 322.02,-355 316.02,-355 310.02,-349 310.02,-343 310.02,-343 310.02,-159 310.02,-159 310.02,-153 316.02,-147 322.02,-147"/>
<text text-anchor="middle" x="364.03" y="-342.9" font-family="Helvetica,sans-Serif" font-weight="bold" font-size="9.00">business&#45;logic</text>
</g>
<g id="clust5" class="cluster">
<title>cluster_separated/2&#45;welcome/presentations</title>
<path fill="#ffffff" stroke="black" stroke-width="2" d="M36,-363C36,-363 552.04,-363 552.04,-363 558.04,-363 564.04,-369 564.04,-375 564.04,-375 564.04,-540 564.04,-540 564.04,-546 558.04,-552 552.04,-552 552.04,-552 36,-552 36,-552 30,-552 24,-546 24,-540 24,-540 24,-375 24,-375 24,-369 30,-363 36,-363"/>
<text text-anchor="middle" x="294.02" y="-539.9" font-family="Helvetica,sans-Serif" font-weight="bold" font-size="9.00">presentations</text>
</g>
<g id="clust6" class="cluster">
<title>cluster_separated/2&#45;welcome/presentations/integrate&#45;single&#45;page</title>
<path fill="#ffffff" stroke="black" stroke-width="2" d="M44,-371C44,-371 544.04,-371 544.04,-371 550.04,-371 556.04,-377 556.04,-383 556.04,-383 556.04,-513 556.04,-513 556.04,-519 550.04,-525 544.04,-525 544.04,-525 44,-525 44,-525 38,-525 32,-519 32,-513 32,-513 32,-383 32,-383 32,-377 38,-371 44,-371"/>
<text text-anchor="middle" x="294.02" y="-512.9" font-family="Helvetica,sans-Serif" font-weight="bold" font-size="9.00">integrate&#45;single&#45;page</text>
</g>
<g id="clust7" class="cluster">
<title>cluster_separated/2&#45;welcome/presentations/integrate&#45;single&#45;page/src</title>
<path fill="#ffffff" stroke="black" stroke-width="2" d="M52,-379C52,-379 536.04,-379 536.04,-379 542.04,-379 548.04,-385 548.04,-391 548.04,-391 548.04,-486 548.04,-486 548.04,-492 542.04,-498 536.04,-498 536.04,-498 52,-498 52,-498 46,-498 40,-492 40,-486 40,-486 40,-391 40,-391 40,-385 46,-379 52,-379"/>
<text text-anchor="middle" x="294.02" y="-485.9" font-family="Helvetica,sans-Serif" font-weight="bold" font-size="9.00">src</text>
</g>
<g id="clust8" class="cluster">
<title>cluster_separated/2&#45;welcome/presentations/integrate&#45;single&#45;page/src/components</title>
<path fill="#ffffff" stroke="black" stroke-width="2" d="M337.02,-418C337.02,-418 391.03,-418 391.03,-418 397.03,-418 403.03,-424 403.03,-430 403.03,-430 403.03,-459 403.03,-459 403.03,-465 397.03,-471 391.03,-471 391.03,-471 337.02,-471 337.02,-471 331.02,-471 325.02,-465 325.02,-459 325.02,-459 325.02,-430 325.02,-430 325.02,-424 331.02,-418 337.02,-418"/>
<text text-anchor="middle" x="364.03" y="-458.9" font-family="Helvetica,sans-Serif" font-weight="bold" font-size="9.00">components</text>
</g>
<g id="clust9" class="cluster">
<title>cluster_separated/2&#45;welcome/presentations/integrate&#45;single&#45;page/src/custom&#45;events</title>
<path fill="#ffffff" stroke="black" stroke-width="2" d="M478.04,-418C478.04,-418 528.04,-418 528.04,-418 534.04,-418 540.04,-424 540.04,-430 540.04,-430 540.04,-459 540.04,-459 540.04,-465 534.04,-471 528.04,-471 528.04,-471 478.04,-471 478.04,-471 472.04,-471 466.04,-465 466.04,-459 466.04,-459 466.04,-430 466.04,-430 466.04,-424 472.04,-418 478.04,-418"/>
<text text-anchor="middle" x="503.04" y="-458.9" font-family="Helvetica,sans-Serif" font-weight="bold" font-size="9.00">custom&#45;events</text>
</g>
<g id="clust10" class="cluster">
<title>cluster_separated/2&#45;welcome/presentations/integrate&#45;single&#45;page/src/handlers</title>
<path fill="#ffffff" stroke="black" stroke-width="2" d="M223,-387C223,-387 290.02,-387 290.02,-387 296.02,-387 302.02,-393 302.02,-399 302.02,-399 302.02,-459 302.02,-459 302.02,-465 296.02,-471 290.02,-471 290.02,-471 223,-471 223,-471 217,-471 211,-465 211,-459 211,-459 211,-399 211,-399 211,-393 217,-387 223,-387"/>
<text text-anchor="middle" x="256.51" y="-458.9" font-family="Helvetica,sans-Serif" font-weight="bold" font-size="9.00">handlers</text>
</g>
<g id="clust11" class="cluster">
<title>cluster_separated/2&#45;welcome/presentations/integrate&#45;single&#45;page/src/init</title>
<path fill="#ffffff" stroke="black" stroke-width="2" d="M60,-402C60,-402 106,-402 106,-402 112,-402 118,-408 118,-414 118,-414 118,-443 118,-443 118,-449 112,-455 106,-455 106,-455 60,-455 60,-455 54,-455 48,-449 48,-443 48,-443 48,-414 48,-414 48,-408 54,-402 60,-402"/>
<text text-anchor="middle" x="83" y="-442.9" font-family="Helvetica,sans-Serif" font-weight="bold" font-size="9.00">init</text>
</g>
<g id="clust12" class="cluster">
<title>cluster_separated/2&#45;welcome/presentations/integrate&#45;single&#45;page/src/listeners</title>
<path fill="#ffffff" stroke="black" stroke-width="2" d="M138,-387C138,-387 191,-387 191,-387 197,-387 203,-393 203,-399 203,-399 203,-459 203,-459 203,-465 197,-471 191,-471 191,-471 138,-471 138,-471 132,-471 126,-465 126,-459 126,-459 126,-399 126,-399 126,-393 132,-387 138,-387"/>
<text text-anchor="middle" x="164.5" y="-458.9" font-family="Helvetica,sans-Serif" font-weight="bold" font-size="9.00">listeners</text>
</g>
<!-- data&#45;access/find.js -->
<g id="node1" class="node">
<title>data&#45;access/find.js</title>
<g id="a_node1"><a xlink:href="data-access/find.js" xlink:title="find.js">
<polygon fill="#ffffcc" stroke="black" points="530.04,-65.3 528.49,-67.37 517.64,-67.37 516.09,-65.3 476.04,-65.3 476.04,-46.7 530.04,-46.7 530.04,-65.3"/>
<text text-anchor="middle" x="503.04" y="-53.3" font-family="Helvetica,sans-Serif" font-size="9.00">find.js</text>
</a>
</g>
</g>
<!-- data&#45;access/load.js -->
<g id="node2" class="node">
<title>data&#45;access/load.js</title>
<g id="a_node2"><a xlink:href="data-access/load.js" xlink:title="load.js">
<polygon fill="#ffffcc" stroke="black" points="530.04,-96.3 528.49,-98.37 517.64,-98.37 516.09,-96.3 476.04,-96.3 476.04,-77.7 530.04,-77.7 530.04,-96.3"/>
<text text-anchor="middle" x="503.04" y="-84.3" font-family="Helvetica,sans-Serif" font-size="9.00">load.js</text>
</a>
</g>
</g>
<!-- data&#45;access/save.js -->
<g id="node3" class="node">
<title>data&#45;access/save.js</title>
<g id="a_node3"><a xlink:href="data-access/save.js" xlink:title="save.js">
<polygon fill="#ffffcc" stroke="black" points="530.04,-34.3 528.49,-36.37 517.64,-36.37 516.09,-34.3 476.04,-34.3 476.04,-15.7 530.04,-15.7 530.04,-34.3"/>
<text text-anchor="middle" x="503.04" y="-22.3" font-family="Helvetica,sans-Serif" font-size="9.00">save.js</text>
</a>
</g>
</g>
<!-- separated/2&#45;welcome/business&#45;logic/be&#45;welcoming.js -->
<g id="node4" class="node">
<title>separated/2&#45;welcome/business&#45;logic/be&#45;welcoming.js</title>
<g id="a_node4"><a xlink:href="separated/2-welcome/business-logic/be-welcoming.js" xlink:title="be&#45;welcoming.js">
<path fill="#ffffcc" stroke="black" d="M397.83,-235.3C397.83,-235.3 330.23,-235.3 330.23,-235.3 327.13,-235.3 324.03,-232.2 324.03,-229.1 324.03,-229.1 324.03,-222.9 324.03,-222.9 324.03,-219.8 327.13,-216.7 330.23,-216.7 330.23,-216.7 397.83,-216.7 397.83,-216.7 400.93,-216.7 404.03,-219.8 404.03,-222.9 404.03,-222.9 404.03,-229.1 404.03,-229.1 404.03,-232.2 400.93,-235.3 397.83,-235.3"/>
<text text-anchor="middle" x="364.03" y="-223.3" font-family="Helvetica,sans-Serif" font-size="9.00">be&#45;welcoming.js</text>
</a>
</g>
</g>
<!-- separated/2&#45;welcome/business&#45;logic/be&#45;welcoming.js&#45;&gt;data&#45;access/find.js -->
<g id="edge1" class="edge">
<title>separated/2&#45;welcome/business&#45;logic/be&#45;welcoming.js&#45;&gt;data&#45;access/find.js</title>
<path fill="none" stroke="#000000" stroke-width="2" stroke-opacity="0.200000" d="M404.16,-218.9C409.26,-216.69 414.08,-213.79 418.04,-210 464.9,-165.05 422.08,-119.79 466.04,-72 467.43,-70.49 468.98,-69.11 470.65,-67.86"/>
<polygon fill="#000000" fill-opacity="0.200000" stroke="#000000" stroke-width="2" stroke-opacity="0.200000" points="472.02,-69.48 475.93,-64.46 469.75,-65.95 472.02,-69.48"/>
</g>
<!-- separated/2&#45;welcome/business&#45;logic/initialize&#45;state.js -->
<g id="node5" class="node">
<title>separated/2&#45;welcome/business&#45;logic/initialize&#45;state.js</title>
<g id="a_node5"><a xlink:href="separated/2-welcome/business-logic/initialize-state.js" xlink:title="initialize&#45;state.js">
<path fill="#ffffcc" stroke="black" d="M397.83,-328.3C397.83,-328.3 330.23,-328.3 330.23,-328.3 327.13,-328.3 324.03,-325.2 324.03,-322.1 324.03,-322.1 324.03,-315.9 324.03,-315.9 324.03,-312.8 327.13,-309.7 330.23,-309.7 330.23,-309.7 397.83,-309.7 397.83,-309.7 400.93,-309.7 404.03,-312.8 404.03,-315.9 404.03,-315.9 404.03,-322.1 404.03,-322.1 404.03,-325.2 400.93,-328.3 397.83,-328.3"/>
<text text-anchor="middle" x="364.03" y="-316.3" font-family="Helvetica,sans-Serif" font-size="9.00">initialize&#45;state.js</text>
</a>
</g>
</g>
<!-- separated/2&#45;welcome/business&#45;logic/initialize&#45;state.js&#45;&gt;data&#45;access/load.js -->
<g id="edge2" class="edge">
<title>separated/2&#45;welcome/business&#45;logic/initialize&#45;state.js&#45;&gt;data&#45;access/load.js</title>
<path fill="none" stroke="#000000" stroke-width="2" stroke-opacity="0.200000" d="M404.03,-311.77C409.16,-309.58 414.02,-306.72 418.04,-303 478.62,-246.95 496.05,-142.04 500.58,-102.56"/>
<polygon fill="#000000" fill-opacity="0.200000" stroke="#000000" stroke-width="2" stroke-opacity="0.200000" points="502.69,-102.57 501.25,-96.38 498.52,-102.12 502.69,-102.57"/>
</g>
<!-- separated/2&#45;welcome/business&#45;logic/read&#45;greeting.js -->
<g id="node6" class="node">
<title>separated/2&#45;welcome/business&#45;logic/read&#45;greeting.js</title>
<g id="a_node6"><a xlink:href="separated/2-welcome/business-logic/read-greeting.js" xlink:title="read&#45;greeting.js">
<path fill="#ffffcc" stroke="black" d="M396.84,-297.3C396.84,-297.3 331.22,-297.3 331.22,-297.3 328.12,-297.3 325.02,-294.2 325.02,-291.1 325.02,-291.1 325.02,-284.9 325.02,-284.9 325.02,-281.8 328.12,-278.7 331.22,-278.7 331.22,-278.7 396.84,-278.7 396.84,-278.7 399.94,-278.7 403.04,-281.8 403.04,-284.9 403.04,-284.9 403.04,-291.1 403.04,-291.1 403.04,-294.2 399.94,-297.3 396.84,-297.3"/>
<text text-anchor="middle" x="364.03" y="-285.3" font-family="Helvetica,sans-Serif" font-size="9.00">read&#45;greeting.js</text>
</a>
</g>
</g>
<!-- separated/2&#45;welcome/business&#45;logic/read&#45;greeting.js&#45;&gt;data&#45;access/find.js -->
<g id="edge3" class="edge">
<title>separated/2&#45;welcome/business&#45;logic/read&#45;greeting.js&#45;&gt;data&#45;access/find.js</title>
<path fill="none" stroke="#000000" stroke-width="2" stroke-opacity="0.200000" d="M403.17,-281.83C408.73,-279.51 413.95,-276.33 418.04,-272 480.79,-205.53 407.56,-142.27 466.04,-72 467.48,-70.27 469.14,-68.72 470.95,-67.33"/>
<polygon fill="#000000" fill-opacity="0.200000" stroke="#000000" stroke-width="2" stroke-opacity="0.200000" points="472.14,-69.06 476.02,-64.02 469.85,-65.54 472.14,-69.06"/>
</g>
<!-- separated/2&#45;welcome/business&#45;logic/read&#45;message.js -->
<g id="node7" class="node">
<title>separated/2&#45;welcome/business&#45;logic/read&#45;message.js</title>
<g id="a_node7"><a xlink:href="separated/2-welcome/business-logic/read-message.js" xlink:title="read&#45;message.js">
<path fill="#ffffcc" stroke="black" d="M398.84,-266.3C398.84,-266.3 329.22,-266.3 329.22,-266.3 326.12,-266.3 323.02,-263.2 323.02,-260.1 323.02,-260.1 323.02,-253.9 323.02,-253.9 323.02,-250.8 326.12,-247.7 329.22,-247.7 329.22,-247.7 398.84,-247.7 398.84,-247.7 401.94,-247.7 405.04,-250.8 405.04,-253.9 405.04,-253.9 405.04,-260.1 405.04,-260.1 405.04,-263.2 401.94,-266.3 398.84,-266.3"/>
<text text-anchor="middle" x="364.03" y="-254.3" font-family="Helvetica,sans-Serif" font-size="9.00">read&#45;message.js</text>
</a>
</g>
</g>
<!-- separated/2&#45;welcome/business&#45;logic/read&#45;message.js&#45;&gt;data&#45;access/find.js -->
<g id="edge4" class="edge">
<title>separated/2&#45;welcome/business&#45;logic/read&#45;message.js&#45;&gt;data&#45;access/find.js</title>
<path fill="none" stroke="#000000" stroke-width="2" stroke-opacity="0.200000" d="M405.16,-249.75C409.93,-247.55 414.4,-244.7 418.04,-241 472.8,-185.34 414.87,-130.98 466.04,-72 467.38,-70.45 468.91,-69.04 470.55,-67.77"/>
<polygon fill="#000000" fill-opacity="0.200000" stroke="#000000" stroke-width="2" stroke-opacity="0.200000" points="471.92,-69.38 475.77,-64.32 469.61,-65.87 471.92,-69.38"/>
</g>
<!-- separated/2&#45;welcome/business&#45;logic/update&#45;greeting.js -->
<g id="node8" class="node">
<title>separated/2&#45;welcome/business&#45;logic/update&#45;greeting.js</title>
<g id="a_node8"><a xlink:href="separated/2-welcome/business-logic/update-greeting.js" xlink:title="update&#45;greeting.js">
<path fill="#ffffcc" stroke="black" d="M401.85,-173.3C401.85,-173.3 326.21,-173.3 326.21,-173.3 323.11,-173.3 320.01,-170.2 320.01,-167.1 320.01,-167.1 320.01,-160.9 320.01,-160.9 320.01,-157.8 323.11,-154.7 326.21,-154.7 326.21,-154.7 401.85,-154.7 401.85,-154.7 404.95,-154.7 408.05,-157.8 408.05,-160.9 408.05,-160.9 408.05,-167.1 408.05,-167.1 408.05,-170.2 404.95,-173.3 401.85,-173.3"/>
<text text-anchor="middle" x="364.03" y="-161.3" font-family="Helvetica,sans-Serif" font-size="9.00">update&#45;greeting.js</text>
</a>
</g>
</g>
<!-- separated/2&#45;welcome/business&#45;logic/update&#45;greeting.js&#45;&gt;data&#45;access/save.js -->
<g id="edge5" class="edge">
<title>separated/2&#45;welcome/business&#45;logic/update&#45;greeting.js&#45;&gt;data&#45;access/save.js</title>
<path fill="none" stroke="#000000" stroke-width="2" stroke-opacity="0.200000" d="M370.69,-154.4C384.41,-131.85 421.63,-74.81 466.04,-41 467.67,-39.76 469.41,-38.59 471.22,-37.49"/>
<polygon fill="#000000" fill-opacity="0.200000" stroke="#000000" stroke-width="2" stroke-opacity="0.200000" points="472.55,-39.15 476.79,-34.4 470.52,-35.47 472.55,-39.15"/>
</g>
<!-- separated/2&#45;welcome/business&#45;logic/update&#45;message.js -->
<g id="node9" class="node">
<title>separated/2&#45;welcome/business&#45;logic/update&#45;message.js</title>
<g id="a_node9"><a xlink:href="separated/2-welcome/business-logic/update-message.js" xlink:title="update&#45;message.js">
<path fill="#ffffcc" stroke="black" d="M403.85,-204.3C403.85,-204.3 324.21,-204.3 324.21,-204.3 321.11,-204.3 318.01,-201.2 318.01,-198.1 318.01,-198.1 318.01,-191.9 318.01,-191.9 318.01,-188.8 321.11,-185.7 324.21,-185.7 324.21,-185.7 403.85,-185.7 403.85,-185.7 406.95,-185.7 410.05,-188.8 410.05,-191.9 410.05,-191.9 410.05,-198.1 410.05,-198.1 410.05,-201.2 406.95,-204.3 403.85,-204.3"/>
<text text-anchor="middle" x="364.03" y="-192.3" font-family="Helvetica,sans-Serif" font-size="9.00">update&#45;message.js</text>
</a>
</g>
</g>
<!-- separated/2&#45;welcome/business&#45;logic/update&#45;message.js&#45;&gt;data&#45;access/save.js -->
<g id="edge6" class="edge">
<title>separated/2&#45;welcome/business&#45;logic/update&#45;message.js&#45;&gt;data&#45;access/save.js</title>
<path fill="none" stroke="#000000" stroke-width="2" stroke-opacity="0.200000" d="M408.89,-185.6C412.22,-183.77 415.33,-181.6 418.04,-179 464.9,-134.05 422.08,-88.79 466.04,-41 467.43,-39.49 468.98,-38.11 470.65,-36.86"/>
<polygon fill="#000000" fill-opacity="0.200000" stroke="#000000" stroke-width="2" stroke-opacity="0.200000" points="472.02,-38.48 475.93,-33.46 469.75,-34.95 472.02,-38.48"/>
</g>
<!-- separated/2&#45;welcome/presentations/integrate&#45;single&#45;page/src/components/text&#45;input.js -->
<g id="node10" class="node">
<title>separated/2&#45;welcome/presentations/integrate&#45;single&#45;page/src/components/text&#45;input.js</title>
<g id="a_node10"><a xlink:href="separated/2-welcome/presentations/integrate-single-page/src/components/text-input.js" xlink:title="text&#45;input.js">
<path fill="#ffffcc" stroke="black" d="M388.83,-444.3C388.83,-444.3 339.22,-444.3 339.22,-444.3 336.12,-444.3 333.02,-441.2 333.02,-438.1 333.02,-438.1 333.02,-431.9 333.02,-431.9 333.02,-428.8 336.12,-425.7 339.22,-425.7 339.22,-425.7 388.83,-425.7 388.83,-425.7 391.93,-425.7 395.04,-428.8 395.04,-431.9 395.04,-431.9 395.04,-438.1 395.04,-438.1 395.04,-441.2 391.93,-444.3 388.83,-444.3"/>
<text text-anchor="middle" x="364.03" y="-432.3" font-family="Helvetica,sans-Serif" font-size="9.00">text&#45;input.js</text>
</a>
</g>
</g>
<!-- separated/2&#45;welcome/presentations/integrate&#45;single&#45;page/src/custom&#45;events/update.js -->
<g id="node11" class="node">
<title>separated/2&#45;welcome/presentations/integrate&#45;single&#45;page/src/custom&#45;events/update.js</title>
<g id="a_node11"><a xlink:href="separated/2-welcome/presentations/integrate-single-page/src/custom-events/update.js" xlink:title="update.js">
<path fill="#ffffcc" stroke="black" d="M523.84,-444.3C523.84,-444.3 482.24,-444.3 482.24,-444.3 479.14,-444.3 476.04,-441.2 476.04,-438.1 476.04,-438.1 476.04,-431.9 476.04,-431.9 476.04,-428.8 479.14,-425.7 482.24,-425.7 482.24,-425.7 523.84,-425.7 523.84,-425.7 526.94,-425.7 530.04,-428.8 530.04,-431.9 530.04,-431.9 530.04,-438.1 530.04,-438.1 530.04,-441.2 526.94,-444.3 523.84,-444.3"/>
<text text-anchor="middle" x="503.04" y="-432.3" font-family="Helvetica,sans-Serif" font-size="9.00">update.js</text>
</a>
</g>
</g>
<!-- separated/2&#45;welcome/presentations/integrate&#45;single&#45;page/src/components/text&#45;input.js&#45;&gt;separated/2&#45;welcome/presentations/integrate&#45;single&#45;page/src/custom&#45;events/update.js -->
<g id="edge7" class="edge">
<title>separated/2&#45;welcome/presentations/integrate&#45;single&#45;page/src/components/text&#45;input.js&#45;&gt;separated/2&#45;welcome/presentations/integrate&#45;single&#45;page/src/custom&#45;events/update.js</title>
<path fill="none" stroke="#000000" stroke-width="2" stroke-opacity="0.200000" d="M395.1,-435C417.13,-435 447,-435 469.58,-435"/>
<polygon fill="#000000" fill-opacity="0.200000" stroke="#000000" stroke-width="2" stroke-opacity="0.200000" points="469.74,-437.1 475.74,-435 469.74,-432.9 469.74,-437.1"/>
</g>
<!-- separated/2&#45;welcome/presentations/integrate&#45;single&#45;page/src/handlers/init&#45;index.js -->
<g id="node12" class="node">
<title>separated/2&#45;welcome/presentations/integrate&#45;single&#45;page/src/handlers/init&#45;index.js</title>
<g id="a_node12"><a xlink:href="separated/2-welcome/presentations/integrate-single-page/src/handlers/init-index.js" xlink:title="init&#45;index.js">
<path fill="#ffffcc" stroke="black" d="M280.81,-444.3C280.81,-444.3 232.21,-444.3 232.21,-444.3 229.11,-444.3 226.01,-441.2 226.01,-438.1 226.01,-438.1 226.01,-431.9 226.01,-431.9 226.01,-428.8 229.11,-425.7 232.21,-425.7 232.21,-425.7 280.81,-425.7 280.81,-425.7 283.91,-425.7 287.01,-428.8 287.01,-431.9 287.01,-431.9 287.01,-438.1 287.01,-438.1 287.01,-441.2 283.91,-444.3 280.81,-444.3"/>
<text text-anchor="middle" x="256.51" y="-432.3" font-family="Helvetica,sans-Serif" font-size="9.00">init&#45;index.js</text>
</a>
</g>
</g>
<!-- separated/2&#45;welcome/presentations/integrate&#45;single&#45;page/src/handlers/init&#45;index.js&#45;&gt;separated/2&#45;welcome/business&#45;logic/be&#45;welcoming.js -->
<g id="edge8" class="edge">
<title>separated/2&#45;welcome/presentations/integrate&#45;single&#45;page/src/handlers/init&#45;index.js&#45;&gt;separated/2&#45;welcome/business&#45;logic/be&#45;welcoming.js</title>
<path fill="none" stroke="#000000" stroke-width="2" stroke-opacity="0.200000" d="M287.09,-429.84C292.89,-427.47 298.31,-424.02 302.02,-419 313.7,-403.16 297.93,-257.54 310.02,-242 312.38,-238.96 315.3,-236.48 318.55,-234.46"/>
<polygon fill="#000000" fill-opacity="0.200000" stroke="#000000" stroke-width="2" stroke-opacity="0.200000" points="319.55,-236.31 323.88,-231.65 317.6,-232.59 319.55,-236.31"/>
</g>
<!-- separated/2&#45;welcome/presentations/integrate&#45;single&#45;page/src/handlers/init&#45;index.js&#45;&gt;separated/2&#45;welcome/business&#45;logic/initialize&#45;state.js -->
<g id="edge9" class="edge">
<title>separated/2&#45;welcome/presentations/integrate&#45;single&#45;page/src/handlers/init&#45;index.js&#45;&gt;separated/2&#45;welcome/business&#45;logic/initialize&#45;state.js</title>
<path fill="none" stroke="#000000" stroke-width="2" stroke-opacity="0.200000" d="M287.26,-427.5C292.52,-425.31 297.69,-422.53 302.02,-419 330.4,-395.86 349.04,-355.8 357.6,-334.07"/>
<polygon fill="#000000" fill-opacity="0.200000" stroke="#000000" stroke-width="2" stroke-opacity="0.200000" points="359.57,-334.81 359.75,-328.45 355.64,-333.31 359.57,-334.81"/>
</g>
<!-- separated/2&#45;welcome/presentations/integrate&#45;single&#45;page/src/handlers/init&#45;index.js&#45;&gt;separated/2&#45;welcome/business&#45;logic/read&#45;greeting.js -->
<g id="edge10" class="edge">
<title>separated/2&#45;welcome/presentations/integrate&#45;single&#45;page/src/handlers/init&#45;index.js&#45;&gt;separated/2&#45;welcome/business&#45;logic/read&#45;greeting.js</title>
<path fill="none" stroke="#000000" stroke-width="2" stroke-opacity="0.200000" d="M287.45,-429.59C293.09,-427.23 298.35,-423.85 302.02,-419 317.47,-398.57 294.04,-324.02 310.02,-304 312.54,-300.84 315.66,-298.29 319.11,-296.23"/>
<polygon fill="#000000" fill-opacity="0.200000" stroke="#000000" stroke-width="2" stroke-opacity="0.200000" points="320.36,-297.96 324.78,-293.39 318.47,-294.2 320.36,-297.96"/>
</g>
<!-- separated/2&#45;welcome/presentations/integrate&#45;single&#45;page/src/handlers/init&#45;index.js&#45;&gt;separated/2&#45;welcome/business&#45;logic/read&#45;message.js -->
<g id="edge11" class="edge">
<title>separated/2&#45;welcome/presentations/integrate&#45;single&#45;page/src/handlers/init&#45;index.js&#45;&gt;separated/2&#45;welcome/business&#45;logic/read&#45;message.js</title>
<path fill="none" stroke="#000000" stroke-width="2" stroke-opacity="0.200000" d="M287.05,-429.82C292.85,-427.45 298.29,-424 302.02,-419 321.43,-392.94 289.94,-298.55 310.02,-273 312.13,-270.31 314.69,-268.05 317.52,-266.17"/>
<polygon fill="#000000" fill-opacity="0.200000" stroke="#000000" stroke-width="2" stroke-opacity="0.200000" points="318.67,-267.93 322.87,-263.16 316.61,-264.27 318.67,-267.93"/>
</g>
<!-- separated/2&#45;welcome/presentations/integrate&#45;single&#45;page/src/handlers/init&#45;index.js&#45;&gt;separated/2&#45;welcome/presentations/integrate&#45;single&#45;page/src/components/text&#45;input.js -->
<g id="edge12" class="edge">
<title>separated/2&#45;welcome/presentations/integrate&#45;single&#45;page/src/handlers/init&#45;index.js&#45;&gt;separated/2&#45;welcome/presentations/integrate&#45;single&#45;page/src/components/text&#45;input.js</title>
<path fill="none" stroke="#000000" stroke-width="2" stroke-opacity="0.200000" d="M287.18,-435C299.44,-435 313.77,-435 326.65,-435"/>
<polygon fill="#000000" fill-opacity="0.200000" stroke="#000000" stroke-width="2" stroke-opacity="0.200000" points="326.84,-437.1 332.84,-435 326.84,-432.9 326.84,-437.1"/>
</g>
<!-- separated/2&#45;welcome/presentations/integrate&#45;single&#45;page/src/handlers/update&#45;state.js -->
<g id="node13" class="node">
<title>separated/2&#45;welcome/presentations/integrate&#45;single&#45;page/src/handlers/update&#45;state.js</title>
<g id="a_node13"><a xlink:href="separated/2-welcome/presentations/integrate-single-page/src/handlers/update-state.js" xlink:title="update&#45;state.js">
<path fill="#ffffcc" stroke="black" d="M287.83,-413.3C287.83,-413.3 225.19,-413.3 225.19,-413.3 222.09,-413.3 218.99,-410.2 218.99,-407.1 218.99,-407.1 218.99,-400.9 218.99,-400.9 218.99,-397.8 222.09,-394.7 225.19,-394.7 225.19,-394.7 287.83,-394.7 287.83,-394.7 290.93,-394.7 294.03,-397.8 294.03,-400.9 294.03,-400.9 294.03,-407.1 294.03,-407.1 294.03,-410.2 290.93,-413.3 287.83,-413.3"/>
<text text-anchor="middle" x="256.51" y="-401.3" font-family="Helvetica,sans-Serif" font-size="9.00">update&#45;state.js</text>
</a>
</g>
</g>
<!-- separated/2&#45;welcome/presentations/integrate&#45;single&#45;page/src/handlers/update&#45;state.js&#45;&gt;separated/2&#45;welcome/business&#45;logic/be&#45;welcoming.js -->
<g id="edge13" class="edge">
<title>separated/2&#45;welcome/presentations/integrate&#45;single&#45;page/src/handlers/update&#45;state.js&#45;&gt;separated/2&#45;welcome/business&#45;logic/be&#45;welcoming.js</title>
<path fill="none" stroke="#000000" stroke-width="2" stroke-opacity="0.200000" d="M257.69,-394.4C258.75,-366.63 265.67,-285.45 310.02,-242 312.46,-239.6 315.26,-237.56 318.25,-235.83"/>
<polygon fill="#000000" fill-opacity="0.200000" stroke="#000000" stroke-width="2" stroke-opacity="0.200000" points="319.41,-237.59 323.83,-233.02 317.52,-233.84 319.41,-237.59"/>
</g>
<!-- separated/2&#45;welcome/presentations/integrate&#45;single&#45;page/src/handlers/update&#45;state.js&#45;&gt;separated/2&#45;welcome/business&#45;logic/update&#45;greeting.js -->
<g id="edge14" class="edge">
<title>separated/2&#45;welcome/presentations/integrate&#45;single&#45;page/src/handlers/update&#45;state.js&#45;&gt;separated/2&#45;welcome/business&#45;logic/update&#45;greeting.js</title>
<path fill="none" stroke="#000000" stroke-width="2" stroke-opacity="0.200000" d="M258.46,-394.65C262.55,-356.39 279.74,-212.25 310.02,-180 311.43,-178.49 312.98,-177.13 314.64,-175.89"/>
<polygon fill="#000000" fill-opacity="0.200000" stroke="#000000" stroke-width="2" stroke-opacity="0.200000" points="315.95,-177.54 319.88,-172.54 313.69,-174 315.95,-177.54"/>
</g>
<!-- separated/2&#45;welcome/presentations/integrate&#45;single&#45;page/src/handlers/update&#45;state.js&#45;&gt;separated/2&#45;welcome/business&#45;logic/update&#45;message.js -->
<g id="edge15" class="edge">
<title>separated/2&#45;welcome/presentations/integrate&#45;single&#45;page/src/handlers/update&#45;state.js&#45;&gt;separated/2&#45;welcome/business&#45;logic/update&#45;message.js</title>
<path fill="none" stroke="#000000" stroke-width="2" stroke-opacity="0.200000" d="M257.1,-394.42C256.32,-363.34 258.2,-264.26 310.02,-211 311.13,-209.85 312.33,-208.79 313.58,-207.8"/>
<polygon fill="#000000" fill-opacity="0.200000" stroke="#000000" stroke-width="2" stroke-opacity="0.200000" points="314.91,-209.44 318.72,-204.35 312.57,-205.96 314.91,-209.44"/>
</g>
<!-- separated/2&#45;welcome/presentations/integrate&#45;single&#45;page/src/init/index.js -->
<g id="node14" class="node">
<title>separated/2&#45;welcome/presentations/integrate&#45;single&#45;page/src/init/index.js</title>
<g id="a_node14"><a xlink:href="separated/2-welcome/presentations/integrate-single-page/src/init/index.js" xlink:title="index.js">
<path fill="#ffffcc" stroke="black" d="M103.8,-428.3C103.8,-428.3 62.2,-428.3 62.2,-428.3 59.1,-428.3 56,-425.2 56,-422.1 56,-422.1 56,-415.9 56,-415.9 56,-412.8 59.1,-409.7 62.2,-409.7 62.2,-409.7 103.8,-409.7 103.8,-409.7 106.9,-409.7 110,-412.8 110,-415.9 110,-415.9 110,-422.1 110,-422.1 110,-425.2 106.9,-428.3 103.8,-428.3"/>
<text text-anchor="middle" x="83" y="-416.3" font-family="Helvetica,sans-Serif" font-size="9.00">index.js</text>
</a>
</g>
</g>
<!-- separated/2&#45;welcome/presentations/integrate&#45;single&#45;page/src/listeners/edit&#45;data.js -->
<g id="node15" class="node">
<title>separated/2&#45;welcome/presentations/integrate&#45;single&#45;page/src/listeners/edit&#45;data.js</title>
<g id="a_node15"><a xlink:href="separated/2-welcome/presentations/integrate-single-page/src/listeners/edit-data.js" xlink:title="edit&#45;data.js">
<path fill="#ffffcc" stroke="black" d="M188.31,-413.3C188.31,-413.3 140.69,-413.3 140.69,-413.3 137.59,-413.3 134.49,-410.2 134.49,-407.1 134.49,-407.1 134.49,-400.9 134.49,-400.9 134.49,-397.8 137.59,-394.7 140.69,-394.7 140.69,-394.7 188.31,-394.7 188.31,-394.7 191.41,-394.7 194.51,-397.8 194.51,-400.9 194.51,-400.9 194.51,-407.1 194.51,-407.1 194.51,-410.2 191.41,-413.3 188.31,-413.3"/>
<text text-anchor="middle" x="164.5" y="-401.3" font-family="Helvetica,sans-Serif" font-size="9.00">edit&#45;data.js</text>
</a>
</g>
</g>
<!-- separated/2&#45;welcome/presentations/integrate&#45;single&#45;page/src/init/index.js&#45;&gt;separated/2&#45;welcome/presentations/integrate&#45;single&#45;page/src/listeners/edit&#45;data.js -->
<g id="edge16" class="edge">
<title>separated/2&#45;welcome/presentations/integrate&#45;single&#45;page/src/init/index.js&#45;&gt;separated/2&#45;welcome/presentations/integrate&#45;single&#45;page/src/listeners/edit&#45;data.js</title>
<path fill="none" stroke="#000000" stroke-width="2" stroke-opacity="0.200000" d="M110.03,-414.09C115.87,-412.99 122.16,-411.8 128.31,-410.64"/>
<polygon fill="#000000" fill-opacity="0.200000" stroke="#000000" stroke-width="2" stroke-opacity="0.200000" points="128.88,-412.67 134.38,-409.49 128.1,-408.54 128.88,-412.67"/>
</g>
<!-- separated/2&#45;welcome/presentations/integrate&#45;single&#45;page/src/listeners/init&#45;index.js -->
<g id="node16" class="node">
<title>separated/2&#45;welcome/presentations/integrate&#45;single&#45;page/src/listeners/init&#45;index.js</title>
<g id="a_node16"><a xlink:href="separated/2-welcome/presentations/integrate-single-page/src/listeners/init-index.js" xlink:title="init&#45;index.js">
<path fill="#ffffcc" stroke="black" d="M188.8,-444.3C188.8,-444.3 140.2,-444.3 140.2,-444.3 137.1,-444.3 134,-441.2 134,-438.1 134,-438.1 134,-431.9 134,-431.9 134,-428.8 137.1,-425.7 140.2,-425.7 140.2,-425.7 188.8,-425.7 188.8,-425.7 191.9,-425.7 195,-428.8 195,-431.9 195,-431.9 195,-438.1 195,-438.1 195,-441.2 191.9,-444.3 188.8,-444.3"/>
<text text-anchor="middle" x="164.5" y="-432.3" font-family="Helvetica,sans-Serif" font-size="9.00">init&#45;index.js</text>
</a>
</g>
</g>
<!-- separated/2&#45;welcome/presentations/integrate&#45;single&#45;page/src/init/index.js&#45;&gt;separated/2&#45;welcome/presentations/integrate&#45;single&#45;page/src/listeners/init&#45;index.js -->
<g id="edge17" class="edge">
<title>separated/2&#45;welcome/presentations/integrate&#45;single&#45;page/src/init/index.js&#45;&gt;separated/2&#45;welcome/presentations/integrate&#45;single&#45;page/src/listeners/init&#45;index.js</title>
<path fill="none" stroke="#000000" stroke-width="2" stroke-opacity="0.200000" d="M110.03,-424.24C115.74,-425.39 121.87,-426.62 127.88,-427.83"/>
<polygon fill="#000000" fill-opacity="0.200000" stroke="#000000" stroke-width="2" stroke-opacity="0.200000" points="127.53,-429.9 133.83,-429.03 128.36,-425.79 127.53,-429.9"/>
</g>
<!-- separated/2&#45;welcome/presentations/integrate&#45;single&#45;page/src/listeners/edit&#45;data.js&#45;&gt;separated/2&#45;welcome/presentations/integrate&#45;single&#45;page/src/handlers/update&#45;state.js -->
<g id="edge18" class="edge">
<title>separated/2&#45;welcome/presentations/integrate&#45;single&#45;page/src/listeners/edit&#45;data.js&#45;&gt;separated/2&#45;welcome/presentations/integrate&#45;single&#45;page/src/handlers/update&#45;state.js</title>
<path fill="none" stroke="#000000" stroke-width="2" stroke-opacity="0.200000" d="M194.97,-404C200.54,-404 206.48,-404 212.37,-404"/>
<polygon fill="#000000" fill-opacity="0.200000" stroke="#000000" stroke-width="2" stroke-opacity="0.200000" points="212.73,-406.1 218.73,-404 212.73,-401.9 212.73,-406.1"/>
</g>
<!-- separated/2&#45;welcome/presentations/integrate&#45;single&#45;page/src/listeners/init&#45;index.js&#45;&gt;separated/2&#45;welcome/presentations/integrate&#45;single&#45;page/src/handlers/init&#45;index.js -->
<g id="edge19" class="edge">
<title>separated/2&#45;welcome/presentations/integrate&#45;single&#45;page/src/listeners/init&#45;index.js&#45;&gt;separated/2&#45;welcome/presentations/integrate&#45;single&#45;page/src/handlers/init&#45;index.js</title>
<path fill="none" stroke="#000000" stroke-width="2" stroke-opacity="0.200000" d="M195.47,-435C203.3,-435 211.81,-435 219.89,-435"/>
<polygon fill="#000000" fill-opacity="0.200000" stroke="#000000" stroke-width="2" stroke-opacity="0.200000" points="219.97,-437.1 225.97,-435 219.97,-432.9 219.97,-437.1"/>
</g>
</g>
</svg>
