<?xml version="1.0" encoding="UTF-8" standalone="no"?>
<!DOCTYPE svg PUBLIC "-//W3C//DTD SVG 1.1//EN"
 "http://www.w3.org/Graphics/SVG/1.1/DTD/svg11.dtd">
<!-- Generated by graphviz version 2.44.0 (20200408.0750)
 -->
<!-- Title: dependency&#45;cruiser output Pages: 1 -->
<svg width="613pt" height="314pt"
 viewBox="0.00 0.00 613.04 314.00" xmlns="http://www.w3.org/2000/svg" xmlns:xlink="http://www.w3.org/1999/xlink">
<g id="graph0" class="graph" transform="scale(1 1) rotate(0) translate(4 310)">
<title>dependency&#45;cruiser output</title>
<polygon fill="white" stroke="transparent" points="-4,4 -4,-310 609.04,-310 609.04,4 -4,4"/>
<g id="clust1" class="cluster">
<title>cluster_separated</title>
<path fill="#ffffff" stroke="black" stroke-width="2" d="M20,-8C20,-8 585.04,-8 585.04,-8 591.04,-8 597.04,-14 597.04,-20 597.04,-20 597.04,-286 597.04,-286 597.04,-292 591.04,-298 585.04,-298 585.04,-298 20,-298 20,-298 14,-298 8,-292 8,-286 8,-286 8,-20 8,-20 8,-14 14,-8 20,-8"/>
<text text-anchor="middle" x="302.52" y="-285.9" font-family="Helvetica,sans-Serif" font-weight="bold" font-size="9.00">separated</text>
</g>
<g id="clust2" class="cluster">
<title>cluster_separated/1&#45;counter</title>
<path fill="#ffffff" stroke="black" stroke-width="2" d="M28,-16C28,-16 577.04,-16 577.04,-16 583.04,-16 589.04,-22 589.04,-28 589.04,-28 589.04,-259 589.04,-259 589.04,-265 583.04,-271 577.04,-271 577.04,-271 28,-271 28,-271 22,-271 16,-265 16,-259 16,-259 16,-28 16,-28 16,-22 22,-16 28,-16"/>
<text text-anchor="middle" x="302.52" y="-258.9" font-family="Helvetica,sans-Serif" font-weight="bold" font-size="9.00">1&#45;counter</text>
</g>
<g id="clust3" class="cluster">
<title>cluster_separated/1&#45;counter/business&#45;logic</title>
<path fill="#ffffff" stroke="black" stroke-width="2" d="M404.03,-48C404.03,-48 491.04,-48 491.04,-48 497.04,-48 503.04,-54 503.04,-60 503.04,-60 503.04,-182 503.04,-182 503.04,-188 497.04,-194 491.04,-194 491.04,-194 404.03,-194 404.03,-194 398.03,-194 392.03,-188 392.03,-182 392.03,-182 392.03,-60 392.03,-60 392.03,-54 398.03,-48 404.03,-48"/>
<text text-anchor="middle" x="447.53" y="-181.9" font-family="Helvetica,sans-Serif" font-weight="bold" font-size="9.00">business&#45;logic</text>
</g>
<g id="clust4" class="cluster">
<title>cluster_separated/1&#45;counter/data&#45;access</title>
<path fill="#ffffff" stroke="black" stroke-width="2" d="M523.04,-58C523.04,-58 569.04,-58 569.04,-58 575.04,-58 581.04,-64 581.04,-70 581.04,-70 581.04,-161 581.04,-161 581.04,-167 575.04,-173 569.04,-173 569.04,-173 523.04,-173 523.04,-173 517.04,-173 511.04,-167 511.04,-161 511.04,-161 511.04,-70 511.04,-70 511.04,-64 517.04,-58 523.04,-58"/>
<text text-anchor="middle" x="546.04" y="-160.9" font-family="Helvetica,sans-Serif" font-weight="bold" font-size="9.00">data&#45;access</text>
</g>
<g id="clust5" class="cluster">
<title>cluster_separated/1&#45;counter/data</title>
<path fill="#ffffff" stroke="black" stroke-width="2" d="M523.04,-181C523.04,-181 569.04,-181 569.04,-181 575.04,-181 581.04,-187 581.04,-193 581.04,-193 581.04,-222 581.04,-222 581.04,-228 575.04,-234 569.04,-234 569.04,-234 523.04,-234 523.04,-234 517.04,-234 511.04,-228 511.04,-222 511.04,-222 511.04,-193 511.04,-193 511.04,-187 517.04,-181 523.04,-181"/>
<text text-anchor="middle" x="546.04" y="-221.9" font-family="Helvetica,sans-Serif" font-weight="bold" font-size="9.00">data</text>
</g>
<g id="clust6" class="cluster">
<title>cluster_separated/1&#45;counter/presentations</title>
<path fill="#ffffff" stroke="black" stroke-width="2" d="M36,-24C36,-24 372.03,-24 372.03,-24 378.03,-24 384.03,-30 384.03,-36 384.03,-36 384.03,-232 384.03,-232 384.03,-238 378.03,-244 372.03,-244 372.03,-244 36,-244 36,-244 30,-244 24,-238 24,-232 24,-232 24,-36 24,-36 24,-30 30,-24 36,-24"/>
<text text-anchor="middle" x="204.01" y="-231.9" font-family="Helvetica,sans-Serif" font-weight="bold" font-size="9.00">presentations</text>
</g>
<g id="clust7" class="cluster">
<title>cluster_separated/1&#45;counter/presentations/integrate&#45;changeable</title>
<path fill="#ffffff" stroke="black" stroke-width="2" d="M44,-32C44,-32 364.03,-32 364.03,-32 370.03,-32 376.03,-38 376.03,-44 376.03,-44 376.03,-205 376.03,-205 376.03,-211 370.03,-217 364.03,-217 364.03,-217 44,-217 44,-217 38,-217 32,-211 32,-205 32,-205 32,-44 32,-44 32,-38 38,-32 44,-32"/>
<text text-anchor="middle" x="204.01" y="-204.9" font-family="Helvetica,sans-Serif" font-weight="bold" font-size="9.00">integrate&#45;changeable</text>
</g>
<g id="clust8" class="cluster">
<title>cluster_separated/1&#45;counter/presentations/integrate&#45;changeable/src</title>
<path fill="#ffffff" stroke="black" stroke-width="2" d="M52,-40C52,-40 356.03,-40 356.03,-40 362.03,-40 368.03,-46 368.03,-52 368.03,-52 368.03,-178 368.03,-178 368.03,-184 362.03,-190 356.03,-190 356.03,-190 52,-190 52,-190 46,-190 40,-184 40,-178 40,-178 40,-52 40,-52 40,-46 46,-40 52,-40"/>
<text text-anchor="middle" x="204.01" y="-177.9" font-family="Helvetica,sans-Serif" font-weight="bold" font-size="9.00">src</text>
</g>
<g id="clust9" class="cluster">
<title>cluster_separated/1&#45;counter/presentations/integrate&#45;changeable/src/handlers</title>
<path fill="#ffffff" stroke="black" stroke-width="2" d="M259.01,-48C259.01,-48 348.03,-48 348.03,-48 354.03,-48 360.03,-54 360.03,-60 360.03,-60 360.03,-151 360.03,-151 360.03,-157 354.03,-163 348.03,-163 348.03,-163 259.01,-163 259.01,-163 253.01,-163 247.01,-157 247.01,-151 247.01,-151 247.01,-60 247.01,-60 247.01,-54 253.01,-48 259.01,-48"/>
<text text-anchor="middle" x="303.52" y="-150.9" font-family="Helvetica,sans-Serif" font-weight="bold" font-size="9.00">handlers</text>
</g>
<g id="clust10" class="cluster">
<title>cluster_separated/1&#45;counter/presentations/integrate&#45;changeable/src/init</title>
<path fill="#ffffff" stroke="black" stroke-width="2" d="M60,-79C60,-79 106,-79 106,-79 112,-79 118,-85 118,-91 118,-91 118,-120 118,-120 118,-126 112,-132 106,-132 106,-132 60,-132 60,-132 54,-132 48,-126 48,-120 48,-120 48,-91 48,-91 48,-85 54,-79 60,-79"/>
<text text-anchor="middle" x="83" y="-119.9" font-family="Helvetica,sans-Serif" font-weight="bold" font-size="9.00">init</text>
</g>
<g id="clust11" class="cluster">
<title>cluster_separated/1&#45;counter/presentations/integrate&#45;changeable/src/listeners</title>
<path fill="#ffffff" stroke="black" stroke-width="2" d="M138,-48C138,-48 227.01,-48 227.01,-48 233.01,-48 239.01,-54 239.01,-60 239.01,-60 239.01,-151 239.01,-151 239.01,-157 233.01,-163 227.01,-163 227.01,-163 138,-163 138,-163 132,-163 126,-157 126,-151 126,-151 126,-60 126,-60 126,-54 132,-48 138,-48"/>
<text text-anchor="middle" x="182.51" y="-150.9" font-family="Helvetica,sans-Serif" font-weight="bold" font-size="9.00">listeners</text>
</g>
<!-- separated/1&#45;counter/business&#45;logic/get.js -->
<g id="node1" class="node">
<title>separated/1&#45;counter/business&#45;logic/get.js</title>
<g id="a_node1"><a xlink:href="separated/1-counter/business-logic/get.js" xlink:title="get.js">
<path fill="#ffffcc" stroke="black" d="M468.33,-136.3C468.33,-136.3 426.73,-136.3 426.73,-136.3 423.63,-136.3 420.53,-133.2 420.53,-130.1 420.53,-130.1 420.53,-123.9 420.53,-123.9 420.53,-120.8 423.63,-117.7 426.73,-117.7 426.73,-117.7 468.33,-117.7 468.33,-117.7 471.43,-117.7 474.53,-120.8 474.53,-123.9 474.53,-123.9 474.53,-130.1 474.53,-130.1 474.53,-133.2 471.43,-136.3 468.33,-136.3"/>
<text text-anchor="middle" x="447.53" y="-124.3" font-family="Helvetica,sans-Serif" font-size="9.00">get.js</text>
</a>
</g>
</g>
<!-- separated/1&#45;counter/data&#45;access/find.js -->
<g id="node2" class="node">
<title>separated/1&#45;counter/data&#45;access/find.js</title>
<g id="a_node2"><a xlink:href="separated/1-counter/data-access/find.js" xlink:title="find.js">
<polygon fill="#ffffcc" stroke="black" points="573.04,-115.3 571.49,-117.37 560.64,-117.37 559.09,-115.3 519.04,-115.3 519.04,-96.7 573.04,-96.7 573.04,-115.3"/>
<text text-anchor="middle" x="546.04" y="-103.3" font-family="Helvetica,sans-Serif" font-size="9.00">find.js</text>
</a>
</g>
</g>
<!-- separated/1&#45;counter/business&#45;logic/get.js&#45;&gt;separated/1&#45;counter/data&#45;access/find.js -->
<g id="edge1" class="edge">
<title>separated/1&#45;counter/business&#45;logic/get.js&#45;&gt;separated/1&#45;counter/data&#45;access/find.js</title>
<path fill="none" stroke="#000000" stroke-width="2" stroke-opacity="0.200000" d="M474.65,-121.32C486.45,-118.75 500.51,-115.69 512.94,-112.98"/>
<polygon fill="#000000" fill-opacity="0.200000" stroke="#000000" stroke-width="2" stroke-opacity="0.200000" points="513.49,-115.02 518.9,-111.69 512.59,-110.91 513.49,-115.02"/>
</g>
<!-- separated/1&#45;counter/business&#45;logic/initialize&#45;state.js -->
<g id="node3" class="node">
<title>separated/1&#45;counter/business&#45;logic/initialize&#45;state.js</title>
<g id="a_node3"><a xlink:href="separated/1-counter/business-logic/initialize-state.js" xlink:title="initialize&#45;state.js">
<path fill="#ffffcc" stroke="black" d="M481.33,-167.3C481.33,-167.3 413.73,-167.3 413.73,-167.3 410.63,-167.3 407.53,-164.2 407.53,-161.1 407.53,-161.1 407.53,-154.9 407.53,-154.9 407.53,-151.8 410.63,-148.7 413.73,-148.7 413.73,-148.7 481.33,-148.7 481.33,-148.7 484.43,-148.7 487.53,-151.8 487.53,-154.9 487.53,-154.9 487.53,-161.1 487.53,-161.1 487.53,-164.2 484.43,-167.3 481.33,-167.3"/>
<text text-anchor="middle" x="447.53" y="-155.3" font-family="Helvetica,sans-Serif" font-size="9.00">initialize&#45;state.js</text>
</a>
</g>
</g>
<!-- separated/1&#45;counter/data&#45;access/load.js -->
<g id="node4" class="node">
<title>separated/1&#45;counter/data&#45;access/load.js</title>
<g id="a_node4"><a xlink:href="separated/1-counter/data-access/load.js" xlink:title="load.js">
<polygon fill="#ffffcc" stroke="black" points="573.04,-146.3 571.49,-148.37 560.64,-148.37 559.09,-146.3 519.04,-146.3 519.04,-127.7 573.04,-127.7 573.04,-146.3"/>
<text text-anchor="middle" x="546.04" y="-134.3" font-family="Helvetica,sans-Serif" font-size="9.00">load.js</text>
</a>
</g>
</g>
<!-- separated/1&#45;counter/business&#45;logic/initialize&#45;state.js&#45;&gt;separated/1&#45;counter/data&#45;access/load.js -->
<g id="edge2" class="edge">
<title>separated/1&#45;counter/business&#45;logic/initialize&#45;state.js&#45;&gt;separated/1&#45;counter/data&#45;access/load.js</title>
<path fill="none" stroke="#000000" stroke-width="2" stroke-opacity="0.200000" d="M487.51,-149.52C495.93,-147.69 504.74,-145.77 512.87,-144"/>
<polygon fill="#000000" fill-opacity="0.200000" stroke="#000000" stroke-width="2" stroke-opacity="0.200000" points="513.51,-146.01 518.93,-142.68 512.62,-141.91 513.51,-146.01"/>
</g>
<!-- separated/1&#45;counter/data/count.js -->
<g id="node5" class="node">
<title>separated/1&#45;counter/data/count.js</title>
<g id="a_node5"><a xlink:href="separated/1-counter/data/count.js" xlink:title="count.js">
<path fill="#ffffcc" stroke="black" d="M566.84,-207.3C566.84,-207.3 525.24,-207.3 525.24,-207.3 522.14,-207.3 519.04,-204.2 519.04,-201.1 519.04,-201.1 519.04,-194.9 519.04,-194.9 519.04,-191.8 522.14,-188.7 525.24,-188.7 525.24,-188.7 566.84,-188.7 566.84,-188.7 569.94,-188.7 573.04,-191.8 573.04,-194.9 573.04,-194.9 573.04,-201.1 573.04,-201.1 573.04,-204.2 569.94,-207.3 566.84,-207.3"/>
<text text-anchor="middle" x="546.04" y="-195.3" font-family="Helvetica,sans-Serif" font-size="9.00">count.js</text>
</a>
</g>
</g>
<!-- separated/1&#45;counter/business&#45;logic/initialize&#45;state.js&#45;&gt;separated/1&#45;counter/data/count.js -->
<g id="edge3" class="edge">
<title>separated/1&#45;counter/business&#45;logic/initialize&#45;state.js&#45;&gt;separated/1&#45;counter/data/count.js</title>
<path fill="none" stroke="#000000" stroke-width="2" stroke-opacity="0.200000" d="M471.4,-167.48C484.98,-173.11 502.32,-180.29 516.75,-186.28"/>
<polygon fill="#000000" fill-opacity="0.200000" stroke="#000000" stroke-width="2" stroke-opacity="0.200000" points="515.99,-188.23 522.33,-188.59 517.59,-184.35 515.99,-188.23"/>
</g>
<!-- separated/1&#45;counter/business&#45;logic/step.js -->
<g id="node6" class="node">
<title>separated/1&#45;counter/business&#45;logic/step.js</title>
<g id="a_node6"><a xlink:href="separated/1-counter/business-logic/step.js" xlink:title="step.js">
<path fill="#ffffcc" stroke="black" d="M468.33,-105.3C468.33,-105.3 426.73,-105.3 426.73,-105.3 423.63,-105.3 420.53,-102.2 420.53,-99.1 420.53,-99.1 420.53,-92.9 420.53,-92.9 420.53,-89.8 423.63,-86.7 426.73,-86.7 426.73,-86.7 468.33,-86.7 468.33,-86.7 471.43,-86.7 474.53,-89.8 474.53,-92.9 474.53,-92.9 474.53,-99.1 474.53,-99.1 474.53,-102.2 471.43,-105.3 468.33,-105.3"/>
<text text-anchor="middle" x="447.53" y="-93.3" font-family="Helvetica,sans-Serif" font-size="9.00">step.js</text>
</a>
</g>
</g>
<!-- separated/1&#45;counter/business&#45;logic/step.js&#45;&gt;separated/1&#45;counter/data&#45;access/find.js -->
<g id="edge4" class="edge">
<title>separated/1&#45;counter/business&#45;logic/step.js&#45;&gt;separated/1&#45;counter/data&#45;access/find.js</title>
<path fill="none" stroke="#000000" stroke-width="2" stroke-opacity="0.200000" d="M474.65,-98.71C486.34,-99.92 500.25,-101.36 512.6,-102.64"/>
<polygon fill="#000000" fill-opacity="0.200000" stroke="#000000" stroke-width="2" stroke-opacity="0.200000" points="512.72,-104.76 518.9,-103.29 513.15,-100.58 512.72,-104.76"/>
</g>
<!-- separated/1&#45;counter/data&#45;access/save.js -->
<g id="node7" class="node">
<title>separated/1&#45;counter/data&#45;access/save.js</title>
<g id="a_node7"><a xlink:href="separated/1-counter/data-access/save.js" xlink:title="save.js">
<polygon fill="#ffffcc" stroke="black" points="573.04,-84.3 571.49,-86.37 560.64,-86.37 559.09,-84.3 519.04,-84.3 519.04,-65.7 573.04,-65.7 573.04,-84.3"/>
<text text-anchor="middle" x="546.04" y="-72.3" font-family="Helvetica,sans-Serif" font-size="9.00">save.js</text>
</a>
</g>
</g>
<!-- separated/1&#45;counter/business&#45;logic/step.js&#45;&gt;separated/1&#45;counter/data&#45;access/save.js -->
<g id="edge5" class="edge">
<title>separated/1&#45;counter/business&#45;logic/step.js&#45;&gt;separated/1&#45;counter/data&#45;access/save.js</title>
<path fill="none" stroke="#000000" stroke-width="2" stroke-opacity="0.200000" d="M474.65,-90.32C486.45,-87.75 500.51,-84.69 512.94,-81.98"/>
<polygon fill="#000000" fill-opacity="0.200000" stroke="#000000" stroke-width="2" stroke-opacity="0.200000" points="513.49,-84.02 518.9,-80.69 512.59,-79.91 513.49,-84.02"/>
</g>
<!-- separated/1&#45;counter/business&#45;logic/update&#45;increment.js -->
<g id="node8" class="node">
<title>separated/1&#45;counter/business&#45;logic/update&#45;increment.js</title>
<g id="a_node8"><a xlink:href="separated/1-counter/business-logic/update-increment.js" xlink:title="update&#45;increment.js">
<path fill="#ffffcc" stroke="black" d="M488.85,-74.3C488.85,-74.3 406.22,-74.3 406.22,-74.3 403.12,-74.3 400.02,-71.2 400.02,-68.1 400.02,-68.1 400.02,-61.9 400.02,-61.9 400.02,-58.8 403.12,-55.7 406.22,-55.7 406.22,-55.7 488.85,-55.7 488.85,-55.7 491.95,-55.7 495.05,-58.8 495.05,-61.9 495.05,-61.9 495.05,-68.1 495.05,-68.1 495.05,-71.2 491.95,-74.3 488.85,-74.3"/>
<text text-anchor="middle" x="447.53" y="-62.3" font-family="Helvetica,sans-Serif" font-size="9.00">update&#45;increment.js</text>
</a>
</g>
</g>
<!-- separated/1&#45;counter/business&#45;logic/update&#45;increment.js&#45;&gt;separated/1&#45;counter/data&#45;access/save.js -->
<g id="edge6" class="edge">
<title>separated/1&#45;counter/business&#45;logic/update&#45;increment.js&#45;&gt;separated/1&#45;counter/data&#45;access/save.js</title>
<path fill="none" stroke="#000000" stroke-width="2" stroke-opacity="0.200000" d="M495.09,-69.82C501.11,-70.45 507.16,-71.07 512.87,-71.67"/>
<polygon fill="#000000" fill-opacity="0.200000" stroke="#000000" stroke-width="2" stroke-opacity="0.200000" points="512.74,-73.76 518.92,-72.29 513.17,-69.59 512.74,-73.76"/>
</g>
<!-- separated/1&#45;counter/presentations/integrate&#45;changeable/src/handlers/change&#45;increment.js -->
<g id="node9" class="node">
<title>separated/1&#45;counter/presentations/integrate&#45;changeable/src/handlers/change&#45;increment.js</title>
<g id="a_node9"><a xlink:href="separated/1-counter/presentations/integrate-changeable/src/handlers/change-increment.js" xlink:title="change&#45;increment.js">
<path fill="#ffffcc" stroke="black" d="M345.83,-74.3C345.83,-74.3 261.21,-74.3 261.21,-74.3 258.11,-74.3 255.01,-71.2 255.01,-68.1 255.01,-68.1 255.01,-61.9 255.01,-61.9 255.01,-58.8 258.11,-55.7 261.21,-55.7 261.21,-55.7 345.83,-55.7 345.83,-55.7 348.93,-55.7 352.03,-58.8 352.03,-61.9 352.03,-61.9 352.03,-68.1 352.03,-68.1 352.03,-71.2 348.93,-74.3 345.83,-74.3"/>
<text text-anchor="middle" x="303.52" y="-62.3" font-family="Helvetica,sans-Serif" font-size="9.00">change&#45;increment.js</text>
</a>
</g>
</g>
<!-- separated/1&#45;counter/presentations/integrate&#45;changeable/src/handlers/change&#45;increment.js&#45;&gt;separated/1&#45;counter/business&#45;logic/update&#45;increment.js -->
<g id="edge7" class="edge">
<title>separated/1&#45;counter/presentations/integrate&#45;changeable/src/handlers/change&#45;increment.js&#45;&gt;separated/1&#45;counter/business&#45;logic/update&#45;increment.js</title>
<path fill="none" stroke="#000000" stroke-width="2" stroke-opacity="0.200000" d="M352.2,-65C365.48,-65 379.98,-65 393.54,-65"/>
<polygon fill="#000000" fill-opacity="0.200000" stroke="#000000" stroke-width="2" stroke-opacity="0.200000" points="393.7,-67.1 399.7,-65 393.7,-62.9 393.7,-67.1"/>
</g>
<!-- separated/1&#45;counter/presentations/integrate&#45;changeable/src/handlers/initialize&#45;app.js -->
<g id="node10" class="node">
<title>separated/1&#45;counter/presentations/integrate&#45;changeable/src/handlers/initialize&#45;app.js</title>
<g id="a_node10"><a xlink:href="separated/1-counter/presentations/integrate-changeable/src/handlers/initialize-app.js" xlink:title="initialize&#45;app.js">
<path fill="#ffffcc" stroke="black" d="M334.82,-136.3C334.82,-136.3 272.22,-136.3 272.22,-136.3 269.12,-136.3 266.02,-133.2 266.02,-130.1 266.02,-130.1 266.02,-123.9 266.02,-123.9 266.02,-120.8 269.12,-117.7 272.22,-117.7 272.22,-117.7 334.82,-117.7 334.82,-117.7 337.92,-117.7 341.02,-120.8 341.02,-123.9 341.02,-123.9 341.02,-130.1 341.02,-130.1 341.02,-133.2 337.92,-136.3 334.82,-136.3"/>
<text text-anchor="middle" x="303.52" y="-124.3" font-family="Helvetica,sans-Serif" font-size="9.00">initialize&#45;app.js</text>
</a>
</g>
</g>
<!-- separated/1&#45;counter/presentations/integrate&#45;changeable/src/handlers/initialize&#45;app.js&#45;&gt;separated/1&#45;counter/business&#45;logic/get.js -->
<g id="edge8" class="edge">
<title>separated/1&#45;counter/presentations/integrate&#45;changeable/src/handlers/initialize&#45;app.js&#45;&gt;separated/1&#45;counter/business&#45;logic/get.js</title>
<path fill="none" stroke="#000000" stroke-width="2" stroke-opacity="0.200000" d="M341.09,-127C363.68,-127 392.4,-127 414.17,-127"/>
<polygon fill="#000000" fill-opacity="0.200000" stroke="#000000" stroke-width="2" stroke-opacity="0.200000" points="414.39,-129.1 420.39,-127 414.39,-124.9 414.39,-129.1"/>
</g>
<!-- separated/1&#45;counter/presentations/integrate&#45;changeable/src/handlers/initialize&#45;app.js&#45;&gt;separated/1&#45;counter/business&#45;logic/initialize&#45;state.js -->
<g id="edge9" class="edge">
<title>separated/1&#45;counter/presentations/integrate&#45;changeable/src/handlers/initialize&#45;app.js&#45;&gt;separated/1&#45;counter/business&#45;logic/initialize&#45;state.js</title>
<path fill="none" stroke="#000000" stroke-width="2" stroke-opacity="0.200000" d="M341.09,-134.98C359.56,-139.02 382.13,-143.94 401.65,-148.2"/>
<polygon fill="#000000" fill-opacity="0.200000" stroke="#000000" stroke-width="2" stroke-opacity="0.200000" points="401.29,-150.27 407.6,-149.5 402.18,-146.17 401.29,-150.27"/>
</g>
<!-- separated/1&#45;counter/presentations/integrate&#45;changeable/src/handlers/step.js -->
<g id="node11" class="node">
<title>separated/1&#45;counter/presentations/integrate&#45;changeable/src/handlers/step.js</title>
<g id="a_node11"><a xlink:href="separated/1-counter/presentations/integrate-changeable/src/handlers/step.js" xlink:title="step.js">
<path fill="#ffffcc" stroke="black" d="M324.32,-105.3C324.32,-105.3 282.72,-105.3 282.72,-105.3 279.62,-105.3 276.52,-102.2 276.52,-99.1 276.52,-99.1 276.52,-92.9 276.52,-92.9 276.52,-89.8 279.62,-86.7 282.72,-86.7 282.72,-86.7 324.32,-86.7 324.32,-86.7 327.42,-86.7 330.52,-89.8 330.52,-92.9 330.52,-92.9 330.52,-99.1 330.52,-99.1 330.52,-102.2 327.42,-105.3 324.32,-105.3"/>
<text text-anchor="middle" x="303.52" y="-93.3" font-family="Helvetica,sans-Serif" font-size="9.00">step.js</text>
</a>
</g>
</g>
<!-- separated/1&#45;counter/presentations/integrate&#45;changeable/src/handlers/step.js&#45;&gt;separated/1&#45;counter/business&#45;logic/step.js -->
<g id="edge10" class="edge">
<title>separated/1&#45;counter/presentations/integrate&#45;changeable/src/handlers/step.js&#45;&gt;separated/1&#45;counter/business&#45;logic/step.js</title>
<path fill="none" stroke="#000000" stroke-width="2" stroke-opacity="0.200000" d="M330.57,-96C354.04,-96 388.65,-96 413.95,-96"/>
<polygon fill="#000000" fill-opacity="0.200000" stroke="#000000" stroke-width="2" stroke-opacity="0.200000" points="414.17,-98.1 420.17,-96 414.17,-93.9 414.17,-98.1"/>
</g>
<!-- separated/1&#45;counter/presentations/integrate&#45;changeable/src/init/index.js -->
<g id="node12" class="node">
<title>separated/1&#45;counter/presentations/integrate&#45;changeable/src/init/index.js</title>
<g id="a_node12"><a xlink:href="separated/1-counter/presentations/integrate-changeable/src/init/index.js" xlink:title="index.js">
<path fill="#ffffcc" stroke="black" d="M103.8,-105.3C103.8,-105.3 62.2,-105.3 62.2,-105.3 59.1,-105.3 56,-102.2 56,-99.1 56,-99.1 56,-92.9 56,-92.9 56,-89.8 59.1,-86.7 62.2,-86.7 62.2,-86.7 103.8,-86.7 103.8,-86.7 106.9,-86.7 110,-89.8 110,-92.9 110,-92.9 110,-99.1 110,-99.1 110,-102.2 106.9,-105.3 103.8,-105.3"/>
<text text-anchor="middle" x="83" y="-93.3" font-family="Helvetica,sans-Serif" font-size="9.00">index.js</text>
</a>
</g>
</g>
<!-- separated/1&#45;counter/presentations/integrate&#45;changeable/src/listeners/change&#45;increment.js -->
<g id="node13" class="node">
<title>separated/1&#45;counter/presentations/integrate&#45;changeable/src/listeners/change&#45;increment.js</title>
<g id="a_node13"><a xlink:href="separated/1-counter/presentations/integrate-changeable/src/listeners/change-increment.js" xlink:title="change&#45;increment.js">
<path fill="#ffffcc" stroke="black" d="M224.82,-74.3C224.82,-74.3 140.19,-74.3 140.19,-74.3 137.09,-74.3 133.99,-71.2 133.99,-68.1 133.99,-68.1 133.99,-61.9 133.99,-61.9 133.99,-58.8 137.09,-55.7 140.19,-55.7 140.19,-55.7 224.82,-55.7 224.82,-55.7 227.92,-55.7 231.02,-58.8 231.02,-61.9 231.02,-61.9 231.02,-68.1 231.02,-68.1 231.02,-71.2 227.92,-74.3 224.82,-74.3"/>
<text text-anchor="middle" x="182.51" y="-62.3" font-family="Helvetica,sans-Serif" font-size="9.00">change&#45;increment.js</text>
</a>
</g>
</g>
<!-- separated/1&#45;counter/presentations/integrate&#45;changeable/src/init/index.js&#45;&gt;separated/1&#45;counter/presentations/integrate&#45;changeable/src/listeners/change&#45;increment.js -->
<g id="edge11" class="edge">
<title>separated/1&#45;counter/presentations/integrate&#45;changeable/src/init/index.js&#45;&gt;separated/1&#45;counter/presentations/integrate&#45;changeable/src/listeners/change&#45;increment.js</title>
<path fill="none" stroke="#000000" stroke-width="2" stroke-opacity="0.200000" d="M109.68,-86.54C115.05,-84.65 120.69,-82.71 126,-81 131.19,-79.33 136.67,-77.64 142.1,-76.03"/>
<polygon fill="#000000" fill-opacity="0.200000" stroke="#000000" stroke-width="2" stroke-opacity="0.200000" points="142.78,-78.02 147.94,-74.31 141.59,-73.99 142.78,-78.02"/>
</g>
<!-- separated/1&#45;counter/presentations/integrate&#45;changeable/src/listeners/load.js -->
<g id="node14" class="node">
<title>separated/1&#45;counter/presentations/integrate&#45;changeable/src/listeners/load.js</title>
<g id="a_node14"><a xlink:href="separated/1-counter/presentations/integrate-changeable/src/listeners/load.js" xlink:title="load.js">
<path fill="#ffffcc" stroke="black" d="M203.31,-136.3C203.31,-136.3 161.71,-136.3 161.71,-136.3 158.61,-136.3 155.51,-133.2 155.51,-130.1 155.51,-130.1 155.51,-123.9 155.51,-123.9 155.51,-120.8 158.61,-117.7 161.71,-117.7 161.71,-117.7 203.31,-117.7 203.31,-117.7 206.41,-117.7 209.51,-120.8 209.51,-123.9 209.51,-123.9 209.51,-130.1 209.51,-130.1 209.51,-133.2 206.41,-136.3 203.31,-136.3"/>
<text text-anchor="middle" x="182.51" y="-124.3" font-family="Helvetica,sans-Serif" font-size="9.00">load.js</text>
</a>
</g>
</g>
<!-- separated/1&#45;counter/presentations/integrate&#45;changeable/src/init/index.js&#45;&gt;separated/1&#45;counter/presentations/integrate&#45;changeable/src/listeners/load.js -->
<g id="edge12" class="edge">
<title>separated/1&#45;counter/presentations/integrate&#45;changeable/src/init/index.js&#45;&gt;separated/1&#45;counter/presentations/integrate&#45;changeable/src/listeners/load.js</title>
<path fill="none" stroke="#000000" stroke-width="2" stroke-opacity="0.200000" d="M109.68,-105.46C115.05,-107.35 120.69,-109.29 126,-111 133.61,-113.45 141.86,-115.93 149.61,-118.17"/>
<polygon fill="#000000" fill-opacity="0.200000" stroke="#000000" stroke-width="2" stroke-opacity="0.200000" points="149.08,-120.21 155.43,-119.84 150.24,-116.17 149.08,-120.21"/>
</g>
<!-- separated/1&#45;counter/presentations/integrate&#45;changeable/src/listeners/step.js -->
<g id="node15" class="node">
<title>separated/1&#45;counter/presentations/integrate&#45;changeable/src/listeners/step.js</title>
<g id="a_node15"><a xlink:href="separated/1-counter/presentations/integrate-changeable/src/listeners/step.js" xlink:title="step.js">
<path fill="#ffffcc" stroke="black" d="M203.31,-105.3C203.31,-105.3 161.71,-105.3 161.71,-105.3 158.61,-105.3 155.51,-102.2 155.51,-99.1 155.51,-99.1 155.51,-92.9 155.51,-92.9 155.51,-89.8 158.61,-86.7 161.71,-86.7 161.71,-86.7 203.31,-86.7 203.31,-86.7 206.41,-86.7 209.51,-89.8 209.51,-92.9 209.51,-92.9 209.51,-99.1 209.51,-99.1 209.51,-102.2 206.41,-105.3 203.31,-105.3"/>
<text text-anchor="middle" x="182.51" y="-93.3" font-family="Helvetica,sans-Serif" font-size="9.00">step.js</text>
</a>
</g>
</g>
<!-- separated/1&#45;counter/presentations/integrate&#45;changeable/src/init/index.js&#45;&gt;separated/1&#45;counter/presentations/integrate&#45;changeable/src/listeners/step.js -->
<g id="edge13" class="edge">
<title>separated/1&#45;counter/presentations/integrate&#45;changeable/src/init/index.js&#45;&gt;separated/1&#45;counter/presentations/integrate&#45;changeable/src/listeners/step.js</title>
<path fill="none" stroke="#000000" stroke-width="2" stroke-opacity="0.200000" d="M110.13,-96C122.15,-96 136.53,-96 149.23,-96"/>
<polygon fill="#000000" fill-opacity="0.200000" stroke="#000000" stroke-width="2" stroke-opacity="0.200000" points="149.3,-98.1 155.3,-96 149.3,-93.9 149.3,-98.1"/>
</g>
<!-- separated/1&#45;counter/presentations/integrate&#45;changeable/src/listeners/change&#45;increment.js&#45;&gt;separated/1&#45;counter/presentations/integrate&#45;changeable/src/handlers/change&#45;increment.js -->
<g id="edge14" class="edge">
<title>separated/1&#45;counter/presentations/integrate&#45;changeable/src/listeners/change&#45;increment.js&#45;&gt;separated/1&#45;counter/presentations/integrate&#45;changeable/src/handlers/change&#45;increment.js</title>
<path fill="none" stroke="#000000" stroke-width="2" stroke-opacity="0.200000" d="M231.23,-65C236.93,-65 242.78,-65 248.55,-65"/>
<polygon fill="#000000" fill-opacity="0.200000" stroke="#000000" stroke-width="2" stroke-opacity="0.200000" points="248.79,-67.1 254.79,-65 248.79,-62.9 248.79,-67.1"/>
</g>
<!-- separated/1&#45;counter/presentations/integrate&#45;changeable/src/listeners/load.js&#45;&gt;separated/1&#45;counter/presentations/integrate&#45;changeable/src/handlers/initialize&#45;app.js -->
<g id="edge15" class="edge">
<title>separated/1&#45;counter/presentations/integrate&#45;changeable/src/listeners/load.js&#45;&gt;separated/1&#45;counter/presentations/integrate&#45;changeable/src/handlers/initialize&#45;app.js</title>
<path fill="none" stroke="#000000" stroke-width="2" stroke-opacity="0.200000" d="M209.62,-127C224.25,-127 242.85,-127 259.57,-127"/>
<polygon fill="#000000" fill-opacity="0.200000" stroke="#000000" stroke-width="2" stroke-opacity="0.200000" points="259.63,-129.1 265.63,-127 259.63,-124.9 259.63,-129.1"/>
</g>
<!-- separated/1&#45;counter/presentations/integrate&#45;changeable/src/listeners/step.js&#45;&gt;separated/1&#45;counter/presentations/integrate&#45;changeable/src/handlers/step.js -->
<g id="edge16" class="edge">
<title>separated/1&#45;counter/presentations/integrate&#45;changeable/src/listeners/step.js&#45;&gt;separated/1&#45;counter/presentations/integrate&#45;changeable/src/handlers/step.js</title>
<path fill="none" stroke="#000000" stroke-width="2" stroke-opacity="0.200000" d="M209.62,-96C227.45,-96 251.19,-96 270.21,-96"/>
<polygon fill="#000000" fill-opacity="0.200000" stroke="#000000" stroke-width="2" stroke-opacity="0.200000" points="270.46,-98.1 276.46,-96 270.46,-93.9 270.46,-98.1"/>
</g>
</g>
</svg>
