<?xml version="1.0" encoding="UTF-8" standalone="no"?>
<!DOCTYPE svg PUBLIC "-//W3C//DTD SVG 1.1//EN"
 "http://www.w3.org/Graphics/SVG/1.1/DTD/svg11.dtd">
<!-- Generated by graphviz version 2.44.0 (20200408.0750)
 -->
<!-- Title: dependency&#45;cruiser output Pages: 1 -->
<svg width="586pt" height="713pt"
 viewBox="0.00 0.00 585.54 713.00" xmlns="http://www.w3.org/2000/svg" xmlns:xlink="http://www.w3.org/1999/xlink">
<g id="graph0" class="graph" transform="scale(1 1) rotate(0) translate(4 709)">
<title>dependency&#45;cruiser output</title>
<polygon fill="white" stroke="transparent" points="-4,4 -4,-709 581.54,-709 581.54,4 -4,4"/>
<g id="clust1" class="cluster">
<title>cluster_data&#45;access</title>
<path fill="#ffffff" stroke="black" stroke-width="2" d="M468.04,-8C468.04,-8 521.05,-8 521.05,-8 527.05,-8 533.05,-14 533.05,-20 533.05,-20 533.05,-111 533.05,-111 533.05,-117 527.05,-123 521.05,-123 521.05,-123 468.04,-123 468.04,-123 462.04,-123 456.04,-117 456.04,-111 456.04,-111 456.04,-20 456.04,-20 456.04,-14 462.04,-8 468.04,-8"/>
<text text-anchor="middle" x="494.54" y="-110.9" font-family="Helvetica,sans-Serif" font-weight="bold" font-size="9.00">data&#45;access</text>
</g>
<g id="clust2" class="cluster">
<title>cluster_separated</title>
<path fill="#ffffff" stroke="black" stroke-width="2" d="M20,-131C20,-131 559.54,-131 559.54,-131 565.54,-131 571.54,-137 571.54,-143 571.54,-143 571.54,-685 571.54,-685 571.54,-691 565.54,-697 559.54,-697 559.54,-697 20,-697 20,-697 14,-697 8,-691 8,-685 8,-685 8,-143 8,-143 8,-137 14,-131 20,-131"/>
<text text-anchor="middle" x="289.77" y="-684.9" font-family="Helvetica,sans-Serif" font-weight="bold" font-size="9.00">separated</text>
</g>
<g id="clust3" class="cluster">
<title>cluster_separated/welcome</title>
<path fill="#ffffff" stroke="black" stroke-width="2" d="M28,-139C28,-139 551.54,-139 551.54,-139 557.54,-139 563.54,-145 563.54,-151 563.54,-151 563.54,-658 563.54,-658 563.54,-664 557.54,-670 551.54,-670 551.54,-670 28,-670 28,-670 22,-670 16,-664 16,-658 16,-658 16,-151 16,-151 16,-145 22,-139 28,-139"/>
<text text-anchor="middle" x="289.77" y="-657.9" font-family="Helvetica,sans-Serif" font-weight="bold" font-size="9.00">welcome</text>
</g>
<g id="clust4" class="cluster">
<title>cluster_separated/welcome/business&#45;logic</title>
<path fill="#ffffff" stroke="black" stroke-width="2" d="M314.02,-147C314.02,-147 398.04,-147 398.04,-147 404.04,-147 410.04,-153 410.04,-159 410.04,-159 410.04,-312 410.04,-312 410.04,-318 404.04,-324 398.04,-324 398.04,-324 314.02,-324 314.02,-324 308.02,-324 302.02,-318 302.02,-312 302.02,-312 302.02,-159 302.02,-159 302.02,-153 308.02,-147 314.02,-147"/>
<text text-anchor="middle" x="356.03" y="-311.9" font-family="Helvetica,sans-Serif" font-weight="bold" font-size="9.00">business&#45;logic</text>
</g>
<g id="clust5" class="cluster">
<title>cluster_separated/welcome/data</title>
<path fill="#ffffff" stroke="black" stroke-width="2" d="M225.51,-590C225.51,-590 271.51,-590 271.51,-590 277.51,-590 283.51,-596 283.51,-602 283.51,-602 283.51,-631 283.51,-631 283.51,-637 277.51,-643 271.51,-643 271.51,-643 225.51,-643 225.51,-643 219.51,-643 213.51,-637 213.51,-631 213.51,-631 213.51,-602 213.51,-602 213.51,-596 219.51,-590 225.51,-590"/>
<text text-anchor="middle" x="248.51" y="-630.9" font-family="Helvetica,sans-Serif" font-weight="bold" font-size="9.00">data</text>
</g>
<g id="clust6" class="cluster">
<title>cluster_separated/welcome/presentations</title>
<path fill="#ffffff" stroke="black" stroke-width="2" d="M36,-332C36,-332 543.54,-332 543.54,-332 549.54,-332 555.54,-338 555.54,-344 555.54,-344 555.54,-570 555.54,-570 555.54,-576 549.54,-582 543.54,-582 543.54,-582 36,-582 36,-582 30,-582 24,-576 24,-570 24,-570 24,-344 24,-344 24,-338 30,-332 36,-332"/>
<text text-anchor="middle" x="289.77" y="-569.9" font-family="Helvetica,sans-Serif" font-weight="bold" font-size="9.00">presentations</text>
</g>
<g id="clust7" class="cluster">
<title>cluster_separated/welcome/presentations/integrate&#45;single&#45;page</title>
<path fill="#ffffff" stroke="black" stroke-width="2" d="M44,-340C44,-340 535.54,-340 535.54,-340 541.54,-340 547.54,-346 547.54,-352 547.54,-352 547.54,-543 547.54,-543 547.54,-549 541.54,-555 535.54,-555 535.54,-555 44,-555 44,-555 38,-555 32,-549 32,-543 32,-543 32,-352 32,-352 32,-346 38,-340 44,-340"/>
<text text-anchor="middle" x="289.77" y="-542.9" font-family="Helvetica,sans-Serif" font-weight="bold" font-size="9.00">integrate&#45;single&#45;page</text>
</g>
<g id="clust8" class="cluster">
<title>cluster_separated/welcome/presentations/integrate&#45;single&#45;page/src</title>
<path fill="#ffffff" stroke="black" stroke-width="2" d="M52,-348C52,-348 527.54,-348 527.54,-348 533.54,-348 539.54,-354 539.54,-360 539.54,-360 539.54,-516 539.54,-516 539.54,-522 533.54,-528 527.54,-528 527.54,-528 52,-528 52,-528 46,-528 40,-522 40,-516 40,-516 40,-360 40,-360 40,-354 46,-348 52,-348"/>
<text text-anchor="middle" x="289.77" y="-515.9" font-family="Helvetica,sans-Serif" font-weight="bold" font-size="9.00">src</text>
</g>
<g id="clust9" class="cluster">
<title>cluster_separated/welcome/presentations/integrate&#45;single&#45;page/src/components</title>
<path fill="#ffffff" stroke="black" stroke-width="2" d="M329.02,-387C329.02,-387 383.03,-387 383.03,-387 389.03,-387 395.03,-393 395.03,-399 395.03,-399 395.03,-428 395.03,-428 395.03,-434 389.03,-440 383.03,-440 383.03,-440 329.02,-440 329.02,-440 323.02,-440 317.02,-434 317.02,-428 317.02,-428 317.02,-399 317.02,-399 317.02,-393 323.02,-387 329.02,-387"/>
<text text-anchor="middle" x="356.03" y="-427.9" font-family="Helvetica,sans-Serif" font-weight="bold" font-size="9.00">components</text>
</g>
<g id="clust10" class="cluster">
<title>cluster_separated/welcome/presentations/integrate&#45;single&#45;page/src/custom&#45;events</title>
<path fill="#ffffff" stroke="black" stroke-width="2" d="M469.54,-387C469.54,-387 519.54,-387 519.54,-387 525.54,-387 531.54,-393 531.54,-399 531.54,-399 531.54,-428 531.54,-428 531.54,-434 525.54,-440 519.54,-440 519.54,-440 469.54,-440 469.54,-440 463.54,-440 457.54,-434 457.54,-428 457.54,-428 457.54,-399 457.54,-399 457.54,-393 463.54,-387 469.54,-387"/>
<text text-anchor="middle" x="494.54" y="-427.9" font-family="Helvetica,sans-Serif" font-weight="bold" font-size="9.00">custom&#45;events</text>
</g>
<g id="clust11" class="cluster">
<title>cluster_separated/welcome/presentations/integrate&#45;single&#45;page/src/handlers</title>
<path fill="#ffffff" stroke="black" stroke-width="2" d="M215,-356C215,-356 282.02,-356 282.02,-356 288.02,-356 294.02,-362 294.02,-368 294.02,-368 294.02,-428 294.02,-428 294.02,-434 288.02,-440 282.02,-440 282.02,-440 215,-440 215,-440 209,-440 203,-434 203,-428 203,-428 203,-368 203,-368 203,-362 209,-356 215,-356"/>
<text text-anchor="middle" x="248.51" y="-427.9" font-family="Helvetica,sans-Serif" font-weight="bold" font-size="9.00">handlers</text>
</g>
<g id="clust12" class="cluster">
<title>cluster_separated/welcome/presentations/integrate&#45;single&#45;page/src/init</title>
<path fill="#ffffff" stroke="black" stroke-width="2" d="M60,-356C60,-356 179.5,-356 179.5,-356 185.5,-356 191.5,-362 191.5,-368 191.5,-368 191.5,-397 191.5,-397 191.5,-403 185.5,-409 179.5,-409 179.5,-409 60,-409 60,-409 54,-409 48,-403 48,-397 48,-397 48,-368 48,-368 48,-362 54,-356 60,-356"/>
<text text-anchor="middle" x="119.75" y="-396.9" font-family="Helvetica,sans-Serif" font-weight="bold" font-size="9.00">init</text>
</g>
<g id="clust13" class="cluster">
<title>cluster_separated/welcome/presentations/integrate&#45;single&#45;page/src/listeners</title>
<path fill="#ffffff" stroke="black" stroke-width="2" d="M130,-417C130,-417 183,-417 183,-417 189,-417 195,-423 195,-429 195,-429 195,-489 195,-489 195,-495 189,-501 183,-501 183,-501 130,-501 130,-501 124,-501 118,-495 118,-489 118,-489 118,-429 118,-429 118,-423 124,-417 130,-417"/>
<text text-anchor="middle" x="156.5" y="-488.9" font-family="Helvetica,sans-Serif" font-weight="bold" font-size="9.00">listeners</text>
</g>
<!-- data&#45;access/initialize.js -->
<g id="node1" class="node">
<title>data&#45;access/initialize.js</title>
<g id="a_node1"><a xlink:href="data-access/initialize.js" xlink:title="initialize.js">
<polygon fill="#ffffcc" stroke="black" points="523.04,-34.3 521.49,-36.37 510.63,-36.37 509.08,-34.3 466.05,-34.3 466.05,-15.7 523.04,-15.7 523.04,-34.3"/>
<text text-anchor="middle" x="494.54" y="-22.3" font-family="Helvetica,sans-Serif" font-size="9.00">initialize.js</text>
</a>
</g>
</g>
<!-- data&#45;access/read&#45;one.js -->
<g id="node2" class="node">
<title>data&#45;access/read&#45;one.js</title>
<g id="a_node2"><a xlink:href="data-access/find.js" xlink:title="read&#45;one.js">
<polygon fill="#ffffcc" stroke="black" points="525.05,-96.3 523.5,-98.37 512.65,-98.37 511.1,-96.3 464.03,-96.3 464.03,-77.7 525.05,-77.7 525.05,-96.3"/>
<text text-anchor="middle" x="494.54" y="-84.3" font-family="Helvetica,sans-Serif" font-size="9.00">read&#45;one.js</text>
</a>
</g>
</g>
<!-- data&#45;access/update.js -->
<g id="node3" class="node">
<title>data&#45;access/update.js</title>
<g id="a_node3"><a xlink:href="data-access/save.js" xlink:title="update.js">
<polygon fill="#ffffcc" stroke="black" points="521.54,-65.3 519.99,-67.37 509.14,-67.37 507.59,-65.3 467.54,-65.3 467.54,-46.7 521.54,-46.7 521.54,-65.3"/>
<text text-anchor="middle" x="494.54" y="-53.3" font-family="Helvetica,sans-Serif" font-size="9.00">update.js</text>
</a>
</g>
</g>
<!-- separated/welcome/business&#45;logic/be&#45;welcoming.js -->
<g id="node4" class="node">
<title>separated/welcome/business&#45;logic/be&#45;welcoming.js</title>
<g id="a_node4"><a xlink:href="separated/welcome/business-logic/be-welcoming.js" xlink:title="be&#45;welcoming.js">
<path fill="#ffffcc" stroke="black" d="M389.83,-235.3C389.83,-235.3 322.23,-235.3 322.23,-235.3 319.13,-235.3 316.03,-232.2 316.03,-229.1 316.03,-229.1 316.03,-222.9 316.03,-222.9 316.03,-219.8 319.13,-216.7 322.23,-216.7 322.23,-216.7 389.83,-216.7 389.83,-216.7 392.93,-216.7 396.03,-219.8 396.03,-222.9 396.03,-222.9 396.03,-229.1 396.03,-229.1 396.03,-232.2 392.93,-235.3 389.83,-235.3"/>
<text text-anchor="middle" x="356.03" y="-223.3" font-family="Helvetica,sans-Serif" font-size="9.00">be&#45;welcoming.js</text>
</a>
</g>
</g>
<!-- separated/welcome/business&#45;logic/be&#45;welcoming.js&#45;&gt;data&#45;access/read&#45;one.js -->
<g id="edge1" class="edge">
<title>separated/welcome/business&#45;logic/be&#45;welcoming.js&#45;&gt;data&#45;access/read&#45;one.js</title>
<path fill="none" stroke="#000000" stroke-width="2" stroke-opacity="0.200000" d="M396.14,-217.58C401.08,-215.56 405.85,-213.07 410.04,-210 449.32,-181.13 476.09,-127.92 487.43,-101.99"/>
<polygon fill="#000000" fill-opacity="0.200000" stroke="#000000" stroke-width="2" stroke-opacity="0.200000" points="489.43,-102.65 489.86,-96.3 485.57,-101 489.43,-102.65"/>
</g>
<!-- separated/welcome/business&#45;logic/read&#45;greeting.js -->
<g id="node5" class="node">
<title>separated/welcome/business&#45;logic/read&#45;greeting.js</title>
<g id="a_node5"><a xlink:href="separated/welcome/business-logic/read-greeting.js" xlink:title="read&#45;greeting.js">
<path fill="#ffffcc" stroke="black" d="M388.84,-266.3C388.84,-266.3 323.22,-266.3 323.22,-266.3 320.12,-266.3 317.02,-263.2 317.02,-260.1 317.02,-260.1 317.02,-253.9 317.02,-253.9 317.02,-250.8 320.12,-247.7 323.22,-247.7 323.22,-247.7 388.84,-247.7 388.84,-247.7 391.94,-247.7 395.04,-250.8 395.04,-253.9 395.04,-253.9 395.04,-260.1 395.04,-260.1 395.04,-263.2 391.94,-266.3 388.84,-266.3"/>
<text text-anchor="middle" x="356.03" y="-254.3" font-family="Helvetica,sans-Serif" font-size="9.00">read&#45;greeting.js</text>
</a>
</g>
</g>
<!-- separated/welcome/business&#45;logic/read&#45;greeting.js&#45;&gt;data&#45;access/read&#45;one.js -->
<g id="edge2" class="edge">
<title>separated/welcome/business&#45;logic/read&#45;greeting.js&#45;&gt;data&#45;access/read&#45;one.js</title>
<path fill="none" stroke="#000000" stroke-width="2" stroke-opacity="0.200000" d="M395.08,-249.52C400.45,-247.36 405.64,-244.58 410.04,-241 456.05,-203.52 480.43,-133.71 489.43,-102.63"/>
<polygon fill="#000000" fill-opacity="0.200000" stroke="#000000" stroke-width="2" stroke-opacity="0.200000" points="491.52,-102.95 491.12,-96.61 487.47,-101.82 491.52,-102.95"/>
</g>
<!-- separated/welcome/business&#45;logic/read&#45;message.js -->
<g id="node6" class="node">
<title>separated/welcome/business&#45;logic/read&#45;message.js</title>
<g id="a_node6"><a xlink:href="separated/welcome/business-logic/read-message.js" xlink:title="read&#45;message.js">
<path fill="#ffffcc" stroke="black" d="M390.84,-297.3C390.84,-297.3 321.22,-297.3 321.22,-297.3 318.12,-297.3 315.02,-294.2 315.02,-291.1 315.02,-291.1 315.02,-284.9 315.02,-284.9 315.02,-281.8 318.12,-278.7 321.22,-278.7 321.22,-278.7 390.84,-278.7 390.84,-278.7 393.94,-278.7 397.04,-281.8 397.04,-284.9 397.04,-284.9 397.04,-291.1 397.04,-291.1 397.04,-294.2 393.94,-297.3 390.84,-297.3"/>
<text text-anchor="middle" x="356.03" y="-285.3" font-family="Helvetica,sans-Serif" font-size="9.00">read&#45;message.js</text>
</a>
</g>
</g>
<!-- separated/welcome/business&#45;logic/read&#45;message.js&#45;&gt;data&#45;access/read&#45;one.js -->
<g id="edge3" class="edge">
<title>separated/welcome/business&#45;logic/read&#45;message.js&#45;&gt;data&#45;access/read&#45;one.js</title>
<path fill="none" stroke="#000000" stroke-width="2" stroke-opacity="0.200000" d="M397.21,-279.99C401.86,-277.91 406.28,-275.3 410.04,-272 463.16,-225.41 484.3,-138.3 490.96,-102.74"/>
<polygon fill="#000000" fill-opacity="0.200000" stroke="#000000" stroke-width="2" stroke-opacity="0.200000" points="493.05,-102.99 492.04,-96.72 488.92,-102.25 493.05,-102.99"/>
</g>
<!-- separated/welcome/business&#45;logic/update&#45;greeting.js -->
<g id="node7" class="node">
<title>separated/welcome/business&#45;logic/update&#45;greeting.js</title>
<g id="a_node7"><a xlink:href="separated/welcome/business-logic/update-greeting.js" xlink:title="update&#45;greeting.js">
<path fill="#ffffcc" stroke="black" d="M393.85,-204.3C393.85,-204.3 318.21,-204.3 318.21,-204.3 315.11,-204.3 312.01,-201.2 312.01,-198.1 312.01,-198.1 312.01,-191.9 312.01,-191.9 312.01,-188.8 315.11,-185.7 318.21,-185.7 318.21,-185.7 393.85,-185.7 393.85,-185.7 396.95,-185.7 400.05,-188.8 400.05,-191.9 400.05,-191.9 400.05,-198.1 400.05,-198.1 400.05,-201.2 396.95,-204.3 393.85,-204.3"/>
<text text-anchor="middle" x="356.03" y="-192.3" font-family="Helvetica,sans-Serif" font-size="9.00">update&#45;greeting.js</text>
</a>
</g>
</g>
<!-- separated/welcome/business&#45;logic/update&#45;greeting.js&#45;&gt;data&#45;access/update.js -->
<g id="edge4" class="edge">
<title>separated/welcome/business&#45;logic/update&#45;greeting.js&#45;&gt;data&#45;access/update.js</title>
<path fill="none" stroke="#000000" stroke-width="2" stroke-opacity="0.200000" d="M400.17,-185.65C403.74,-183.82 407.1,-181.63 410.04,-179 448.65,-144.52 419.38,-108.55 456.04,-72 457.84,-70.2 459.88,-68.59 462.05,-67.15"/>
<polygon fill="#000000" fill-opacity="0.200000" stroke="#000000" stroke-width="2" stroke-opacity="0.200000" points="463.18,-68.93 467.31,-64.1 461.07,-65.3 463.18,-68.93"/>
</g>
<!-- separated/welcome/business&#45;logic/update&#45;message.js -->
<g id="node8" class="node">
<title>separated/welcome/business&#45;logic/update&#45;message.js</title>
<g id="a_node8"><a xlink:href="separated/welcome/business-logic/update-message.js" xlink:title="update&#45;message.js">
<path fill="#ffffcc" stroke="black" d="M395.85,-173.3C395.85,-173.3 316.21,-173.3 316.21,-173.3 313.11,-173.3 310.01,-170.2 310.01,-167.1 310.01,-167.1 310.01,-160.9 310.01,-160.9 310.01,-157.8 313.11,-154.7 316.21,-154.7 316.21,-154.7 395.85,-154.7 395.85,-154.7 398.95,-154.7 402.05,-157.8 402.05,-160.9 402.05,-160.9 402.05,-167.1 402.05,-167.1 402.05,-170.2 398.95,-173.3 395.85,-173.3"/>
<text text-anchor="middle" x="356.03" y="-161.3" font-family="Helvetica,sans-Serif" font-size="9.00">update&#45;message.js</text>
</a>
</g>
</g>
<!-- separated/welcome/business&#45;logic/update&#45;message.js&#45;&gt;data&#45;access/update.js -->
<g id="edge5" class="edge">
<title>separated/welcome/business&#45;logic/update&#45;message.js&#45;&gt;data&#45;access/update.js</title>
<path fill="none" stroke="#000000" stroke-width="2" stroke-opacity="0.200000" d="M365.17,-154.51C381.07,-136.43 418.06,-96.67 456.04,-72 458.18,-70.61 460.45,-69.3 462.79,-68.06"/>
<polygon fill="#000000" fill-opacity="0.200000" stroke="#000000" stroke-width="2" stroke-opacity="0.200000" points="463.86,-69.88 468.31,-65.34 462,-66.11 463.86,-69.88"/>
</g>
<!-- separated/welcome/data/friendly.js -->
<g id="node9" class="node">
<title>separated/welcome/data/friendly.js</title>
<g id="a_node9"><a xlink:href="separated/welcome/data/friendly.js" xlink:title="friendly.js">
<path fill="#ffffcc" stroke="black" d="M269.31,-616.3C269.31,-616.3 227.71,-616.3 227.71,-616.3 224.61,-616.3 221.51,-613.2 221.51,-610.1 221.51,-610.1 221.51,-603.9 221.51,-603.9 221.51,-600.8 224.61,-597.7 227.71,-597.7 227.71,-597.7 269.31,-597.7 269.31,-597.7 272.41,-597.7 275.51,-600.8 275.51,-603.9 275.51,-603.9 275.51,-610.1 275.51,-610.1 275.51,-613.2 272.41,-616.3 269.31,-616.3"/>
<text text-anchor="middle" x="248.51" y="-604.3" font-family="Helvetica,sans-Serif" font-size="9.00">friendly.js</text>
</a>
</g>
</g>
<!-- separated/welcome/presentations/integrate&#45;single&#45;page/src/components/text&#45;input.js -->
<g id="node10" class="node">
<title>separated/welcome/presentations/integrate&#45;single&#45;page/src/components/text&#45;input.js</title>
<g id="a_node10"><a xlink:href="separated/welcome/presentations/integrate-single-page/src/components/text-input.js" xlink:title="text&#45;input.js">
<path fill="#ffffcc" stroke="black" d="M380.83,-413.3C380.83,-413.3 331.22,-413.3 331.22,-413.3 328.12,-413.3 325.02,-410.2 325.02,-407.1 325.02,-407.1 325.02,-400.9 325.02,-400.9 325.02,-397.8 328.12,-394.7 331.22,-394.7 331.22,-394.7 380.83,-394.7 380.83,-394.7 383.93,-394.7 387.04,-397.8 387.04,-400.9 387.04,-400.9 387.04,-407.1 387.04,-407.1 387.04,-410.2 383.93,-413.3 380.83,-413.3"/>
<text text-anchor="middle" x="356.03" y="-401.3" font-family="Helvetica,sans-Serif" font-size="9.00">text&#45;input.js</text>
</a>
</g>
</g>
<!-- separated/welcome/presentations/integrate&#45;single&#45;page/src/custom&#45;events/update.js -->
<g id="node11" class="node">
<title>separated/welcome/presentations/integrate&#45;single&#45;page/src/custom&#45;events/update.js</title>
<g id="a_node11"><a xlink:href="separated/welcome/presentations/integrate-single-page/src/custom-events/update.js" xlink:title="update.js">
<path fill="#ffffcc" stroke="black" d="M515.34,-413.3C515.34,-413.3 473.74,-413.3 473.74,-413.3 470.64,-413.3 467.54,-410.2 467.54,-407.1 467.54,-407.1 467.54,-400.9 467.54,-400.9 467.54,-397.8 470.64,-394.7 473.74,-394.7 473.74,-394.7 515.34,-394.7 515.34,-394.7 518.44,-394.7 521.54,-397.8 521.54,-400.9 521.54,-400.9 521.54,-407.1 521.54,-407.1 521.54,-410.2 518.44,-413.3 515.34,-413.3"/>
<text text-anchor="middle" x="494.54" y="-401.3" font-family="Helvetica,sans-Serif" font-size="9.00">update.js</text>
</a>
</g>
</g>
<!-- separated/welcome/presentations/integrate&#45;single&#45;page/src/components/text&#45;input.js&#45;&gt;separated/welcome/presentations/integrate&#45;single&#45;page/src/custom&#45;events/update.js -->
<g id="edge6" class="edge">
<title>separated/welcome/presentations/integrate&#45;single&#45;page/src/components/text&#45;input.js&#45;&gt;separated/welcome/presentations/integrate&#45;single&#45;page/src/custom&#45;events/update.js</title>
<path fill="none" stroke="#000000" stroke-width="2" stroke-opacity="0.200000" d="M387.33,-404C409.3,-404 438.96,-404 461.36,-404"/>
<polygon fill="#000000" fill-opacity="0.200000" stroke="#000000" stroke-width="2" stroke-opacity="0.200000" points="461.47,-406.1 467.47,-404 461.47,-401.9 461.47,-406.1"/>
</g>
<!-- separated/welcome/presentations/integrate&#45;single&#45;page/src/handlers/init&#45;index.js -->
<g id="node12" class="node">
<title>separated/welcome/presentations/integrate&#45;single&#45;page/src/handlers/init&#45;index.js</title>
<g id="a_node12"><a xlink:href="separated/welcome/presentations/integrate-single-page/src/handlers/init-index.js" xlink:title="init&#45;index.js">
<path fill="#ffffcc" stroke="black" d="M272.81,-413.3C272.81,-413.3 224.21,-413.3 224.21,-413.3 221.11,-413.3 218.01,-410.2 218.01,-407.1 218.01,-407.1 218.01,-400.9 218.01,-400.9 218.01,-397.8 221.11,-394.7 224.21,-394.7 224.21,-394.7 272.81,-394.7 272.81,-394.7 275.91,-394.7 279.01,-397.8 279.01,-400.9 279.01,-400.9 279.01,-407.1 279.01,-407.1 279.01,-410.2 275.91,-413.3 272.81,-413.3"/>
<text text-anchor="middle" x="248.51" y="-401.3" font-family="Helvetica,sans-Serif" font-size="9.00">init&#45;index.js</text>
</a>
</g>
</g>
<!-- separated/welcome/presentations/integrate&#45;single&#45;page/src/handlers/init&#45;index.js&#45;&gt;separated/welcome/business&#45;logic/be&#45;welcoming.js -->
<g id="edge7" class="edge">
<title>separated/welcome/presentations/integrate&#45;single&#45;page/src/handlers/init&#45;index.js&#45;&gt;separated/welcome/business&#45;logic/be&#45;welcoming.js</title>
<path fill="none" stroke="#000000" stroke-width="2" stroke-opacity="0.200000" d="M279.05,-398.82C284.85,-396.45 290.29,-393 294.02,-388 313.43,-361.94 281.94,-267.55 302.02,-242 304.4,-238.97 307.33,-236.5 310.58,-234.49"/>
<polygon fill="#000000" fill-opacity="0.200000" stroke="#000000" stroke-width="2" stroke-opacity="0.200000" points="311.59,-236.33 315.92,-231.68 309.63,-232.61 311.59,-236.33"/>
</g>
<!-- separated/welcome/presentations/integrate&#45;single&#45;page/src/handlers/init&#45;index.js&#45;&gt;separated/welcome/business&#45;logic/read&#45;greeting.js -->
<g id="edge8" class="edge">
<title>separated/welcome/presentations/integrate&#45;single&#45;page/src/handlers/init&#45;index.js&#45;&gt;separated/welcome/business&#45;logic/read&#45;greeting.js</title>
<path fill="none" stroke="#000000" stroke-width="2" stroke-opacity="0.200000" d="M279.45,-398.59C285.09,-396.23 290.35,-392.85 294.02,-388 309.47,-367.57 286.04,-293.02 302.02,-273 304.54,-269.84 307.66,-267.29 311.11,-265.23"/>
<polygon fill="#000000" fill-opacity="0.200000" stroke="#000000" stroke-width="2" stroke-opacity="0.200000" points="312.36,-266.96 316.78,-262.39 310.47,-263.2 312.36,-266.96"/>
</g>
<!-- separated/welcome/presentations/integrate&#45;single&#45;page/src/handlers/init&#45;index.js&#45;&gt;separated/welcome/business&#45;logic/read&#45;message.js -->
<g id="edge9" class="edge">
<title>separated/welcome/presentations/integrate&#45;single&#45;page/src/handlers/init&#45;index.js&#45;&gt;separated/welcome/business&#45;logic/read&#45;message.js</title>
<path fill="none" stroke="#000000" stroke-width="2" stroke-opacity="0.200000" d="M279.26,-396.5C284.52,-394.31 289.69,-391.53 294.02,-388 322.4,-364.86 341.04,-324.8 349.6,-303.07"/>
<polygon fill="#000000" fill-opacity="0.200000" stroke="#000000" stroke-width="2" stroke-opacity="0.200000" points="351.57,-303.81 351.75,-297.45 347.64,-302.31 351.57,-303.81"/>
</g>
<!-- separated/welcome/presentations/integrate&#45;single&#45;page/src/handlers/init&#45;index.js&#45;&gt;separated/welcome/presentations/integrate&#45;single&#45;page/src/components/text&#45;input.js -->
<g id="edge10" class="edge">
<title>separated/welcome/presentations/integrate&#45;single&#45;page/src/handlers/init&#45;index.js&#45;&gt;separated/welcome/presentations/integrate&#45;single&#45;page/src/components/text&#45;input.js</title>
<path fill="none" stroke="#000000" stroke-width="2" stroke-opacity="0.200000" d="M279.18,-404C291.44,-404 305.77,-404 318.65,-404"/>
<polygon fill="#000000" fill-opacity="0.200000" stroke="#000000" stroke-width="2" stroke-opacity="0.200000" points="318.84,-406.1 324.84,-404 318.84,-401.9 318.84,-406.1"/>
</g>
<!-- separated/welcome/presentations/integrate&#45;single&#45;page/src/handlers/update&#45;state.js -->
<g id="node13" class="node">
<title>separated/welcome/presentations/integrate&#45;single&#45;page/src/handlers/update&#45;state.js</title>
<g id="a_node13"><a xlink:href="separated/welcome/presentations/integrate-single-page/src/handlers/update-state.js" xlink:title="update&#45;state.js">
<path fill="#ffffcc" stroke="black" d="M279.83,-382.3C279.83,-382.3 217.19,-382.3 217.19,-382.3 214.09,-382.3 210.99,-379.2 210.99,-376.1 210.99,-376.1 210.99,-369.9 210.99,-369.9 210.99,-366.8 214.09,-363.7 217.19,-363.7 217.19,-363.7 279.83,-363.7 279.83,-363.7 282.93,-363.7 286.03,-366.8 286.03,-369.9 286.03,-369.9 286.03,-376.1 286.03,-376.1 286.03,-379.2 282.93,-382.3 279.83,-382.3"/>
<text text-anchor="middle" x="248.51" y="-370.3" font-family="Helvetica,sans-Serif" font-size="9.00">update&#45;state.js</text>
</a>
</g>
</g>
<!-- separated/welcome/presentations/integrate&#45;single&#45;page/src/handlers/update&#45;state.js&#45;&gt;separated/welcome/business&#45;logic/be&#45;welcoming.js -->
<g id="edge11" class="edge">
<title>separated/welcome/presentations/integrate&#45;single&#45;page/src/handlers/update&#45;state.js&#45;&gt;separated/welcome/business&#45;logic/be&#45;welcoming.js</title>
<path fill="none" stroke="#000000" stroke-width="2" stroke-opacity="0.200000" d="M250.52,-363.51C253.59,-339.52 264.97,-275.92 302.02,-242 304.5,-239.73 307.29,-237.78 310.27,-236.1"/>
<polygon fill="#000000" fill-opacity="0.200000" stroke="#000000" stroke-width="2" stroke-opacity="0.200000" points="311.34,-237.92 315.79,-233.38 309.48,-234.15 311.34,-237.92"/>
</g>
<!-- separated/welcome/presentations/integrate&#45;single&#45;page/src/handlers/update&#45;state.js&#45;&gt;separated/welcome/business&#45;logic/update&#45;greeting.js -->
<g id="edge12" class="edge">
<title>separated/welcome/presentations/integrate&#45;single&#45;page/src/handlers/update&#45;state.js&#45;&gt;separated/welcome/business&#45;logic/update&#45;greeting.js</title>
<path fill="none" stroke="#000000" stroke-width="2" stroke-opacity="0.200000" d="M249.69,-363.4C250.75,-335.63 257.67,-254.45 302.02,-211 303.46,-209.59 305.02,-208.3 306.68,-207.12"/>
<polygon fill="#000000" fill-opacity="0.200000" stroke="#000000" stroke-width="2" stroke-opacity="0.200000" points="307.86,-208.86 311.88,-203.93 305.67,-205.28 307.86,-208.86"/>
</g>
<!-- separated/welcome/presentations/integrate&#45;single&#45;page/src/handlers/update&#45;state.js&#45;&gt;separated/welcome/business&#45;logic/update&#45;message.js -->
<g id="edge13" class="edge">
<title>separated/welcome/presentations/integrate&#45;single&#45;page/src/handlers/update&#45;state.js&#45;&gt;separated/welcome/business&#45;logic/update&#45;message.js</title>
<path fill="none" stroke="#000000" stroke-width="2" stroke-opacity="0.200000" d="M249.1,-363.42C248.32,-332.34 250.2,-233.26 302.02,-180 303.13,-178.85 304.33,-177.79 305.58,-176.8"/>
<polygon fill="#000000" fill-opacity="0.200000" stroke="#000000" stroke-width="2" stroke-opacity="0.200000" points="306.91,-178.44 310.72,-173.35 304.57,-174.96 306.91,-178.44"/>
</g>
<!-- separated/welcome/presentations/integrate&#45;single&#45;page/src/init/index.js -->
<g id="node14" class="node">
<title>separated/welcome/presentations/integrate&#45;single&#45;page/src/init/index.js</title>
<g id="a_node14"><a xlink:href="separated/welcome/presentations/integrate-single-page/src/init/index.js" xlink:title="index.js">
<path fill="#ffffcc" stroke="black" d="M103.8,-382.3C103.8,-382.3 62.2,-382.3 62.2,-382.3 59.1,-382.3 56,-379.2 56,-376.1 56,-376.1 56,-369.9 56,-369.9 56,-366.8 59.1,-363.7 62.2,-363.7 62.2,-363.7 103.8,-363.7 103.8,-363.7 106.9,-363.7 110,-366.8 110,-369.9 110,-369.9 110,-376.1 110,-376.1 110,-379.2 106.9,-382.3 103.8,-382.3"/>
<text text-anchor="middle" x="83" y="-370.3" font-family="Helvetica,sans-Serif" font-size="9.00">index.js</text>
</a>
</g>
</g>
<!-- separated/welcome/presentations/integrate&#45;single&#45;page/src/listeners/edit&#45;data.js -->
<g id="node15" class="node">
<title>separated/welcome/presentations/integrate&#45;single&#45;page/src/listeners/edit&#45;data.js</title>
<g id="a_node15"><a xlink:href="separated/welcome/presentations/integrate-single-page/src/listeners/edit-data.js" xlink:title="edit&#45;data.js">
<path fill="#ffffcc" stroke="black" d="M180.31,-443.3C180.31,-443.3 132.69,-443.3 132.69,-443.3 129.59,-443.3 126.49,-440.2 126.49,-437.1 126.49,-437.1 126.49,-430.9 126.49,-430.9 126.49,-427.8 129.59,-424.7 132.69,-424.7 132.69,-424.7 180.31,-424.7 180.31,-424.7 183.41,-424.7 186.51,-427.8 186.51,-430.9 186.51,-430.9 186.51,-437.1 186.51,-437.1 186.51,-440.2 183.41,-443.3 180.31,-443.3"/>
<text text-anchor="middle" x="156.5" y="-431.3" font-family="Helvetica,sans-Serif" font-size="9.00">edit&#45;data.js</text>
</a>
</g>
</g>
<!-- separated/welcome/presentations/integrate&#45;single&#45;page/src/init/index.js&#45;&gt;separated/welcome/presentations/integrate&#45;single&#45;page/src/listeners/edit&#45;data.js -->
<g id="edge14" class="edge">
<title>separated/welcome/presentations/integrate&#45;single&#45;page/src/init/index.js&#45;&gt;separated/welcome/presentations/integrate&#45;single&#45;page/src/listeners/edit&#45;data.js</title>
<path fill="none" stroke="#000000" stroke-width="2" stroke-opacity="0.200000" d="M90.82,-382.44C97.21,-390.85 107.35,-403.17 118,-412 122.09,-415.39 126.77,-418.58 131.41,-421.43"/>
<polygon fill="#000000" fill-opacity="0.200000" stroke="#000000" stroke-width="2" stroke-opacity="0.200000" points="130.55,-423.36 136.79,-424.6 132.68,-419.74 130.55,-423.36"/>
</g>
<!-- separated/welcome/presentations/integrate&#45;single&#45;page/src/listeners/init&#45;index.js -->
<g id="node16" class="node">
<title>separated/welcome/presentations/integrate&#45;single&#45;page/src/listeners/init&#45;index.js</title>
<g id="a_node16"><a xlink:href="separated/welcome/presentations/integrate-single-page/src/listeners/init-index.js" xlink:title="init&#45;index.js">
<path fill="#ffffcc" stroke="black" d="M180.8,-474.3C180.8,-474.3 132.2,-474.3 132.2,-474.3 129.1,-474.3 126,-471.2 126,-468.1 126,-468.1 126,-461.9 126,-461.9 126,-458.8 129.1,-455.7 132.2,-455.7 132.2,-455.7 180.8,-455.7 180.8,-455.7 183.9,-455.7 187,-458.8 187,-461.9 187,-461.9 187,-468.1 187,-468.1 187,-471.2 183.9,-474.3 180.8,-474.3"/>
<text text-anchor="middle" x="156.5" y="-462.3" font-family="Helvetica,sans-Serif" font-size="9.00">init&#45;index.js</text>
</a>
</g>
</g>
<!-- separated/welcome/presentations/integrate&#45;single&#45;page/src/init/index.js&#45;&gt;separated/welcome/presentations/integrate&#45;single&#45;page/src/listeners/init&#45;index.js -->
<g id="edge15" class="edge">
<title>separated/welcome/presentations/integrate&#45;single&#45;page/src/init/index.js&#45;&gt;separated/welcome/presentations/integrate&#45;single&#45;page/src/listeners/init&#45;index.js</title>
<path fill="none" stroke="#000000" stroke-width="2" stroke-opacity="0.200000" d="M85.88,-382.46C89.47,-398.23 98.72,-430.05 118,-449 119.15,-450.13 120.39,-451.18 121.7,-452.17"/>
<polygon fill="#000000" fill-opacity="0.200000" stroke="#000000" stroke-width="2" stroke-opacity="0.200000" points="120.84,-454.12 127.01,-455.63 123.13,-450.59 120.84,-454.12"/>
</g>
<!-- separated/welcome/presentations/integrate&#45;single&#45;page/src/init/state.js -->
<g id="node17" class="node">
<title>separated/welcome/presentations/integrate&#45;single&#45;page/src/init/state.js</title>
<g id="a_node17"><a xlink:href="separated/welcome/presentations/integrate-single-page/src/init/state.js" xlink:title="state.js">
<path fill="#ffffcc" stroke="black" d="M177.3,-382.3C177.3,-382.3 135.7,-382.3 135.7,-382.3 132.6,-382.3 129.5,-379.2 129.5,-376.1 129.5,-376.1 129.5,-369.9 129.5,-369.9 129.5,-366.8 132.6,-363.7 135.7,-363.7 135.7,-363.7 177.3,-363.7 177.3,-363.7 180.4,-363.7 183.5,-366.8 183.5,-369.9 183.5,-369.9 183.5,-376.1 183.5,-376.1 183.5,-379.2 180.4,-382.3 177.3,-382.3"/>
<text text-anchor="middle" x="156.5" y="-370.3" font-family="Helvetica,sans-Serif" font-size="9.00">state.js</text>
</a>
</g>
</g>
<!-- separated/welcome/presentations/integrate&#45;single&#45;page/src/init/index.js&#45;&gt;separated/welcome/presentations/integrate&#45;single&#45;page/src/init/state.js -->
<g id="edge16" class="edge">
<title>separated/welcome/presentations/integrate&#45;single&#45;page/src/init/index.js&#45;&gt;separated/welcome/presentations/integrate&#45;single&#45;page/src/init/state.js</title>
<path fill="none" stroke="#000000" stroke-width="2" stroke-opacity="0.200000" d="M110.22,-373C114.4,-373 118.76,-373 123.06,-373"/>
<polygon fill="#000000" fill-opacity="0.200000" stroke="#000000" stroke-width="2" stroke-opacity="0.200000" points="123.28,-375.1 129.28,-373 123.28,-370.9 123.28,-375.1"/>
</g>
<!-- separated/welcome/presentations/integrate&#45;single&#45;page/src/listeners/edit&#45;data.js&#45;&gt;separated/welcome/presentations/integrate&#45;single&#45;page/src/handlers/update&#45;state.js -->
<g id="edge19" class="edge">
<title>separated/welcome/presentations/integrate&#45;single&#45;page/src/listeners/edit&#45;data.js&#45;&gt;separated/welcome/presentations/integrate&#45;single&#45;page/src/handlers/update&#45;state.js</title>
<path fill="none" stroke="#000000" stroke-width="2" stroke-opacity="0.200000" d="M179.31,-424.64C185.04,-421.34 190.78,-417.13 195,-412 201.87,-403.64 195.39,-396.69 203,-389 204.11,-387.88 205.31,-386.83 206.57,-385.86"/>
<polygon fill="#000000" fill-opacity="0.200000" stroke="#000000" stroke-width="2" stroke-opacity="0.200000" points="207.87,-387.52 211.72,-382.46 205.56,-384.01 207.87,-387.52"/>
</g>
<!-- separated/welcome/presentations/integrate&#45;single&#45;page/src/listeners/init&#45;index.js&#45;&gt;separated/welcome/presentations/integrate&#45;single&#45;page/src/handlers/init&#45;index.js -->
<g id="edge20" class="edge">
<title>separated/welcome/presentations/integrate&#45;single&#45;page/src/listeners/init&#45;index.js&#45;&gt;separated/welcome/presentations/integrate&#45;single&#45;page/src/handlers/init&#45;index.js</title>
<path fill="none" stroke="#000000" stroke-width="2" stroke-opacity="0.200000" d="M182.65,-455.53C186.88,-453.59 191.15,-451.39 195,-449 209.33,-440.1 223.74,-427.42 233.83,-417.78"/>
<polygon fill="#000000" fill-opacity="0.200000" stroke="#000000" stroke-width="2" stroke-opacity="0.200000" points="235.31,-419.28 238.15,-413.59 232.38,-416.26 235.31,-419.28"/>
</g>
<!-- separated/welcome/presentations/integrate&#45;single&#45;page/src/init/state.js&#45;&gt;data&#45;access/initialize.js -->
<g id="edge17" class="edge">
<title>separated/welcome/presentations/integrate&#45;single&#45;page/src/init/state.js&#45;&gt;data&#45;access/initialize.js</title>
<path fill="none" stroke="#000000" stroke-width="2" stroke-opacity="0.200000" d="M161.79,-363.3C176.99,-329.76 231.17,-216.75 302.02,-144 359.47,-85 383.63,-80.22 456.04,-41 458.62,-39.6 461.36,-38.23 464.13,-36.92"/>
<polygon fill="#000000" fill-opacity="0.200000" stroke="#000000" stroke-width="2" stroke-opacity="0.200000" points="465.23,-38.73 469.82,-34.33 463.49,-34.91 465.23,-38.73"/>
</g>
<!-- separated/welcome/presentations/integrate&#45;single&#45;page/src/init/state.js&#45;&gt;separated/welcome/data/friendly.js -->
<g id="edge18" class="edge">
<title>separated/welcome/presentations/integrate&#45;single&#45;page/src/init/state.js&#45;&gt;separated/welcome/data/friendly.js</title>
<path fill="none" stroke="#000000" stroke-width="2" stroke-opacity="0.200000" d="M168.56,-382.37C176.97,-390.06 188.21,-401.66 195,-414 195.28,-414.5 230.95,-545.97 243.33,-591.61"/>
<polygon fill="#000000" fill-opacity="0.200000" stroke="#000000" stroke-width="2" stroke-opacity="0.200000" points="241.32,-592.22 244.92,-597.46 245.38,-591.12 241.32,-592.22"/>
</g>
</g>
</svg>
