<?xml version="1.0" encoding="UTF-8" standalone="no"?>
<!DOCTYPE svg PUBLIC "-//W3C//DTD SVG 1.1//EN"
 "http://www.w3.org/Graphics/SVG/1.1/DTD/svg11.dtd">
<!-- Generated by graphviz version 2.44.0 (20200408.0750)
 -->
<!-- Title: dependency&#45;cruiser output Pages: 1 -->
<svg width="597pt" height="279pt"
 viewBox="0.00 0.00 597.04 279.00" xmlns="http://www.w3.org/2000/svg" xmlns:xlink="http://www.w3.org/1999/xlink">
<g id="graph0" class="graph" transform="scale(1 1) rotate(0) translate(4 275)">
<title>dependency&#45;cruiser output</title>
<polygon fill="white" stroke="transparent" points="-4,4 -4,-275 593.04,-275 593.04,4 -4,4"/>
<g id="clust1" class="cluster">
<title>cluster_separated</title>
<path fill="#ffffff" stroke="black" stroke-width="2" d="M20,-8C20,-8 569.04,-8 569.04,-8 575.04,-8 581.04,-14 581.04,-20 581.04,-20 581.04,-251 581.04,-251 581.04,-257 575.04,-263 569.04,-263 569.04,-263 20,-263 20,-263 14,-263 8,-257 8,-251 8,-251 8,-20 8,-20 8,-14 14,-8 20,-8"/>
<text text-anchor="middle" x="294.52" y="-250.9" font-family="Helvetica,sans-Serif" font-weight="bold" font-size="9.00">separated</text>
</g>
<g id="clust2" class="cluster">
<title>cluster_separated/1&#45;counter</title>
<path fill="#ffffff" stroke="black" stroke-width="2" d="M28,-16C28,-16 561.04,-16 561.04,-16 567.04,-16 573.04,-22 573.04,-28 573.04,-28 573.04,-224 573.04,-224 573.04,-230 567.04,-236 561.04,-236 561.04,-236 28,-236 28,-236 22,-236 16,-230 16,-224 16,-224 16,-28 16,-28 16,-22 22,-16 28,-16"/>
<text text-anchor="middle" x="294.52" y="-223.9" font-family="Helvetica,sans-Serif" font-weight="bold" font-size="9.00">1&#45;counter</text>
</g>
<g id="clust3" class="cluster">
<title>cluster_separated/1&#45;counter/business&#45;logic</title>
<path fill="#ffffff" stroke="black" stroke-width="2" d="M388.03,-33C388.03,-33 475.04,-33 475.04,-33 481.04,-33 487.04,-39 487.04,-45 487.04,-45 487.04,-167 487.04,-167 487.04,-173 481.04,-179 475.04,-179 475.04,-179 388.03,-179 388.03,-179 382.03,-179 376.03,-173 376.03,-167 376.03,-167 376.03,-45 376.03,-45 376.03,-39 382.03,-33 388.03,-33"/>
<text text-anchor="middle" x="431.53" y="-166.9" font-family="Helvetica,sans-Serif" font-weight="bold" font-size="9.00">business&#45;logic</text>
</g>
<g id="clust4" class="cluster">
<title>cluster_separated/1&#45;counter/data&#45;access</title>
<path fill="#ffffff" stroke="black" stroke-width="2" d="M507.04,-33C507.04,-33 553.04,-33 553.04,-33 559.04,-33 565.04,-39 565.04,-45 565.04,-45 565.04,-136 565.04,-136 565.04,-142 559.04,-148 553.04,-148 553.04,-148 507.04,-148 507.04,-148 501.04,-148 495.04,-142 495.04,-136 495.04,-136 495.04,-45 495.04,-45 495.04,-39 501.04,-33 507.04,-33"/>
<text text-anchor="middle" x="530.04" y="-135.9" font-family="Helvetica,sans-Serif" font-weight="bold" font-size="9.00">data&#45;access</text>
</g>
<g id="clust5" class="cluster">
<title>cluster_separated/1&#45;counter/data</title>
<path fill="#ffffff" stroke="black" stroke-width="2" d="M507.04,-156C507.04,-156 553.04,-156 553.04,-156 559.04,-156 565.04,-162 565.04,-168 565.04,-168 565.04,-197 565.04,-197 565.04,-203 559.04,-209 553.04,-209 553.04,-209 507.04,-209 507.04,-209 501.04,-209 495.04,-203 495.04,-197 495.04,-197 495.04,-168 495.04,-168 495.04,-162 501.04,-156 507.04,-156"/>
<text text-anchor="middle" x="530.04" y="-196.9" font-family="Helvetica,sans-Serif" font-weight="bold" font-size="9.00">data</text>
</g>
<g id="clust6" class="cluster">
<title>cluster_separated/1&#45;counter/presentation</title>
<path fill="#ffffff" stroke="black" stroke-width="2" d="M36,-24C36,-24 356.03,-24 356.03,-24 362.03,-24 368.03,-30 368.03,-36 368.03,-36 368.03,-197 368.03,-197 368.03,-203 362.03,-209 356.03,-209 356.03,-209 36,-209 36,-209 30,-209 24,-203 24,-197 24,-197 24,-36 24,-36 24,-30 30,-24 36,-24"/>
<text text-anchor="middle" x="196.01" y="-196.9" font-family="Helvetica,sans-Serif" font-weight="bold" font-size="9.00">presentation</text>
</g>
<g id="clust7" class="cluster">
<title>cluster_separated/1&#45;counter/presentation/src</title>
<path fill="#ffffff" stroke="black" stroke-width="2" d="M44,-32C44,-32 348.03,-32 348.03,-32 354.03,-32 360.03,-38 360.03,-44 360.03,-44 360.03,-170 360.03,-170 360.03,-176 354.03,-182 348.03,-182 348.03,-182 44,-182 44,-182 38,-182 32,-176 32,-170 32,-170 32,-44 32,-44 32,-38 38,-32 44,-32"/>
<text text-anchor="middle" x="196.01" y="-169.9" font-family="Helvetica,sans-Serif" font-weight="bold" font-size="9.00">src</text>
</g>
<g id="clust8" class="cluster">
<title>cluster_separated/1&#45;counter/presentation/src/handlers</title>
<path fill="#ffffff" stroke="black" stroke-width="2" d="M251.01,-40C251.01,-40 340.03,-40 340.03,-40 346.03,-40 352.03,-46 352.03,-52 352.03,-52 352.03,-143 352.03,-143 352.03,-149 346.03,-155 340.03,-155 340.03,-155 251.01,-155 251.01,-155 245.01,-155 239.01,-149 239.01,-143 239.01,-143 239.01,-52 239.01,-52 239.01,-46 245.01,-40 251.01,-40"/>
<text text-anchor="middle" x="295.52" y="-142.9" font-family="Helvetica,sans-Serif" font-weight="bold" font-size="9.00">handlers</text>
</g>
<g id="clust9" class="cluster">
<title>cluster_separated/1&#45;counter/presentation/src/init</title>
<path fill="#ffffff" stroke="black" stroke-width="2" d="M52,-71C52,-71 98,-71 98,-71 104,-71 110,-77 110,-83 110,-83 110,-112 110,-112 110,-118 104,-124 98,-124 98,-124 52,-124 52,-124 46,-124 40,-118 40,-112 40,-112 40,-83 40,-83 40,-77 46,-71 52,-71"/>
<text text-anchor="middle" x="75" y="-111.9" font-family="Helvetica,sans-Serif" font-weight="bold" font-size="9.00">init</text>
</g>
<g id="clust10" class="cluster">
<title>cluster_separated/1&#45;counter/presentation/src/listeners</title>
<path fill="#ffffff" stroke="black" stroke-width="2" d="M130,-40C130,-40 219.01,-40 219.01,-40 225.01,-40 231.01,-46 231.01,-52 231.01,-52 231.01,-143 231.01,-143 231.01,-149 225.01,-155 219.01,-155 219.01,-155 130,-155 130,-155 124,-155 118,-149 118,-143 118,-143 118,-52 118,-52 118,-46 124,-40 130,-40"/>
<text text-anchor="middle" x="174.51" y="-142.9" font-family="Helvetica,sans-Serif" font-weight="bold" font-size="9.00">listeners</text>
</g>
<!-- separated/1&#45;counter/business&#45;logic/get.js -->
<g id="node1" class="node">
<title>separated/1&#45;counter/business&#45;logic/get.js</title>
<g id="a_node1"><a xlink:href="separated/1-counter/business-logic/get.js" xlink:title="get.js">
<path fill="#ffffcc" stroke="black" d="M452.33,-121.3C452.33,-121.3 410.73,-121.3 410.73,-121.3 407.63,-121.3 404.53,-118.2 404.53,-115.1 404.53,-115.1 404.53,-108.9 404.53,-108.9 404.53,-105.8 407.63,-102.7 410.73,-102.7 410.73,-102.7 452.33,-102.7 452.33,-102.7 455.43,-102.7 458.53,-105.8 458.53,-108.9 458.53,-108.9 458.53,-115.1 458.53,-115.1 458.53,-118.2 455.43,-121.3 452.33,-121.3"/>
<text text-anchor="middle" x="431.53" y="-109.3" font-family="Helvetica,sans-Serif" font-size="9.00">get.js</text>
</a>
</g>
</g>
<!-- separated/1&#45;counter/data&#45;access/find.js -->
<g id="node2" class="node">
<title>separated/1&#45;counter/data&#45;access/find.js</title>
<g id="a_node2"><a xlink:href="separated/1-counter/data-access/find.js" xlink:title="find.js">
<polygon fill="#ffffcc" stroke="black" points="557.04,-90.3 555.49,-92.37 544.64,-92.37 543.09,-90.3 503.04,-90.3 503.04,-71.7 557.04,-71.7 557.04,-90.3"/>
<text text-anchor="middle" x="530.04" y="-78.3" font-family="Helvetica,sans-Serif" font-size="9.00">find.js</text>
</a>
</g>
</g>
<!-- separated/1&#45;counter/business&#45;logic/get.js&#45;&gt;separated/1&#45;counter/data&#45;access/find.js -->
<g id="edge1" class="edge">
<title>separated/1&#45;counter/business&#45;logic/get.js&#45;&gt;separated/1&#45;counter/data&#45;access/find.js</title>
<path fill="none" stroke="#000000" stroke-width="2" stroke-opacity="0.200000" d="M458.69,-104.65C467.71,-102.03 477.85,-98.99 487.04,-96 490.44,-94.9 493.97,-93.7 497.49,-92.49"/>
<polygon fill="#000000" fill-opacity="0.200000" stroke="#000000" stroke-width="2" stroke-opacity="0.200000" points="498.38,-94.4 503.35,-90.44 497,-90.44 498.38,-94.4"/>
</g>
<!-- separated/1&#45;counter/business&#45;logic/initialize&#45;state.js -->
<g id="node3" class="node">
<title>separated/1&#45;counter/business&#45;logic/initialize&#45;state.js</title>
<g id="a_node3"><a xlink:href="separated/1-counter/business-logic/initialize-state.js" xlink:title="initialize&#45;state.js">
<path fill="#ffffcc" stroke="black" d="M465.33,-152.3C465.33,-152.3 397.73,-152.3 397.73,-152.3 394.63,-152.3 391.53,-149.2 391.53,-146.1 391.53,-146.1 391.53,-139.9 391.53,-139.9 391.53,-136.8 394.63,-133.7 397.73,-133.7 397.73,-133.7 465.33,-133.7 465.33,-133.7 468.43,-133.7 471.53,-136.8 471.53,-139.9 471.53,-139.9 471.53,-146.1 471.53,-146.1 471.53,-149.2 468.43,-152.3 465.33,-152.3"/>
<text text-anchor="middle" x="431.53" y="-140.3" font-family="Helvetica,sans-Serif" font-size="9.00">initialize&#45;state.js</text>
</a>
</g>
</g>
<!-- separated/1&#45;counter/data&#45;access/load.js -->
<g id="node4" class="node">
<title>separated/1&#45;counter/data&#45;access/load.js</title>
<g id="a_node4"><a xlink:href="separated/1-counter/data-access/load.js" xlink:title="load.js">
<polygon fill="#ffffcc" stroke="black" points="557.04,-121.3 555.49,-123.37 544.64,-123.37 543.09,-121.3 503.04,-121.3 503.04,-102.7 557.04,-102.7 557.04,-121.3"/>
<text text-anchor="middle" x="530.04" y="-109.3" font-family="Helvetica,sans-Serif" font-size="9.00">load.js</text>
</a>
</g>
</g>
<!-- separated/1&#45;counter/business&#45;logic/initialize&#45;state.js&#45;&gt;separated/1&#45;counter/data&#45;access/load.js -->
<g id="edge2" class="edge">
<title>separated/1&#45;counter/business&#45;logic/initialize&#45;state.js&#45;&gt;separated/1&#45;counter/data&#45;access/load.js</title>
<path fill="none" stroke="#000000" stroke-width="2" stroke-opacity="0.200000" d="M465.48,-133.66C472.62,-131.54 480.1,-129.26 487.04,-127 490.44,-125.9 493.97,-124.7 497.49,-123.49"/>
<polygon fill="#000000" fill-opacity="0.200000" stroke="#000000" stroke-width="2" stroke-opacity="0.200000" points="498.38,-125.4 503.35,-121.44 497,-121.44 498.38,-125.4"/>
</g>
<!-- separated/1&#45;counter/data/count.js -->
<g id="node5" class="node">
<title>separated/1&#45;counter/data/count.js</title>
<g id="a_node5"><a xlink:href="separated/1-counter/data/count.js" xlink:title="count.js">
<path fill="#ffffcc" stroke="black" d="M550.84,-182.3C550.84,-182.3 509.24,-182.3 509.24,-182.3 506.14,-182.3 503.04,-179.2 503.04,-176.1 503.04,-176.1 503.04,-169.9 503.04,-169.9 503.04,-166.8 506.14,-163.7 509.24,-163.7 509.24,-163.7 550.84,-163.7 550.84,-163.7 553.94,-163.7 557.04,-166.8 557.04,-169.9 557.04,-169.9 557.04,-176.1 557.04,-176.1 557.04,-179.2 553.94,-182.3 550.84,-182.3"/>
<text text-anchor="middle" x="530.04" y="-170.3" font-family="Helvetica,sans-Serif" font-size="9.00">count.js</text>
</a>
</g>
</g>
<!-- separated/1&#45;counter/business&#45;logic/initialize&#45;state.js&#45;&gt;separated/1&#45;counter/data/count.js -->
<g id="edge3" class="edge">
<title>separated/1&#45;counter/business&#45;logic/initialize&#45;state.js&#45;&gt;separated/1&#45;counter/data/count.js</title>
<path fill="none" stroke="#000000" stroke-width="2" stroke-opacity="0.200000" d="M462.54,-152.33C473.46,-155.72 485.85,-159.57 496.95,-163.02"/>
<polygon fill="#000000" fill-opacity="0.200000" stroke="#000000" stroke-width="2" stroke-opacity="0.200000" points="496.61,-165.12 502.96,-164.89 497.86,-161.11 496.61,-165.12"/>
</g>
<!-- separated/1&#45;counter/business&#45;logic/step.js -->
<g id="node6" class="node">
<title>separated/1&#45;counter/business&#45;logic/step.js</title>
<g id="a_node6"><a xlink:href="separated/1-counter/business-logic/step.js" xlink:title="step.js">
<path fill="#ffffcc" stroke="black" d="M452.33,-90.3C452.33,-90.3 410.73,-90.3 410.73,-90.3 407.63,-90.3 404.53,-87.2 404.53,-84.1 404.53,-84.1 404.53,-77.9 404.53,-77.9 404.53,-74.8 407.63,-71.7 410.73,-71.7 410.73,-71.7 452.33,-71.7 452.33,-71.7 455.43,-71.7 458.53,-74.8 458.53,-77.9 458.53,-77.9 458.53,-84.1 458.53,-84.1 458.53,-87.2 455.43,-90.3 452.33,-90.3"/>
<text text-anchor="middle" x="431.53" y="-78.3" font-family="Helvetica,sans-Serif" font-size="9.00">step.js</text>
</a>
</g>
</g>
<!-- separated/1&#45;counter/business&#45;logic/step.js&#45;&gt;separated/1&#45;counter/data&#45;access/find.js -->
<g id="edge4" class="edge">
<title>separated/1&#45;counter/business&#45;logic/step.js&#45;&gt;separated/1&#45;counter/data&#45;access/find.js</title>
<path fill="none" stroke="#000000" stroke-width="2" stroke-opacity="0.200000" d="M458.65,-81C470.34,-81 484.25,-81 496.6,-81"/>
<polygon fill="#000000" fill-opacity="0.200000" stroke="#000000" stroke-width="2" stroke-opacity="0.200000" points="496.9,-83.1 502.9,-81 496.9,-78.9 496.9,-83.1"/>
</g>
<!-- separated/1&#45;counter/data&#45;access/save.js -->
<g id="node7" class="node">
<title>separated/1&#45;counter/data&#45;access/save.js</title>
<g id="a_node7"><a xlink:href="separated/1-counter/data-access/save.js" xlink:title="save.js">
<polygon fill="#ffffcc" stroke="black" points="557.04,-59.3 555.49,-61.37 544.64,-61.37 543.09,-59.3 503.04,-59.3 503.04,-40.7 557.04,-40.7 557.04,-59.3"/>
<text text-anchor="middle" x="530.04" y="-47.3" font-family="Helvetica,sans-Serif" font-size="9.00">save.js</text>
</a>
</g>
</g>
<!-- separated/1&#45;counter/business&#45;logic/step.js&#45;&gt;separated/1&#45;counter/data&#45;access/save.js -->
<g id="edge5" class="edge">
<title>separated/1&#45;counter/business&#45;logic/step.js&#45;&gt;separated/1&#45;counter/data&#45;access/save.js</title>
<path fill="none" stroke="#000000" stroke-width="2" stroke-opacity="0.200000" d="M458.69,-73.65C467.71,-71.03 477.85,-67.99 487.04,-65 490.44,-63.9 493.97,-62.7 497.49,-61.49"/>
<polygon fill="#000000" fill-opacity="0.200000" stroke="#000000" stroke-width="2" stroke-opacity="0.200000" points="498.38,-63.4 503.35,-59.44 497,-59.44 498.38,-63.4"/>
</g>
<!-- separated/1&#45;counter/business&#45;logic/update&#45;increment.js -->
<g id="node8" class="node">
<title>separated/1&#45;counter/business&#45;logic/update&#45;increment.js</title>
<g id="a_node8"><a xlink:href="separated/1-counter/business-logic/update-increment.js" xlink:title="update&#45;increment.js">
<path fill="#ffffcc" stroke="black" d="M472.85,-59.3C472.85,-59.3 390.22,-59.3 390.22,-59.3 387.12,-59.3 384.02,-56.2 384.02,-53.1 384.02,-53.1 384.02,-46.9 384.02,-46.9 384.02,-43.8 387.12,-40.7 390.22,-40.7 390.22,-40.7 472.85,-40.7 472.85,-40.7 475.95,-40.7 479.05,-43.8 479.05,-46.9 479.05,-46.9 479.05,-53.1 479.05,-53.1 479.05,-56.2 475.95,-59.3 472.85,-59.3"/>
<text text-anchor="middle" x="431.53" y="-47.3" font-family="Helvetica,sans-Serif" font-size="9.00">update&#45;increment.js</text>
</a>
</g>
</g>
<!-- separated/1&#45;counter/business&#45;logic/update&#45;increment.js&#45;&gt;separated/1&#45;counter/data&#45;access/save.js -->
<g id="edge6" class="edge">
<title>separated/1&#45;counter/business&#45;logic/update&#45;increment.js&#45;&gt;separated/1&#45;counter/data&#45;access/save.js</title>
<path fill="none" stroke="#000000" stroke-width="2" stroke-opacity="0.200000" d="M479.09,-50C485.11,-50 491.16,-50 496.87,-50"/>
<polygon fill="#000000" fill-opacity="0.200000" stroke="#000000" stroke-width="2" stroke-opacity="0.200000" points="496.92,-52.1 502.92,-50 496.92,-47.9 496.92,-52.1"/>
</g>
<!-- separated/1&#45;counter/presentation/src/handlers/change&#45;increment.js -->
<g id="node9" class="node">
<title>separated/1&#45;counter/presentation/src/handlers/change&#45;increment.js</title>
<g id="a_node9"><a xlink:href="separated/1-counter/presentation/src/handlers/change-increment.js" xlink:title="change&#45;increment.js">
<path fill="#ffffcc" stroke="black" d="M337.83,-66.3C337.83,-66.3 253.21,-66.3 253.21,-66.3 250.11,-66.3 247.01,-63.2 247.01,-60.1 247.01,-60.1 247.01,-53.9 247.01,-53.9 247.01,-50.8 250.11,-47.7 253.21,-47.7 253.21,-47.7 337.83,-47.7 337.83,-47.7 340.93,-47.7 344.03,-50.8 344.03,-53.9 344.03,-53.9 344.03,-60.1 344.03,-60.1 344.03,-63.2 340.93,-66.3 337.83,-66.3"/>
<text text-anchor="middle" x="295.52" y="-54.3" font-family="Helvetica,sans-Serif" font-size="9.00">change&#45;increment.js</text>
</a>
</g>
</g>
<!-- separated/1&#45;counter/presentation/src/handlers/change&#45;increment.js&#45;&gt;separated/1&#45;counter/business&#45;logic/update&#45;increment.js -->
<g id="edge7" class="edge">
<title>separated/1&#45;counter/presentation/src/handlers/change&#45;increment.js&#45;&gt;separated/1&#45;counter/business&#45;logic/update&#45;increment.js</title>
<path fill="none" stroke="#000000" stroke-width="2" stroke-opacity="0.200000" d="M344.14,-54.51C355.06,-53.94 366.73,-53.33 377.85,-52.75"/>
<polygon fill="#000000" fill-opacity="0.200000" stroke="#000000" stroke-width="2" stroke-opacity="0.200000" points="378.08,-54.84 383.96,-52.43 377.86,-50.65 378.08,-54.84"/>
</g>
<!-- separated/1&#45;counter/presentation/src/handlers/initialize&#45;app.js -->
<g id="node10" class="node">
<title>separated/1&#45;counter/presentation/src/handlers/initialize&#45;app.js</title>
<g id="a_node10"><a xlink:href="separated/1-counter/presentation/src/handlers/initialize-app.js" xlink:title="initialize&#45;app.js">
<path fill="#ffffcc" stroke="black" d="M326.82,-128.3C326.82,-128.3 264.22,-128.3 264.22,-128.3 261.12,-128.3 258.02,-125.2 258.02,-122.1 258.02,-122.1 258.02,-115.9 258.02,-115.9 258.02,-112.8 261.12,-109.7 264.22,-109.7 264.22,-109.7 326.82,-109.7 326.82,-109.7 329.92,-109.7 333.02,-112.8 333.02,-115.9 333.02,-115.9 333.02,-122.1 333.02,-122.1 333.02,-125.2 329.92,-128.3 326.82,-128.3"/>
<text text-anchor="middle" x="295.52" y="-116.3" font-family="Helvetica,sans-Serif" font-size="9.00">initialize&#45;app.js</text>
</a>
</g>
</g>
<!-- separated/1&#45;counter/presentation/src/handlers/initialize&#45;app.js&#45;&gt;separated/1&#45;counter/business&#45;logic/get.js -->
<g id="edge8" class="edge">
<title>separated/1&#45;counter/presentation/src/handlers/initialize&#45;app.js&#45;&gt;separated/1&#45;counter/business&#45;logic/get.js</title>
<path fill="none" stroke="#000000" stroke-width="2" stroke-opacity="0.200000" d="M333.14,-117.09C353.42,-116.03 378.41,-114.72 398,-113.7"/>
<polygon fill="#000000" fill-opacity="0.200000" stroke="#000000" stroke-width="2" stroke-opacity="0.200000" points="398.27,-115.79 404.16,-113.38 398.05,-111.59 398.27,-115.79"/>
</g>
<!-- separated/1&#45;counter/presentation/src/handlers/initialize&#45;app.js&#45;&gt;separated/1&#45;counter/business&#45;logic/initialize&#45;state.js -->
<g id="edge9" class="edge">
<title>separated/1&#45;counter/presentation/src/handlers/initialize&#45;app.js&#45;&gt;separated/1&#45;counter/business&#45;logic/initialize&#45;state.js</title>
<path fill="none" stroke="#000000" stroke-width="2" stroke-opacity="0.200000" d="M333.14,-125.56C349.29,-128.45 368.43,-131.88 385.45,-134.93"/>
<polygon fill="#000000" fill-opacity="0.200000" stroke="#000000" stroke-width="2" stroke-opacity="0.200000" points="385.34,-137.04 391.61,-136.03 386.08,-132.91 385.34,-137.04"/>
</g>
<!-- separated/1&#45;counter/presentation/src/handlers/step.js -->
<g id="node11" class="node">
<title>separated/1&#45;counter/presentation/src/handlers/step.js</title>
<g id="a_node11"><a xlink:href="separated/1-counter/presentation/src/handlers/step.js" xlink:title="step.js">
<path fill="#ffffcc" stroke="black" d="M316.32,-97.3C316.32,-97.3 274.72,-97.3 274.72,-97.3 271.62,-97.3 268.52,-94.2 268.52,-91.1 268.52,-91.1 268.52,-84.9 268.52,-84.9 268.52,-81.8 271.62,-78.7 274.72,-78.7 274.72,-78.7 316.32,-78.7 316.32,-78.7 319.42,-78.7 322.52,-81.8 322.52,-84.9 322.52,-84.9 322.52,-91.1 322.52,-91.1 322.52,-94.2 319.42,-97.3 316.32,-97.3"/>
<text text-anchor="middle" x="295.52" y="-85.3" font-family="Helvetica,sans-Serif" font-size="9.00">step.js</text>
</a>
</g>
</g>
<!-- separated/1&#45;counter/presentation/src/handlers/step.js&#45;&gt;separated/1&#45;counter/business&#45;logic/step.js -->
<g id="edge10" class="edge">
<title>separated/1&#45;counter/presentation/src/handlers/step.js&#45;&gt;separated/1&#45;counter/business&#45;logic/step.js</title>
<path fill="none" stroke="#000000" stroke-width="2" stroke-opacity="0.200000" d="M322.68,-86.63C344.35,-85.5 375.25,-83.89 398.43,-82.68"/>
<polygon fill="#000000" fill-opacity="0.200000" stroke="#000000" stroke-width="2" stroke-opacity="0.200000" points="398.56,-84.77 404.44,-82.36 398.34,-80.58 398.56,-84.77"/>
</g>
<!-- separated/1&#45;counter/presentation/src/init/index.js -->
<g id="node12" class="node">
<title>separated/1&#45;counter/presentation/src/init/index.js</title>
<g id="a_node12"><a xlink:href="separated/1-counter/presentation/src/init/index.js" xlink:title="index.js">
<path fill="#ffffcc" stroke="black" d="M95.8,-97.3C95.8,-97.3 54.2,-97.3 54.2,-97.3 51.1,-97.3 48,-94.2 48,-91.1 48,-91.1 48,-84.9 48,-84.9 48,-81.8 51.1,-78.7 54.2,-78.7 54.2,-78.7 95.8,-78.7 95.8,-78.7 98.9,-78.7 102,-81.8 102,-84.9 102,-84.9 102,-91.1 102,-91.1 102,-94.2 98.9,-97.3 95.8,-97.3"/>
<text text-anchor="middle" x="75" y="-85.3" font-family="Helvetica,sans-Serif" font-size="9.00">index.js</text>
</a>
</g>
</g>
<!-- separated/1&#45;counter/presentation/src/listeners/change&#45;increment.js -->
<g id="node13" class="node">
<title>separated/1&#45;counter/presentation/src/listeners/change&#45;increment.js</title>
<g id="a_node13"><a xlink:href="separated/1-counter/presentation/src/listeners/change-increment.js" xlink:title="change&#45;increment.js">
<path fill="#ffffcc" stroke="black" d="M216.82,-66.3C216.82,-66.3 132.19,-66.3 132.19,-66.3 129.09,-66.3 125.99,-63.2 125.99,-60.1 125.99,-60.1 125.99,-53.9 125.99,-53.9 125.99,-50.8 129.09,-47.7 132.19,-47.7 132.19,-47.7 216.82,-47.7 216.82,-47.7 219.92,-47.7 223.02,-50.8 223.02,-53.9 223.02,-53.9 223.02,-60.1 223.02,-60.1 223.02,-63.2 219.92,-66.3 216.82,-66.3"/>
<text text-anchor="middle" x="174.51" y="-54.3" font-family="Helvetica,sans-Serif" font-size="9.00">change&#45;increment.js</text>
</a>
</g>
</g>
<!-- separated/1&#45;counter/presentation/src/init/index.js&#45;&gt;separated/1&#45;counter/presentation/src/listeners/change&#45;increment.js -->
<g id="edge11" class="edge">
<title>separated/1&#45;counter/presentation/src/init/index.js&#45;&gt;separated/1&#45;counter/presentation/src/listeners/change&#45;increment.js</title>
<path fill="none" stroke="#000000" stroke-width="2" stroke-opacity="0.200000" d="M101.68,-78.54C107.05,-76.65 112.69,-74.71 118,-73 123.19,-71.33 128.67,-69.64 134.1,-68.03"/>
<polygon fill="#000000" fill-opacity="0.200000" stroke="#000000" stroke-width="2" stroke-opacity="0.200000" points="134.78,-70.02 139.94,-66.31 133.59,-65.99 134.78,-70.02"/>
</g>
<!-- separated/1&#45;counter/presentation/src/listeners/load.js -->
<g id="node14" class="node">
<title>separated/1&#45;counter/presentation/src/listeners/load.js</title>
<g id="a_node14"><a xlink:href="separated/1-counter/presentation/src/listeners/load.js" xlink:title="load.js">
<path fill="#ffffcc" stroke="black" d="M195.31,-128.3C195.31,-128.3 153.71,-128.3 153.71,-128.3 150.61,-128.3 147.51,-125.2 147.51,-122.1 147.51,-122.1 147.51,-115.9 147.51,-115.9 147.51,-112.8 150.61,-109.7 153.71,-109.7 153.71,-109.7 195.31,-109.7 195.31,-109.7 198.41,-109.7 201.51,-112.8 201.51,-115.9 201.51,-115.9 201.51,-122.1 201.51,-122.1 201.51,-125.2 198.41,-128.3 195.31,-128.3"/>
<text text-anchor="middle" x="174.51" y="-116.3" font-family="Helvetica,sans-Serif" font-size="9.00">load.js</text>
</a>
</g>
</g>
<!-- separated/1&#45;counter/presentation/src/init/index.js&#45;&gt;separated/1&#45;counter/presentation/src/listeners/load.js -->
<g id="edge12" class="edge">
<title>separated/1&#45;counter/presentation/src/init/index.js&#45;&gt;separated/1&#45;counter/presentation/src/listeners/load.js</title>
<path fill="none" stroke="#000000" stroke-width="2" stroke-opacity="0.200000" d="M101.68,-97.46C107.05,-99.35 112.69,-101.29 118,-103 125.61,-105.45 133.86,-107.93 141.61,-110.17"/>
<polygon fill="#000000" fill-opacity="0.200000" stroke="#000000" stroke-width="2" stroke-opacity="0.200000" points="141.08,-112.21 147.43,-111.84 142.24,-108.17 141.08,-112.21"/>
</g>
<!-- separated/1&#45;counter/presentation/src/listeners/step.js -->
<g id="node15" class="node">
<title>separated/1&#45;counter/presentation/src/listeners/step.js</title>
<g id="a_node15"><a xlink:href="separated/1-counter/presentation/src/listeners/step.js" xlink:title="step.js">
<path fill="#ffffcc" stroke="black" d="M195.31,-97.3C195.31,-97.3 153.71,-97.3 153.71,-97.3 150.61,-97.3 147.51,-94.2 147.51,-91.1 147.51,-91.1 147.51,-84.9 147.51,-84.9 147.51,-81.8 150.61,-78.7 153.71,-78.7 153.71,-78.7 195.31,-78.7 195.31,-78.7 198.41,-78.7 201.51,-81.8 201.51,-84.9 201.51,-84.9 201.51,-91.1 201.51,-91.1 201.51,-94.2 198.41,-97.3 195.31,-97.3"/>
<text text-anchor="middle" x="174.51" y="-85.3" font-family="Helvetica,sans-Serif" font-size="9.00">step.js</text>
</a>
</g>
</g>
<!-- separated/1&#45;counter/presentation/src/init/index.js&#45;&gt;separated/1&#45;counter/presentation/src/listeners/step.js -->
<g id="edge13" class="edge">
<title>separated/1&#45;counter/presentation/src/init/index.js&#45;&gt;separated/1&#45;counter/presentation/src/listeners/step.js</title>
<path fill="none" stroke="#000000" stroke-width="2" stroke-opacity="0.200000" d="M102.13,-88C114.15,-88 128.53,-88 141.23,-88"/>
<polygon fill="#000000" fill-opacity="0.200000" stroke="#000000" stroke-width="2" stroke-opacity="0.200000" points="141.3,-90.1 147.3,-88 141.3,-85.9 141.3,-90.1"/>
</g>
<!-- separated/1&#45;counter/presentation/src/listeners/change&#45;increment.js&#45;&gt;separated/1&#45;counter/presentation/src/handlers/change&#45;increment.js -->
<g id="edge14" class="edge">
<title>separated/1&#45;counter/presentation/src/listeners/change&#45;increment.js&#45;&gt;separated/1&#45;counter/presentation/src/handlers/change&#45;increment.js</title>
<path fill="none" stroke="#000000" stroke-width="2" stroke-opacity="0.200000" d="M223.23,-57C228.93,-57 234.78,-57 240.55,-57"/>
<polygon fill="#000000" fill-opacity="0.200000" stroke="#000000" stroke-width="2" stroke-opacity="0.200000" points="240.79,-59.1 246.79,-57 240.79,-54.9 240.79,-59.1"/>
</g>
<!-- separated/1&#45;counter/presentation/src/listeners/load.js&#45;&gt;separated/1&#45;counter/presentation/src/handlers/initialize&#45;app.js -->
<g id="edge15" class="edge">
<title>separated/1&#45;counter/presentation/src/listeners/load.js&#45;&gt;separated/1&#45;counter/presentation/src/handlers/initialize&#45;app.js</title>
<path fill="none" stroke="#000000" stroke-width="2" stroke-opacity="0.200000" d="M201.62,-119C216.25,-119 234.85,-119 251.57,-119"/>
<polygon fill="#000000" fill-opacity="0.200000" stroke="#000000" stroke-width="2" stroke-opacity="0.200000" points="251.63,-121.1 257.63,-119 251.63,-116.9 251.63,-121.1"/>
</g>
<!-- separated/1&#45;counter/presentation/src/listeners/step.js&#45;&gt;separated/1&#45;counter/presentation/src/handlers/step.js -->
<g id="edge16" class="edge">
<title>separated/1&#45;counter/presentation/src/listeners/step.js&#45;&gt;separated/1&#45;counter/presentation/src/handlers/step.js</title>
<path fill="none" stroke="#000000" stroke-width="2" stroke-opacity="0.200000" d="M201.62,-88C219.45,-88 243.19,-88 262.21,-88"/>
<polygon fill="#000000" fill-opacity="0.200000" stroke="#000000" stroke-width="2" stroke-opacity="0.200000" points="262.46,-90.1 268.46,-88 262.46,-85.9 262.46,-90.1"/>
</g>
</g>
</svg>
