<?xml version="1.0" encoding="UTF-8" standalone="no"?>
<!DOCTYPE svg PUBLIC "-//W3C//DTD SVG 1.1//EN"
 "http://www.w3.org/Graphics/SVG/1.1/DTD/svg11.dtd">
<!-- Generated by graphviz version 2.44.0 (20200408.0750)
 -->
<!-- Title: dependency&#45;cruiser output Pages: 1 -->
<svg width="217pt" height="298pt"
 viewBox="0.00 0.00 216.51 298.00" xmlns="http://www.w3.org/2000/svg" xmlns:xlink="http://www.w3.org/1999/xlink">
<g id="graph0" class="graph" transform="scale(1 1) rotate(0) translate(4 294)">
<title>dependency&#45;cruiser output</title>
<polygon fill="white" stroke="transparent" points="-4,4 -4,-294 212.51,-294 212.51,4 -4,4"/>
<g id="clust1" class="cluster">
<title>cluster_function&#45;roles</title>
<path fill="#ffffff" stroke="black" stroke-width="2" d="M20,-8C20,-8 188.51,-8 188.51,-8 194.51,-8 200.51,-14 200.51,-20 200.51,-20 200.51,-270 200.51,-270 200.51,-276 194.51,-282 188.51,-282 188.51,-282 20,-282 20,-282 14,-282 8,-276 8,-270 8,-270 8,-20 8,-20 8,-14 14,-8 20,-8"/>
<text text-anchor="middle" x="104.25" y="-269.9" font-family="Helvetica,sans-Serif" font-weight="bold" font-size="9.00">function&#45;roles</text>
</g>
<g id="clust2" class="cluster">
<title>cluster_function&#45;roles/1&#45;utils</title>
<path fill="#ffffff" stroke="black" stroke-width="2" d="M118.99,-67C118.99,-67 180.51,-67 180.51,-67 186.51,-67 192.51,-73 192.51,-79 192.51,-79 192.51,-108 192.51,-108 192.51,-114 186.51,-120 180.51,-120 180.51,-120 118.99,-120 118.99,-120 112.99,-120 106.99,-114 106.99,-108 106.99,-108 106.99,-79 106.99,-79 106.99,-73 112.99,-67 118.99,-67"/>
<text text-anchor="middle" x="149.75" y="-107.9" font-family="Helvetica,sans-Serif" font-weight="bold" font-size="9.00">1&#45;utils</text>
</g>
<g id="clust3" class="cluster">
<title>cluster_function&#45;roles/2&#45;data&#45;access</title>
<path fill="#ffffff" stroke="black" stroke-width="2" d="M28,-16C28,-16 86.99,-16 86.99,-16 92.99,-16 98.99,-22 98.99,-28 98.99,-28 98.99,-243 98.99,-243 98.99,-249 92.99,-255 86.99,-255 86.99,-255 28,-255 28,-255 22,-255 16,-249 16,-243 16,-243 16,-28 16,-28 16,-22 22,-16 28,-16"/>
<text text-anchor="middle" x="57.5" y="-242.9" font-family="Helvetica,sans-Serif" font-weight="bold" font-size="9.00">2&#45;data&#45;access</text>
</g>
<!-- function&#45;roles/1&#45;utils/deep&#45;clone.js -->
<g id="node1" class="node">
<title>function&#45;roles/1&#45;utils/deep&#45;clone.js</title>
<g id="a_node1"><a xlink:href="function-roles/1-utils/deep-clone.js" xlink:title="deep&#45;clone.js">
<path fill="#ffffcc" stroke="black" d="M178.06,-93.3C178.06,-93.3 121.44,-93.3 121.44,-93.3 118.34,-93.3 115.23,-90.2 115.23,-87.1 115.23,-87.1 115.23,-80.9 115.23,-80.9 115.23,-77.8 118.34,-74.7 121.44,-74.7 121.44,-74.7 178.06,-74.7 178.06,-74.7 181.16,-74.7 184.26,-77.8 184.26,-80.9 184.26,-80.9 184.26,-87.1 184.26,-87.1 184.26,-90.2 181.16,-93.3 178.06,-93.3"/>
<text text-anchor="middle" x="149.75" y="-81.3" font-family="Helvetica,sans-Serif" font-size="9.00">deep&#45;clone.js</text>
</a>
</g>
</g>
<!-- function&#45;roles/2&#45;data&#45;access/find&#45;all.js -->
<g id="node2" class="node">
<title>function&#45;roles/2&#45;data&#45;access/find&#45;all.js</title>
<g id="a_node2"><a xlink:href="function-roles/2-data-access/find-all.js" xlink:title="find&#45;all.js">
<path fill="#ffffcc" stroke="black" d="M78.3,-104.3C78.3,-104.3 36.7,-104.3 36.7,-104.3 33.6,-104.3 30.5,-101.2 30.5,-98.1 30.5,-98.1 30.5,-91.9 30.5,-91.9 30.5,-88.8 33.6,-85.7 36.7,-85.7 36.7,-85.7 78.3,-85.7 78.3,-85.7 81.4,-85.7 84.5,-88.8 84.5,-91.9 84.5,-91.9 84.5,-98.1 84.5,-98.1 84.5,-101.2 81.4,-104.3 78.3,-104.3"/>
<text text-anchor="middle" x="57.5" y="-92.3" font-family="Helvetica,sans-Serif" font-size="9.00">find&#45;all.js</text>
</a>
</g>
</g>
<!-- function&#45;roles/2&#45;data&#45;access/find&#45;all.js&#45;&gt;function&#45;roles/1&#45;utils/deep&#45;clone.js -->
<g id="edge1" class="edge">
<title>function&#45;roles/2&#45;data&#45;access/find&#45;all.js&#45;&gt;function&#45;roles/1&#45;utils/deep&#45;clone.js</title>
<path fill="none" stroke="#000000" stroke-width="2" stroke-opacity="0.200000" d="M84.6,-91.82C92.15,-90.9 100.57,-89.87 108.76,-88.87"/>
<polygon fill="#000000" fill-opacity="0.200000" stroke="#000000" stroke-width="2" stroke-opacity="0.200000" points="109.26,-90.93 114.96,-88.12 108.75,-86.76 109.26,-90.93"/>
</g>
<!-- function&#45;roles/store.js -->
<g id="node3" class="node">
<title>function&#45;roles/store.js</title>
<g id="a_node3"><a xlink:href="function-roles/store.js" xlink:title="store.js">
<path fill="#ffffcc" stroke="black" d="M170.55,-146.3C170.55,-146.3 128.95,-146.3 128.95,-146.3 125.85,-146.3 122.75,-143.2 122.75,-140.1 122.75,-140.1 122.75,-133.9 122.75,-133.9 122.75,-130.8 125.85,-127.7 128.95,-127.7 128.95,-127.7 170.55,-127.7 170.55,-127.7 173.65,-127.7 176.75,-130.8 176.75,-133.9 176.75,-133.9 176.75,-140.1 176.75,-140.1 176.75,-143.2 173.65,-146.3 170.55,-146.3"/>
<text text-anchor="middle" x="149.75" y="-134.3" font-family="Helvetica,sans-Serif" font-size="9.00">store.js</text>
</a>
</g>
</g>
<!-- function&#45;roles/2&#45;data&#45;access/find&#45;all.js&#45;&gt;function&#45;roles/store.js -->
<g id="edge2" class="edge">
<title>function&#45;roles/2&#45;data&#45;access/find&#45;all.js&#45;&gt;function&#45;roles/store.js</title>
<path fill="none" stroke="#000000" stroke-width="2" stroke-opacity="0.200000" d="M84.62,-102.61C89.7,-104.82 94.76,-107.58 98.99,-111 103.98,-115.03 101.9,-119.1 106.99,-123 110.02,-125.32 113.46,-127.26 117.02,-128.89"/>
<polygon fill="#000000" fill-opacity="0.200000" stroke="#000000" stroke-width="2" stroke-opacity="0.200000" points="116.34,-130.89 122.69,-131.21 117.93,-127 116.34,-130.89"/>
</g>
<!-- function&#45;roles/2&#45;data&#45;access/find.js -->
<g id="node4" class="node">
<title>function&#45;roles/2&#45;data&#45;access/find.js</title>
<g id="a_node4"><a xlink:href="function-roles/2-data-access/find.js" xlink:title="find.js">
<path fill="#ffffcc" stroke="black" d="M78.3,-73.3C78.3,-73.3 36.7,-73.3 36.7,-73.3 33.6,-73.3 30.5,-70.2 30.5,-67.1 30.5,-67.1 30.5,-60.9 30.5,-60.9 30.5,-57.8 33.6,-54.7 36.7,-54.7 36.7,-54.7 78.3,-54.7 78.3,-54.7 81.4,-54.7 84.5,-57.8 84.5,-60.9 84.5,-60.9 84.5,-67.1 84.5,-67.1 84.5,-70.2 81.4,-73.3 78.3,-73.3"/>
<text text-anchor="middle" x="57.5" y="-61.3" font-family="Helvetica,sans-Serif" font-size="9.00">find.js</text>
</a>
</g>
</g>
<!-- function&#45;roles/2&#45;data&#45;access/find.js&#45;&gt;function&#45;roles/1&#45;utils/deep&#45;clone.js -->
<g id="edge3" class="edge">
<title>function&#45;roles/2&#45;data&#45;access/find.js&#45;&gt;function&#45;roles/1&#45;utils/deep&#45;clone.js</title>
<path fill="none" stroke="#000000" stroke-width="2" stroke-opacity="0.200000" d="M84.6,-69.78C92.15,-71.46 100.57,-73.32 108.76,-75.14"/>
<polygon fill="#000000" fill-opacity="0.200000" stroke="#000000" stroke-width="2" stroke-opacity="0.200000" points="108.65,-77.27 114.96,-76.51 109.56,-73.16 108.65,-77.27"/>
</g>
<!-- function&#45;roles/2&#45;data&#45;access/find.js&#45;&gt;function&#45;roles/store.js -->
<g id="edge4" class="edge">
<title>function&#45;roles/2&#45;data&#45;access/find.js&#45;&gt;function&#45;roles/store.js</title>
<path fill="none" stroke="#000000" stroke-width="2" stroke-opacity="0.200000" d="M84.57,-69.85C90.02,-72.19 95.24,-75.45 98.99,-80 111.36,-95 94.24,-108.33 106.99,-123 109.69,-126.1 113.09,-128.52 116.79,-130.4"/>
<polygon fill="#000000" fill-opacity="0.200000" stroke="#000000" stroke-width="2" stroke-opacity="0.200000" points="116.03,-132.36 122.37,-132.79 117.68,-128.5 116.03,-132.36"/>
</g>
<!-- function&#45;roles/2&#45;data&#45;access/insert.js -->
<g id="node5" class="node">
<title>function&#45;roles/2&#45;data&#45;access/insert.js</title>
<g id="a_node5"><a xlink:href="function-roles/2-data-access/insert.js" xlink:title="insert.js">
<path fill="#ffffcc" stroke="black" d="M78.3,-42.3C78.3,-42.3 36.7,-42.3 36.7,-42.3 33.6,-42.3 30.5,-39.2 30.5,-36.1 30.5,-36.1 30.5,-29.9 30.5,-29.9 30.5,-26.8 33.6,-23.7 36.7,-23.7 36.7,-23.7 78.3,-23.7 78.3,-23.7 81.4,-23.7 84.5,-26.8 84.5,-29.9 84.5,-29.9 84.5,-36.1 84.5,-36.1 84.5,-39.2 81.4,-42.3 78.3,-42.3"/>
<text text-anchor="middle" x="57.5" y="-30.3" font-family="Helvetica,sans-Serif" font-size="9.00">insert.js</text>
</a>
</g>
</g>
<!-- function&#45;roles/2&#45;data&#45;access/insert.js&#45;&gt;function&#45;roles/1&#45;utils/deep&#45;clone.js -->
<g id="edge5" class="edge">
<title>function&#45;roles/2&#45;data&#45;access/insert.js&#45;&gt;function&#45;roles/1&#45;utils/deep&#45;clone.js</title>
<path fill="none" stroke="#000000" stroke-width="2" stroke-opacity="0.200000" d="M84.62,-42.26C89.49,-44.29 94.47,-46.56 98.99,-49 110.6,-55.26 122.72,-63.74 132.1,-70.79"/>
<polygon fill="#000000" fill-opacity="0.200000" stroke="#000000" stroke-width="2" stroke-opacity="0.200000" points="130.96,-72.56 137,-74.53 133.51,-69.22 130.96,-72.56"/>
</g>
<!-- function&#45;roles/2&#45;data&#45;access/insert.js&#45;&gt;function&#45;roles/store.js -->
<g id="edge6" class="edge">
<title>function&#45;roles/2&#45;data&#45;access/insert.js&#45;&gt;function&#45;roles/store.js</title>
<path fill="none" stroke="#000000" stroke-width="2" stroke-opacity="0.200000" d="M84.82,-38.65C90.26,-40.99 95.42,-44.31 98.99,-49 119.04,-75.31 86.26,-97.23 106.99,-123 109.63,-126.28 113.07,-128.8 116.84,-130.73"/>
<polygon fill="#000000" fill-opacity="0.200000" stroke="#000000" stroke-width="2" stroke-opacity="0.200000" points="116.2,-132.74 122.55,-133.16 117.85,-128.88 116.2,-132.74"/>
</g>
<!-- function&#45;roles/2&#45;data&#45;access/load.js -->
<g id="node6" class="node">
<title>function&#45;roles/2&#45;data&#45;access/load.js</title>
<g id="a_node6"><a xlink:href="function-roles/2-data-access/load.js" xlink:title="load.js">
<path fill="#ffffcc" stroke="black" d="M78.3,-166.3C78.3,-166.3 36.7,-166.3 36.7,-166.3 33.6,-166.3 30.5,-163.2 30.5,-160.1 30.5,-160.1 30.5,-153.9 30.5,-153.9 30.5,-150.8 33.6,-147.7 36.7,-147.7 36.7,-147.7 78.3,-147.7 78.3,-147.7 81.4,-147.7 84.5,-150.8 84.5,-153.9 84.5,-153.9 84.5,-160.1 84.5,-160.1 84.5,-163.2 81.4,-166.3 78.3,-166.3"/>
<text text-anchor="middle" x="57.5" y="-154.3" font-family="Helvetica,sans-Serif" font-size="9.00">load.js</text>
</a>
</g>
</g>
<!-- function&#45;roles/2&#45;data&#45;access/load.js&#45;&gt;function&#45;roles/1&#45;utils/deep&#45;clone.js -->
<g id="edge7" class="edge">
<title>function&#45;roles/2&#45;data&#45;access/load.js&#45;&gt;function&#45;roles/1&#45;utils/deep&#45;clone.js</title>
<path fill="none" stroke="#000000" stroke-width="2" stroke-opacity="0.200000" d="M84.58,-151.16C90.03,-148.82 95.25,-145.56 98.99,-141 111.6,-125.64 93.82,-111.88 106.99,-97 107.93,-95.94 108.96,-94.96 110.05,-94.06"/>
<polygon fill="#000000" fill-opacity="0.200000" stroke="#000000" stroke-width="2" stroke-opacity="0.200000" points="111.4,-95.69 115.23,-90.61 109.07,-92.19 111.4,-95.69"/>
</g>
<!-- function&#45;roles/2&#45;data&#45;access/load.js&#45;&gt;function&#45;roles/store.js -->
<g id="edge8" class="edge">
<title>function&#45;roles/2&#45;data&#45;access/load.js&#45;&gt;function&#45;roles/store.js</title>
<path fill="none" stroke="#000000" stroke-width="2" stroke-opacity="0.200000" d="M84.6,-151.22C94.61,-149 106.15,-146.44 116.66,-144.11"/>
<polygon fill="#000000" fill-opacity="0.200000" stroke="#000000" stroke-width="2" stroke-opacity="0.200000" points="117.3,-146.12 122.7,-142.77 116.39,-142.02 117.3,-146.12"/>
</g>
<!-- function&#45;roles/2&#45;data&#45;access/remove&#45;all.js -->
<g id="node7" class="node">
<title>function&#45;roles/2&#45;data&#45;access/remove&#45;all.js</title>
<g id="a_node7"><a xlink:href="function-roles/2-data-access/remove-all.js" xlink:title="remove&#45;all.js">
<path fill="#ffffcc" stroke="black" d="M84.79,-197.3C84.79,-197.3 30.2,-197.3 30.2,-197.3 27.1,-197.3 24,-194.2 24,-191.1 24,-191.1 24,-184.9 24,-184.9 24,-181.8 27.1,-178.7 30.2,-178.7 30.2,-178.7 84.79,-178.7 84.79,-178.7 87.89,-178.7 90.99,-181.8 90.99,-184.9 90.99,-184.9 90.99,-191.1 90.99,-191.1 90.99,-194.2 87.89,-197.3 84.79,-197.3"/>
<text text-anchor="middle" x="57.5" y="-185.3" font-family="Helvetica,sans-Serif" font-size="9.00">remove&#45;all.js</text>
</a>
</g>
</g>
<!-- function&#45;roles/2&#45;data&#45;access/remove&#45;all.js&#45;&gt;function&#45;roles/store.js -->
<g id="edge9" class="edge">
<title>function&#45;roles/2&#45;data&#45;access/remove&#45;all.js&#45;&gt;function&#45;roles/store.js</title>
<path fill="none" stroke="#000000" stroke-width="2" stroke-opacity="0.200000" d="M85.05,-178.56C89.78,-176.58 94.6,-174.37 98.99,-172 110.6,-165.74 122.72,-157.26 132.1,-150.21"/>
<polygon fill="#000000" fill-opacity="0.200000" stroke="#000000" stroke-width="2" stroke-opacity="0.200000" points="133.51,-151.78 137,-146.47 130.96,-148.44 133.51,-151.78"/>
</g>
<!-- function&#45;roles/2&#45;data&#45;access/remove.js -->
<g id="node8" class="node">
<title>function&#45;roles/2&#45;data&#45;access/remove.js</title>
<g id="a_node8"><a xlink:href="function-roles/2-data-access/remove.js" xlink:title="remove.js">
<path fill="#ffffcc" stroke="black" d="M78.8,-228.3C78.8,-228.3 36.2,-228.3 36.2,-228.3 33.1,-228.3 30,-225.2 30,-222.1 30,-222.1 30,-215.9 30,-215.9 30,-212.8 33.1,-209.7 36.2,-209.7 36.2,-209.7 78.8,-209.7 78.8,-209.7 81.9,-209.7 85,-212.8 85,-215.9 85,-215.9 85,-222.1 85,-222.1 85,-225.2 81.9,-228.3 78.8,-228.3"/>
<text text-anchor="middle" x="57.5" y="-216.3" font-family="Helvetica,sans-Serif" font-size="9.00">remove.js</text>
</a>
</g>
</g>
<!-- function&#45;roles/2&#45;data&#45;access/remove.js&#45;&gt;function&#45;roles/store.js -->
<g id="edge10" class="edge">
<title>function&#45;roles/2&#45;data&#45;access/remove.js&#45;&gt;function&#45;roles/store.js</title>
<path fill="none" stroke="#000000" stroke-width="2" stroke-opacity="0.200000" d="M85.32,-210.82C90.13,-208.7 94.9,-206.11 98.99,-203 117.34,-189.04 132.26,-166.6 140.82,-151.83"/>
<polygon fill="#000000" fill-opacity="0.200000" stroke="#000000" stroke-width="2" stroke-opacity="0.200000" points="142.77,-152.65 143.89,-146.39 139.11,-150.59 142.77,-152.65"/>
</g>
<!-- function&#45;roles/2&#45;data&#45;access/save.js -->
<g id="node9" class="node">
<title>function&#45;roles/2&#45;data&#45;access/save.js</title>
<g id="a_node9"><a xlink:href="function-roles/2-data-access/save.js" xlink:title="save.js">
<path fill="#ffffcc" stroke="black" d="M78.3,-135.3C78.3,-135.3 36.7,-135.3 36.7,-135.3 33.6,-135.3 30.5,-132.2 30.5,-129.1 30.5,-129.1 30.5,-122.9 30.5,-122.9 30.5,-119.8 33.6,-116.7 36.7,-116.7 36.7,-116.7 78.3,-116.7 78.3,-116.7 81.4,-116.7 84.5,-119.8 84.5,-122.9 84.5,-122.9 84.5,-129.1 84.5,-129.1 84.5,-132.2 81.4,-135.3 78.3,-135.3"/>
<text text-anchor="middle" x="57.5" y="-123.3" font-family="Helvetica,sans-Serif" font-size="9.00">save.js</text>
</a>
</g>
</g>
<!-- function&#45;roles/2&#45;data&#45;access/save.js&#45;&gt;function&#45;roles/1&#45;utils/deep&#45;clone.js -->
<g id="edge11" class="edge">
<title>function&#45;roles/2&#45;data&#45;access/save.js&#45;&gt;function&#45;roles/1&#45;utils/deep&#45;clone.js</title>
<path fill="none" stroke="#000000" stroke-width="2" stroke-opacity="0.200000" d="M84.72,-118.5C89.79,-116.29 94.82,-113.5 98.99,-110 104.19,-105.64 101.64,-101.16 106.99,-97 107.74,-96.42 108.52,-95.86 109.32,-95.33"/>
<polygon fill="#000000" fill-opacity="0.200000" stroke="#000000" stroke-width="2" stroke-opacity="0.200000" points="110.69,-96.97 114.86,-92.17 108.6,-93.32 110.69,-96.97"/>
</g>
<!-- function&#45;roles/2&#45;data&#45;access/save.js&#45;&gt;function&#45;roles/store.js -->
<g id="edge12" class="edge">
<title>function&#45;roles/2&#45;data&#45;access/save.js&#45;&gt;function&#45;roles/store.js</title>
<path fill="none" stroke="#000000" stroke-width="2" stroke-opacity="0.200000" d="M84.6,-129.18C94.61,-130.4 106.15,-131.81 116.66,-133.09"/>
<polygon fill="#000000" fill-opacity="0.200000" stroke="#000000" stroke-width="2" stroke-opacity="0.200000" points="116.49,-135.18 122.7,-133.83 117,-131.01 116.49,-135.18"/>
</g>
</g>
</svg>
